<svg xmlns="http://www.w3.org/2000/svg" width="180" height="180" viewBox="0 0 180 180">
  <g id="_10" data-name="10" transform="translate(-710 -5226)">
    <circle id="Ellipse_6160" data-name="Ellipse 6160" cx="90" cy="90" r="90" transform="translate(710 5226)" fill="#20cb7d"/>
    <g id="Group_146980" data-name="Group 146980" transform="translate(519.87 5144.001)">
      <path id="Path_253916" data-name="Path 253916" d="M317.744,165.934a1.322,1.322,0,0,0,1.277.869l18.12.036,18.122.036a1.324,1.324,0,0,0,1.28-.864c1.259-3.824,6.224-19.557,6.958-32.106h0c.011-5.641-6.18-10.226-13.828-10.241l-24.89-.05c-7.648-.015-13.857,4.546-13.869,10.186h0C311.6,146.353,316.5,162.1,317.744,165.934Z" transform="translate(-41.895 -5.607)" fill="#bf6c0d"/>
      <path id="Path_253917" data-name="Path 253917" d="M349.67,123.663l-24.889-.05c-7.649-.015-13.858,4.546-13.869,10.186h0q.042.792.108,1.6l.006.077q.064.788.147,1.589c0,.034.006.067.01.1q.085.8.186,1.611l.009.077c1.436,11.414,5.282,23.752,6.364,27.081a1.322,1.322,0,0,0,1.277.869l18.12.036,18.122.036a1.435,1.435,0,0,0,.284-.031l-2.635-.005L334.79,166.8a1.321,1.321,0,0,1-1.276-.869,181.179,181.179,0,0,1-5.175-19.792,4.728,4.728,0,0,1,4.646-5.628H362.8c.331-2.246.578-4.474.7-6.61h0C363.511,128.263,357.319,123.678,349.67,123.663Z" transform="translate(-41.895 -5.607)" fill="#a56021"/>
      <path id="Path_253918" data-name="Path 253918" d="M390.981,181.362a1.577,1.577,0,0,1-1.455-2.184,63.873,63.873,0,0,0,4.817-18,1.577,1.577,0,0,1,3.147.218,66.07,66.07,0,0,1-5.051,18.991A1.58,1.58,0,0,1,390.981,181.362Z" transform="translate(-79.787 -23.035)" fill="#e58d23"/>
      <path id="Path_253919" data-name="Path 253919" d="M262.823,232H228.861a4.731,4.731,0,0,1-4.731-4.731V116.73A4.731,4.731,0,0,1,228.861,112h33.962Z" transform="translate(0 0)" fill="#8c4c17"/>
      <path id="Path_253920" data-name="Path 253920" d="M323.2,129.651a2.891,2.891,0,0,0,2.891-2.891V116.73A4.731,4.731,0,0,0,321.356,112H238.008a4.731,4.731,0,0,0-4.731,4.731V227.268A4.731,4.731,0,0,0,238.008,232h83.348a4.731,4.731,0,0,0,4.731-4.731V212.939a4.732,4.732,0,0,0-4.731-4.731H274.335a2.365,2.365,0,0,1-2.365-2.365V132.017a2.365,2.365,0,0,1,2.365-2.365Z" transform="translate(-4.416 0)" fill="#e58d23"/>
      <path id="Path_253921" data-name="Path 253921" d="M401.7,231.032h-5.555l5.456,15.236a1,1,0,0,1,.037.552,1.054,1.054,0,0,1-1.049.8H383.534V231.032H378.3v21.814h22.347a6.236,6.236,0,0,0,5.872-8.34Z" transform="translate(-74.429 -57.464)" fill="#bf6c0d"/>
      <path id="Path_253922" data-name="Path 253922" d="M413.13,242.78l-6.346-17.722a6.238,6.238,0,0,0-5.872-4.134h-16v30.2h22.347a6.236,6.236,0,0,0,5.872-8.34Zm-4.886,2.315a1.054,1.054,0,0,1-1.049.8H390.14V226.152h10.772a1.009,1.009,0,0,1,.949.669l6.346,17.722A1.012,1.012,0,0,1,408.244,245.095Z" transform="translate(-77.618 -52.584)" fill="#db9c2e"/>
      <path id="Path_253923" data-name="Path 253923" d="M413.13,242.78l-6.346-17.722a6.238,6.238,0,0,0-5.872-4.134h-16v30.2h22.347a6.236,6.236,0,0,0,5.872-8.34Zm-4.886,2.315a1.054,1.054,0,0,1-1.049.8H390.14V226.152h10.772a1.009,1.009,0,0,1,.949.669l6.346,17.722A1.012,1.012,0,0,1,408.244,245.095Z" transform="translate(-77.618 -52.584)" fill="#db9c2e"/>
      <path id="Path_253924" data-name="Path 253924" d="M413.13,242.78l-6.346-17.722a6.238,6.238,0,0,0-5.872-4.134h-16v30.2h22.347a6.236,6.236,0,0,0,5.872-8.34Zm-4.886,2.315a1.054,1.054,0,0,1-1.049.8H390.14V226.152h10.772a1.009,1.009,0,0,1,.949.669l6.346,17.722A1.012,1.012,0,0,1,408.244,245.095Z" transform="translate(-77.618 -52.584)" fill="#f9bb32"/>
      <path id="Path_253925" data-name="Path 253925" d="M404.252,245.891H390.14V226.152h10.772c.036,0,.071.005.107.008a40.025,40.025,0,0,0-2.938-5.237H384.911v30.2h17.444A20.134,20.134,0,0,0,404.252,245.891Z" transform="translate(-77.618 -52.584)" fill="#db9c2e"/>
      <path id="Path_253926" data-name="Path 253926" d="M356.282,220.923H317.523s-16.789,24.013,2.89,38.151a7.808,7.808,0,0,0,4.953,1.763h23.073a7.808,7.808,0,0,0,4.953-1.763C373.07,244.936,356.282,220.923,356.282,220.923Z" transform="translate(-41.865 -52.584)" fill="#ffeacf"/>
      <path id="Path_253927" data-name="Path 253927" d="M332.242,220.923H317.523s-16.789,24.014,2.89,38.152a7.813,7.813,0,0,0,4.953,1.762h14.719a7.815,7.815,0,0,1-4.953-1.762C315.453,244.936,332.242,220.923,332.242,220.923Z" transform="translate(-41.865 -52.584)" fill="#ffd59a"/>
      <path id="Path_253928" data-name="Path 253928" d="M329.013,260.575a3.87,3.87,0,0,1-2.473-.88l-.094-.076-.1-.07c-6.807-4.89-9.205-11.478-7.329-20.14a39.318,39.318,0,0,1,4.329-10.9h34.4a39.309,39.309,0,0,1,4.329,10.9c1.876,8.662-.521,15.25-7.329,20.14l-.1.07-.093.076a3.876,3.876,0,0,1-2.474.88Z" transform="translate(-45.511 -56.245)" fill="#a56021"/>
      <path id="Path_253929" data-name="Path 253929" d="M360.187,216.246H322.834a2.438,2.438,0,0,1-2.439-2.438v-.134a2.439,2.439,0,0,1,2.439-2.439h37.354a2.439,2.439,0,0,1,2.439,2.439v.134A2.438,2.438,0,0,1,360.187,216.246Z" transform="translate(-46.473 -47.907)" fill="#f9bb32"/>
      <path id="Path_253930" data-name="Path 253930" d="M336.959,259.619l-.1-.07c-6.807-4.89-9.205-11.478-7.329-20.14a39.32,39.32,0,0,1,4.329-10.9H323.348a39.32,39.32,0,0,0-4.329,10.9c-1.876,8.662.521,15.25,7.329,20.14l.1.07.094.076a3.87,3.87,0,0,0,2.473.88h10.513a3.87,3.87,0,0,1-2.473-.88Z" transform="translate(-45.511 -56.245)" fill="#8c4c17"/>
      <path id="Path_253931" data-name="Path 253931" d="M333.537,215.912v-.136a2.438,2.438,0,0,1,2.438-2.438H362.6a2.436,2.436,0,0,0-2.413-2.1H322.834a2.438,2.438,0,0,0-2.439,2.438v.136a2.438,2.438,0,0,0,2.439,2.437h10.729A2.383,2.383,0,0,1,333.537,215.912Z" transform="translate(-46.473 -47.908)" fill="#db9c2e"/>
      <path id="Path_253932" data-name="Path 253932" d="M375.4,265.064a1.577,1.577,0,0,1-.495-3.075c3.777-1.248,6.374-3.362,7.717-6.284,2.631-5.721-.2-12.746-.23-12.817a1.577,1.577,0,0,1,2.918-1.2c.139.339,3.375,8.379.178,15.333-1.723,3.751-4.952,6.429-9.593,7.962A1.578,1.578,0,0,1,375.4,265.064Z" transform="translate(-72.264 -62.137)" fill="#bf6c0d"/>
      <path id="Path_253933" data-name="Path 253933" d="M354.387,264.8a3.943,3.943,0,1,1-3.943-3.942A3.943,3.943,0,0,1,354.387,264.8Z" transform="translate(-59.076 -71.861)" fill="#8c4c17"/>
      <path id="Path_253934" data-name="Path 253934" d="M250.12,228.319a1.062,1.062,0,0,1-1.072-1.03c0-.007,0-.013,0-.021V116.73A4.732,4.732,0,0,1,253.778,112h-15.77a4.732,4.732,0,0,0-4.731,4.731V227.268a4.734,4.734,0,0,0,4.248,4.707c.159.015.32.023.484.023h83.349a4.731,4.731,0,0,0,4.61-3.68Z" transform="translate(-4.416 0)" fill="#bf6c0d"/>
      <g id="Group_146979" data-name="Group 146979" transform="translate(280.792 115.051)">
        <path id="Path_253935" data-name="Path 253935" d="M397.956,128.933a1.578,1.578,0,0,1-1.514-2.02c.527-1.8.429-3.18-.29-4.1-1.222-1.561-4.167-1.8-5.1-1.76a1.577,1.577,0,1,1-.132-3.151c.213-.009,5.254-.185,7.721,2.966,1.381,1.764,1.661,4.094.834,6.927A1.578,1.578,0,0,1,397.956,128.933Z" transform="translate(-360.58 -117.9)" fill="#ffa730"/>
        <path id="Path_253936" data-name="Path 253936" d="M398.069,313.937h-.032a1.578,1.578,0,0,1-1.546-1.608c.057-2.933-.535-4.994-1.714-5.958a3.19,3.19,0,0,0-2.41-.625,1.577,1.577,0,0,1-.688-3.078,6.323,6.323,0,0,1,5.094,1.262c1.984,1.622,2.95,4.469,2.872,8.461A1.577,1.577,0,0,1,398.069,313.937Z" transform="translate(-361.083 -207.045)" fill="#ffa730"/>
        <path id="Path_253937" data-name="Path 253937" d="M359,305.207H335.254a1.577,1.577,0,1,1,0-3.154H359a1.577,1.577,0,1,1,0,3.154Z" transform="translate(-333.677 -206.802)" fill="#ffa730"/>
      </g>
      <path id="Path_253938" data-name="Path 253938" d="M275.258,123.483a3.942,3.942,0,1,1-3.942-3.943A3.942,3.942,0,0,1,275.258,123.483Z" transform="translate(-20.876 -3.64)" fill="#bf6c0d"/>
      <path id="Path_253939" data-name="Path 253939" d="M297.027,136.566a3.943,3.943,0,1,1-3.943-3.943A3.943,3.943,0,0,1,297.027,136.566Z" transform="translate(-31.385 -9.956)" fill="#bf6c0d"/>
      <path id="Path_253940" data-name="Path 253940" d="M263.348,216.609h-.375a6.781,6.781,0,0,1-6.782-6.782V161.343a6.782,6.782,0,0,1,6.782-6.782h.375a6.781,6.781,0,0,1,6.781,6.782v48.485A6.781,6.781,0,0,1,263.348,216.609Z" transform="translate(-15.478 -20.547)" fill="#ff9079"/>
      <path id="Path_253941" data-name="Path 253941" d="M260.109,216.568v-60.78a6.779,6.779,0,0,0-3.918,6.147V210.42A6.78,6.78,0,0,0,260.109,216.568Z" transform="translate(-15.478 -21.14)" fill="#ff624b"/>
      <path id="Path_253942" data-name="Path 253942" d="M274.442,215a1.577,1.577,0,0,1-1.577-1.577V177.959a1.577,1.577,0,0,1,3.154,0V213.42A1.577,1.577,0,0,1,274.442,215Z" transform="translate(-23.527 -31.081)" fill="#ffeacf"/>
      <path id="Path_253943" data-name="Path 253943" d="M268.864,319.091H264.5a2.1,2.1,0,0,1-2.1-2.1v-7.274a2.1,2.1,0,0,1,2.1-2.1h4.362a2.1,2.1,0,0,1,2.1,2.1v7.274A2.1,2.1,0,0,1,268.864,319.091Z" transform="translate(-18.474 -94.433)" fill="#ffdf74"/>
      <path id="Path_253944" data-name="Path 253944" d="M263.1,319.055V308.639a2.094,2.094,0,0,0-.709,1.571v7.274A2.1,2.1,0,0,0,263.1,319.055Z" transform="translate(-18.473 -94.93)" fill="#ffd551"/>
    </g>
  </g>
</svg>
