<svg xmlns="http://www.w3.org/2000/svg" width="180" height="180" viewBox="0 0 180 180">
  <g id="_11" data-name="11" transform="translate(-1061 -5226.37)">
    <circle id="Ellipse_6161" data-name="Ellipse 6161" cx="90" cy="90" r="90" transform="translate(1061 5226.37)" fill="#20cb7d"/>
    <g id="Group_146981" data-name="Group 146981" transform="translate(812.997 5113.071)">
      <path id="Path_253945" data-name="Path 253945" d="M390.583,159.753H303.972a7.344,7.344,0,0,0-7.345,7.345v13.188h101.3V167.1A7.346,7.346,0,0,0,390.583,159.753Z" transform="translate(-8.937 -5.663)" fill="#bdbebf"/>
      <path id="Path_253946" data-name="Path 253946" d="M390.944,180.926H285.737A7.734,7.734,0,0,0,278,188.661v54.561a7.733,7.733,0,0,0,7.734,7.734H390.944a7.734,7.734,0,0,0,7.734-7.734V188.661A7.734,7.734,0,0,0,390.944,180.926Z" transform="translate(0 -15.823)" fill="#495059"/>
      <path id="Path_253947" data-name="Path 253947" d="M326.783,289.008V248.243h69.929v35.015l-57.339,25.264Z" transform="translate(-23.407 -48.125)" fill="#7eb9e7"/>
      <path id="Path_253948" data-name="Path 253948" d="M396.086,248.384H298.963a1.821,1.821,0,0,1,0-3.642h97.122a1.821,1.821,0,0,1,0,3.642Z" transform="translate(-9.184 -46.445)" fill="#343840"/>
      <path id="Path_253949" data-name="Path 253949" d="M339.373,336.35h-6.179a6.411,6.411,0,0,1-6.411-6.408V316.835l6.319-6.318a14.628,14.628,0,0,1,20.684,0l5.709,5.711-8.562,15.028Z" transform="translate(-23.407 -75.952)" fill="#ad8a71"/>
      <path id="Path_253950" data-name="Path 253950" d="M408.327,307.1v18.856a6.411,6.411,0,0,1-6.411,6.408H350.988l29.578-29.579a16.576,16.576,0,0,1,23.445,0Z" transform="translate(-35.022 -71.966)" fill="#caa488"/>
      <path id="Path_253951" data-name="Path 253951" d="M370.206,271.5a5.99,5.99,0,1,1-5.99-5.989A5.989,5.989,0,0,1,370.206,271.5Z" transform="translate(-38.495 -56.413)" fill="#f5be63"/>
      <path id="Path_253952" data-name="Path 253952" d="M484.727,199.214a3.506,3.506,0,1,1-3.505-3.5A3.506,3.506,0,0,1,484.727,199.214Z" transform="translate(-95.832 -22.916)" fill="#ec8b98"/>
      <path id="Path_253953" data-name="Path 253953" d="M484.727,223.339a3.506,3.506,0,1,1-3.505-3.506A3.506,3.506,0,0,1,484.727,223.339Z" transform="translate(-95.832 -34.492)" fill="#80d4ab"/>
      <path id="Path_253954" data-name="Path 253954" d="M390.573,147.952H332.922a6.139,6.139,0,0,0-6.139,6.138v25.39h69.929V154.09A6.139,6.139,0,0,0,390.573,147.952Z" transform="translate(-23.407 0)" fill="#eaebeb"/>
      <path id="Path_253955" data-name="Path 253955" d="M326.783,251.744h69.929v6.366H326.783Z" transform="translate(-23.407 -49.805)" fill="#73a8d3"/>
      <path id="Path_253956" data-name="Path 253956" d="M326.783,194.663h69.929v7.231H326.783Z" transform="translate(-23.407 -22.414)" fill="#d9dada"/>
    </g>
  </g>
</svg>
