<svg xmlns="http://www.w3.org/2000/svg" width="180" height="180" viewBox="0 0 180 180">
  <g id="_13" data-name="13" transform="translate(-710 -5753)">
    <circle id="Ellipse_6157" data-name="Ellipse 6157" cx="90" cy="90" r="90" transform="translate(710 5753)" fill="#20cb7d"/>
    <g id="Group_147042" data-name="Group 147042" transform="translate(492.088 5643)">
      <g id="Group_147038" data-name="Group 147038" transform="translate(292.936 140)">
        <g id="Group_147037" data-name="Group 147037">
          <path id="Path_253979" data-name="Path 253979" d="M326.368,146.438v67.1a1.757,1.757,0,0,1-1.758,1.758h-9.36a1.757,1.757,0,0,1-1.758-1.758v-67.1a6.438,6.438,0,0,1,12.876,0Z" transform="translate(-313.492 -140)" fill="#f9f05a"/>
          <g id="Group_147035" data-name="Group 147035" transform="translate(3.508)">
            <path id="Path_253980" data-name="Path 253980" d="M329.642,146.438v67.1a1.757,1.757,0,0,1-1.758,1.758h-5.859a1.757,1.757,0,0,0,1.758-1.758v-67.1a6.44,6.44,0,0,0-3.508-5.73,6.434,6.434,0,0,1,9.367,5.73Z" transform="translate(-320.275 -140)" fill="#ffc047"/>
          </g>
          <path id="Path_253981" data-name="Path 253981" d="M360.459,146.438v67.1a1.757,1.757,0,0,1-1.758,1.758h-9.36a1.757,1.757,0,0,1-1.758-1.758v-67.1a6.438,6.438,0,0,1,12.876,0Z" transform="translate(-329.95 -140)" fill="#f9f05a"/>
          <g id="Group_147036" data-name="Group 147036" transform="translate(21.142)">
            <path id="Path_253982" data-name="Path 253982" d="M363.733,146.438v67.1a1.757,1.757,0,0,1-1.758,1.758h-5.859a1.757,1.757,0,0,0,1.758-1.758v-67.1a6.44,6.44,0,0,0-3.508-5.73,6.434,6.434,0,0,1,9.367,5.73Z" transform="translate(-354.366 -140)" fill="#ffc047"/>
          </g>
          <path id="Path_253983" data-name="Path 253983" d="M355.841,300.62a.22.22,0,0,1-.152-.072Z" transform="translate(-333.863 -217.506)" fill="#f9f05a"/>
        </g>
      </g>
      <path id="Path_253984" data-name="Path 253984" d="M343.488,351.217v8.144a1.758,1.758,0,0,1-1.758,1.758h-11.6a1.758,1.758,0,0,1-1.758-1.758v-8.144a1.758,1.758,0,0,1,1.758-1.758h11.6a1.758,1.758,0,0,1,1.758,1.758Z" transform="translate(-27.739 -101.118)" fill="#b3c8dd"/>
      <path id="Path_253985" data-name="Path 253985" d="M350.487,351.217v8.144a1.758,1.758,0,0,1-1.758,1.758h-5.859a1.758,1.758,0,0,0,1.758-1.758v-8.144a1.758,1.758,0,0,0-1.758-1.758h5.859a1.758,1.758,0,0,1,1.758,1.758Z" transform="translate(-34.739 -101.118)" fill="#8aa5bc"/>
      <path id="Path_253986" data-name="Path 253986" d="M344.049,281.667l-6.611,7.753v24.05a5.383,5.383,0,0,1-5.379,5.378H312.308a5.383,5.383,0,0,1-5.379-5.378V289.42l-6.611-7.753a1.758,1.758,0,0,1,1.338-2.9h41.054a1.758,1.758,0,0,1,1.338,2.9Z" transform="translate(-13.993 -66.991)" fill="#b3c8dd"/>
      <path id="Path_253987" data-name="Path 253987" d="M367.763,279.79a1.756,1.756,0,0,1-.258,1.877l-6.611,7.753v24.05a5.383,5.383,0,0,1-5.379,5.378h-7.03a5.383,5.383,0,0,0,5.378-5.378V289.42l6.611-7.753a1.759,1.759,0,0,0-1.338-2.9h7.03A1.754,1.754,0,0,1,367.763,279.79Z" transform="translate(-37.449 -66.991)" fill="#8aa5bc"/>
      <path id="Path_253988" data-name="Path 253988" d="M344,299.361v24.05a5.383,5.383,0,0,1-5.379,5.378H318.871a5.383,5.383,0,0,1-5.379-5.378v-24.05Z" transform="translate(-20.556 -76.933)" fill="#d7f4ff"/>
      <path id="Path_253989" data-name="Path 253989" d="M353.863,299.361h7.031v24.05a5.383,5.383,0,0,1-5.379,5.378h-7.03a5.383,5.383,0,0,0,5.378-5.378Z" transform="translate(-37.449 -76.933)" fill="#bbdaea"/>
      <g id="Group_147039" data-name="Group 147039" transform="translate(289.142 227.332)">
        <path id="Path_253990" data-name="Path 253990" d="M342.5,322.539H307.915a1.758,1.758,0,0,0,0,3.515H342.5a1.758,1.758,0,1,0,0-3.515Z" transform="translate(-306.157 -315.454)" fill="#8aa5bc"/>
        <path id="Path_253991" data-name="Path 253991" d="M307.915,312.357H342.5a1.758,1.758,0,1,0,0-3.515H307.915a1.758,1.758,0,0,0,0,3.515Z" transform="translate(-306.157 -308.842)" fill="#8aa5bc"/>
        <path id="Path_253992" data-name="Path 253992" d="M342.5,336.181H307.915a1.758,1.758,0,0,0,0,3.516H342.5a1.758,1.758,0,1,0,0-3.516Z" transform="translate(-306.157 -322.04)" fill="#8aa5bc"/>
      </g>
      <g id="Group_147041" data-name="Group 147041" transform="translate(270.912 154.187)">
        <g id="Group_147040" data-name="Group 147040">
          <path id="Path_253993" data-name="Path 253993" d="M282.559,209.46A1.758,1.758,0,0,0,280.8,207.7H272.67a1.758,1.758,0,0,0,0,3.516H280.8A1.758,1.758,0,0,0,282.559,209.46Z" transform="translate(-270.912 -186.871)" fill="#f9f05a"/>
          <path id="Path_253994" data-name="Path 253994" d="M284.256,176.18a1.758,1.758,0,0,0,2.486-2.486l-5.75-5.75a1.758,1.758,0,1,0-2.485,2.486Z" transform="translate(-274.329 -167.429)" fill="#f9f05a"/>
          <path id="Path_253995" data-name="Path 253995" d="M285.038,237.375l-5.75,5.75a1.758,1.758,0,0,0,2.486,2.486l5.75-5.75a1.758,1.758,0,0,0-2.486-2.486Z" transform="translate(-274.707 -200.947)" fill="#f9f05a"/>
          <path id="Path_253996" data-name="Path 253996" d="M402.428,207.7H394.3a1.758,1.758,0,1,0,0,3.516h8.132a1.758,1.758,0,1,0,0-3.516Z" transform="translate(-329.628 -186.871)" fill="#f9f05a"/>
          <path id="Path_253997" data-name="Path 253997" d="M391.821,176.694a1.755,1.755,0,0,0,1.243-.515l5.75-5.75a1.758,1.758,0,0,0-2.486-2.486l-5.75,5.75a1.758,1.758,0,0,0,1.243,3Z" transform="translate(-328.434 -167.429)" fill="#f9f05a"/>
          <path id="Path_253998" data-name="Path 253998" d="M392.283,237.375a1.758,1.758,0,0,0-2.485,2.486l5.75,5.75a1.758,1.758,0,0,0,2.486-2.486Z" transform="translate(-328.056 -200.947)" fill="#f9f05a"/>
        </g>
      </g>
    </g>
  </g>
</svg>
