<svg xmlns="http://www.w3.org/2000/svg" width="180" height="180" viewBox="0 0 180 180">
  <g id="_14" data-name="14" transform="translate(-1061 -5753)">
    <circle id="Ellipse_6158" data-name="Ellipse 6158" cx="90" cy="90" r="90" transform="translate(1061 5753)" fill="#20cb7d"/>
    <g id="Group_147045" data-name="Group 147045" transform="translate(855.354 5636.726)">
      <path id="Path_253999" data-name="Path 253999" d="M275.432,186.233H241.553l-5.906-7.377h39.785Z" transform="translate(0 -14.86)" fill="#a5a5a4"/>
      <path id="Path_254000" data-name="Path 254000" d="M254.666,186.233h4.009c-.021-.037-.035-.076-.059-.112l-4.792-7.265H249.8Z" transform="translate(-6.792 -14.86)" fill="#bdc3c7"/>
      <path id="Path_254001" data-name="Path 254001" d="M292.122,169.794h23.724v16.8H292.122Z" transform="translate(-27.104 -10.511)" fill="#393f4a"/>
      <path id="Path_254002" data-name="Path 254002" d="M294.5,186.943h-9.8a12.882,12.882,0,0,1-12.882-12.882h0A12.882,12.882,0,0,1,284.7,161.179h9.8Z" transform="translate(-17.359 -6.376)" fill="#7f8284"/>
      <path id="Path_254003" data-name="Path 254003" d="M371.256,332.52H357.1a13.635,13.635,0,0,1-13.634-13.635v-.005l.008-15.269A10.275,10.275,0,0,0,333.2,293.332H333.2a10.274,10.274,0,0,0-10.274,10.274V330.84a1.68,1.68,0,1,1-3.359,0h0V303.606a13.634,13.634,0,0,1,13.633-13.633h0a13.633,13.633,0,0,1,13.63,13.636v0l-.008,15.268a10.274,10.274,0,0,0,10.27,10.279h14.165a10.287,10.287,0,0,0,10.275-10.268l.008-13.369a1.68,1.68,0,0,1,1.68-1.678h0a1.679,1.679,0,0,1,1.678,1.68h0l-.008,13.369a13.651,13.651,0,0,1-13.634,13.625Z" transform="translate(-40.273 -68.188)" fill="#393f4a"/>
      <path id="Path_254004" data-name="Path 254004" d="M439.63,326.883h-3.379a3.071,3.071,0,0,1-3.072-3.072h0V314.56H442.7v9.251A3.071,3.071,0,0,1,439.63,326.883Z" transform="translate(-94.801 -79.988)" fill="#c03a2b"/>
      <path id="Path_254005" data-name="Path 254005" d="M398.569,245.069H383.976l-5.6-23.712h20.2Z" transform="translate(-68.498 -35.257)" fill="#7f8284"/>
      <path id="Path_254006" data-name="Path 254006" d="M421.417,275.457H416.2a9.119,9.119,0,0,1-8.907-7.162L396.7,220.07h29.551l4.24,45.42a9.12,9.12,0,0,1-8.232,9.928c-.281.026-.564.039-.847.039Z" transform="translate(-77.296 -34.64)" fill="#e64c3c"/>
      <path id="Path_254007" data-name="Path 254007" d="M448.268,242.629c-5.472,3.574-7.981,9.818-7.981,16.929,0,8.395,3.933,15.584,11.111,18.594a9.132,9.132,0,0,0,.015-1.835" transform="translate(-98.212 -45.466)" fill="#393f4a"/>
      <path id="Path_254008" data-name="Path 254008" d="M404.211,196.815H353.222v-48.9h42.695a14.2,14.2,0,0,1,14.131,12.8l2.641,26.743a8.519,8.519,0,0,1-7.64,9.316q-.418.041-.838.042Z" transform="translate(-56.427 -0.008)" fill="#c03a2b"/>
      <g id="Group_147044" data-name="Group 147044" transform="translate(283.486 147.902)">
        <path id="Path_254009" data-name="Path 254009" d="M341.166,147.91h-7.39a6.143,6.143,0,0,0-6.143,6.143v30.2a6.143,6.143,0,0,0,2.653,5.056l10.879,7.507" transform="translate(-327.633 -147.91)" fill="#e64c3c"/>
        <path id="Path_254010" data-name="Path 254010" d="M408.375,196.812H385.04a1.68,1.68,0,1,1,0-3.359h23.335a1.68,1.68,0,0,1,0,3.359Z" transform="translate(-354.378 -169.767)" fill="#e64c3c"/>
        <path id="Path_254011" data-name="Path 254011" d="M411.02,210.274H385.04a1.68,1.68,0,1,1,0-3.359h25.98a1.68,1.68,0,0,1,0,3.359Z" transform="translate(-354.378 -176.228)" fill="#e64c3c"/>
        <path id="Path_254012" data-name="Path 254012" d="M413.666,223.736H385.04a1.68,1.68,0,1,1,0-3.359h28.626a1.68,1.68,0,1,1,0,3.359Z" transform="translate(-354.378 -182.689)" fill="#e64c3c"/>
      </g>
      <path id="Path_254013" data-name="Path 254013" d="M353.222,147.893h5.985v48.913h-5.985Z" transform="translate(-56.427)" fill="#393f4a"/>
    </g>
  </g>
</svg>
