<svg xmlns="http://www.w3.org/2000/svg" width="180" height="180" viewBox="0 0 180 180">
  <g id="_18" data-name="18" transform="translate(-710 -6823)">
    <circle id="Ellipse_6153" data-name="Ellipse 6153" cx="90" cy="90" r="90" transform="translate(710 6823)" fill="#20cb7d"/>
    <g id="Group_147139" data-name="Group 147139" transform="translate(467.765 6703.827)">
      <g id="Group_147137" data-name="Group 147137" transform="translate(272.235 163.721)">
        <g id="Group_147074" data-name="Group 147074">
          <path id="Path_254058" data-name="Path 254058" d="M389.284,163.721h-114.1a2.952,2.952,0,0,0-2.953,2.953v89.555a2.952,2.952,0,0,0,2.953,2.953H389.282a2.953,2.953,0,0,0,2.953-2.953V166.674A2.95,2.95,0,0,0,389.284,163.721Z" transform="translate(-272.235 -163.721)" fill="#b3b3b3"/>
        </g>
        <g id="Group_147075" data-name="Group 147075" transform="translate(7.177 2.46)">
          <path id="Path_254059" data-name="Path 254059" d="M286.111,168.477H391.758v93H286.111Z" transform="translate(-286.111 -168.477)" fill="#ccc"/>
        </g>
        <g id="Group_147076" data-name="Group 147076" transform="translate(7.177 2.46)">
          <path id="Path_254060" data-name="Path 254060" d="M286.111,168.477H391.758v14.4H286.111Z" transform="translate(-286.111 -168.477)" fill="#fff"/>
        </g>
        <g id="Group_147077" data-name="Group 147077" transform="translate(9.024 4.307)">
          <path id="Path_254061" data-name="Path 254061" d="M289.682,172.047H391.637v10.708H289.682Z" transform="translate(-289.682 -172.047)" fill="#515151"/>
        </g>
        <g id="Group_147078" data-name="Group 147078" transform="translate(12.186 20.798)">
          <path id="Path_254062" data-name="Path 254062" d="M342.889,203.93H298.762l-2.968,40.632h50.061Z" transform="translate(-295.794 -203.93)" fill="#fff"/>
        </g>
        <g id="Group_147079" data-name="Group 147079" transform="translate(62.898 20.798)">
          <path id="Path_254063" data-name="Path 254063" d="M393.837,203.93h42.419v40.632H393.837Z" transform="translate(-393.837 -203.93)" fill="#fff"/>
        </g>
        <g id="Group_147080" data-name="Group 147080" transform="translate(7.177 62.836)">
          <path id="Path_254064" data-name="Path 254064" d="M384.25,285.2H291.02l-4.909,30.68H389.159Z" transform="translate(-286.111 -285.203)" fill="#fff"/>
        </g>
        <g id="Group_147081" data-name="Group 147081" transform="translate(18.144 26.336)">
          <path id="Path_254065" data-name="Path 254065" d="M307.314,244.192l2.158-29.554H343.3l2.158,29.554Z" transform="translate(-307.314 -214.638)" fill="#3ab7fc"/>
        </g>
        <g id="Group_147104" data-name="Group 147104" transform="translate(16.766 64.75)">
          <g id="Group_147082" data-name="Group 147082">
            <path id="Path_254066" data-name="Path 254066" d="M346.3,314.636l-4.009-25.109a.74.74,0,0,0-.729-.622H309.4a.741.741,0,0,0-.73.622l-4.009,25.109a.739.739,0,0,0,.729.855h40.178A.739.739,0,0,0,346.3,314.636Z" transform="translate(-304.65 -288.905)" fill="#e6e6e6"/>
          </g>
          <g id="Group_147103" data-name="Group 147103" transform="translate(2.049 1.494)">
            <g id="Group_147087" data-name="Group 147087" transform="translate(0 17.336)">
              <g id="Group_147083" data-name="Group 147083">
                <path id="Path_254067" data-name="Path 254067" d="M317.166,325.311h-7.756l-.8,5.481h8.1Z" transform="translate(-308.612 -325.311)" fill="#ccc"/>
              </g>
              <g id="Group_147084" data-name="Group 147084" transform="translate(9.375)">
                <path id="Path_254068" data-name="Path 254068" d="M334.892,325.311h-7.755l-.4,5.481h8.1Z" transform="translate(-326.737 -325.311)" fill="#ccc"/>
              </g>
              <g id="Group_147085" data-name="Group 147085" transform="translate(18.751)">
                <path id="Path_254069" data-name="Path 254069" d="M352.618,325.311h-7.755v5.481h8.1Z" transform="translate(-344.863 -325.311)" fill="#ccc"/>
              </g>
              <g id="Group_147086" data-name="Group 147086" transform="translate(28.816)">
                <path id="Path_254070" data-name="Path 254070" d="M372.265,325.311h-7.943l.444,5.481h8.3Z" transform="translate(-364.322 -325.311)" fill="#ccc"/>
              </g>
            </g>
            <g id="Group_147092" data-name="Group 147092" transform="translate(1.011 10.959)">
              <g id="Group_147088" data-name="Group 147088">
                <path id="Path_254071" data-name="Path 254071" d="M318.638,312.982h-7.356l-.716,4.918h7.665Z" transform="translate(-310.566 -312.982)" fill="#ccc"/>
              </g>
              <g id="Group_147089" data-name="Group 147089" transform="translate(8.871)">
                <path id="Path_254072" data-name="Path 254072" d="M335.43,312.982h-7.356l-.358,4.918h7.663Z" transform="translate(-327.716 -312.982)" fill="#ccc"/>
              </g>
              <g id="Group_147090" data-name="Group 147090" transform="translate(17.74)">
                <path id="Path_254073" data-name="Path 254073" d="M352.22,312.982h-7.356l0,4.918h7.665Z" transform="translate(-344.863 -312.982)" fill="#ccc"/>
              </g>
              <g id="Group_147091" data-name="Group 147091" transform="translate(27.286)">
                <path id="Path_254074" data-name="Path 254074" d="M370.852,312.982h-7.534l.4,4.918h7.849Z" transform="translate(-363.318 -312.982)" fill="#638b3f"/>
              </g>
            </g>
            <g id="Group_147097" data-name="Group 147097" transform="translate(1.918 5.211)">
              <g id="Group_147093" data-name="Group 147093">
                <path id="Path_254075" data-name="Path 254075" d="M319.962,301.868h-6.994l-.647,4.438h7.273Z" transform="translate(-312.321 -301.868)" fill="#ccc"/>
              </g>
              <g id="Group_147094" data-name="Group 147094" transform="translate(8.417)">
                <path id="Path_254076" data-name="Path 254076" d="M335.911,301.868h-6.994l-.325,4.438h7.273Z" transform="translate(-328.593 -301.868)" fill="#ccc"/>
              </g>
              <g id="Group_147095" data-name="Group 147095" transform="translate(16.834)">
                <path id="Path_254077" data-name="Path 254077" d="M351.862,301.868h-6.994l0,4.438h7.273Z" transform="translate(-344.866 -301.868)" fill="#ccc"/>
              </g>
              <g id="Group_147096" data-name="Group 147096" transform="translate(25.911)">
                <path id="Path_254078" data-name="Path 254078" d="M369.578,301.868h-7.163l.36,4.438h7.45Z" transform="translate(-362.415 -301.868)" fill="#fc6"/>
              </g>
            </g>
            <g id="Group_147102" data-name="Group 147102" transform="translate(2.738)">
              <g id="Group_147098" data-name="Group 147098">
                <path id="Path_254079" data-name="Path 254079" d="M321.157,291.794H314.49l-.585,4.024h6.919Z" transform="translate(-313.905 -291.794)" fill="#ccc"/>
              </g>
              <g id="Group_147099" data-name="Group 147099" transform="translate(8.008)">
                <path id="Path_254080" data-name="Path 254080" d="M336.348,291.794H329.68l-.293,4.024h6.919Z" transform="translate(-329.387 -291.794)" fill="#ccc"/>
              </g>
              <g id="Group_147100" data-name="Group 147100" transform="translate(16.016)">
                <path id="Path_254081" data-name="Path 254081" d="M351.538,291.794H344.87v4.024h6.919Z" transform="translate(-344.87 -291.794)" fill="#ccc"/>
              </g>
              <g id="Group_147101" data-name="Group 147101" transform="translate(24.668)">
                <path id="Path_254082" data-name="Path 254082" d="M368.423,291.794H361.6l.328,4.024h7.086Z" transform="translate(-361.596 -291.794)" fill="#ed7161"/>
              </g>
            </g>
          </g>
        </g>
        <g id="Group_147105" data-name="Group 147105" transform="translate(65.648 30.015)">
          <path id="Path_254083" data-name="Path 254083" d="M399.155,221.75h16.251v19.5H399.155Z" transform="translate(-399.155 -221.75)" fill="#e6e6e6"/>
        </g>
        <g id="Group_147106" data-name="Group 147106" transform="translate(65.648 23.37)">
          <path id="Path_254084" data-name="Path 254084" d="M399.155,208.9h16.251v6.645H399.155Z" transform="translate(-399.155 -208.903)" fill="#e6e6e6"/>
        </g>
        <g id="Group_147107" data-name="Group 147107" transform="translate(65.648 28.859)">
          <path id="Path_254085" data-name="Path 254085" d="M399.155,219.514h16.251v1.157H399.155Z" transform="translate(-399.155 -219.514)" fill="#ccc"/>
        </g>
        <g id="Group_147108" data-name="Group 147108" transform="translate(66.944 29.22)">
          <path id="Path_254086" data-name="Path 254086" d="M401.66,220.213h13.661v.433H401.66Z" transform="translate(-401.66 -220.213)" fill="#88c057"/>
        </g>
        <g id="Group_147109" data-name="Group 147109" transform="translate(67.019 25.224)">
          <path id="Path_254087" data-name="Path 254087" d="M401.8,212.488h13.51v1.673H401.8Z" transform="translate(-401.805 -212.488)" fill="#666"/>
        </g>
        <g id="Group_147110" data-name="Group 147110" transform="translate(83.493 31.954)">
          <path id="Path_254088" data-name="Path 254088" d="M452.508,225.5H434.763a1.109,1.109,0,0,0-1.108,1.108v15.571a1.108,1.108,0,0,0,1.108,1.108H452.51a1.109,1.109,0,0,0,1.108-1.108V226.607a1.11,1.11,0,0,0-1.11-1.108Z" transform="translate(-433.655 -225.499)" fill="#e6e6e6"/>
        </g>
        <g id="Group_147119" data-name="Group 147119" transform="translate(14.331 32.734)">
          <g id="Group_147114" data-name="Group 147114">
            <g id="Group_147111" data-name="Group 147111" transform="translate(0 16.44)">
              <path id="Path_254089" data-name="Path 254089" d="M303.127,262.123h-3.186l.2-3.332H303.3Z" transform="translate(-299.941 -258.791)" fill="#e6e6e6"/>
            </g>
            <g id="Group_147112" data-name="Group 147112" transform="translate(0.51 8.038)">
              <path id="Path_254090" data-name="Path 254090" d="M304.043,245.733h-3.116l.189-3.186h3.09Z" transform="translate(-300.927 -242.547)" fill="#e6e6e6"/>
            </g>
            <g id="Group_147113" data-name="Group 147113" transform="translate(0.998)">
              <path id="Path_254091" data-name="Path 254091" d="M304.919,230.056H301.87l.184-3.049h3.022Z" transform="translate(-301.87 -227.007)" fill="#e6e6e6"/>
            </g>
          </g>
          <g id="Group_147118" data-name="Group 147118" transform="translate(41.57)">
            <g id="Group_147115" data-name="Group 147115" transform="translate(0.844 16.44)">
              <path id="Path_254092" data-name="Path 254092" d="M385.3,262.123h-3.188l-.172-3.332H385.1Z" transform="translate(-381.94 -258.791)" fill="#e6e6e6"/>
            </g>
            <g id="Group_147116" data-name="Group 147116" transform="translate(0.412 8.038)">
              <path id="Path_254093" data-name="Path 254093" d="M384.385,245.733h-3.116l-.163-3.186h3.09Z" transform="translate(-381.106 -242.547)" fill="#e6e6e6"/>
            </g>
            <g id="Group_147117" data-name="Group 147117">
              <path id="Path_254094" data-name="Path 254094" d="M383.513,230.056h-3.049l-.155-3.049h3.022Z" transform="translate(-380.309 -227.007)" fill="#e6e6e6"/>
            </g>
          </g>
        </g>
        <g id="Group_147128" data-name="Group 147128" transform="translate(85.093 41.301)">
          <g id="Group_147123" data-name="Group 147123">
            <g id="Group_147120" data-name="Group 147120">
              <path id="Path_254095" data-name="Path 254095" d="M436.747,243.57h4.761v2.46h-4.761Z" transform="translate(-436.747 -243.57)" fill="#ccc"/>
            </g>
            <g id="Group_147121" data-name="Group 147121" transform="translate(5.753)">
              <path id="Path_254096" data-name="Path 254096" d="M447.869,243.57h4.761v2.46h-4.761Z" transform="translate(-447.869 -243.57)" fill="#ccc"/>
            </g>
            <g id="Group_147122" data-name="Group 147122" transform="translate(11.507)">
              <path id="Path_254097" data-name="Path 254097" d="M458.994,243.57h4.761v2.46h-4.761Z" transform="translate(-458.994 -243.57)" fill="#ccc"/>
            </g>
          </g>
          <g id="Group_147127" data-name="Group 147127" transform="translate(0 3.741)">
            <g id="Group_147124" data-name="Group 147124">
              <path id="Path_254098" data-name="Path 254098" d="M436.747,250.8h4.761v2.46h-4.761Z" transform="translate(-436.747 -250.802)" fill="#ccc"/>
            </g>
            <g id="Group_147125" data-name="Group 147125" transform="translate(5.753)">
              <path id="Path_254099" data-name="Path 254099" d="M447.869,250.8h4.761v2.46h-4.761Z" transform="translate(-447.869 -250.802)" fill="#ccc"/>
            </g>
            <g id="Group_147126" data-name="Group 147126" transform="translate(11.507)">
              <path id="Path_254100" data-name="Path 254100" d="M458.994,250.8h4.761v2.46h-4.761Z" transform="translate(-458.994 -250.802)" fill="#ccc"/>
            </g>
          </g>
        </g>
        <g id="Group_147129" data-name="Group 147129" transform="translate(65.648 53.433)">
          <path id="Path_254101" data-name="Path 254101" d="M399.155,267.024h37.806V273.7H399.155Z" transform="translate(-399.155 -267.024)" fill="#ccc"/>
        </g>
        <g id="Group_147130" data-name="Group 147130" transform="translate(66.453 55.006)">
          <path id="Path_254102" data-name="Path 254102" d="M400.71,270.065h36.2v5.1h-36.2Z" transform="translate(-400.71 -270.065)" fill="#e6e6e6"/>
        </g>
        <g id="Group_147131" data-name="Group 147131" transform="translate(80.529 23.37)">
          <path id="Path_254103" data-name="Path 254103" d="M429.3,208.9l-1.372,1.854v1.673l1.372,1.961Z" transform="translate(-427.924 -208.903)" fill="#ccc"/>
        </g>
        <g id="Group_147132" data-name="Group 147132" transform="translate(65.648 23.37)">
          <path id="Path_254104" data-name="Path 254104" d="M399.155,208.9l1.371,1.854v1.673l-1.371,1.961Z" transform="translate(-399.155 -208.903)" fill="#ccc"/>
        </g>
        <g id="Group_147133" data-name="Group 147133" transform="translate(68.168 31.789)">
          <path id="Path_254105" data-name="Path 254105" d="M414.5,225.18h-9.735a.739.739,0,0,0-.739.739v14.475a.738.738,0,0,0,.739.739H414.5a.739.739,0,0,0,.739-.739V225.919a.741.741,0,0,0-.739-.739Z" transform="translate(-404.027 -225.18)" fill="#ed7161"/>
        </g>
        <g id="Group_147134" data-name="Group 147134" transform="translate(69.802 31.789)">
          <path id="Path_254106" data-name="Path 254106" d="M407.185,225.18h2.621v15.951h-2.621Z" transform="translate(-407.185 -225.18)" fill="#515151"/>
        </g>
        <g id="Group_147135" data-name="Group 147135" transform="translate(75.551 43.928)">
          <circle id="Ellipse_5965" data-name="Ellipse 5965" cx="1.35" cy="1.35" r="1.35" fill="#e6e6e6"/>
        </g>
        <g id="Group_147136" data-name="Group 147136" transform="translate(75.551 42.578)">
          <circle id="Ellipse_5966" data-name="Ellipse 5966" cx="1.35" cy="1.35" r="1.35" fill="#fff"/>
        </g>
      </g>
      <g id="Group_147138" data-name="Group 147138" transform="translate(347.851 196.915)">
        <path id="Path_254107" data-name="Path 254107" d="M420.995,229.365l-1.284-1.47-1.284,1.468h.651v2.419h1.269v-2.419Z" transform="translate(-418.426 -227.895)" fill="#515151"/>
      </g>
    </g>
  </g>
</svg>
