<svg xmlns="http://www.w3.org/2000/svg" xmlns:xlink="http://www.w3.org/1999/xlink" width="400" height="296.095" viewBox="0 0 400 296.095">
  <defs>
    <linearGradient id="linear-gradient" x1="0.5" x2="0.5" y2="1" gradientUnits="objectBoundingBox">
      <stop offset="0" stop-color="#d8ccec"/>
      <stop offset="1" stop-color="#c3fff8"/>
    </linearGradient>
  </defs>
  <g id="_5" data-name="5" transform="translate(-1020 -2396)">
    <g id="Group_145376" data-name="Group 145376" transform="translate(0 808)" opacity="0.26">
      <rect id="BG" width="400" height="296.095" rx="14" transform="translate(1020 1588)" fill="url(#linear-gradient)"/>
    </g>
    <g id="Group_146944" data-name="Group 146944" transform="translate(830.034 2288)">
      <path id="Path_253794" data-name="Path 253794" d="M415.586,164.62H364.414l9.869-13.158A3.658,3.658,0,0,1,377.207,150h25.587a3.658,3.658,0,0,1,2.924,1.462Z" fill="#3f5c6c"/>
      <path id="Path_253795" data-name="Path 253795" d="M415.586,164.62l24.857,18.642a1.829,1.829,0,0,1-1.1,3.29H340.655a1.828,1.828,0,0,1-1.1-3.29l24.855-18.642Z" fill="#2c3e50"/>
      <path id="Path_253796" data-name="Path 253796" d="M437.518,186.552l-21.932,62.137H364.414l-21.931-62.137Z" fill="#f0c419"/>
      <path id="Path_253797" data-name="Path 253797" d="M411.932,186.552l-14.621,62.137h-14.62l-14.622-62.137Z" fill="#f3d55b"/>
      <path id="Path_253798" data-name="Path 253798" d="M382.691,259.79h14.62v94.763h-14.62Z" fill="#3f5c6c"/>
      <path id="Path_253799" data-name="Path 253799" d="M368.069,347.38h43.863A14.621,14.621,0,0,1,426.552,362h-73.1A14.621,14.621,0,0,1,368.069,347.38Z" fill="#2c3e50"/>
      <path id="Path_253800" data-name="Path 253800" d="M379.035,347.38h21.931A14.621,14.621,0,0,1,415.586,362H364.414A14.62,14.62,0,0,1,379.035,347.38Z" fill="#35495e"/>
      <path id="Path_253801" data-name="Path 253801" d="M393.655,204.828h-7.309a3.656,3.656,0,0,1,0-7.311h7.309a3.656,3.656,0,1,1,0,7.311Z" fill="#f5efca"/>
      <path id="Path_253802" data-name="Path 253802" d="M393.655,219.448h-7.309a3.655,3.655,0,1,1,0-7.31h7.309a3.655,3.655,0,1,1,0,7.31Z" fill="#f5efca"/>
      <g id="Group_146943" data-name="Group 146943">
        <path id="Path_253803" data-name="Path 253803" d="M331.513,208.483A3.641,3.641,0,0,1,329.7,208L304.117,193.38a3.656,3.656,0,1,1,3.628-6.347l25.586,14.621a3.656,3.656,0,0,1-1.818,6.829Z" fill="#f3d55b"/>
        <path id="Path_253804" data-name="Path 253804" d="M305.935,252.345a3.656,3.656,0,0,1-1.818-6.829L329.7,230.9a3.655,3.655,0,0,1,3.626,6.347l-25.586,14.62A3.651,3.651,0,0,1,305.935,252.345Z" fill="#f3d55b"/>
        <path id="Path_253805" data-name="Path 253805" d="M327.863,223.1H298.621a3.654,3.654,0,1,1,0-7.309h29.242a3.654,3.654,0,1,1,0,7.309Z" fill="#f3d55b"/>
        <path id="Path_253806" data-name="Path 253806" d="M448.486,208.483a3.656,3.656,0,0,1-1.816-6.829l25.586-14.621a3.655,3.655,0,0,1,3.626,6.347L450.3,208A3.643,3.643,0,0,1,448.486,208.483Z" fill="#f3d55b"/>
        <path id="Path_253807" data-name="Path 253807" d="M474.066,252.345a3.646,3.646,0,0,1-1.81-.482l-25.586-14.62A3.655,3.655,0,1,1,450.3,230.9l25.586,14.62a3.655,3.655,0,0,1-1.816,6.829Z" fill="#f3d55b"/>
        <path id="Path_253808" data-name="Path 253808" d="M481.38,223.1H452.138a3.654,3.654,0,1,1,0-7.309H481.38a3.654,3.654,0,1,1,0,7.309Z" fill="#f3d55b"/>
      </g>
      <path id="Path_253809" data-name="Path 253809" d="M415.586,248.689l-18.275,18.277h-14.62l-18.277-18.277Z" fill="#2c3e50"/>
    </g>
  </g>
</svg>
