<svg xmlns="http://www.w3.org/2000/svg" width="171.157" height="212" viewBox="0 0 171.157 212">
  <g id="Grupo_150231" data-name="Grupo 150231" transform="translate(-2383.843 -4659.517)">
    <g id="Grupo_146966" data-name="Grupo 146966" transform="translate(1975 1119.517)">
      <g id="Grupo_146959" data-name="Grupo 146959" transform="translate(117.32 3390)">
        <path id="Trazado_253840" data-name="Trazado 253840" d="M311.353,150a19.853,19.853,0,0,0-19.83,19.83V342.171A19.853,19.853,0,0,0,311.353,362h57.053V150Z" fill="#efefef"/>
        <path id="Trazado_253841" data-name="Trazado 253841" d="M303.336,342.17V169.83A19.853,19.853,0,0,1,323.166,150H311.353a19.853,19.853,0,0,0-19.83,19.83V342.171A19.853,19.853,0,0,0,311.353,362h11.813A19.853,19.853,0,0,1,303.336,342.17Z" fill="#ddd"/>
        <path id="Trazado_253842" data-name="Trazado 253842" d="M313.361,161.063h0a10.054,10.054,0,0,0-10.025,10.024V194.55a10.055,10.055,0,0,0,10.025,10.025h0a10.055,10.055,0,0,0,10.025-10.025V171.087A10.054,10.054,0,0,0,313.361,161.063Z" fill="#535454"/>
        <path id="Trazado_253843" data-name="Trazado 253843" d="M313.361,194.549V171.087a10.046,10.046,0,0,1,5.012-8.669,10.033,10.033,0,0,0-15.037,8.669V194.55a10.032,10.032,0,0,0,15.037,8.669A10.046,10.046,0,0,1,313.361,194.549Z" fill="#444443"/>
        <path id="Trazado_253844" data-name="Trazado 253844" d="M442.85,150H368.4a19.853,19.853,0,0,0-19.83,19.83V342.171A19.852,19.852,0,0,0,368.4,362H442.85a19.852,19.852,0,0,0,19.83-19.829V169.83A19.852,19.852,0,0,0,442.85,150Z" fill="#535454"/>
        <path id="Trazado_253845" data-name="Trazado 253845" d="M359.56,342.17V169.83A19.853,19.853,0,0,1,379.39,150H368.4a19.853,19.853,0,0,0-19.83,19.83V342.171A19.852,19.852,0,0,0,368.4,362H379.39A19.853,19.853,0,0,1,359.56,342.17Z" fill="#444443"/>
        <path id="Trazado_253846" data-name="Trazado 253846" d="M451.693,342.17a8.843,8.843,0,0,1-8.843,8.843H368.4a8.843,8.843,0,0,1-8.843-8.843V169.83a8.843,8.843,0,0,1,8.843-8.843h9.278a3.309,3.309,0,0,1,3.309,3.309v2.1a5.135,5.135,0,0,0,5.119,5.119h39.033a5.135,5.135,0,0,0,5.119-5.119V163.36a2.372,2.372,0,0,1,2.373-2.373H442.85a8.843,8.843,0,0,1,8.843,8.843Z" fill="#a4d9f4"/>
        <path id="Trazado_253847" data-name="Trazado 253847" d="M370.112,342.17V169.83a8.839,8.839,0,0,1,8.058-8.8c-.514-.076.032-.023-9.765-.04a8.843,8.843,0,0,0-8.843,8.843V342.171a8.843,8.843,0,0,0,8.843,8.843h10.55A8.844,8.844,0,0,1,370.112,342.17Z" fill="#7cc9e8"/>
        <g id="Grupo_146957" data-name="Grupo 146957">
          <path id="Trazado_253848" data-name="Trazado 253848" d="M418.5,164.187H401.8a3.2,3.2,0,0,1,0-6.4h16.7a3.2,3.2,0,0,1,0,6.4Z" fill="#666"/>
          <path id="Trazado_253849" data-name="Trazado 253849" d="M389.961,163.648a3.2,3.2,0,1,1,2.4.477A5.158,5.158,0,0,1,389.961,163.648Z" fill="#666"/>
          <path id="Trazado_253850" data-name="Trazado 253850" d="M311.585,174.176a3.2,3.2,0,1,1,2.4.473A4.074,4.074,0,0,1,311.585,174.176Z" fill="#666"/>
        </g>
        <path id="Trazado_253851" data-name="Trazado 253851" d="M311.585,185.481a3.2,3.2,0,1,1,4.04-.4A3.587,3.587,0,0,1,311.585,185.481Z" fill="#f9d698"/>
        <path id="Trazado_253852" data-name="Trazado 253852" d="M311.585,196.78a3.2,3.2,0,1,1,4.04-.4A3.3,3.3,0,0,1,311.585,196.78Z" fill="#666"/>
        <path id="Trazado_253853" data-name="Trazado 253853" d="M380.148,197.271h-8.561a1.431,1.431,0,0,1-1.427-1.427v-8.561a1.431,1.431,0,0,1,1.427-1.427h8.561a1.431,1.431,0,0,1,1.427,1.427v8.561A1.431,1.431,0,0,1,380.148,197.271Z" fill="#70b5e8"/>
        <path id="Trazado_253854" data-name="Trazado 253854" d="M400.3,197.271h-8.561a1.431,1.431,0,0,1-1.427-1.427v-8.561a1.431,1.431,0,0,1,1.427-1.427H400.3a1.431,1.431,0,0,1,1.427,1.427v8.561A1.431,1.431,0,0,1,400.3,197.271Z" fill="#efefef"/>
        <path id="Trazado_253855" data-name="Trazado 253855" d="M420.458,197.271H411.9a1.431,1.431,0,0,1-1.427-1.427v-8.561a1.431,1.431,0,0,1,1.427-1.427h8.561a1.431,1.431,0,0,1,1.427,1.427v8.561A1.431,1.431,0,0,1,420.458,197.271Z" fill="#92b620"/>
        <path id="Trazado_253856" data-name="Trazado 253856" d="M440.613,197.271h-8.561a1.431,1.431,0,0,1-1.427-1.427v-8.561a1.431,1.431,0,0,1,1.427-1.427h8.561a1.431,1.431,0,0,1,1.427,1.427v8.561A1.431,1.431,0,0,1,440.613,197.271Z" fill="#898989"/>
        <path id="Trazado_253857" data-name="Trazado 253857" d="M380.148,217.625h-8.561a1.432,1.432,0,0,1-1.427-1.427v-8.561a1.431,1.431,0,0,1,1.427-1.427h8.561a1.431,1.431,0,0,1,1.427,1.427V216.2A1.432,1.432,0,0,1,380.148,217.625Z" fill="#92b620"/>
        <path id="Trazado_253858" data-name="Trazado 253858" d="M400.3,217.625h-8.561a1.432,1.432,0,0,1-1.427-1.427v-8.561a1.431,1.431,0,0,1,1.427-1.427H400.3a1.431,1.431,0,0,1,1.427,1.427V216.2A1.432,1.432,0,0,1,400.3,217.625Z" fill="#898989"/>
        <path id="Trazado_253859" data-name="Trazado 253859" d="M420.458,217.625H411.9a1.432,1.432,0,0,1-1.427-1.427v-8.561a1.431,1.431,0,0,1,1.427-1.427h8.561a1.431,1.431,0,0,1,1.427,1.427V216.2A1.432,1.432,0,0,1,420.458,217.625Z" fill="#70b5e8"/>
        <path id="Trazado_253860" data-name="Trazado 253860" d="M440.613,217.625h-8.561a1.432,1.432,0,0,1-1.427-1.427v-8.561a1.431,1.431,0,0,1,1.427-1.427h8.561a1.431,1.431,0,0,1,1.427,1.427V216.2A1.432,1.432,0,0,1,440.613,217.625Z" fill="#f94a46"/>
        <path id="Trazado_253861" data-name="Trazado 253861" d="M380.148,238.243h-8.561a1.431,1.431,0,0,1-1.427-1.427v-8.561a1.431,1.431,0,0,1,1.427-1.427h8.561a1.431,1.431,0,0,1,1.427,1.427v8.561A1.431,1.431,0,0,1,380.148,238.243Z" fill="#dda36f"/>
        <path id="Trazado_253862" data-name="Trazado 253862" d="M400.3,238.243h-8.561a1.431,1.431,0,0,1-1.427-1.427v-8.561a1.431,1.431,0,0,1,1.427-1.427H400.3a1.431,1.431,0,0,1,1.427,1.427v8.561A1.431,1.431,0,0,1,400.3,238.243Z" fill="#f9d698"/>
        <path id="Trazado_253863" data-name="Trazado 253863" d="M420.458,238.243H411.9a1.431,1.431,0,0,1-1.427-1.427v-8.561a1.431,1.431,0,0,1,1.427-1.427h8.561a1.431,1.431,0,0,1,1.427,1.427v8.561A1.431,1.431,0,0,1,420.458,238.243Z" fill="#898989"/>
        <path id="Trazado_253864" data-name="Trazado 253864" d="M440.613,238.243h-8.561a1.431,1.431,0,0,1-1.427-1.427v-8.561a1.431,1.431,0,0,1,1.427-1.427h8.561a1.431,1.431,0,0,1,1.427,1.427v8.561A1.431,1.431,0,0,1,440.613,238.243Z" fill="#f9d698"/>
        <g id="Grupo_146958" data-name="Grupo 146958">
          <path id="Trazado_253865" data-name="Trazado 253865" d="M380.148,258.6h-8.561a1.431,1.431,0,0,1-1.427-1.426v-8.562a1.431,1.431,0,0,1,1.427-1.426h8.561a1.431,1.431,0,0,1,1.427,1.426v8.562A1.431,1.431,0,0,1,380.148,258.6Z" fill="#70b5e8"/>
          <path id="Trazado_253866" data-name="Trazado 253866" d="M400.3,258.6h-8.561a1.431,1.431,0,0,1-1.427-1.426v-8.562a1.431,1.431,0,0,1,1.427-1.426H400.3a1.431,1.431,0,0,1,1.427,1.426v8.562A1.431,1.431,0,0,1,400.3,258.6Z" fill="#70b5e8"/>
        </g>
        <path id="Trazado_253867" data-name="Trazado 253867" d="M420.458,258.6H411.9a1.431,1.431,0,0,1-1.427-1.426v-8.562a1.431,1.431,0,0,1,1.427-1.426h8.561a1.431,1.431,0,0,1,1.427,1.426v8.562A1.431,1.431,0,0,1,420.458,258.6Z" fill="#f94a46"/>
        <path id="Trazado_253868" data-name="Trazado 253868" d="M380.148,278.95h-8.561a1.431,1.431,0,0,1-1.427-1.427v-8.561a1.431,1.431,0,0,1,1.427-1.427h8.561a1.431,1.431,0,0,1,1.427,1.427v8.561A1.431,1.431,0,0,1,380.148,278.95Z" fill="#efefef"/>
        <path id="Trazado_253869" data-name="Trazado 253869" d="M400.3,278.95h-8.561a1.431,1.431,0,0,1-1.427-1.427v-8.561a1.431,1.431,0,0,1,1.427-1.427H400.3a1.431,1.431,0,0,1,1.427,1.427v8.561A1.431,1.431,0,0,1,400.3,278.95Z" fill="#92b620"/>
        <path id="Trazado_253870" data-name="Trazado 253870" d="M420.458,278.95H411.9a1.431,1.431,0,0,1-1.427-1.427v-8.561a1.431,1.431,0,0,1,1.427-1.427h8.561a1.431,1.431,0,0,1,1.427,1.427v8.561A1.431,1.431,0,0,1,420.458,278.95Z" fill="#898989"/>
        <path id="Trazado_253871" data-name="Trazado 253871" d="M440.613,258.6h-8.561a1.431,1.431,0,0,1-1.427-1.426v-8.562a1.431,1.431,0,0,1,1.427-1.426h8.561a1.431,1.431,0,0,1,1.427,1.426v8.562A1.431,1.431,0,0,1,440.613,258.6Z" fill="#ffb70d"/>
        <path id="Trazado_253872" data-name="Trazado 253872" d="M380.148,341.75h-8.561a1.431,1.431,0,0,1-1.427-1.426v-8.562a1.431,1.431,0,0,1,1.427-1.426h8.561a1.431,1.431,0,0,1,1.427,1.426v8.562A1.431,1.431,0,0,1,380.148,341.75Z" fill="#92b620"/>
        <path id="Trazado_253873" data-name="Trazado 253873" d="M400.3,341.75h-8.561a1.431,1.431,0,0,1-1.427-1.426v-8.562a1.431,1.431,0,0,1,1.427-1.426H400.3a1.431,1.431,0,0,1,1.427,1.426v8.562A1.431,1.431,0,0,1,400.3,341.75Z" fill="#70b5e8"/>
        <path id="Trazado_253874" data-name="Trazado 253874" d="M420.458,341.75H411.9a1.431,1.431,0,0,1-1.427-1.426v-8.562a1.431,1.431,0,0,1,1.427-1.426h8.561a1.431,1.431,0,0,1,1.427,1.426v8.562A1.431,1.431,0,0,1,420.458,341.75Z" fill="#92b620"/>
        <path id="Trazado_253875" data-name="Trazado 253875" d="M440.613,341.75h-8.561a1.431,1.431,0,0,1-1.427-1.426v-8.562a1.431,1.431,0,0,1,1.427-1.426h8.561a1.431,1.431,0,0,1,1.427,1.426v8.562A1.431,1.431,0,0,1,440.613,341.75Z" fill="#efefef"/>
      </g>
    </g>
  </g>
</svg>
