<svg xmlns="http://www.w3.org/2000/svg" width="204.861" height="212" viewBox="0 0 204.861 212">
  <g id="Grupo_150229" data-name="Grupo 150229" transform="translate(-2370.139 -3937.517)">
    <g id="Grupo_146964" data-name="Grupo 146964" transform="translate(1975 1120.517)">
      <g id="Grupo_146956" data-name="Grupo 146956" transform="translate(96.621 2667)">
        <path id="Trazado_253817" data-name="Trazado 253817" d="M298.518,347.146V359.2a2.8,2.8,0,0,0,2.8,2.8H313.9a2.8,2.8,0,0,0,2.6-1.774l5.143-13.079Z" fill="#5a5a5a"/>
        <path id="Trazado_253818" data-name="Trazado 253818" d="M503.379,347.146V359.2a2.8,2.8,0,0,1-2.8,2.8H487.995a2.8,2.8,0,0,1-2.6-1.774l-5.143-13.079Z" fill="#5a5a5a"/>
        <path id="Trazado_253819" data-name="Trazado 253819" d="M503.379,347.146V359.2a2.8,2.8,0,0,1-2.8,2.8h-9.44a2.8,2.8,0,0,0,2.8-2.8V347.146Z" fill="#444"/>
        <path id="Trazado_253820" data-name="Trazado 253820" d="M495.869,150H306.029a7.51,7.51,0,0,0-7.511,7.51V332.85H503.379V157.51A7.51,7.51,0,0,0,495.869,150Z" fill="#5a5a5a"/>
        <path id="Trazado_253821" data-name="Trazado 253821" d="M298.518,328.311H503.379V348.1H298.518Z" fill="#9c9c9c"/>
        <path id="Trazado_253822" data-name="Trazado 253822" d="M483.781,226.661H318.115a2.477,2.477,0,0,1-2.477-2.478v-13.39H486.259v13.39a2.477,2.477,0,0,1-2.478,2.478Z" fill="#ebebeb"/>
        <path id="Trazado_253823" data-name="Trazado 253823" d="M486.259,210.795v13.386a2.477,2.477,0,0,1-2.476,2.48h-10.3a2.477,2.477,0,0,0,2.475-2.48V210.795Z" fill="#dbdbdb"/>
        <path id="Trazado_253824" data-name="Trazado 253824" d="M493.939,328.31h9.44V348.1h-9.44Z" fill="#838383"/>
        <path id="Trazado_253825" data-name="Trazado 253825" d="M493.939,195.061h9.44v133.25h-9.44Z" fill="#444"/>
        <path id="Trazado_253826" data-name="Trazado 253826" d="M503.379,157.51v37.551h-9.44V157.51A7.509,7.509,0,0,0,486.431,150h9.439A7.509,7.509,0,0,1,503.379,157.51Z" fill="#444"/>
        <g id="Grupo_146949" data-name="Grupo 146949">
          <circle id="Elipse_5923" data-name="Elipse 5923" cx="8.656" cy="8.656" r="8.656" transform="translate(320.001 163.874)" fill="#ebebeb"/>
          <circle id="Elipse_5924" data-name="Elipse 5924" cx="8.656" cy="8.656" r="8.656" transform="translate(464.585 163.874)" fill="#ebebeb"/>
          <path id="Trazado_253827" data-name="Trazado 253827" d="M446.392,181.185H355.505a3.411,3.411,0,0,1-3.412-3.412V167.286a3.411,3.411,0,0,1,3.412-3.412h90.887a3.412,3.412,0,0,1,3.412,3.412v10.488a3.412,3.412,0,0,1-3.412,3.411Z" fill="#ebebeb"/>
        </g>
        <path id="Trazado_253828" data-name="Trazado 253828" d="M337.31,172.531a8.652,8.652,0,0,1-16.184,4.261,8.652,8.652,0,0,0,10.7-12.314A8.642,8.642,0,0,1,337.31,172.531Z" fill="#dbdbdb"/>
        <path id="Trazado_253829" data-name="Trazado 253829" d="M481.895,172.531a8.652,8.652,0,0,1-16.184,4.261,8.653,8.653,0,0,0,10.7-12.318A8.652,8.652,0,0,1,481.895,172.531Z" fill="#dbdbdb"/>
        <path id="Trazado_253830" data-name="Trazado 253830" d="M449.806,167.284v10.49a3.413,3.413,0,0,1-3.415,3.412h-8.41a3.412,3.412,0,0,0,3.411-3.412v-10.49a3.411,3.411,0,0,0-3.411-3.411h8.41A3.412,3.412,0,0,1,449.806,167.284Z" fill="#dbdbdb"/>
        <g id="Grupo_146955" data-name="Grupo 146955">
          <path id="Trazado_253831" data-name="Trazado 253831" d="M483.781,310.206H318.115a2.478,2.478,0,0,1-2.477-2.478V247.244a2.478,2.478,0,0,1,2.477-2.478H483.781a2.478,2.478,0,0,1,2.478,2.478v60.484a2.478,2.478,0,0,1-2.478,2.478Z" fill="#d8ecfe"/>
          <path id="Trazado_253832" data-name="Trazado 253832" d="M486.259,247.243v60.485a2.474,2.474,0,0,1-2.476,2.476h-10.3a2.473,2.473,0,0,0,2.475-2.476V247.243a2.474,2.474,0,0,0-2.475-2.475h10.3A2.474,2.474,0,0,1,486.259,247.243Z" fill="#c4e2ff"/>
          <g id="Grupo_146950" data-name="Grupo 146950">
            <path id="Trazado_253833" data-name="Trazado 253833" d="M471,244.766l-32.351,40.049a3.105,3.105,0,1,1-4.832-3.9l29.2-36.148Z" fill="#8fc9f9"/>
          </g>
          <g id="Grupo_146951" data-name="Grupo 146951">
            <path id="Trazado_253834" data-name="Trazado 253834" d="M454.316,280.592a3.106,3.106,0,0,1-2.414-5.057l7.76-9.607a3.106,3.106,0,1,1,4.832,3.9l-7.76,9.607a3.1,3.1,0,0,1-2.418,1.154Z" fill="#8fc9f9"/>
          </g>
          <g id="Grupo_146952" data-name="Grupo 146952">
            <path id="Trazado_253835" data-name="Trazado 253835" d="M469.553,261.741a3.106,3.106,0,0,1-2.414-5.057l2.653-3.284a3.106,3.106,0,0,1,4.832,3.9l-2.653,3.284A3.1,3.1,0,0,1,469.553,261.741Z" fill="#8fc9f9"/>
          </g>
          <g id="Grupo_146953" data-name="Grupo 146953">
            <path id="Trazado_253836" data-name="Trazado 253836" d="M356.386,290.2a3.106,3.106,0,0,1-2.414-5.057l7.759-9.607a3.106,3.106,0,1,1,4.832,3.9l-7.76,9.607a3.1,3.1,0,0,1-2.417,1.154Z" fill="#8fc9f9"/>
          </g>
          <g id="Grupo_146954" data-name="Grupo 146954">
            <path id="Trazado_253837" data-name="Trazado 253837" d="M346.256,302.727a3.106,3.106,0,0,1-2.414-5.057l2.652-3.285a3.106,3.106,0,0,1,4.832,3.9l-2.653,3.285a3.1,3.1,0,0,1-2.417,1.154Z" fill="#8fc9f9"/>
          </g>
        </g>
        <path id="Trazado_253838" data-name="Trazado 253838" d="M298.518,195.059H503.379v15.734H298.518Z" fill="#9c9c9c"/>
        <path id="Trazado_253839" data-name="Trazado 253839" d="M493.939,195.061h9.44v15.734h-9.44Z" fill="#838383"/>
      </g>
    </g>
  </g>
</svg>
