<svg xmlns="http://www.w3.org/2000/svg" width="50" height="50" viewBox="0 0 50 50">
  <g id="n2" transform="translate(-1265 -1482)">
    <g id="Ellipse_4699" data-name="Ellipse 4699" transform="translate(1265 1482)" fill="#fff" stroke="#fda929" stroke-width="2">
      <circle cx="25" cy="25" r="25" stroke="none"/>
      <circle cx="25" cy="25" r="24" fill="none"/>
    </g>
    <path id="Path_261734" data-name="Path 261734" d="M6,0H-5.906V-2.578L-.422-8.344q2.027-2.309,2.027-3.668a2.551,2.551,0,0,0-.48-1.676A1.715,1.715,0,0,0-.27-14.262a1.737,1.737,0,0,0-1.465.768A3.155,3.155,0,0,0-2.3-11.578H-6.258a5.6,5.6,0,0,1,.785-2.9,5.506,5.506,0,0,1,2.18-2.08,6.475,6.475,0,0,1,3.117-.75,6.369,6.369,0,0,1,4.26,1.277,4.56,4.56,0,0,1,1.494,3.668A5.326,5.326,0,0,1,5.2-10.4a8.608,8.608,0,0,1-1.166,2A29.372,29.372,0,0,1,1.488-5.59l-2.2,2.543H6Z" transform="translate(1290 1515)" fill="#12263f"/>
  </g>
</svg>
