<svg xmlns="http://www.w3.org/2000/svg" width="50" height="50" viewBox="0 0 50 50">
  <g id="n5" transform="translate(-1265 -1482)">
    <g id="Ellipse_4699" data-name="Ellipse 4699" transform="translate(1265 1482)" fill="#fff" stroke="#fda929" stroke-width="2">
      <circle cx="25" cy="25" r="25" stroke="none"/>
      <circle cx="25" cy="25" r="24" fill="none"/>
    </g>
    <path id="Path_261737" data-name="Path 261737" d="M-5.672-8.335l1.043-8.728H5.344v3.07H-1.418L-1.8-10.6A4.658,4.658,0,0,1-.7-11.038a5.053,5.053,0,0,1,1.342-.188A5.006,5.006,0,0,1,4.553-9.721,6.066,6.066,0,0,1,5.918-5.5a6.055,6.055,0,0,1-.732,2.971A5.034,5.034,0,0,1,3.129-.48,6.493,6.493,0,0,1,0,.234,6.987,6.987,0,0,1-3.012-.427a5.4,5.4,0,0,1-2.2-1.815A4.41,4.41,0,0,1-6-4.847h3.961a2.24,2.24,0,0,0,.6,1.485,1.9,1.9,0,0,0,1.418.55q1.992,0,1.992-2.947,0-2.725-2.437-2.725A2.432,2.432,0,0,0-2.531-7.6Z" transform="translate(1290 1515)" fill="#12263f"/>
  </g>
</svg>
