<svg xmlns="http://www.w3.org/2000/svg" width="120" height="120" viewBox="0 0 120 120">
  <g id="_4" data-name="4" transform="translate(-180 -1358)">
    <circle id="Ellipse_6091" data-name="Ellipse 6091" cx="60" cy="60" r="60" transform="translate(180 1358)" fill="#7453d8"/>
    <g id="controlar" transform="translate(198 1376)">
      <path id="Path_259188" data-name="Path 259188" d="M31.667,35.421v8.245h2.667V35.421a3.977,3.977,0,0,0,0-7.509V25H31.667v2.912a3.977,3.977,0,0,0,0,7.509ZM33,30.333a1.333,1.333,0,1,1-1.333,1.333A1.335,1.335,0,0,1,33,30.333Z" transform="translate(9 7.667)" fill="#fff"/>
      <path id="Path_259189" data-name="Path 259189" d="M38.667,40.755v2.912h2.667V40.755a3.977,3.977,0,0,0,0-7.509V25H38.667v8.245a3.977,3.977,0,0,0,0,7.509ZM40,35.667A1.333,1.333,0,1,1,38.667,37,1.335,1.335,0,0,1,40,35.667Z" transform="translate(11.333 7.667)" fill="#fff"/>
      <path id="Path_259190" data-name="Path 259190" d="M24.667,40.755v2.912h2.667V40.755a3.977,3.977,0,0,0,0-7.509V25H24.667v8.245a3.977,3.977,0,0,0,0,7.509ZM26,35.667A1.333,1.333,0,1,1,24.667,37,1.335,1.335,0,0,1,26,35.667Z" transform="translate(6.667 7.667)" fill="#fff"/>
      <path id="Path_259191" data-name="Path 259191" d="M56,44A12,12,0,1,0,68,56,12.014,12.014,0,0,0,56,44ZM50.7,63.673A3.992,3.992,0,0,1,54.667,60h2.667A3.992,3.992,0,0,1,61.3,63.673a9.291,9.291,0,0,1-10.6,0Zm5.3-6.34a2.667,2.667,0,1,1,2.667-2.667A2.669,2.669,0,0,1,56,57.333Zm7.509,4.185a6.688,6.688,0,0,0-3.363-3.54,5.282,5.282,0,0,0,1.187-3.312,5.333,5.333,0,1,0-9.481,3.312,6.688,6.688,0,0,0-3.363,3.54,9.334,9.334,0,1,1,15.02,0Z" transform="translate(14 14)" fill="#fff"/>
      <path id="Path_259192" data-name="Path 259192" d="M56,2A12,12,0,1,0,68,14,12.014,12.014,0,0,0,56,2ZM50.7,21.673A3.992,3.992,0,0,1,54.667,18h2.667A3.992,3.992,0,0,1,61.3,21.673a9.291,9.291,0,0,1-10.6,0Zm5.3-6.34a2.667,2.667,0,1,1,2.667-2.667A2.669,2.669,0,0,1,56,15.333Zm7.509,4.185a6.688,6.688,0,0,0-3.363-3.54,5.282,5.282,0,0,0,1.187-3.312,5.333,5.333,0,1,0-9.481,3.312,6.688,6.688,0,0,0-3.363,3.54,9.334,9.334,0,1,1,15.02,0Z" transform="translate(14)" fill="#fff"/>
      <path id="Path_259193" data-name="Path 259193" d="M14,2A12,12,0,1,0,26,14,12.014,12.014,0,0,0,14,2ZM8.7,21.673A3.992,3.992,0,0,1,12.667,18h2.667A3.992,3.992,0,0,1,19.3,21.673a9.291,9.291,0,0,1-10.6,0Zm5.3-6.34a2.667,2.667,0,1,1,2.667-2.667A2.669,2.669,0,0,1,14,15.333Zm7.509,4.185a6.688,6.688,0,0,0-3.363-3.54,5.282,5.282,0,0,0,1.187-3.312,5.333,5.333,0,1,0-9.481,3.312,6.688,6.688,0,0,0-3.363,3.54,9.334,9.334,0,1,1,15.02,0Z" fill="#fff"/>
      <path id="Path_259194" data-name="Path 259194" d="M2,56A12,12,0,1,0,14,44,12.014,12.014,0,0,0,2,56Zm6.7,7.673A3.992,3.992,0,0,1,12.667,60h2.667A3.992,3.992,0,0,1,19.3,63.673a9.291,9.291,0,0,1-10.6,0Zm5.3-6.34a2.667,2.667,0,1,1,2.667-2.667A2.669,2.669,0,0,1,14,57.333Zm0-10.667a9.315,9.315,0,0,1,7.509,14.852,6.688,6.688,0,0,0-3.363-3.54,5.282,5.282,0,0,0,1.187-3.312,5.333,5.333,0,1,0-9.481,3.312,6.688,6.688,0,0,0-3.363,3.54A9.317,9.317,0,0,1,14,46.667Z" transform="translate(0 14)" fill="#fff"/>
      <path id="Path_259195" data-name="Path 259195" d="M50.333,40.659a1.333,1.333,0,0,0-1.067,2.133l4,5.333a1.333,1.333,0,0,0,2.133,0l4-5.333a1.333,1.333,0,0,0-1.067-2.133H55.667V29.993h2.667A1.333,1.333,0,0,0,59.4,27.859l-4-5.333a1.381,1.381,0,0,0-2.133,0l-4,5.333a1.333,1.333,0,0,0,1.067,2.133H53V40.659Zm4-15.111,1.333,1.777H53Zm0,19.555L53,43.326h2.667Z" transform="translate(15.667 6.674)" fill="#fff"/>
      <path id="Path_259196" data-name="Path 259196" d="M8.333,40.659a1.333,1.333,0,0,0-1.067,2.133l4,5.333a1.333,1.333,0,0,0,2.133,0l4-5.333a1.333,1.333,0,0,0-1.067-2.133H13.667V29.993h2.667A1.333,1.333,0,0,0,17.4,27.859l-4-5.333a1.381,1.381,0,0,0-2.133,0l-4,5.333a1.333,1.333,0,0,0,1.067,2.133H11V40.659Zm4-15.111,1.333,1.777H11Zm0,19.555L11,43.326h2.667Z" transform="translate(1.667 6.674)" fill="#fff"/>
      <path id="Path_259197" data-name="Path 259197" d="M42.8,49.267a1.333,1.333,0,0,0-2.133,1.067V53H30V50.334a1.333,1.333,0,0,0-2.133-1.067l-5.333,4a1.333,1.333,0,0,0,0,2.133l5.333,4A1.333,1.333,0,0,0,30,58.334V55.667H40.667v2.667A1.333,1.333,0,0,0,42.8,59.4l5.333-4a1.333,1.333,0,0,0,0-2.133Zm-15.467,6.4-1.777-1.333L27.333,53Zm16,0V53l1.777,1.333Z" transform="translate(6.667 15.666)" fill="#fff"/>
      <path id="Path_259198" data-name="Path 259198" d="M29.263,7.14a1.338,1.338,0,0,0-1.4.127l-5.333,4a1.333,1.333,0,0,0,0,2.133l5.333,4A1.333,1.333,0,0,0,30,16.334V13.667H40.667v2.667A1.333,1.333,0,0,0,42.8,17.4l5.333-4a1.333,1.333,0,0,0,0-2.133l-5.333-4a1.333,1.333,0,0,0-2.133,1.067V11H30V8.334a1.335,1.335,0,0,0-.737-1.193Zm-1.929,6.527-1.777-1.333L27.333,11Zm16-2.667,1.777,1.333-1.777,1.333Z" transform="translate(6.667 1.666)" fill="#fff"/>
      <path id="Path_259199" data-name="Path 259199" d="M36.667,55.333A18.667,18.667,0,1,0,18,36.667,18.687,18.687,0,0,0,36.667,55.333Zm0-34.667a16,16,0,1,1-16,16A16.018,16.018,0,0,1,36.667,20.667Z" transform="translate(5.333 5.333)" fill="#fff"/>
    </g>
  </g>
</svg>
