<svg xmlns="http://www.w3.org/2000/svg" xmlns:xlink="http://www.w3.org/1999/xlink" width="361.568" height="241.694" viewBox="0 0 361.568 241.694">
  <defs>
    <linearGradient id="linear-gradient" x1="0.5" x2="0.5" y2="1" gradientUnits="objectBoundingBox">
      <stop offset="0" stop-color="#ba68c8"/>
      <stop offset="0.19" stop-color="#9139af"/>
      <stop offset="0.31" stop-color="#7b1fa2"/>
      <stop offset="1" stop-color="#45147b"/>
    </linearGradient>
    <linearGradient id="linear-gradient-2" x1="0.5" x2="0.5" y2="1" gradientUnits="objectBoundingBox">
      <stop offset="0" stop-color="#93eac2"/>
      <stop offset="1" stop-color="#20cb7d"/>
    </linearGradient>
  </defs>
  <g id="_27" data-name="27" transform="translate(-263 -14798)">
    <g id="Group_148598" data-name="Group 148598" transform="translate(-22 12492)">
      <g id="Group_130729" data-name="Group 130729" transform="translate(285 2306)">
        <g id="Group_79815" data-name="Group 79815">
          <g id="Group_79776" data-name="Group 79776" transform="translate(0 0)">
            <g id="Group_79644" data-name="Group 79644" transform="translate(0 0)">
              <path id="Path_145968" data-name="Path 145968" d="M65.592,0a65.592,65.592,0,1,0,65.592,65.592A65.592,65.592,0,0,0,65.592,0Z" transform="translate(22.373 101.224)" fill="#fda929" opacity="0.28" style="mix-blend-mode: multiply;isolation: isolate"/>
              <path id="Path_145969" data-name="Path 145969" d="M44.819,0A44.819,44.819,0,1,0,89.639,44.819,44.819,44.819,0,0,0,44.819,0Z" transform="translate(223.382 16.637)" opacity="0.6" fill="url(#linear-gradient)" style="mix-blend-mode: multiply;isolation: isolate"/>
              <rect id="Rectangle_34812" data-name="Rectangle 34812" width="349.667" height="241.694" fill="none"/>
              <path id="Path_145971" data-name="Path 145971" d="M28.331,0A28.331,28.331,0,1,0,56.662,28.331,28.331,28.331,0,0,0,28.331,0Z" transform="translate(244.321 160.612)" opacity="0.444" fill="url(#linear-gradient-2)" style="mix-blend-mode: multiply;isolation: isolate"/>
              <g id="Group_78276" data-name="Group 78276" transform="translate(46.995 132.584)">
                <g id="Group_53306" data-name="Group 53306" transform="translate(0)">
                  <path id="Path_99200" data-name="Path 99200" d="M414.214,51.075a.892.892,0,1,0,.891-.851A.872.872,0,0,0,414.214,51.075Z" transform="translate(-334.055 -50.224)" fill="#fff"/>
                  <path id="Path_99201" data-name="Path 99201" d="M422.66,51.075a.892.892,0,1,0,.89-.851A.872.872,0,0,0,422.66,51.075Z" transform="translate(-350.517 -50.224)" fill="#fff"/>
                  <path id="Path_99202" data-name="Path 99202" d="M431.106,51.075a.892.892,0,1,0,.89-.851A.872.872,0,0,0,431.106,51.075Z" transform="translate(-366.978 -50.224)" fill="#fff"/>
                  <path id="Path_99203" data-name="Path 99203" d="M439.553,51.075a.892.892,0,1,0,.891-.851A.872.872,0,0,0,439.553,51.075Z" transform="translate(-383.442 -50.224)" fill="#fff"/>
                  <path id="Path_99204" data-name="Path 99204" d="M448,51.075a.892.892,0,1,0,.89-.851A.872.872,0,0,0,448,51.075Z" transform="translate(-399.903 -50.224)" fill="#fff"/>
                  <path id="Path_99205" data-name="Path 99205" d="M456.445,51.075a.892.892,0,1,0,.89-.851A.872.872,0,0,0,456.445,51.075Z" transform="translate(-416.365 -50.224)" fill="#fff"/>
                  <path id="Path_99206" data-name="Path 99206" d="M464.892,51.075a.892.892,0,1,0,.891-.851A.872.872,0,0,0,464.892,51.075Z" transform="translate(-432.829 -50.224)" fill="#fff"/>
                  <path id="Path_99207" data-name="Path 99207" d="M473.338,51.075a.892.892,0,1,0,.89-.851A.872.872,0,0,0,473.338,51.075Z" transform="translate(-449.29 -50.224)" fill="#fff"/>
                  <path id="Path_99208" data-name="Path 99208" d="M481.784,51.075a.892.892,0,1,0,.89-.851A.872.872,0,0,0,481.784,51.075Z" transform="translate(-465.752 -50.224)" fill="#fff"/>
                  <path id="Path_99209" data-name="Path 99209" d="M490.231,51.075a.892.892,0,1,0,.891-.851A.872.872,0,0,0,490.231,51.075Z" transform="translate(-482.215 -50.224)" fill="#fff"/>
                  <path id="Path_99210" data-name="Path 99210" d="M498.677,51.075a.892.892,0,1,0,.891-.851A.872.872,0,0,0,498.677,51.075Z" transform="translate(-498.677 -50.224)" fill="#fff"/>
                </g>
                <g id="Group_53307" data-name="Group 53307" transform="translate(0 6.814)">
                  <path id="Path_99211" data-name="Path 99211" d="M414.214,58.583a.892.892,0,1,0,.891-.851A.872.872,0,0,0,414.214,58.583Z" transform="translate(-334.055 -57.732)" fill="#fff"/>
                  <path id="Path_99212" data-name="Path 99212" d="M422.66,58.583a.892.892,0,1,0,.89-.851A.872.872,0,0,0,422.66,58.583Z" transform="translate(-350.517 -57.732)" fill="#fff"/>
                  <path id="Path_99213" data-name="Path 99213" d="M431.106,58.583a.892.892,0,1,0,.89-.851A.872.872,0,0,0,431.106,58.583Z" transform="translate(-366.978 -57.732)" fill="#fff"/>
                  <path id="Path_99214" data-name="Path 99214" d="M439.553,58.583a.892.892,0,1,0,.891-.851A.872.872,0,0,0,439.553,58.583Z" transform="translate(-383.442 -57.732)" fill="#fff"/>
                  <path id="Path_99215" data-name="Path 99215" d="M448,58.583a.892.892,0,1,0,.89-.851A.872.872,0,0,0,448,58.583Z" transform="translate(-399.903 -57.732)" fill="#fff"/>
                  <path id="Path_99216" data-name="Path 99216" d="M456.445,58.583a.892.892,0,1,0,.89-.851A.872.872,0,0,0,456.445,58.583Z" transform="translate(-416.365 -57.732)" fill="#fff"/>
                  <path id="Path_99217" data-name="Path 99217" d="M464.892,58.583a.892.892,0,1,0,.891-.851A.872.872,0,0,0,464.892,58.583Z" transform="translate(-432.829 -57.732)" fill="#fff"/>
                  <path id="Path_99218" data-name="Path 99218" d="M473.338,58.583a.892.892,0,1,0,.89-.851A.872.872,0,0,0,473.338,58.583Z" transform="translate(-449.29 -57.732)" fill="#fff"/>
                  <path id="Path_99219" data-name="Path 99219" d="M481.784,58.583a.892.892,0,1,0,.89-.851A.872.872,0,0,0,481.784,58.583Z" transform="translate(-465.752 -57.732)" fill="#fff"/>
                  <path id="Path_99220" data-name="Path 99220" d="M490.231,58.583a.892.892,0,1,0,.891-.851A.872.872,0,0,0,490.231,58.583Z" transform="translate(-482.215 -57.732)" fill="#fff"/>
                  <path id="Path_99221" data-name="Path 99221" d="M498.677,58.583a.892.892,0,1,0,.891-.851A.872.872,0,0,0,498.677,58.583Z" transform="translate(-498.677 -57.732)" fill="#fff"/>
                </g>
                <g id="Group_53308" data-name="Group 53308" transform="translate(0 13.628)">
                  <ellipse id="Ellipse_3955" data-name="Ellipse 3955" cx="0.891" cy="0.852" rx="0.891" ry="0.852" transform="translate(80.159)" fill="#fff"/>
                  <path id="Path_99222" data-name="Path 99222" d="M422.66,66.091a.892.892,0,1,0,.89-.851A.872.872,0,0,0,422.66,66.091Z" transform="translate(-350.517 -65.24)" fill="#fff"/>
                  <ellipse id="Ellipse_3956" data-name="Ellipse 3956" cx="0.891" cy="0.852" rx="0.891" ry="0.852" transform="translate(64.127)" fill="#fff"/>
                  <path id="Path_99223" data-name="Path 99223" d="M439.553,66.091a.892.892,0,1,0,.891-.851A.872.872,0,0,0,439.553,66.091Z" transform="translate(-383.442 -65.24)" fill="#fff"/>
                  <path id="Path_99224" data-name="Path 99224" d="M448,66.091a.892.892,0,1,0,.89-.851A.872.872,0,0,0,448,66.091Z" transform="translate(-399.903 -65.24)" fill="#fff"/>
                  <ellipse id="Ellipse_3957" data-name="Ellipse 3957" cx="0.891" cy="0.852" rx="0.891" ry="0.852" transform="translate(40.08)" fill="#fff"/>
                  <path id="Path_99225" data-name="Path 99225" d="M464.892,66.091a.892.892,0,1,0,.891-.851A.873.873,0,0,0,464.892,66.091Z" transform="translate(-432.829 -65.24)" fill="#fff"/>
                  <ellipse id="Ellipse_3958" data-name="Ellipse 3958" cx="0.891" cy="0.852" rx="0.891" ry="0.852" transform="translate(24.048)" fill="#fff"/>
                  <ellipse id="Ellipse_3959" data-name="Ellipse 3959" cx="0.891" cy="0.852" rx="0.891" ry="0.852" transform="translate(16.032)" fill="#fff"/>
                  <path id="Path_99226" data-name="Path 99226" d="M490.231,66.091a.892.892,0,1,0,.891-.851A.873.873,0,0,0,490.231,66.091Z" transform="translate(-482.215 -65.24)" fill="#fff"/>
                  <path id="Path_99227" data-name="Path 99227" d="M498.677,66.091a.892.892,0,1,0,.891-.851A.872.872,0,0,0,498.677,66.091Z" transform="translate(-498.677 -65.24)" fill="#fff"/>
                </g>
                <g id="Group_53309" data-name="Group 53309" transform="translate(0 20.442)">
                  <ellipse id="Ellipse_3960" data-name="Ellipse 3960" cx="0.891" cy="0.852" rx="0.891" ry="0.852" transform="translate(80.159 0)" fill="#fff"/>
                  <path id="Path_99228" data-name="Path 99228" d="M422.66,73.6a.892.892,0,1,0,.89-.852A.871.871,0,0,0,422.66,73.6Z" transform="translate(-350.517 -72.747)" fill="#fff"/>
                  <ellipse id="Ellipse_3961" data-name="Ellipse 3961" cx="0.891" cy="0.852" rx="0.891" ry="0.852" transform="translate(64.127 0)" fill="#fff"/>
                  <path id="Path_99229" data-name="Path 99229" d="M439.553,73.6a.892.892,0,1,0,.891-.852A.872.872,0,0,0,439.553,73.6Z" transform="translate(-383.442 -72.747)" fill="#fff"/>
                  <path id="Path_99230" data-name="Path 99230" d="M448,73.6a.892.892,0,1,0,.89-.852A.872.872,0,0,0,448,73.6Z" transform="translate(-399.903 -72.747)" fill="#fff"/>
                  <ellipse id="Ellipse_3962" data-name="Ellipse 3962" cx="0.891" cy="0.852" rx="0.891" ry="0.852" transform="translate(40.08 0)" fill="#fff"/>
                  <path id="Path_99231" data-name="Path 99231" d="M464.892,73.6a.892.892,0,1,0,.891-.852A.872.872,0,0,0,464.892,73.6Z" transform="translate(-432.829 -72.747)" fill="#fff"/>
                  <ellipse id="Ellipse_3963" data-name="Ellipse 3963" cx="0.891" cy="0.852" rx="0.891" ry="0.852" transform="translate(24.048 0)" fill="#fff"/>
                  <ellipse id="Ellipse_3964" data-name="Ellipse 3964" cx="0.891" cy="0.852" rx="0.891" ry="0.852" transform="translate(16.032 0)" fill="#fff"/>
                  <path id="Path_99232" data-name="Path 99232" d="M490.231,73.6a.892.892,0,1,0,.891-.852A.872.872,0,0,0,490.231,73.6Z" transform="translate(-482.215 -72.747)" fill="#fff"/>
                  <path id="Path_99233" data-name="Path 99233" d="M498.677,73.6a.892.892,0,1,0,.891-.852A.872.872,0,0,0,498.677,73.6Z" transform="translate(-498.677 -72.747)" fill="#fff"/>
                </g>
                <g id="Group_53310" data-name="Group 53310" transform="translate(0 27.256)">
                  <path id="Path_99234" data-name="Path 99234" d="M414.214,81.107a.892.892,0,1,0,.891-.852A.872.872,0,0,0,414.214,81.107Z" transform="translate(-334.055 -80.255)" fill="#fff"/>
                  <path id="Path_99235" data-name="Path 99235" d="M422.66,81.107a.892.892,0,1,0,.89-.852A.871.871,0,0,0,422.66,81.107Z" transform="translate(-350.517 -80.255)" fill="#fff"/>
                  <path id="Path_99236" data-name="Path 99236" d="M431.106,81.107a.892.892,0,1,0,.89-.852A.871.871,0,0,0,431.106,81.107Z" transform="translate(-366.978 -80.255)" fill="#fff"/>
                  <path id="Path_99237" data-name="Path 99237" d="M439.553,81.107a.892.892,0,1,0,.891-.852A.872.872,0,0,0,439.553,81.107Z" transform="translate(-383.442 -80.255)" fill="#fff"/>
                  <path id="Path_99238" data-name="Path 99238" d="M448,81.107a.892.892,0,1,0,.89-.852A.872.872,0,0,0,448,81.107Z" transform="translate(-399.903 -80.255)" fill="#fff"/>
                  <path id="Path_99239" data-name="Path 99239" d="M456.445,81.107a.892.892,0,1,0,.89-.852A.871.871,0,0,0,456.445,81.107Z" transform="translate(-416.365 -80.255)" fill="#fff"/>
                  <path id="Path_99240" data-name="Path 99240" d="M464.892,81.107a.892.892,0,1,0,.891-.852A.872.872,0,0,0,464.892,81.107Z" transform="translate(-432.829 -80.255)" fill="#fff"/>
                  <path id="Path_99241" data-name="Path 99241" d="M473.338,81.107a.892.892,0,1,0,.89-.852A.871.871,0,0,0,473.338,81.107Z" transform="translate(-449.29 -80.255)" fill="#fff"/>
                  <path id="Path_99242" data-name="Path 99242" d="M481.784,81.107a.892.892,0,1,0,.89-.852A.872.872,0,0,0,481.784,81.107Z" transform="translate(-465.752 -80.255)" fill="#fff"/>
                  <path id="Path_99243" data-name="Path 99243" d="M490.231,81.107a.892.892,0,1,0,.891-.852A.872.872,0,0,0,490.231,81.107Z" transform="translate(-482.215 -80.255)" fill="#fff"/>
                  <path id="Path_99244" data-name="Path 99244" d="M498.677,81.107a.892.892,0,1,0,.891-.852A.872.872,0,0,0,498.677,81.107Z" transform="translate(-498.677 -80.255)" fill="#fff"/>
                </g>
                <g id="Group_53311" data-name="Group 53311" transform="translate(0 34.07)">
                  <ellipse id="Ellipse_3965" data-name="Ellipse 3965" cx="0.891" cy="0.852" rx="0.891" ry="0.852" transform="translate(80.159 0)" fill="#fff"/>
                  <path id="Path_99245" data-name="Path 99245" d="M422.66,88.615a.892.892,0,1,0,.89-.852A.871.871,0,0,0,422.66,88.615Z" transform="translate(-350.517 -87.763)" fill="#fff"/>
                  <ellipse id="Ellipse_3966" data-name="Ellipse 3966" cx="0.891" cy="0.852" rx="0.891" ry="0.852" transform="translate(64.127 0)" fill="#fff"/>
                  <path id="Path_99246" data-name="Path 99246" d="M439.553,88.615a.892.892,0,1,0,.891-.852A.872.872,0,0,0,439.553,88.615Z" transform="translate(-383.442 -87.763)" fill="#fff"/>
                  <path id="Path_99247" data-name="Path 99247" d="M448,88.615a.892.892,0,1,0,.89-.852A.872.872,0,0,0,448,88.615Z" transform="translate(-399.903 -87.763)" fill="#fff"/>
                  <ellipse id="Ellipse_3967" data-name="Ellipse 3967" cx="0.891" cy="0.852" rx="0.891" ry="0.852" transform="translate(40.08 0)" fill="#fff"/>
                  <path id="Path_99248" data-name="Path 99248" d="M464.892,88.615a.892.892,0,1,0,.891-.852A.872.872,0,0,0,464.892,88.615Z" transform="translate(-432.829 -87.763)" fill="#fff"/>
                  <ellipse id="Ellipse_3968" data-name="Ellipse 3968" cx="0.891" cy="0.852" rx="0.891" ry="0.852" transform="translate(24.048 0)" fill="#fff"/>
                  <ellipse id="Ellipse_3969" data-name="Ellipse 3969" cx="0.891" cy="0.852" rx="0.891" ry="0.852" transform="translate(16.032 0)" fill="#fff"/>
                  <path id="Path_99249" data-name="Path 99249" d="M490.231,88.615a.892.892,0,1,0,.891-.852A.872.872,0,0,0,490.231,88.615Z" transform="translate(-482.215 -87.763)" fill="#fff"/>
                  <path id="Path_99250" data-name="Path 99250" d="M498.677,88.615a.892.892,0,1,0,.891-.852A.872.872,0,0,0,498.677,88.615Z" transform="translate(-498.677 -87.763)" fill="#fff"/>
                </g>
                <g id="Group_53312" data-name="Group 53312" transform="translate(0 40.884)">
                  <ellipse id="Ellipse_3970" data-name="Ellipse 3970" cx="0.891" cy="0.852" rx="0.891" ry="0.852" transform="translate(80.159)" fill="#fff"/>
                  <path id="Path_99251" data-name="Path 99251" d="M422.66,96.122a.892.892,0,1,0,.89-.851A.872.872,0,0,0,422.66,96.122Z" transform="translate(-350.517 -95.271)" fill="#fff"/>
                  <ellipse id="Ellipse_3971" data-name="Ellipse 3971" cx="0.891" cy="0.852" rx="0.891" ry="0.852" transform="translate(64.127)" fill="#fff"/>
                  <path id="Path_99252" data-name="Path 99252" d="M439.553,96.122a.892.892,0,1,0,.891-.851A.872.872,0,0,0,439.553,96.122Z" transform="translate(-383.442 -95.271)" fill="#fff"/>
                  <path id="Path_99253" data-name="Path 99253" d="M448,96.122a.892.892,0,1,0,.89-.851A.872.872,0,0,0,448,96.122Z" transform="translate(-399.903 -95.271)" fill="#fff"/>
                  <ellipse id="Ellipse_3972" data-name="Ellipse 3972" cx="0.891" cy="0.852" rx="0.891" ry="0.852" transform="translate(40.08)" fill="#fff"/>
                  <path id="Path_99254" data-name="Path 99254" d="M464.892,96.122a.892.892,0,1,0,.891-.851A.872.872,0,0,0,464.892,96.122Z" transform="translate(-432.829 -95.271)" fill="#fff"/>
                  <ellipse id="Ellipse_3973" data-name="Ellipse 3973" cx="0.891" cy="0.852" rx="0.891" ry="0.852" transform="translate(24.048)" fill="#fff"/>
                  <ellipse id="Ellipse_3974" data-name="Ellipse 3974" cx="0.891" cy="0.852" rx="0.891" ry="0.852" transform="translate(16.032)" fill="#fff"/>
                  <path id="Path_99255" data-name="Path 99255" d="M490.231,96.122a.892.892,0,1,0,.891-.851A.872.872,0,0,0,490.231,96.122Z" transform="translate(-482.215 -95.271)" fill="#fff"/>
                  <path id="Path_99256" data-name="Path 99256" d="M498.677,96.122a.892.892,0,1,0,.891-.851A.872.872,0,0,0,498.677,96.122Z" transform="translate(-498.677 -95.271)" fill="#fff"/>
                </g>
                <g id="Group_53313" data-name="Group 53313" transform="translate(0 47.698)">
                  <path id="Path_99257" data-name="Path 99257" d="M414.214,103.63a.892.892,0,1,0,.891-.851A.872.872,0,0,0,414.214,103.63Z" transform="translate(-334.055 -102.779)" fill="#fff"/>
                  <path id="Path_99258" data-name="Path 99258" d="M422.66,103.63a.892.892,0,1,0,.89-.851A.872.872,0,0,0,422.66,103.63Z" transform="translate(-350.517 -102.779)" fill="#fff"/>
                  <path id="Path_99259" data-name="Path 99259" d="M431.106,103.63a.892.892,0,1,0,.89-.851A.872.872,0,0,0,431.106,103.63Z" transform="translate(-366.978 -102.779)" fill="#fff"/>
                  <path id="Path_99260" data-name="Path 99260" d="M439.553,103.63a.892.892,0,1,0,.891-.851A.872.872,0,0,0,439.553,103.63Z" transform="translate(-383.442 -102.779)" fill="#fff"/>
                  <path id="Path_99261" data-name="Path 99261" d="M448,103.63a.892.892,0,1,0,.89-.851A.872.872,0,0,0,448,103.63Z" transform="translate(-399.903 -102.779)" fill="#fff"/>
                  <path id="Path_99262" data-name="Path 99262" d="M456.445,103.63a.892.892,0,1,0,.89-.851A.872.872,0,0,0,456.445,103.63Z" transform="translate(-416.365 -102.779)" fill="#fff"/>
                  <path id="Path_99263" data-name="Path 99263" d="M464.892,103.63a.892.892,0,1,0,.891-.851A.872.872,0,0,0,464.892,103.63Z" transform="translate(-432.829 -102.779)" fill="#fff"/>
                  <path id="Path_99264" data-name="Path 99264" d="M473.338,103.63a.892.892,0,1,0,.89-.851A.872.872,0,0,0,473.338,103.63Z" transform="translate(-449.29 -102.779)" fill="#fff"/>
                  <path id="Path_99265" data-name="Path 99265" d="M481.784,103.63a.892.892,0,1,0,.89-.851A.872.872,0,0,0,481.784,103.63Z" transform="translate(-465.752 -102.779)" fill="#fff"/>
                  <path id="Path_99266" data-name="Path 99266" d="M490.231,103.63a.892.892,0,1,0,.891-.851A.872.872,0,0,0,490.231,103.63Z" transform="translate(-482.215 -102.779)" fill="#fff"/>
                  <path id="Path_99267" data-name="Path 99267" d="M498.677,103.63a.892.892,0,1,0,.891-.851A.872.872,0,0,0,498.677,103.63Z" transform="translate(-498.677 -102.779)" fill="#fff"/>
                </g>
                <g id="Group_53314" data-name="Group 53314" transform="translate(0 54.513)">
                  <ellipse id="Ellipse_3975" data-name="Ellipse 3975" cx="0.891" cy="0.852" rx="0.891" ry="0.852" transform="translate(80.159)" fill="#fff"/>
                  <path id="Path_99268" data-name="Path 99268" d="M422.66,111.138a.892.892,0,1,0,.89-.851A.872.872,0,0,0,422.66,111.138Z" transform="translate(-350.517 -110.287)" fill="#fff"/>
                  <ellipse id="Ellipse_3976" data-name="Ellipse 3976" cx="0.891" cy="0.852" rx="0.891" ry="0.852" transform="translate(64.127)" fill="#fff"/>
                  <path id="Path_99269" data-name="Path 99269" d="M439.553,111.138a.892.892,0,1,0,.891-.851A.872.872,0,0,0,439.553,111.138Z" transform="translate(-383.442 -110.287)" fill="#fff"/>
                  <path id="Path_99270" data-name="Path 99270" d="M448,111.138a.892.892,0,1,0,.89-.851A.872.872,0,0,0,448,111.138Z" transform="translate(-399.903 -110.287)" fill="#fff"/>
                  <ellipse id="Ellipse_3977" data-name="Ellipse 3977" cx="0.891" cy="0.852" rx="0.891" ry="0.852" transform="translate(40.08)" fill="#fff"/>
                  <path id="Path_99271" data-name="Path 99271" d="M464.892,111.138a.892.892,0,1,0,.891-.851A.873.873,0,0,0,464.892,111.138Z" transform="translate(-432.829 -110.287)" fill="#fff"/>
                  <ellipse id="Ellipse_3978" data-name="Ellipse 3978" cx="0.891" cy="0.852" rx="0.891" ry="0.852" transform="translate(24.048)" fill="#fff"/>
                  <ellipse id="Ellipse_3979" data-name="Ellipse 3979" cx="0.891" cy="0.852" rx="0.891" ry="0.852" transform="translate(16.032)" fill="#fff"/>
                  <path id="Path_99272" data-name="Path 99272" d="M490.231,111.138a.892.892,0,1,0,.891-.851A.873.873,0,0,0,490.231,111.138Z" transform="translate(-482.215 -110.287)" fill="#fff"/>
                  <path id="Path_99273" data-name="Path 99273" d="M498.677,111.138a.892.892,0,1,0,.891-.851A.872.872,0,0,0,498.677,111.138Z" transform="translate(-498.677 -110.287)" fill="#fff"/>
                </g>
                <g id="Group_53315" data-name="Group 53315" transform="translate(0 61.326)">
                  <path id="Path_99274" data-name="Path 99274" d="M414.214,118.646a.892.892,0,1,0,.891-.852A.873.873,0,0,0,414.214,118.646Z" transform="translate(-334.055 -117.794)" fill="#fff"/>
                  <path id="Path_99275" data-name="Path 99275" d="M422.66,118.646a.892.892,0,1,0,.89-.852A.872.872,0,0,0,422.66,118.646Z" transform="translate(-350.517 -117.794)" fill="#fff"/>
                  <path id="Path_99276" data-name="Path 99276" d="M431.106,118.646a.892.892,0,1,0,.89-.852A.872.872,0,0,0,431.106,118.646Z" transform="translate(-366.978 -117.794)" fill="#fff"/>
                  <path id="Path_99277" data-name="Path 99277" d="M439.553,118.646a.892.892,0,1,0,.891-.852A.872.872,0,0,0,439.553,118.646Z" transform="translate(-383.442 -117.794)" fill="#fff"/>
                  <path id="Path_99278" data-name="Path 99278" d="M448,118.646a.892.892,0,1,0,.89-.852A.872.872,0,0,0,448,118.646Z" transform="translate(-399.903 -117.794)" fill="#fff"/>
                  <path id="Path_99279" data-name="Path 99279" d="M456.445,118.646a.892.892,0,1,0,.89-.852A.872.872,0,0,0,456.445,118.646Z" transform="translate(-416.365 -117.794)" fill="#fff"/>
                  <path id="Path_99280" data-name="Path 99280" d="M464.892,118.646a.892.892,0,1,0,.891-.852A.873.873,0,0,0,464.892,118.646Z" transform="translate(-432.829 -117.794)" fill="#fff"/>
                  <path id="Path_99281" data-name="Path 99281" d="M473.338,118.646a.892.892,0,1,0,.89-.852A.872.872,0,0,0,473.338,118.646Z" transform="translate(-449.29 -117.794)" fill="#fff"/>
                  <path id="Path_99282" data-name="Path 99282" d="M481.784,118.646a.892.892,0,1,0,.89-.852A.872.872,0,0,0,481.784,118.646Z" transform="translate(-465.752 -117.794)" fill="#fff"/>
                  <path id="Path_99283" data-name="Path 99283" d="M490.231,118.646a.892.892,0,1,0,.891-.852A.873.873,0,0,0,490.231,118.646Z" transform="translate(-482.215 -117.794)" fill="#fff"/>
                  <path id="Path_99284" data-name="Path 99284" d="M498.677,118.646a.892.892,0,1,0,.891-.852A.872.872,0,0,0,498.677,118.646Z" transform="translate(-498.677 -117.794)" fill="#fff"/>
                </g>
                <g id="Group_53316" data-name="Group 53316" transform="translate(0 68.14)">
                  <ellipse id="Ellipse_3980" data-name="Ellipse 3980" cx="0.891" cy="0.852" rx="0.891" ry="0.852" transform="translate(80.159 0)" fill="#fff"/>
                  <path id="Path_99285" data-name="Path 99285" d="M422.66,126.154a.892.892,0,1,0,.89-.852A.871.871,0,0,0,422.66,126.154Z" transform="translate(-350.517 -125.302)" fill="#fff"/>
                  <ellipse id="Ellipse_3981" data-name="Ellipse 3981" cx="0.891" cy="0.852" rx="0.891" ry="0.852" transform="translate(64.127 0)" fill="#fff"/>
                  <path id="Path_99286" data-name="Path 99286" d="M439.553,126.154a.892.892,0,1,0,.891-.852A.872.872,0,0,0,439.553,126.154Z" transform="translate(-383.442 -125.302)" fill="#fff"/>
                  <path id="Path_99287" data-name="Path 99287" d="M448,126.154a.892.892,0,1,0,.89-.852A.872.872,0,0,0,448,126.154Z" transform="translate(-399.903 -125.302)" fill="#fff"/>
                  <ellipse id="Ellipse_3982" data-name="Ellipse 3982" cx="0.891" cy="0.852" rx="0.891" ry="0.852" transform="translate(40.08 0)" fill="#fff"/>
                  <path id="Path_99288" data-name="Path 99288" d="M464.892,126.154a.892.892,0,1,0,.891-.852A.872.872,0,0,0,464.892,126.154Z" transform="translate(-432.829 -125.302)" fill="#fff"/>
                  <ellipse id="Ellipse_3983" data-name="Ellipse 3983" cx="0.891" cy="0.852" rx="0.891" ry="0.852" transform="translate(24.048 0)" fill="#fff"/>
                  <ellipse id="Ellipse_3984" data-name="Ellipse 3984" cx="0.891" cy="0.852" rx="0.891" ry="0.852" transform="translate(16.032 0)" fill="#fff"/>
                  <path id="Path_99289" data-name="Path 99289" d="M490.231,126.154a.892.892,0,1,0,.891-.852A.872.872,0,0,0,490.231,126.154Z" transform="translate(-482.215 -125.302)" fill="#fff"/>
                  <path id="Path_99290" data-name="Path 99290" d="M498.677,126.154a.892.892,0,1,0,.891-.852A.872.872,0,0,0,498.677,126.154Z" transform="translate(-498.677 -125.302)" fill="#fff"/>
                </g>
                <g id="Group_53317" data-name="Group 53317" transform="translate(0 74.955)">
                  <ellipse id="Ellipse_3985" data-name="Ellipse 3985" cx="0.891" cy="0.852" rx="0.891" ry="0.852" transform="translate(80.159 0)" fill="#fff"/>
                  <path id="Path_99291" data-name="Path 99291" d="M422.66,133.662a.892.892,0,1,0,.89-.852A.871.871,0,0,0,422.66,133.662Z" transform="translate(-350.517 -132.81)" fill="#fff"/>
                  <ellipse id="Ellipse_3986" data-name="Ellipse 3986" cx="0.891" cy="0.852" rx="0.891" ry="0.852" transform="translate(64.127 0)" fill="#fff"/>
                  <path id="Path_99292" data-name="Path 99292" d="M439.553,133.662a.892.892,0,1,0,.891-.852A.872.872,0,0,0,439.553,133.662Z" transform="translate(-383.442 -132.81)" fill="#fff"/>
                  <path id="Path_99293" data-name="Path 99293" d="M448,133.662a.892.892,0,1,0,.89-.852A.872.872,0,0,0,448,133.662Z" transform="translate(-399.903 -132.81)" fill="#fff"/>
                  <ellipse id="Ellipse_3987" data-name="Ellipse 3987" cx="0.891" cy="0.852" rx="0.891" ry="0.852" transform="translate(40.08 0)" fill="#fff"/>
                  <path id="Path_99294" data-name="Path 99294" d="M464.892,133.662a.892.892,0,1,0,.891-.852A.872.872,0,0,0,464.892,133.662Z" transform="translate(-432.829 -132.81)" fill="#fff"/>
                  <ellipse id="Ellipse_3988" data-name="Ellipse 3988" cx="0.891" cy="0.852" rx="0.891" ry="0.852" transform="translate(24.048 0)" fill="#fff"/>
                  <ellipse id="Ellipse_3989" data-name="Ellipse 3989" cx="0.891" cy="0.852" rx="0.891" ry="0.852" transform="translate(16.032 0)" fill="#fff"/>
                  <path id="Path_99295" data-name="Path 99295" d="M490.231,133.662a.892.892,0,1,0,.891-.852A.872.872,0,0,0,490.231,133.662Z" transform="translate(-482.215 -132.81)" fill="#fff"/>
                  <path id="Path_99296" data-name="Path 99296" d="M498.677,133.662a.892.892,0,1,0,.891-.852A.872.872,0,0,0,498.677,133.662Z" transform="translate(-498.677 -132.81)" fill="#fff"/>
                </g>
              </g>
            </g>
          </g>
        </g>
      </g>
    </g>
    <g id="_27-2" data-name="27" transform="translate(1004.609 14718.758)">
      <rect id="Rectángulo_37007" data-name="Rectángulo 37007" width="347.568" height="220.526" transform="translate(-727.609 89.474)" fill="none"/>
      <g id="Group_107434" data-name="Group 107434" transform="translate(-694.725 89.243)">
        <g id="Group_107423" data-name="Group 107423" transform="translate(221.019 67.857)">
          <rect id="Rectangle_37007" data-name="Rectangle 37007" width="39.079" height="40.737" transform="translate(2.655 0.01)" fill="#e0e0e0"/>
          <rect id="Rectangle_37008" data-name="Rectangle 37008" width="39.079" height="40.737" transform="translate(0.01 0.01)" fill="#fafafa"/>
          <path id="Path_156619" data-name="Path 156619" d="M-270.74,228.674h-39.1V187.918h39.1Zm-39.079-.025h39.054V187.938h-39.054Z" transform="translate(309.839 -187.918)" fill="#e0e0e0"/>
          <rect id="Rectangle_37009" data-name="Rectangle 37009" width="28.574" height="29.783" transform="translate(5.265 5.487)" fill="#fafafa"/>
          <path id="Path_156620" data-name="Path 156620" d="M-304.551,239.482a5.149,5.149,0,0,1-.706.821c-.459.5-1.1,1.134-1.819,1.839s-1.381,1.341-1.865,1.789a4.407,4.407,0,0,1-.826.685,4.687,4.687,0,0,1,.7-.816c.459-.479,1.1-1.134,1.819-1.845s1.385-1.34,1.869-1.788A4.415,4.415,0,0,1-304.551,239.482Z" transform="translate(309.816 -204.016)" fill="#e0e0e0"/>
          <path id="Path_156621" data-name="Path 156621" d="M-260.649,239.379a4.35,4.35,0,0,1,.821.706c.5.453,1.134,1.093,1.839,1.814s1.34,1.38,1.788,1.864a4.411,4.411,0,0,1,.686.827,4.642,4.642,0,0,1-.816-.7c-.479-.453-1.134-1.1-1.844-1.819s-1.341-1.386-1.789-1.87A4.718,4.718,0,0,1-260.649,239.379Z" transform="translate(294.482 -203.983)" fill="#e0e0e0"/>
          <path id="Path_156622" data-name="Path 156622" d="M-260.759,193.679a4.169,4.169,0,0,1,.706-.821c.453-.5,1.093-1.134,1.814-1.844s1.38-1.335,1.869-1.783a4.7,4.7,0,0,1,.821-.691,4.246,4.246,0,0,1-.7.816c-.453.5-1.1,1.133-1.818,1.844s-1.38,1.345-1.87,1.794A4.715,4.715,0,0,1-260.759,193.679Z" transform="translate(294.517 -188.112)" fill="#e0e0e0"/>
          <path id="Path_156623" data-name="Path 156623" d="M-304.632,193.748a4.841,4.841,0,0,1-.821-.706c-.479-.453-1.128-1.1-1.839-1.814s-1.341-1.38-1.789-1.869a4.691,4.691,0,0,1-.685-.826,4.747,4.747,0,0,1,.816.7c.478.459,1.134,1.1,1.844,1.824s1.34,1.38,1.788,1.869A4.7,4.7,0,0,1-304.632,193.748Z" transform="translate(309.816 -188.11)" fill="#e0e0e0"/>
          <path id="Path_156624" data-name="Path 156624" d="M-273.721,225.591a.741.741,0,0,1,0-.146v-2.021c0-1.411,0-3.467-.03-6.071,0-5.215-.035-12.647-.055-21.545l.111.111h-28.493l.126-.126v29.783l-.105-.111,20.627.055,5.794.03h.045l-5.769.025-20.7.056h-.111V195.617h28.735v.111c-.025,8.923-.045,16.38-.061,21.615,0,2.6,0,4.641-.025,6.047v1.99A.413.413,0,0,1-273.721,225.591Z" transform="translate(307.479 -190.322)" fill="#e0e0e0"/>
          <rect id="Rectangle_37010" data-name="Rectangle 37010" width="9.533" height="9.533" transform="translate(14.783 15.609)" fill="#ebebeb"/>
        </g>
        <g id="Group_107424" data-name="Group 107424" transform="translate(80.069 0)">
          <rect id="Rectangle_37011" data-name="Rectangle 37011" width="129.094" height="189.53" transform="matrix(1, -0.028, 0.028, 1, 17.486, 4.922)" fill="#e8e8e8"/>
          <rect id="Rectangle_37012" data-name="Rectangle 37012" width="189.53" height="129.094" transform="matrix(0.055, -0.998, 0.998, 0.055, 0, 189.245)" fill="#e8e8e8"/>
          <rect id="Rectangle_37013" data-name="Rectangle 37013" width="189.53" height="129.094" transform="matrix(0.085, -0.996, 0.996, 0.085, 17.098, 197.189)" fill="#e8e8e8"/>
        </g>
        <g id="Group_107425" data-name="Group 107425" transform="translate(6.091 113.154)">
          <path id="Path_156625" data-name="Path 156625" d="M-657.68,331.217a16.36,16.36,0,0,0-6.979-2.406,4.668,4.668,0,0,0-3.3.611.676.676,0,0,0-.34.6.709.709,0,0,0,.324.411,9.979,9.979,0,0,0,10.3.784" transform="translate(670.12 -277.185)" fill="#e8e8e8"/>
          <path id="Path_156626" data-name="Path 156626" d="M-656.493,327.075A33.49,33.49,0,0,1-661,323.107a11.351,11.351,0,0,1-2.828-5.227,2.084,2.084,0,0,1,.222-1.746c3.6,2.806,6.417,6.439,7.115,10.942" transform="translate(668.754 -273.242)" fill="#e8e8e8"/>
          <path id="Path_156627" data-name="Path 156627" d="M-653.019,327.4a16.376,16.376,0,0,1,.081-5.92,8,8,0,0,1,3.157-4.865,6.99,6.99,0,0,1-.087,4.643,22.575,22.575,0,0,1-3.125,6.579" transform="translate(665.42 -273.392)" fill="#e8e8e8"/>
          <path id="Path_156628" data-name="Path 156628" d="M-651.784,341.473a10.3,10.3,0,0,0-5.6,2.832,10.588,10.588,0,0,0-3.2,5.5c2.1-.13,3.876-1.622,5.168-3.271s2.163-3.475,3.6-5.027" transform="translate(667.71 -281.153)" fill="#e8e8e8"/>
          <path id="Path_156629" data-name="Path 156629" d="M-647.109,337.007a13.821,13.821,0,0,1,1.6-13.061,16.606,16.606,0,0,1-1.6,13.061" transform="translate(663.802 -275.681)" fill="#e8e8e8"/>
          <path id="Path_156630" data-name="Path 156630" d="M-644.312,350.991a10.005,10.005,0,0,0-9.547,5.492c-.113.238-.222.541-.06.752a.7.7,0,0,0,.633.184,8.31,8.31,0,0,0,4.925-2.541,47.765,47.765,0,0,1,4.093-3.892" transform="translate(665.655 -284.119)" fill="#e8e8e8"/>
          <path id="Path_156631" data-name="Path 156631" d="M-640.489,344.549a17.777,17.777,0,0,1-.179-9.931,4.937,4.937,0,0,1,2.119-3.243.415.415,0,0,1,.325-.054.41.41,0,0,1,.2.238,5.944,5.944,0,0,1,.5,2.849,17.89,17.89,0,0,1-.449,2.881c-.373,1.768-.573,3.66-1.535,5.179a10.1,10.1,0,0,0-.627,1.157c-.184.384-.184.541-.351.827" transform="translate(661.686 -277.98)" fill="#e8e8e8"/>
          <path id="Path_156632" data-name="Path 156632" d="M-622.358,348.264a12.819,12.819,0,0,1,2.248-10.531c.157-.211.373-.437.638-.411.4.038.508.573.486.979a19.017,19.017,0,0,1-3.373,9.963" transform="translate(655.875 -279.857)" fill="#e8e8e8"/>
          <path id="Path_156633" data-name="Path 156633" d="M-620.6,352.68a15.31,15.31,0,0,0,12.569-2.557,10.188,10.188,0,0,0-6.807-.833,9.876,9.876,0,0,0-5.763,3.39" transform="translate(655.226 -283.516)" fill="#e8e8e8"/>
          <path id="Path_156634" data-name="Path 156634" d="M-619.235,347.974a14.538,14.538,0,0,1,11.407-6.595,7.136,7.136,0,0,1-3.731,4.124,20.528,20.528,0,0,1-5.476,1.622,3.911,3.911,0,0,0-2.2.871" transform="translate(654.801 -281.124)" fill="#e8e8e8"/>
          <path id="Path_156635" data-name="Path 156635" d="M-622.612,328.637a33.578,33.578,0,0,0,1.459-6.681,11.157,11.157,0,0,0-1.33-6.584,14.524,14.524,0,0,0-.195,13.515" transform="translate(656.368 -273.005)" fill="#e8e8e8"/>
          <path id="Path_156636" data-name="Path 156636" d="M-611.061,325.128a17.882,17.882,0,0,1,13.174-8.963c-2.054,5.119-7.66,9.071-13.174,8.963" transform="translate(652.249 -273.252)" fill="#e8e8e8"/>
          <path id="Path_156637" data-name="Path 156637" d="M-613.427,330.18c3.849.589,7.13,3.044,10.725,4.535a4.81,4.81,0,0,0,2.427.465,1.9,1.9,0,0,0,1.875-1.92,1.9,1.9,0,0,0-.685-1.436,5.148,5.148,0,0,0-1.763-1.081,19.647,19.647,0,0,0-12.25-.682" transform="translate(652.988 -277.385)" fill="#e8e8e8"/>
          <path id="Path_156638" data-name="Path 156638" d="M-616.677,334.377a4.54,4.54,0,0,1,1.859,1.287,20.047,20.047,0,0,0,8.109,4.178c.308.076.719.108.87-.173s-.038-.541-.211-.763a11.243,11.243,0,0,0-4.909-3.335c-1.881-.7-3.5-1.541-5.747-1.357" transform="translate(654.011 -278.879)" fill="#e8e8e8"/>
          <path id="Path_156639" data-name="Path 156639" d="M-620.32,310.565a15.391,15.391,0,0,0,11.8,4.017.827.827,0,0,0,.541-.195c.3-.324-.06-.822-.406-1.081a13.606,13.606,0,0,0-11.936-2.73" transform="translate(655.14 -271.377)" fill="#e8e8e8"/>
          <path id="Path_156640" data-name="Path 156640" d="M-616.021,307.709a16.445,16.445,0,0,1,14.732-2.427,11.7,11.7,0,0,1-7.028,3.081,22.22,22.22,0,0,1-7.7-.654" transform="translate(653.798 -269.613)" fill="#e8e8e8"/>
          <path id="Path_156641" data-name="Path 156641" d="M-618.612,293.54c-.34-3.465-.119-6.2-.356-9.677,0-.275-.081-.611-.341-.713-.362-.14-.664.308-.783.675a11.1,11.1,0,0,0,1.476,9.639" transform="translate(655.227 -262.937)" fill="#e8e8e8"/>
          <path id="Path_156642" data-name="Path 156642" d="M-618.072,293.912a20.35,20.35,0,0,0,5.736-5.606c1.135-1.546,2.092-3.406,1.832-5.309a5.473,5.473,0,0,0-4.135,2.054,11.5,11.5,0,0,0-2.114,4.243c-.459,1.525-.779,3.092-1.319,4.59" transform="translate(654.438 -262.898)" fill="#e8e8e8"/>
          <path id="Path_156643" data-name="Path 156643" d="M-609.909,292.611a46.172,46.172,0,0,0,14.121-8.325,7.224,7.224,0,0,0-5.3.411,16.723,16.723,0,0,0-8.893,7.888" transform="translate(651.913 -263.192)" fill="#e8e8e8"/>
          <path id="Path_156644" data-name="Path 156644" d="M-615.769,299.725a28.645,28.645,0,0,0,7.844.038,33,33,0,0,0,7.314-2.427.865.865,0,0,0,.5-.378.541.541,0,0,0-.178-.627,1.44,1.44,0,0,0-.622-.292,13.553,13.553,0,0,0-7.909.47,37.083,37.083,0,0,0-6.946,3.216" transform="translate(653.719 -266.846)" fill="#e8e8e8"/>
          <path id="Path_156645" data-name="Path 156645" d="M-638,305.713a13.869,13.869,0,0,1-.124-11.477,8.784,8.784,0,0,1,1.017,5.7c-.195,1.957-.779,3.968-.833,5.952" transform="translate(661.066 -266.406)" fill="#e8e8e8"/>
          <path id="Path_156646" data-name="Path 156646" d="M-653.133,305.71a15.986,15.986,0,0,0-11.893,5.071,11.14,11.14,0,0,0,6.514-1.211,32.788,32.788,0,0,0,5.568-3.735" transform="translate(669.096 -269.988)" fill="#e8e8e8"/>
          <path id="Path_156647" data-name="Path 156647" d="M-659.754,303.3c-2.162-.179-4.265-.449-6.352.195a7.6,7.6,0,0,0-4.838,4.1A11.482,11.482,0,0,0-665,306.47a34.085,34.085,0,0,0,5.238-3.173" transform="translate(670.944 -269.169)" fill="#e8e8e8"/>
          <path id="Path_156648" data-name="Path 156648" d="M-650.17,301.982a20.032,20.032,0,0,0-6.238-3.114,6.773,6.773,0,0,0-6.487,1.579,12.124,12.124,0,0,0,6.206,1.205,22.287,22.287,0,0,1,6.768.687" transform="translate(668.432 -267.784)" fill="#e8e8e8"/>
          <path id="Path_156649" data-name="Path 156649" d="M-646.1,297.446c-3.341-3.276-4.606-9.19-3.243-13.655a20.808,20.808,0,0,1,3.243,13.655" transform="translate(664.368 -263.146)" fill="#e8e8e8"/>
          <path id="Path_156650" data-name="Path 156650" d="M-631.025,285.233c.633-1.465,1.081-3,1.622-4.492a12.962,12.962,0,0,1,2.335-4.141,6.168,6.168,0,0,1,4.141-2.163,16.66,16.66,0,0,1-8.034,10.812" transform="translate(658.482 -260.226)" fill="#e8e8e8"/>
          <path id="Path_156651" data-name="Path 156651" d="M-637.361,290.276a21.594,21.594,0,0,0-3.66-4.449,6.1,6.1,0,0,0-4.984-1.308,11.6,11.6,0,0,0,8.649,5.757" transform="translate(663.158 -263.333)" fill="#e8e8e8"/>
          <path id="Path_156652" data-name="Path 156652" d="M-633.756,285.43a24.812,24.812,0,0,1-1.622-5.335,8.322,8.322,0,0,1,.838-5.406c1.832,3.465,2.422,7.19.9,10.812" transform="translate(659.883 -260.304)" fill="#e8e8e8"/>
          <path id="Path_156653" data-name="Path 156653" d="M-631.009,271.328c1.038-3.433,4.184-5.947,7.568-7.125a2.81,2.81,0,0,1,1.33-.2,1.166,1.166,0,0,1,.978.816c.125.589-.362,1.081-.816,1.5a25.721,25.721,0,0,1-9.076,5.011" transform="translate(658.482 -256.964)" fill="#e8e8e8"/>
          <path id="Path_156654" data-name="Path 156654" d="M-630.979,265.328a24.79,24.79,0,0,1,.989-6.563,8.312,8.312,0,0,1,4.13-4.989c.346,2.237-.643,4.465-1.833,6.39s-2.627,3.741-3.341,5.892" transform="translate(658.484 -253.775)" fill="#e8e8e8"/>
          <path id="Path_156655" data-name="Path 156655" d="M-633.947,267.326c-.86-2.508-.946-5.687-2.443-7.871-1.049-1.524-2.7-2.562-3.633-4.178a6.363,6.363,0,0,0,.21,4.747A13.835,13.835,0,0,0-637.039,264c1.114,1.184,2.06,2.076,3.092,3.33" transform="translate(661.403 -254.244)" fill="#e8e8e8"/>
          <path id="Path_156656" data-name="Path 156656" d="M-631.06,346.148c-.065,0-.124-16.7-.13-37.3s.049-37.3.113-37.3.124,16.7.13,37.3S-630.99,346.148-631.06,346.148Z" transform="translate(658.534 -259.323)" fill="#e8e8e8"/>
          <path id="Path_156657" data-name="Path 156657" d="M-616.373,307.26a3.889,3.889,0,0,1-.633.233l-1.724.583c-1.46.5-3.46,1.217-5.633,2.109a21.282,21.282,0,0,0-5.335,2.67,4.017,4.017,0,0,0-1.081,1.422c-.162.389-.195.633-.216.627a.581.581,0,0,1,0-.178,2.909,2.909,0,0,1,.124-.487,3.752,3.752,0,0,1,1.049-1.508,9.346,9.346,0,0,1,2.313-1.438c.925-.433,1.952-.887,3.044-1.335,2.162-.892,4.195-1.589,5.671-2.043.735-.227,1.335-.4,1.751-.508A3.158,3.158,0,0,1-616.373,307.26Z" transform="translate(658.475 -270.472)" fill="#e8e8e8"/>
          <path id="Path_156658" data-name="Path 156658" d="M-611.106,290.165a1.344,1.344,0,0,1-.178.189l-.541.5-2,1.822-6.66,5.946c-2.6,2.314-4.866,4.525-6.406,6.19-.779.832-1.395,1.519-1.811,2l-.486.541a1.036,1.036,0,0,1-.179.184,1.244,1.244,0,0,1,.141-.211c.1-.135.248-.335.454-.584.395-.5.989-1.211,1.757-2.059a84.866,84.866,0,0,1,6.369-6.255c2.611-2.308,4.985-4.379,6.709-5.876l2.055-1.762.541-.465A1.072,1.072,0,0,1-611.106,290.165Z" transform="translate(657.964 -265.135)" fill="#e8e8e8"/>
          <path id="Path_156659" data-name="Path 156659" d="M-620.527,303.235c-.071-.033.469-1.287,1.016-2.871s.8-2.925.871-2.914a9.773,9.773,0,0,1-.644,2.989,18.533,18.533,0,0,1-.811,2.011A3.5,3.5,0,0,1-620.527,303.235Z" transform="translate(655.206 -267.41)" fill="#e8e8e8"/>
          <path id="Path_156660" data-name="Path 156660" d="M-635.356,315.032a3.04,3.04,0,0,1-.4-.465l-1.027-1.314c-.86-1.114-2.054-2.654-3.39-4.324s-2.563-3.195-3.454-4.287l-1.066-1.287a3.216,3.216,0,0,1-.362-.5,3.173,3.173,0,0,1,.432.433c.27.292.649.719,1.081,1.254.924,1.081,2.162,2.557,3.514,4.244s2.508,3.244,3.335,4.384c.417.568.746,1.039.968,1.362A2.921,2.921,0,0,1-635.356,315.032Z" transform="translate(662.861 -269.098)" fill="#e8e8e8"/>
          <path id="Path_156661" data-name="Path 156661" d="M-636.383,312.291a5.887,5.887,0,0,1-1.341-2.508,7.108,7.108,0,0,1-.3-2.53h.1c-.043.195-.081.3-.1.292a1.489,1.489,0,0,1,0-.308h.108a11.226,11.226,0,0,0,.427,2.46A18.774,18.774,0,0,0-636.383,312.291Z" transform="translate(660.672 -270.465)" fill="#e8e8e8"/>
          <path id="Path_156662" data-name="Path 156662" d="M-644.921,306.56a4.366,4.366,0,0,0-.941-.541,6.157,6.157,0,0,0-2.6-.206,16.1,16.1,0,0,0-2.622.422,8.684,8.684,0,0,1-1.081.259,3.551,3.551,0,0,1,1.033-.422,11.914,11.914,0,0,1,2.643-.5,5.673,5.673,0,0,1,2.7.292A1.662,1.662,0,0,1-644.921,306.56Z" transform="translate(665.08 -269.929)" fill="#e8e8e8"/>
          <path id="Path_156663" data-name="Path 156663" d="M-647.676,304.5c0,.038-.541-.221-1.433-.541a14.491,14.491,0,0,0-7.228-.541c-.924.168-1.487.341-1.5.3a1.427,1.427,0,0,1,.378-.162,9.672,9.672,0,0,1,1.081-.3,12.842,12.842,0,0,1,3.7-.259,13,13,0,0,1,3.622.816,9.551,9.551,0,0,1,1.021.465C-647.79,304.408-647.665,304.467-647.676,304.5Z" transform="translate(666.851 -269.129)" fill="#e8e8e8"/>
          <path id="Path_156664" data-name="Path 156664" d="M-631.864,294.126a30.133,30.133,0,0,1-1.032-3.633,29.989,29.989,0,0,1-.817-3.692,29.46,29.46,0,0,1,1.049,3.633A29.379,29.379,0,0,1-631.864,294.126Z" transform="translate(659.321 -264.085)" fill="#e8e8e8"/>
          <path id="Path_156665" data-name="Path 156665" d="M-632.255,295.67a17.6,17.6,0,0,0-1.157-2.162,9.447,9.447,0,0,0-1.708-1.762,1.539,1.539,0,0,1,.66.34,5.322,5.322,0,0,1,1.249,1.281A4.757,4.757,0,0,1-632.255,295.67Z" transform="translate(659.76 -265.629)" fill="#e8e8e8"/>
          <path id="Path_156666" data-name="Path 156666" d="M-637.955,355.985s-.076-.406-.26-1.114a16.262,16.262,0,0,0-1.119-2.892,39.893,39.893,0,0,0-5.946-8.342c-1.319-1.513-2.6-2.935-3.692-4.324a30.383,30.383,0,0,1-2.644-3.811,18.217,18.217,0,0,1-1.33-2.828c-.124-.346-.217-.616-.265-.805a1.291,1.291,0,0,1-.065-.292s.141.384.417,1.081a20.41,20.41,0,0,0,1.422,2.779,31.663,31.663,0,0,0,2.665,3.758c1.081,1.352,2.379,2.768,3.7,4.282a37.839,37.839,0,0,1,5.892,8.428,14.137,14.137,0,0,1,1.081,2.946,8.072,8.072,0,0,1,.151.838A1.229,1.229,0,0,1-637.955,355.985Z" transform="translate(665.428 -278.064)" fill="#e8e8e8"/>
          <path id="Path_156667" data-name="Path 156667" d="M-617.8,345.4a6.846,6.846,0,0,1-.686.384,14.113,14.113,0,0,0-1.795,1.189,20.181,20.181,0,0,0-2.357,2.162c-.827.87-1.676,1.887-2.546,2.974a70.717,70.717,0,0,0-4.325,5.649,20.379,20.379,0,0,0-1.081,1.86,6.552,6.552,0,0,1-.384.7.864.864,0,0,1,.065-.2c.054-.124.124-.308.233-.541a18.542,18.542,0,0,1,1.027-1.909,62.494,62.494,0,0,1,4.292-5.709c.871-1.08,1.735-2.1,2.574-2.978a19.62,19.62,0,0,1,2.416-2.13,12.721,12.721,0,0,1,1.843-1.146c.233-.113.416-.184.541-.238S-617.8,345.391-617.8,345.4Z" transform="translate(658.467 -282.379)" fill="#e8e8e8"/>
          <path id="Path_156668" data-name="Path 156668" d="M-615.581,352.42a10.346,10.346,0,0,1-1.46.211,18.927,18.927,0,0,0-3.465.681,10.5,10.5,0,0,0-3.1,1.622,8.766,8.766,0,0,0-1.081.984,1.256,1.256,0,0,1,.216-.335,5.488,5.488,0,0,1,.763-.779,9.428,9.428,0,0,1,3.135-1.724,15.77,15.77,0,0,1,3.525-.627A7.783,7.783,0,0,1-615.581,352.42Z" transform="translate(656.504 -284.564)" fill="#e8e8e8"/>
          <path id="Path_156669" data-name="Path 156669" d="M-624.08,354.5c-.076-.043.584-1.049,1.081-2.4s.589-2.562.675-2.551a2.205,2.205,0,0,1,0,.783,7.983,7.983,0,0,1-1.275,3.541A2.329,2.329,0,0,1-624.08,354.5Z" transform="translate(656.315 -283.676)" fill="#e8e8e8"/>
          <path id="Path_156670" data-name="Path 156670" d="M-613.542,326.532a1.218,1.218,0,0,1-.238.124l-.686.314c-.3.13-.664.292-1.081.508s-.892.433-1.394.735l-.8.454c-.276.157-.541.346-.838.541-.589.357-1.178.794-1.805,1.244a33.72,33.72,0,0,0-3.784,3.314,34.1,34.1,0,0,0-3.184,3.876c-.427.644-.843,1.249-1.179,1.849-.173.3-.351.573-.5.86l-.426.811c-.281.508-.487,1-.687,1.422s-.351.784-.47,1.081-.211.514-.287.7a1.074,1.074,0,0,1-.119.238,1.159,1.159,0,0,1,.07-.255c.065-.189.146-.427.249-.713a10.35,10.35,0,0,1,.437-1.114c.184-.427.379-.924.654-1.444l.417-.827c.146-.287.318-.568.492-.871.329-.605.746-1.222,1.168-1.87a29.959,29.959,0,0,1,7-7.244c.638-.449,1.238-.887,1.832-1.238.3-.178.573-.362.854-.541l.811-.444c.508-.292,1-.5,1.416-.7a10.86,10.86,0,0,1,1.081-.476l.7-.27A1.291,1.291,0,0,1-613.542,326.532Z" transform="translate(658.482 -276.489)" fill="#e8e8e8"/>
          <path id="Path_156671" data-name="Path 156671" d="M-620.792,335.912a1.723,1.723,0,0,1,.578-.854,3.615,3.615,0,0,1,2.314-.887,6.268,6.268,0,0,1,2.433.476,3.429,3.429,0,0,1,.919.443,5.1,5.1,0,0,1-.978-.286,7.535,7.535,0,0,0-2.368-.395,3.786,3.786,0,0,0-2.211.779A7.661,7.661,0,0,0-620.792,335.912Z" transform="translate(655.287 -278.874)" fill="#e8e8e8"/>
          <path id="Path_156672" data-name="Path 156672" d="M-623.055,337.052a8.8,8.8,0,0,0,.654-2.135,8.47,8.47,0,0,0-.141-2.255,1.4,1.4,0,0,1,.27.622,4.457,4.457,0,0,1,.119,1.622,4.31,4.31,0,0,1-.492,1.562C-622.855,336.879-623.034,337.068-623.055,337.052Z" transform="translate(655.994 -278.403)" fill="#e8e8e8"/>
          <path id="Path_156673" data-name="Path 156673" d="M-647.774,370.538A55.488,55.488,0,0,0-642.53,390h12.866a55.8,55.8,0,0,0,4.93-19.462Z" transform="translate(663.711 -290.227)" fill="#e8e8e8"/>
          <path id="Path_156674" data-name="Path 156674" d="M-625.9,385.5c0,.07-4.233.124-9.46.124s-9.461-.054-9.461-.124,4.233-.119,9.461-.119S-625.9,385.439-625.9,385.5Z" transform="translate(662.788 -294.862)" fill="#e8e8e8"/>
          <path id="Path_156675" data-name="Path 156675" d="M-625.782,388.868c0,.065-3.968.119-8.866.119s-8.882-.054-8.882-.119,3.968-.119,8.871-.119S-625.782,388.8-625.782,388.868Z" transform="translate(662.386 -295.912)" fill="#e8e8e8"/>
          <path id="Path_156676" data-name="Path 156676" d="M-639.906,376.676a35.476,35.476,0,0,1,0,5.947A36.835,36.835,0,0,1-639.906,376.676Z" transform="translate(661.292 -292.143)" fill="#e8e8e8"/>
          <path id="Path_156677" data-name="Path 156677" d="M-629.879,376.676a39.708,39.708,0,0,1,0,6.136A37.929,37.929,0,0,1-629.879,376.676Z" transform="translate(658.163 -292.143)" fill="#e8e8e8"/>
          <path id="Path_156678" data-name="Path 156678" d="M-620.47,376.558a41.367,41.367,0,0,1,0,6.261A39.439,39.439,0,0,1-620.47,376.558Z" transform="translate(655.226 -292.106)" fill="#e8e8e8"/>
          <path id="Path_156679" data-name="Path 156679" d="M-624.94,376.62c0,.065-4.973.119-11.1.119s-11.1-.054-11.1-.119,4.968-.124,11.1-.124S-624.94,376.523-624.94,376.62Z" transform="translate(663.512 -292.087)" fill="#e8e8e8"/>
        </g>
        <g id="Group_107426" data-name="Group 107426" transform="translate(25.352 18.391)">
          <rect id="Rectangle_37014" data-name="Rectangle 37014" width="48.078" height="69.688" transform="translate(2.419 0)" fill="#e0e0e0"/>
          <rect id="Rectangle_37015" data-name="Rectangle 37015" width="48.078" height="69.688" transform="translate(0.01 0)" fill="#f5f5f5"/>
          <rect id="Rectangle_37016" data-name="Rectangle 37016" width="36.131" height="54.593" transform="translate(5.981 7.548)" fill="#fff"/>
          <path id="Path_156680" data-name="Path 156680" d="M-656.939,191.28v-4.061c0-2.615,0-6.43-.03-11.241,0-9.629-.035-23.258-.06-39.3l.12.116h-36.126l.13-.131c0,20.592,0,39.578-.025,54.588l-.106-.1,26.3.055,7.265.025h.041l-7.245.025-26.362.056h-.106V136.486h36.383v.12c0,16.083-.045,29.728-.061,39.387,0,4.806,0,8.611-.03,11.22v3.729A.78.78,0,0,1-656.939,191.28Z" transform="translate(699.051 -129.144)" fill="#e0e0e0"/>
          <path id="Path_156681" data-name="Path 156681" d="M-634.6,125.812a8.439,8.439,0,0,1-.856,1.245c-.56.746-1.351,1.764-2.258,2.862s-1.748,2.07-2.374,2.761a8.163,8.163,0,0,1-1.058,1.079,8.577,8.577,0,0,1,.917-1.2l2.313-2.806,2.312-2.812A9.065,9.065,0,0,1-634.6,125.812Z" transform="translate(682.819 -125.812)" fill="#e0e0e0"/>
          <path id="Path_156682" data-name="Path 156682" d="M-640.237,215.894a44.644,44.644,0,0,0,6.3,7.885" transform="translate(682.535 -153.935)" fill="#fff"/>
          <path id="Path_156683" data-name="Path 156683" d="M-633.939,223.777a7.557,7.557,0,0,1-1.1-1.008,34.989,34.989,0,0,1-2.378-2.68,35.6,35.6,0,0,1-2.091-2.907,6.817,6.817,0,0,1-.731-1.3,11.006,11.006,0,0,1,.882,1.189c.535.746,1.275,1.764,2.147,2.852s1.7,2.016,2.308,2.716A8.774,8.774,0,0,1-633.939,223.777Z" transform="translate(682.535 -153.932)" fill="#e0e0e0"/>
          <path id="Path_156684" data-name="Path 156684" d="M-701.734,223.5l6.3-7.77" transform="translate(701.734 -153.884)" fill="#fff"/>
          <path id="Path_156685" data-name="Path 156685" d="M-695.436,215.747a48.515,48.515,0,0,1-3.048,3.971,47.325,47.325,0,0,1-3.25,3.789,48.863,48.863,0,0,1,3.048-3.965A48.071,48.071,0,0,1-695.436,215.747Z" transform="translate(701.734 -153.889)" fill="#e0e0e0"/>
          <path id="Path_156686" data-name="Path 156686" d="M-701.719,125.812a43.6,43.6,0,0,1,3.053,3.653,43.224,43.224,0,0,1,2.852,3.815,43.117,43.117,0,0,1-3.058-3.653A42.52,42.52,0,0,1-701.719,125.812Z" transform="translate(701.729 -125.812)" fill="#e0e0e0"/>
          <rect id="Rectangle_37017" data-name="Rectangle 37017" width="12.098" height="34.348" transform="translate(18.759 18.628)" fill="#e0e0e0"/>
        </g>
        <g id="freepik--Floor--inject-35" transform="translate(0 212.891)">
          <path id="Path_156687" data-name="Path 156687" d="M-392.917,398.912c0,.076-84.8.131-146.877.131s-140.005-.055-140.005-.131,77.875-.131,140.005-.131S-392.917,398.842-392.917,398.912Z" transform="translate(679.799 -398.781)" fill="#263238"/>
        </g>
        <g id="freepik--Manual--inject-35" transform="translate(82.7 14.363)">
          <path id="Path_156688" data-name="Path 156688" d="M-558.67,112.392h141.739a5.366,5.366,0,0,1,5.366,5.361V303.061a5.365,5.365,0,0,1-5.366,5.366H-558.67V112.392Z" transform="translate(559.284 -110.846)" fill="#18a263"/>
          <rect id="Rectangle_37018" data-name="Rectangle 37018" width="78.641" height="189.961" transform="translate(65.002 7.615)" fill="#e0e0e0"/>
          <path id="Path_156690" data-name="Path 156690" d="M-559.562,110.145h131.731a5.366,5.366,0,0,1,5.366,5.366h0V302.36a5.366,5.366,0,0,1-5.366,5.366H-559.562V110.145Z" transform="translate(559.562 -110.145)" fill="#20cb7d"/>
          <path id="Path_156691" data-name="Path 156691" d="M-539.132,308.079c-.075,0-.13-44.312-.13-98.962s.055-98.972.13-98.972.129,44.3.129,98.972S-539.062,308.079-539.132,308.079Z" transform="translate(553.225 -110.145)" fill="#263238"/>
          <path id="Path_156692" data-name="Path 156692" d="M-533.753,308.079c-.069,0-.129-44.312-.129-98.962s.06-98.972.129-98.972.13,44.3.13,98.972S-533.683,308.079-533.753,308.079Z" transform="translate(551.545 -110.145)" fill="#263238"/>
          <path id="Path_156693" data-name="Path 156693" d="M-490.91,211.487l-.035-6.189-2.992,5.037h-1.471l-2.992-4.872v6.025h-3.052V199.808h2.717l4.1,6.742,3.989-6.742h2.718l.034,11.679Z" transform="translate(541.421 -145.015)" fill="#fff"/>
          <path id="Path_156694" data-name="Path 156694" d="M-471.13,209.211h-4.957l-.918,2.268h-3.371l5.156-11.678h3.256l5.172,11.678h-3.436Zm-.967-2.429-1.5-3.74-1.5,3.74Z" transform="translate(534.841 -145.012)" fill="#fff"/>
          <path id="Path_156695" data-name="Path 156695" d="M-448.135,199.808v11.679h-2.722l-5.176-6.224v6.224h-3.236V199.808h2.737l5.157,6.223v-6.223Z" transform="translate(528.252 -145.015)" fill="#fff"/>
          <path id="Path_156696" data-name="Path 156696" d="M-439.833,206.276v-6.483h3.331v6.373c0,1.995.833,2.8,2.22,2.8s2.2-.8,2.2-2.8V199.8h3.257v6.483c0,3.491-2.035,5.441-5.486,5.441S-439.833,209.767-439.833,206.276Z" transform="translate(522.184 -145.01)" fill="#fff"/>
          <path id="Path_156697" data-name="Path 156697" d="M-413.8,209.211h-4.942l-.918,2.268h-3.371l5.156-11.678h3.256l5.172,11.678h-3.436Zm-.967-2.433-1.5-3.74-1.5,3.74Z" transform="translate(516.94 -145.012)" fill="#fff"/>
          <path id="Path_156698" data-name="Path 156698" d="M-401.907,199.808h3.3v9.061h5.575v2.618h-8.876Z" transform="translate(510.344 -145.015)" fill="#fff"/>
          <g id="Group_107428" data-name="Group 107428" transform="translate(14.092)" opacity="0.3">
            <rect id="Rectangle_37019" data-name="Rectangle 37019" width="3.705" height="197.935"/>
          </g>
          <path id="Path_156710" data-name="Path 156710" d="M-420.489,132.76V110.145h21.782v23.034l-10.682,10.682Z" transform="translate(516.145 -110.145)" fill="#455a64"/>
          <path id="Path_156711" data-name="Path 156711" d="M-357.471,121.216c.07,0,.129,42.068.129,93.95s-.06,93.961-.129,93.961-.13-42.058-.13-93.961S-357.531,121.216-357.471,121.216Z" transform="translate(496.512 -113.601)" fill="#263238"/>
          <path id="Path_156712" data-name="Path 156712" d="M-354.209,121.216c.07,0,.13,42.068.13,93.95s-.06,93.961-.13,93.961-.129-42.058-.129-93.961S-354.284,121.216-354.209,121.216Z" transform="translate(495.494 -113.601)" fill="#263238"/>
          <path id="Path_156713" data-name="Path 156713" d="M-357.391,160.954h5.456l4.987,3.78-4.473,4.468h-5.969Z" transform="translate(496.447 -126.007)" fill="#455a64"/>
          <rect id="Rectangle_37020" data-name="Rectangle 37020" width="10.303" height="6.862" transform="translate(141.285 51.144)" fill="#20cb7d"/>
          <g id="Group_107429" data-name="Group 107429" transform="translate(50.124 88.577)" opacity="0.3">
            <path id="Path_156714" data-name="Path 156714" d="M-435.381,283.031l-6.154,5.985a1.627,1.627,0,0,1-2.264,0l-42.387-40.573a1.63,1.63,0,0,1-.05-2.3l6.423-6.712a1.632,1.632,0,0,1,2.306-.048l.013.013,42.133,41.285a1.626,1.626,0,0,1,.036,2.3Z" transform="translate(486.688 -238.925)"/>
          </g>
          <path id="Path_156715" data-name="Path 156715" d="M-471.118,243.613a13.7,13.7,0,0,1-1.705,1.955,13.265,13.265,0,0,1-1.89,1.781,13.377,13.377,0,0,1,1.705-1.955A12.978,12.978,0,0,1-471.118,243.613Z" transform="translate(533.073 -151.812)" fill="#263238"/>
          <path id="Path_156716" data-name="Path 156716" d="M-461.323,253.046a26.23,26.23,0,0,1-3.6,3.74,13.285,13.285,0,0,1,1.705-1.96A13.614,13.614,0,0,1-461.323,253.046Z" transform="translate(530.015 -154.757)" fill="#263238"/>
          <path id="Path_156717" data-name="Path 156717" d="M-467,247.927a23.691,23.691,0,0,1-2.328,2.583,24.223,24.223,0,0,1-2.493,2.4,23.909,23.909,0,0,1,2.328-2.578A23.452,23.452,0,0,1-467,247.927Z" transform="translate(532.17 -153.159)" fill="#263238"/>
          <path id="Path_156718" data-name="Path 156718" d="M-456.928,258a23.432,23.432,0,0,1-2.329,2.578,23.93,23.93,0,0,1-2.493,2.4,46.779,46.779,0,0,1,4.837-4.987Z" transform="translate(529.026 -156.301)" fill="#263238"/>
          <path id="Path_156719" data-name="Path 156719" d="M-451.743,262.631a13.067,13.067,0,0,1-1.706,1.955,13.342,13.342,0,0,1-1.885,1.78,13.117,13.117,0,0,1,1.7-1.955A13.189,13.189,0,0,1-451.743,262.631Z" transform="translate(527.023 -157.749)" fill="#263238"/>
          <path id="Path_156720" data-name="Path 156720" d="M-447.326,267.583a24.87,24.87,0,0,1-2.323,2.578,23.334,23.334,0,0,1-2.493,2.4,24.54,24.54,0,0,1,2.328-2.578A23.487,23.487,0,0,1-447.326,267.583Z" transform="translate(526.027 -159.295)" fill="#263238"/>
          <path id="Path_156721" data-name="Path 156721" d="M-442.161,272.208a26.187,26.187,0,0,1-3.6,3.74,13.256,13.256,0,0,1,1.706-1.96A12.921,12.921,0,0,1-442.161,272.208Z" transform="translate(524.033 -160.739)" fill="#263238"/>
          <path id="Path_156722" data-name="Path 156722" d="M-437.771,277.16a22.874,22.874,0,0,1-2.324,2.578,23.112,23.112,0,0,1-2.493,2.4,23.766,23.766,0,0,1,2.329-2.583A24.17,24.17,0,0,1-437.771,277.16Z" transform="translate(523.044 -162.285)" fill="#263238"/>
          <path id="Path_156723" data-name="Path 156723" d="M-432.583,281.786a26.148,26.148,0,0,1-3.6,3.74,13.56,13.56,0,0,1,1.706-1.96A13.987,13.987,0,0,1-432.583,281.786Z" transform="translate(521.043 -163.729)" fill="#263238"/>
          <path id="Path_156724" data-name="Path 156724" d="M-428.188,286.709a23.694,23.694,0,0,1-2.329,2.583,24.164,24.164,0,0,1-2.493,2.4,24.279,24.279,0,0,1,2.323-2.578A23.627,23.627,0,0,1-428.188,286.709Z" transform="translate(520.054 -165.266)" fill="#263238"/>
          <path id="Path_156725" data-name="Path 156725" d="M-423,291.37a12.787,12.787,0,0,1-1.7,1.955,13.545,13.545,0,0,1-1.89,1.781,12.969,12.969,0,0,1,1.706-1.955A13.35,13.35,0,0,1-423,291.37Z" transform="translate(518.051 -166.721)" fill="#263238"/>
          <g id="Group_107430" data-name="Group 107430" transform="translate(79.055 88.065)" opacity="0.3">
            <path id="Path_156726" data-name="Path 156726" d="M-444.625,255.716l5.934,5.565,3.989-3.925s6.418,1.995,10.547-2.563c3.75-4.124,2.633-10.123,2.633-10.123l-6.912,6.1-5.849-5.849,6.168-6.4a10.6,10.6,0,0,0-10.762,3.421c-3.71,4.2-1.8,9.729-1.8,9.729Z" transform="translate(444.625 -238.181)"/>
          </g>
          <g id="Group_107431" data-name="Group 107431" transform="translate(48.621 116.291)" opacity="0.3">
            <path id="Path_156727" data-name="Path 156727" d="M-465.809,284.77c-.144-.259-5.924-5.551-5.924-5.551l-3.76,3.681s-7.056-1.407-10.547,2.563a12.379,12.379,0,0,0-2.633,10.123l6.912-6.1,5.849,5.855-6.168,6.393a10.613,10.613,0,0,0,10.762-3.4c3.71-4.2,1.8-9.734,1.8-9.734Z" transform="translate(488.873 -279.219)"/>
          </g>
          <path id="Path_156728" data-name="Path 156728" d="M-422.327,365.568c0,.075-18.72.129-41.8.129s-41.809-.054-41.809-.129,18.715-.13,41.809-.13S-422.327,365.5-422.327,365.568Z" transform="translate(542.822 -189.844)" fill="#fff"/>
          <path id="Path_156729" data-name="Path 156729" d="M-429.614,371.361c0,.069-12.312.129-27.492.129s-27.5-.06-27.5-.129,12.313-.13,27.5-.13S-429.614,371.286-429.614,371.361Z" transform="translate(536.161 -191.653)" fill="#fff"/>
          <rect id="Rectangle_37021" data-name="Rectangle 37021" width="6.588" height="6.588" transform="translate(75.395 183.533)" fill="#e0e0e0"/>
        </g>
        <g id="freepik--Character--inject-35" transform="translate(45.571 23.971)">
          <path id="Path_156730" data-name="Path 156730" d="M-565.271,382.757l-1.533,11.149s10.813,5.3,10.73,7.384l-21.714-2.206,1.654-17.463Z" transform="translate(602.381 -204.504)" fill="#455a64"/>
          <path id="Path_156731" data-name="Path 156731" d="M-571.771,397.123a.889.889,0,0,0-.712.948.854.854,0,0,0,.932.717.942.942,0,0,0,.755-1.009.893.893,0,0,0-1.059-.639" transform="translate(600.726 -209.341)" fill="#e0e0e0"/>
          <g id="Group_107432" data-name="Group 107432" transform="translate(24.594 192.844)" opacity="0.6">
            <path id="Path_156732" data-name="Path 156732" d="M-577.788,406.238l.237-1.753,20.732,2.757s.927.519.745,1.186Z" transform="translate(577.788 -404.485)" fill="#fff"/>
          </g>
          <path id="Path_156733" data-name="Path 156733" d="M-562.24,399.3c0,.1-.552.1-1.1.391s-.876.706-.971.651.127-.645.805-.987S-562.206,399.194-562.24,399.3Z" transform="translate(598.181 -209.979)" fill="#263238"/>
          <path id="Path_156734" data-name="Path 156734" d="M-558.838,401.056c0,.1-.463.237-.871.651s-.551.876-.662.86-.11-.623.4-1.1S-558.832,400.95-558.838,401.056Z" transform="translate(596.962 -210.555)" fill="#263238"/>
          <path id="Path_156735" data-name="Path 156735" d="M-556.682,404.429c-.1,0-.193-.551.138-1.1s.854-.733.887-.64-.3.369-.551.827S-556.572,404.429-556.682,404.429Z" transform="translate(595.821 -211.073)" fill="#263238"/>
          <path id="Path_156736" data-name="Path 156736" d="M-562.21,395.394c-.055.094-.552-.1-1.1-.121s-1.1.121-1.136.028.441-.43,1.152-.4S-562.149,395.317-562.21,395.394Z" transform="translate(598.218 -208.65)" fill="#263238"/>
          <path id="Path_156737" data-name="Path 156737" d="M-603.658,272.052s-3.987,28.3-1.98,32.923c1.549,3.579,4.3,5.134,7.808,6.038a125,125,0,0,0,13.2,2.233l2.757-16.3-6.193-1.351,5.7-20.286-10.107-6.908Z" transform="translate(611.252 -169.156)" fill="#263238"/>
          <path id="Path_156738" data-name="Path 156738" d="M-573.85,274.8l-5,78.171,13.785.7,6.137-38.779s6.551-31.981,7-35.89a105.045,105.045,0,0,0,0-12.214Z" transform="translate(602.712 -168.655)" fill="#263238"/>
          <path id="Path_156739" data-name="Path 156739" d="M-574.014,287.315a.632.632,0,0,1,0,.154v.453c0,.413-.033.992-.06,1.726-.072,1.5-.182,3.672-.342,6.352-.314,5.359-.839,12.764-1.378,20.953-.248,4.091-.486,7.984-.7,11.535s-.6,6.722-.866,9.374-.468,4.836-.585,6.331c-.055.733-.1,1.306-.132,1.726a1.516,1.516,0,0,1-.038.446.5.5,0,0,1,0,.149v-.6c0-.4.038-.976.082-1.726.083-1.5.243-3.672.491-6.346s.551-5.855.8-9.374.4-7.443.678-11.529c.552-8.166,1.1-15.555,1.461-20.953.182-2.663.331-4.825.431-6.346.055-.734.094-1.307.121-1.726a1.506,1.506,0,0,1,.039-.446A.721.721,0,0,1-574.014,287.315Z" transform="translate(602.484 -175.062)" fill="#455a64"/>
          <path id="Path_156740" data-name="Path 156740" d="M-579.121,297.191a2.345,2.345,0,0,1-.083.612c-.077.391-.2.96-.364,1.654-.325,1.384-.849,3.308-1.55,5.348s-1.444,3.888-2.029,5.189c-.292.65-.551,1.174-.722,1.527a2.4,2.4,0,0,1-.309.552,2.868,2.868,0,0,1,.21-.585c.171-.43.386-.948.634-1.561.551-1.318,1.246-3.148,1.946-5.2s1.246-3.937,1.654-5.31l.446-1.621A2.644,2.644,0,0,1-579.121,297.191Z" transform="translate(604.376 -178.146)" fill="#455a64"/>
          <path id="Path_156741" data-name="Path 156741" d="M-590.625,173.191l-3.308,2.641s-10.532,1.88-11.43,3.523l3.424,21.13,2.658,18.129s-3.981,10.691-4.092,15.2,0,8.271,0,8.271h1.974a17.818,17.818,0,0,1,12.334,4.962h0l3.634-3.308.712,6.274s14.258.877,17.887-1.874,8.552-8.585,8.552-8.585.849-14.634-3.491-22.022-5.431-8.922-5.431-8.922,1.544-12.748,1.544-13.19,1.318-17.832,1.318-17.832l-10.94-2.757-3.165-2.421Z" transform="translate(610.99 -139.191)" fill="#fda929"/>
          <g id="Group_107433" data-name="Group 107433" transform="translate(11.264 74.204)" opacity="0.3">
            <path id="Path_156742" data-name="Path 156742" d="M-597.11,238.236a6.124,6.124,0,0,0,5.067,1.555,24.928,24.928,0,0,1,3.628-.673c1.8.028,3.347,1.174,4.912,2.051a18.072,18.072,0,0,0,11.2,2.106c4.411-.612,8.453-2.845,12.2-5.265a2.728,2.728,0,0,0,.744-.623,1.705,1.705,0,0,0-.1-1.974,2.854,2.854,0,0,0-1.8-1.014,11.064,11.064,0,0,0-3.8.276,23.69,23.69,0,0,1-8.105-.072c-3.4-.618-6.617-1.974-10.058-2.431A19.691,19.691,0,0,0-594.48,234a6.161,6.161,0,0,0-2.024,1.418,3.815,3.815,0,0,0-.606,2.817" transform="translate(597.168 -231.997)"/>
          </g>
          <path id="Path_156743" data-name="Path 156743" d="M-579.792,190.25a.559.559,0,0,1,0,.166,2.922,2.922,0,0,0,.033.5l.133,1.908c.088,1.654.221,4.064.38,7,.292,5.933.7,14.1,1.147,23.114.105,2.255.21,4.461.309,6.589s.2,4.18.2,6.143c0,.982,0,1.94-.088,2.867a25.217,25.217,0,0,0-.166,2.685c0,1.731.144,3.363.116,4.841a30.03,30.03,0,0,0,.342,3.97c.121,1.169.248,2.167.347,2.994s.16,1.444.209,1.9a4.579,4.579,0,0,0,.044.5,1.02,1.02,0,0,1,0,.171.961.961,0,0,1-.039-.171,3.9,3.9,0,0,0-.072-.491l-.259-1.885-.4-2.994c-.138-1.169-.314-2.493-.386-3.981,0-1.489-.132-3.093-.149-4.847,0-.876.094-1.781.149-2.7s.083-1.874.077-2.85c0-1.952-.11-4-.215-6.132s-.209-4.334-.314-6.589c-.42-9.015-.794-17.181-1.065-23.114-.121-2.945-.22-5.332-.287-7.008,0-.811-.05-1.45-.066-1.9v-.5A.639.639,0,0,1-579.792,190.25Z" transform="translate(603.012 -144.76)" fill="#263238"/>
          <path id="Path_156744" data-name="Path 156744" d="M-603.843,186.473l-.32,22.133,1.654,3.859-1.373,10.543-5.575-3.132a7.9,7.9,0,0,1-4.047-7.719v-.072c.512-4.29,1.362-11.127,2.073-15.466,1.1-6.717,1.875-12,3.524-14.088Z" transform="translate(613.544 -142.35)" fill="#fda929"/>
          <path id="Path_156745" data-name="Path 156745" d="M-547,179.935s3.192-.656,4.846,7.047,2.972,21.13,2.972,21.13a1.1,1.1,0,0,1,.79,1.345,1.1,1.1,0,0,1-.134.309s-.22,7.251-1.1,8.128l-9.192-5.425-1.047-1.528Z" transform="translate(593.665 -141.535)" fill="#fda929"/>
          <path id="Path_156746" data-name="Path 156746" d="M-599.5,237.278l12.346-1.373.948-6-12.109-.97Z" transform="translate(609.159 -156.835)" fill="#9d6054"/>
          <path id="Path_156747" data-name="Path 156747" d="M-580.314,183.175a4.389,4.389,0,0,1-.414.634c-.319.435-.728.987-1.207,1.654l-1.82,2.442a.372.372,0,0,1-.269.16.456.456,0,0,1-.287-.094,2.8,2.8,0,0,1-.348-.309,7.5,7.5,0,0,1-.651-.662,12.18,12.18,0,0,1-1.175-1.555,11.959,11.959,0,0,1-1.8-6.49,9.952,9.952,0,0,1,.237-2.046,3.934,3.934,0,0,1,.215-.722,18.728,18.728,0,0,0-.248,2.757A11.824,11.824,0,0,0-585.1,186.8a8.879,8.879,0,0,0,.629.651,3.474,3.474,0,0,0,.309.287c.11.061.133.066.2,0,.684-.91,1.329-1.72,1.858-2.4l1.285-1.6A3.392,3.392,0,0,1-580.314,183.175Z" transform="translate(605.658 -140.37)" fill="#263238"/>
          <path id="Path_156748" data-name="Path 156748" d="M-566.3,175.941a.624.624,0,0,1,.033.226,6.177,6.177,0,0,1,0,.64,8.892,8.892,0,0,1-.353,2.343,24.145,24.145,0,0,1-1.279,3.264,32.051,32.051,0,0,1-2.04,3.777c-.4.651-.8,1.274-1.2,1.875-.1.149-.193.3-.292.441a2.709,2.709,0,0,1-.331.453.448.448,0,0,1-.348.1.55.55,0,0,1-.292-.149,2.838,2.838,0,0,1-.331-.4l-2.052-2.8-1.395-1.9a4.73,4.73,0,0,1-.479-.722,5.843,5.843,0,0,1,.551.651c.376.48.872,1.1,1.467,1.848l2.15,2.757c.193.259.425.552.552.4a2.856,2.856,0,0,0,.281-.391l.287-.446c.391-.6.788-1.224,1.185-1.87a34.594,34.594,0,0,0,2.046-3.733,28.179,28.179,0,0,0,1.329-3.215A12.913,12.913,0,0,0-566.3,175.941Z" transform="translate(602.028 -140.293)" fill="#263238"/>
          <path id="Path_156749" data-name="Path 156749" d="M-592.09,188.41c0,.05-.585.149-1.472.552a7.494,7.494,0,0,0-2.939,2.448l-.082.116-.122-.088a7.288,7.288,0,0,0-.965-.607,7.744,7.744,0,0,0-4.488-.866,17.777,17.777,0,0,0-1.892.413,1.621,1.621,0,0,1,.469-.237,6.742,6.742,0,0,1,1.395-.376,7.506,7.506,0,0,1,4.665.822,7.825,7.825,0,0,1,.992.645h-.2a7.2,7.2,0,0,1,3.1-2.453,6.291,6.291,0,0,1,1.1-.342A1.237,1.237,0,0,1-592.09,188.41Z" transform="translate(610.58 -144.183)" fill="#263238"/>
          <path id="Path_156750" data-name="Path 156750" d="M-552.425,189.867a4.626,4.626,0,0,0-2.052-.552,5.681,5.681,0,0,0-2.26.424,15.571,15.571,0,0,0-2.52,1.362l-.265.166-.11.072-.077-.1a6.312,6.312,0,0,0-4.229-2.316,9.791,9.791,0,0,0-2.057.061,1.983,1.983,0,0,1,.551-.166,5.567,5.567,0,0,1,1.533-.094,6.339,6.339,0,0,1,2.206.585,6.121,6.121,0,0,1,2.2,1.759l-.193-.033.265-.171a14.122,14.122,0,0,1,2.58-1.368,5.693,5.693,0,0,1,2.365-.38,3.864,3.864,0,0,1,1.561.42A1.384,1.384,0,0,1-552.425,189.867Z" transform="translate(598.7 -144.277)" fill="#263238"/>
          <path id="Path_156751" data-name="Path 156751" d="M-562.36,260.219a2.5,2.5,0,0,1-.215.182l-.645.469-.474.331c-.177.116-.381.226-.59.353a15.153,15.153,0,0,1-1.473.81l-.876.424c-.309.144-.64.259-.982.4a23.1,23.1,0,0,1-2.206.755,24.639,24.639,0,0,1-10.609.629c-.81-.155-1.582-.281-2.288-.491-.354-.094-.7-.171-1.021-.281l-.92-.319a14.828,14.828,0,0,1-1.555-.629c-.226-.1-.435-.188-.629-.281l-.507-.276-.7-.386c-.155-.094-.237-.144-.232-.155a1.2,1.2,0,0,1,.259.105l.722.336.518.253c.188.083.4.166.634.259.452.177.959.408,1.555.585l.921.3c.32.1.662.171,1.015.259.7.2,1.466.314,2.266.463a28.15,28.15,0,0,0,5.282.237,27.223,27.223,0,0,0,5.222-.866c.777-.237,1.522-.441,2.206-.722.336-.132.667-.243.976-.38l.876-.4c.552-.243,1.047-.552,1.478-.767.215-.121.419-.22.6-.331l.48-.309.678-.424A1.134,1.134,0,0,1-562.36,260.219Z" transform="translate(605.657 -166.603)" fill="#263238"/>
          <path id="Path_156752" data-name="Path 156752" d="M-565.091,248.915a5.672,5.672,0,0,1-.64.634c-.21.2-.475.442-.8.695s-.678.552-1.1.855-.888.634-1.417.949-1.1.64-1.693.965a25.635,25.635,0,0,1-8.508,2.663c-.684.072-1.334.154-1.946.171s-1.18.038-1.7.027-.992-.044-1.4-.071a9.023,9.023,0,0,1-1.053-.116,6.069,6.069,0,0,1-.888-.155,4.8,4.8,0,0,1,.9.044c.287,0,.64.061,1.047.067a11.757,11.757,0,0,0,1.395,0c.519-.05,1.1,0,1.687-.061s1.247-.116,1.925-.2a26.741,26.741,0,0,0,8.419-2.63c.6-.32,1.18-.612,1.693-.937s.993-.618,1.423-.91a12.519,12.519,0,0,0,1.1-.816c.309-.265.607-.464.827-.651A5.413,5.413,0,0,1-565.091,248.915Z" transform="translate(605.019 -163.074)" fill="#263238"/>
          <path id="Path_156753" data-name="Path 156753" d="M-603.418,191.084a3.649,3.649,0,0,1,.137.733c.072.552.16,1.2.271,2.013.231,1.753.551,4.069.876,6.617s.7,4.875.954,6.617c.116.8.21,1.477.287,2.013a4.489,4.489,0,0,1,.072.739,3.478,3.478,0,0,1-.182-.722c-.1-.468-.226-1.152-.38-2-.3-1.687-.678-4.025-1.037-6.617s-.629-4.963-.794-6.65c-.083-.854-.143-1.543-.176-2.024A4.327,4.327,0,0,1-603.418,191.084Z" transform="translate(610.384 -145.02)" fill="#263238"/>
          <path id="Path_156754" data-name="Path 156754" d="M-547.2,184.591a1.01,1.01,0,0,1,0,.281,5.559,5.559,0,0,1-.044.8c-.045.695-.122,1.7-.226,2.945-.21,2.481-.552,5.9-1,9.682s-.926,7.168-1.3,9.649c-.188,1.229-.347,2.205-.469,2.911-.061.314-.111.579-.149.789a1.312,1.312,0,0,1-.066.276,1,1,0,0,1,0-.281c0-.215.055-.48.094-.8.093-.733.221-1.72.38-2.922.325-2.471.767-5.884,1.219-9.655s.816-7.2,1.1-9.671c.133-1.2.237-2.206.32-2.928.038-.32.072-.585.094-.8A1.013,1.013,0,0,1-547.2,184.591Z" transform="translate(593.852 -142.993)" fill="#263238"/>
          <path id="Path_156755" data-name="Path 156755" d="M-562.121,210.4-577.9,219.91l-4.075-1.147-18.7-3.606-3.865,12.268,14.717,1.389,6.49,3.11,3.137-1.356,13.685-9.4Z" transform="translate(610.733 -151.052)" fill="#7453d8"/>
          <path id="Path_156756" data-name="Path 156756" d="M-573.715,236.192a13.953,13.953,0,0,1,.739-1.764c.485-1.1,1.153-2.564,1.864-4.213s1.34-3.159,1.786-4.251a14.152,14.152,0,0,1,.777-1.748,1.867,1.867,0,0,1-.127.5c-.1.314-.259.766-.457,1.323-.4,1.1-1,2.63-1.715,4.284s-1.411,3.132-1.94,4.19c-.265.552-.491.949-.651,1.241A1.969,1.969,0,0,1-573.715,236.192Z" transform="translate(601.11 -155.364)" fill="#263238"/>
          <path id="Path_156757" data-name="Path 156757" d="M-574.356,226.757a7.925,7.925,0,0,1,.645-2.051,8.252,8.252,0,0,1,.915-1.941,7.968,7.968,0,0,1-.645,2.046A8.515,8.515,0,0,1-574.356,226.757Z" transform="translate(601.31 -154.911)" fill="#263238"/>
          <path id="Path_156758" data-name="Path 156758" d="M-568.969,219.018a4.457,4.457,0,0,1,1.9-2.619c1.429-.734,13.272-6.893,13.272-6.893l1.406,1.444-14.4,8.679Z" transform="translate(599.628 -150.771)" fill="#e0e0e0"/>
          <path id="Path_156759" data-name="Path 156759" d="M-596.554,217.077l2.4-1.2s6.793-.733,10.719,0,5.983,2.928,5.856,5.029Z" transform="translate(608.24 -152.658)" fill="#e0e0e0"/>
          <path id="Path_156760" data-name="Path 156760" d="M-565.1,225.109a5.183,5.183,0,0,0-2.718,2.713c-.943,2.09-1.566,3.138-2.718,3.86s-1.775,1.252-3.132.623-3.562-2.68-4.6-2.845c-.618-.1-.833.86-.833.86s-2.713-1.809-3.656-1.478-.1,1.059.552,1.792a10.438,10.438,0,0,1,1.042,1.461c.2-.083-1.886-2.051-3.176-1.654a.756.756,0,0,0-.616.874.744.744,0,0,0,.025.1l1.571,1.158s-.832,1.494-.1,1.808,5.961,3.97,7.108,3.97,6.374.943,8.568.419,4.643-1.274,4.643-1.274,8.629-2.8,11.238-6.142l-7.836-4.808s-5.221,6.793-5.513,6.065a7.166,7.166,0,0,1-.314-3.86C-565.307,227.2-564.193,224.6-565.1,225.109Z" transform="translate(604.623 -155.622)" fill="#9d6054"/>
          <path id="Path_156761" data-name="Path 156761" d="M-569.675,237.717a3.163,3.163,0,0,1-1.213-.353,20.5,20.5,0,0,1-2.586-1.583,11.1,11.1,0,0,1-2.354-1.941,2.2,2.2,0,0,1-.612-1.1,10.633,10.633,0,0,0,.761.976,14.21,14.21,0,0,0,2.36,1.83c1,.645,1.836,1.3,2.52,1.654S-569.659,237.673-569.675,237.717Z" transform="translate(601.961 -158.024)" fill="#724a44"/>
          <path id="Path_156762" data-name="Path 156762" d="M-572.327,240.754a5.084,5.084,0,0,1-1.1-.651c-.662-.436-1.555-1.07-2.515-1.809s-1.792-1.45-2.382-1.98a5.529,5.529,0,0,1-.9-.915,6.354,6.354,0,0,1,1.037.756l2.426,1.913,2.459,1.869A6.367,6.367,0,0,1-572.327,240.754Z" transform="translate(602.832 -158.855)" fill="#724a44"/>
          <path id="Path_156763" data-name="Path 156763" d="M-577.8,240.236c-.066.056-1-1.1-2.382-2.26s-2.647-1.936-2.6-2.007a9.2,9.2,0,0,1,2.79,1.792A9.385,9.385,0,0,1-577.8,240.236Z" transform="translate(603.941 -159.033)" fill="#724a44"/>
          <path id="Path_156764" data-name="Path 156764" d="M-574.7,196.747a3.387,3.387,0,0,1-.1-.369,1.579,1.579,0,0,0-.552-.794,1.45,1.45,0,0,0-2.025.326,1.454,1.454,0,0,0-.274.837,1.45,1.45,0,0,0,.932,1.34,1.484,1.484,0,0,0,1.373-.182,1.581,1.581,0,0,0,.552-.794,2.794,2.794,0,0,1,.1-.364.8.8,0,0,1,0,.391,1.528,1.528,0,0,1-.552.926,1.655,1.655,0,0,1-1.583.27,1.688,1.688,0,0,1-1.028-2.153,1.688,1.688,0,0,1,1.028-1.029,1.655,1.655,0,0,1,1.583.27,1.542,1.542,0,0,1,.552.926C-574.637,196.6-574.686,196.747-574.7,196.747Z" transform="translate(602.434 -146.262)" fill="#263238"/>
          <path id="Path_156765" data-name="Path 156765" d="M-573.9,212.045s-.034-.138-.105-.369a1.587,1.587,0,0,0-.551-.789,1.439,1.439,0,0,0-2.015.291,1.439,1.439,0,0,0,.29,2.014,1.432,1.432,0,0,0,.351.193,1.468,1.468,0,0,0,1.374-.182,1.586,1.586,0,0,0,.551-.788c.072-.232.077-.369.105-.369a.754.754,0,0,1,0,.391,1.56,1.56,0,0,1-.552.927,1.655,1.655,0,0,1-1.583.27,1.683,1.683,0,0,1-1.034-2.142,1.683,1.683,0,0,1,1.034-1.034,1.654,1.654,0,0,1,1.583.265,1.583,1.583,0,0,1,.552.926A.776.776,0,0,1-573.9,212.045Z" transform="translate(602.185 -151.038)" fill="#263238"/>
          <path id="Path_156766" data-name="Path 156766" d="M-572.4,248.289a3.424,3.424,0,0,1-.105-.364,1.539,1.539,0,0,0-.551-.794,1.473,1.473,0,0,0-1.368-.182,1.434,1.434,0,0,0-.84,1.845,1.436,1.436,0,0,0,.84.84,1.471,1.471,0,0,0,1.368-.182,1.561,1.561,0,0,0,.551-.794c.078-.226.083-.369.105-.369s.049.143,0,.4a1.556,1.556,0,0,1-.552.926,1.654,1.654,0,0,1-1.583.27,1.687,1.687,0,0,1-1.028-2.153,1.687,1.687,0,0,1,1.028-1.028,1.653,1.653,0,0,1,1.583.27,1.538,1.538,0,0,1,.552.926C-572.347,248.151-572.38,248.294-572.4,248.289Z" transform="translate(601.716 -162.354)" fill="#263238"/>
          <path id="Path_156767" data-name="Path 156767" d="M-572.742,262.563s-.033-.143-.1-.369a1.6,1.6,0,0,0-.552-.794,1.482,1.482,0,0,0-1.373-.182,1.434,1.434,0,0,0-.84,1.845,1.432,1.432,0,0,0,.84.84,1.484,1.484,0,0,0,1.373-.182,1.584,1.584,0,0,0,.552-.794c.071-.226.077-.369.1-.364a.741.741,0,0,1,0,.391,1.565,1.565,0,0,1-.551.926,1.654,1.654,0,0,1-1.582.27A1.688,1.688,0,0,1-575.9,262a1.688,1.688,0,0,1,1.029-1.028,1.654,1.654,0,0,1,1.582.27,1.579,1.579,0,0,1,.551.926A.773.773,0,0,1-572.742,262.563Z" transform="translate(601.823 -166.809)" fill="#263238"/>
          <path id="Path_156768" data-name="Path 156768" d="M-591.528,131.668a7.851,7.851,0,0,1,3.766-4.764,9.924,9.924,0,0,1,6.683-.8,21.029,21.029,0,0,1,6.308,2.608,10.275,10.275,0,0,1,3.011,2.349c1.456,1.83,1.654,4.328,1.8,6.661a11.582,11.582,0,0,1-.59,5.586,5.828,5.828,0,0,1-3.909,3.165" transform="translate(606.671 -124.654)" fill="#263238"/>
          <path id="Path_156769" data-name="Path 156769" d="M-564.895,140.594a12.523,12.523,0,0,0,3.005-9.28,4.422,4.422,0,0,0-1.274-3.027c-.441-.369-.987-.59-1.439-.949-.816-.651-1.219-1.709-1.99-2.409a3.176,3.176,0,0,0-4.486.233,3.176,3.176,0,0,0-.692,1.244c-.408,1.418.2,2.906.8,4.257l2.758,6.253a8.228,8.228,0,0,0,1.274,2.206,2.791,2.791,0,0,0,2.249,1.031" transform="translate(600.544 -124.113)" fill="#263238"/>
          <path id="Path_156770" data-name="Path 156770" d="M-591.443,131.535a10.747,10.747,0,0,0-.948,13.394,90.321,90.321,0,0,1,4.808-14.987" transform="translate(607.534 -125.932)" fill="#263238"/>
          <path id="Path_156771" data-name="Path 156771" d="M-593.159,138.822c.243-3.716,2.718-8.27,6.423-7.873l8.569,2.205a6.363,6.363,0,0,1,4.769,5.856v.077l-.551,20.98-7.973,9h0l-5.47-8.414V157.41c0,.011-4.753-.821-5.718-7.019A59.457,59.457,0,0,1-593.159,138.822Z" transform="translate(607.26 -126.239)" fill="#9d6054"/>
          <path id="Path_156772" data-name="Path 156772" d="M-582.306,139.583a6.425,6.425,0,0,1-1.8.369,6.566,6.566,0,0,1-1.836,0c0-.044.821-.044,1.819-.149S-582.317,139.538-582.306,139.583Z" transform="translate(604.927 -128.94)" fill="#724a44"/>
          <path id="Path_156773" data-name="Path 156773" d="M-583.7,139.265a4.33,4.33,0,0,1-2.26.143,7.57,7.57,0,0,1,1.1-.066A7.491,7.491,0,0,1-583.7,139.265Z" transform="translate(604.932 -128.843)" fill="#724a44"/>
          <path id="Path_156774" data-name="Path 156774" d="M-579.306,156.816c-.044,0-.1-.248-.347-.408s-.5-.122-.507-.16.05-.061.165-.077a.625.625,0,0,1,.424.11.677.677,0,0,1,.27.353C-579.273,156.739-579.29,156.816-579.306,156.816Z" transform="translate(603.123 -134.12)" fill="#724a44"/>
          <path id="Path_156775" data-name="Path 156775" d="M-589.708,149.082a.794.794,0,0,0,.761.8.762.762,0,0,0,.821-.7v-.02a.788.788,0,0,0-.761-.8.755.755,0,0,0-.819.685Z" transform="translate(606.103 -131.685)" fill="#263238"/>
          <path id="Path_156776" data-name="Path 156776" d="M-591.462,145.853c.1.105.7-.342,1.555-.336s1.483.431,1.577.331-.056-.237-.325-.435a2.2,2.2,0,0,0-1.263-.391,2.109,2.109,0,0,0-1.241.4C-591.418,145.617-591.511,145.8-591.462,145.853Z" transform="translate(606.654 -130.64)" fill="#263238"/>
          <path id="Path_156777" data-name="Path 156777" d="M-578.116,149.082a.794.794,0,0,0,.761.8.766.766,0,0,0,.821-.708v-.009a.788.788,0,0,0-.761-.8.749.749,0,0,0-.819.673C-578.115,149.057-578.115,149.069-578.116,149.082Z" transform="translate(602.484 -131.684)" fill="#263238"/>
          <path id="Path_156778" data-name="Path 156778" d="M-579.244,146.11c.1.1.706-.336,1.561-.336s1.478.435,1.571.331-.049-.232-.325-.435a2.207,2.207,0,0,0-1.263-.392,2.128,2.128,0,0,0-1.235.4C-579.2,145.878-579.288,146.066-579.244,146.11Z" transform="translate(602.839 -130.72)" fill="#263238"/>
          <path id="Path_156779" data-name="Path 156779" d="M-584.75,152.47a5.45,5.45,0,0,0-1.39-.254c-.215,0-.424-.066-.457-.215a1.1,1.1,0,0,1,.143-.644c.21-.552.424-1.1.651-1.654a28.36,28.36,0,0,0,1.461-4.346,28.932,28.932,0,0,0-1.808,4.218c-.215.585-.424,1.142-.618,1.654a1.245,1.245,0,0,0-.115.86.552.552,0,0,0,.358.32,1.591,1.591,0,0,0,.369.05A5.434,5.434,0,0,0-584.75,152.47Z" transform="translate(605.231 -130.745)" fill="#263238"/>
          <path id="Path_156780" data-name="Path 156780" d="M-576.442,166.193s-2.012,4.256-8.216,3.661V168.4A15.58,15.58,0,0,0-576.442,166.193Z" transform="translate(604.526 -137.25)" fill="#724a44"/>
          <path id="Path_156781" data-name="Path 156781" d="M-583.284,158.457a1.534,1.534,0,0,1,1.384-.552,1.4,1.4,0,0,1,.97.552.881.881,0,0,1,.061,1.015,1.019,1.019,0,0,1-1.1.281,3.307,3.307,0,0,1-1.1-.651.956.956,0,0,1-.243-.254.293.293,0,0,1,0-.32" transform="translate(604.122 -134.658)" fill="#724a44"/>
          <path id="Path_156782" data-name="Path 156782" d="M-581.351,156.565c-.138,0-.144.92-.938,1.576s-1.781.552-1.792.684.221.182.64.193a2.3,2.3,0,0,0,1.495-.519,2.006,2.006,0,0,0,.728-1.317C-581.181,156.791-581.285,156.559-581.351,156.565Z" transform="translate(604.346 -134.244)" fill="#263238"/>
          <path id="Path_156783" data-name="Path 156783" d="M-579.543,142.553c.083.232.938.127,1.941.248s1.814.4,1.947.188c.06-.1-.078-.314-.409-.552a3.374,3.374,0,0,0-2.961-.336C-579.389,142.261-579.543,142.437-579.543,142.553Z" transform="translate(602.929 -129.667)" fill="#263238"/>
          <path id="Path_156784" data-name="Path 156784" d="M-591,142.236c.149.193.739,0,1.45,0s1.306.132,1.444-.072c.061-.1-.033-.292-.292-.475a2.079,2.079,0,0,0-2.332.066C-590.984,141.944-591.067,142.143-591,142.236Z" transform="translate(606.513 -129.498)" fill="#263238"/>
          <path id="Path_156785" data-name="Path 156785" d="M-590.631,132.074a2.713,2.713,0,0,1,2.4-1.538,5.231,5.231,0,0,1,2.862.832c3.689,2.134,5.762,6.368,9.406,8.574a14.8,14.8,0,0,1,2.652,1.682,2.63,2.63,0,0,1,.833,2.829,8.763,8.763,0,0,0,1.268-2.14,2.921,2.921,0,0,0-.1-2.415c-.314-.552-.871-.965-1.025-1.577a6.828,6.828,0,0,1,.055-1.654,3.541,3.541,0,0,0-.552-1.577,16.066,16.066,0,0,0-5.921-6.236,10.554,10.554,0,0,0-5.437-1.407,8.029,8.029,0,0,0-5.177,2.057c-.811.761-1.654,1.543-1.246,2.575" transform="translate(606.419 -125.153)" fill="#263238"/>
          <path id="Path_156786" data-name="Path 156786" d="M-572.571,144.7s.072-.083.193-.254a2.707,2.707,0,0,0,.4-.805,4.6,4.6,0,0,0-.342-3.247,19.157,19.157,0,0,0-1.1-2.046,23.568,23.568,0,0,1-1.136-2.421,17.341,17.341,0,0,0-1.3-2.625,10.2,10.2,0,0,0-2.052-2.36,10.863,10.863,0,0,0-5.436-2.5,8.01,8.01,0,0,0-4.824.651,5.221,5.221,0,0,0-2.321,2.316,4.649,4.649,0,0,0-.309.849,1.5,1.5,0,0,1-.083.309.507.507,0,0,1,0-.077,2.294,2.294,0,0,1,.039-.237,4.009,4.009,0,0,1,.3-.865,5.256,5.256,0,0,1,2.327-2.388,8.036,8.036,0,0,1,4.9-.695,10.96,10.96,0,0,1,5.514,2.526,10.273,10.273,0,0,1,2.079,2.4,16.855,16.855,0,0,1,1.3,2.652,23.923,23.923,0,0,0,1.1,2.409c.4.734.788,1.407,1.064,2.068a4.579,4.579,0,0,1,.3,3.308,2.623,2.623,0,0,1-.43.81A2.211,2.211,0,0,1-572.571,144.7Z" transform="translate(606.471 -125.383)" fill="#455a64"/>
          <path id="Path_156787" data-name="Path 156787" d="M-563.867,141.251a.67.67,0,0,1,0-.177v-.507c0-.435.033-1.07,0-1.853a15.532,15.532,0,0,0-.3-2.724,7.209,7.209,0,0,0-1.323-3.038,16.862,16.862,0,0,0-2.376-2.365c-.788-.678-1.517-1.257-2.15-1.715s-1.175-.8-1.55-1.02l-.441-.254a.776.776,0,0,1-.149-.094.54.54,0,0,1,.166.066c.1.05.259.127.452.232a15.192,15.192,0,0,1,1.583.981c.645.447,1.389,1.021,2.178,1.693a16.545,16.545,0,0,1,2.409,2.382,7.268,7.268,0,0,1,1.34,3.1,14.56,14.56,0,0,1,.27,2.757,15.813,15.813,0,0,1-.061,1.864,4.128,4.128,0,0,1-.044.5A.8.8,0,0,1-563.867,141.251Z" transform="translate(600.625 -125.172)" fill="#455a64"/>
          <path id="Path_156788" data-name="Path 156788" d="M-564.188,125.709a2.614,2.614,0,0,1,.171.7,8.309,8.309,0,0,1,.083,1.748,8.1,8.1,0,0,1-.292,1.72,2.559,2.559,0,0,1-.254.678,18.4,18.4,0,0,0,.391-2.409A17.8,17.8,0,0,0-564.188,125.709Z" transform="translate(598.227 -124.611)" fill="#455a64"/>
          <path id="Path_156789" data-name="Path 156789" d="M-559.031,132.379a1.225,1.225,0,0,1-.21.518,3.241,3.241,0,0,1-.9,1,3.318,3.318,0,0,1-1.224.552,1.313,1.313,0,0,1-.552.05,3.94,3.94,0,0,1,.552-.154,3.861,3.861,0,0,0,2.062-1.511A5.189,5.189,0,0,1-559.031,132.379Z" transform="translate(597.426 -126.693)" fill="#455a64"/>
          <path id="Path_156790" data-name="Path 156790" d="M-558.387,138.4a2.6,2.6,0,0,1-1.235.221,2.551,2.551,0,0,1-1.219-.292c0-.05.552.116,1.224.143S-558.4,138.353-558.387,138.4Z" transform="translate(597.091 -128.548)" fill="#455a64"/>
          <path id="Path_156791" data-name="Path 156791" d="M-569.645,147.1c-.144-.078-.072-.486-.055-1.153a3.146,3.146,0,0,0-.127-1.1,1.668,1.668,0,0,0-.115-.248.79.79,0,0,0-.072-.11l-.1-.144a5.2,5.2,0,0,0-.513-.595,1.5,1.5,0,0,0-.552-.375h-.055l-.215.044-.231.055a4.04,4.04,0,0,0-.882.331c-.149.077-.292.16-.447.254l-.111.077-.193.11a3.724,3.724,0,0,1-.391.188,4.02,4.02,0,0,1-1.743.292,2.928,2.928,0,0,1-1.048-.259l-.132-.072-.105-.061a1.832,1.832,0,0,1-.209-.132,3.631,3.631,0,0,1-.386-.309,5.018,5.018,0,0,1-1.065-1.45c-.248-.491-.435-.971-.617-1.406a16.361,16.361,0,0,0-2.663-4.373,17.9,17.9,0,0,0-3.1-2.878,9.806,9.806,0,0,0-2.442-1.4c-.618-.232-1.02-.292-1.047-.458s.369-.4,1.18-.424a6.88,6.88,0,0,1,3.149.9,14.588,14.588,0,0,1,3.826,2.845,15.5,15.5,0,0,1,3.215,4.919c.193.468.358.893.552,1.252a3.235,3.235,0,0,0,.551.838,1.612,1.612,0,0,0,.149.133.407.407,0,0,0,.077.05h.038a.689.689,0,0,0,.254.077,2.023,2.023,0,0,0,.816-.088l.182-.072.083-.039.155-.083a6.2,6.2,0,0,1,.651-.3,5.869,5.869,0,0,1,1.345-.358l.32-.039h.331a1.793,1.793,0,0,1,.981.237,3.1,3.1,0,0,1,.992.915,5.631,5.631,0,0,1,.552.91c.033.077.066.138.1.232a1.551,1.551,0,0,1,.094.27,2.185,2.185,0,0,1,.094.507,3.307,3.307,0,0,1-.259,1.511C-569.155,146.911-569.513,147.17-569.645,147.1Z" transform="translate(605.653 -126.42)" fill="#263238"/>
          <path id="Path_156792" data-name="Path 156792" d="M-565.53,149.022c.061-.176,3.308-1.345,3.308,2.09.044,3.341-3.308,2.685-3.308,2.585Z" transform="translate(598.555 -131.785)" fill="#9d6054"/>
          <path id="Path_156793" data-name="Path 156793" d="M-564.04,152.917a1.012,1.012,0,0,0,.154.083.59.59,0,0,0,.436,0,1.435,1.435,0,0,0,.656-1.3,2.028,2.028,0,0,0-.171-.833.684.684,0,0,0-.441-.441.292.292,0,0,0-.342.166c-.044.094,0,.16-.044.165s-.072-.055-.045-.193a.347.347,0,0,1,.127-.21.428.428,0,0,1,.325-.088.817.817,0,0,1,.612.507,2.036,2.036,0,0,1,.209.932,1.509,1.509,0,0,1-.838,1.45.629.629,0,0,1-.552-.083C-564.035,153-564.051,152.922-564.04,152.917Z" transform="translate(598.091 -132.277)" fill="#724a44"/>
          <path id="Path_156794" data-name="Path 156794" d="M-570.533,143.547a1.813,1.813,0,0,0-.138-.226,1.3,1.3,0,0,0-.6-.442,2.4,2.4,0,0,0-1.18-.1,5.466,5.466,0,0,0-1.5.552,3.959,3.959,0,0,1-1.9.479,3.053,3.053,0,0,1-1.974-1.053,6.215,6.215,0,0,1-1.18-2.206c-.281-.816-.552-1.654-.866-2.508A12.868,12.868,0,0,0-582.5,133.7a7.389,7.389,0,0,0-3.529-2.085,6.329,6.329,0,0,0-1.583-.2,5.743,5.743,0,0,0-1.2.143c-.645.16-.971.342-.982.32l.061-.033.182-.083a3.808,3.808,0,0,1,.723-.259,5.05,5.05,0,0,1,1.213-.171,6.154,6.154,0,0,1,1.6.182,7.423,7.423,0,0,1,3.612,2.09,12.913,12.913,0,0,1,2.669,4.412c.336.843.59,1.7.86,2.514a6.217,6.217,0,0,0,1.147,2.145,2.939,2.939,0,0,0,1.881,1.02,3.894,3.894,0,0,0,1.847-.453,5.465,5.465,0,0,1,1.528-.523,2.383,2.383,0,0,1,1.213.132,1.245,1.245,0,0,1,.6.48.676.676,0,0,1,.094.176C-570.533,143.547-570.528,143.547-570.533,143.547Z" transform="translate(606.128 -126.365)" fill="#455a64"/>
          <path id="Path_156795" data-name="Path 156795" d="M-571.752,141.576a1.212,1.212,0,0,1-.2-.11c-.126-.083-.325-.193-.551-.358a11.446,11.446,0,0,1-1.8-1.654,33.135,33.135,0,0,1-2.206-2.862,26.311,26.311,0,0,0-2.757-3.429,10.337,10.337,0,0,0-1.781-1.406,8.608,8.608,0,0,0-1.919-.871,9.467,9.467,0,0,0-3.535-.435,9.321,9.321,0,0,0-2.371.463c-.27.082-.474.177-.618.232a1.262,1.262,0,0,1-.215.077.791.791,0,0,1,.2-.1,5.145,5.145,0,0,1,.612-.259,8.5,8.5,0,0,1,2.376-.513,9.37,9.37,0,0,1,3.59.409,8.383,8.383,0,0,1,1.952.876,10.413,10.413,0,0,1,1.809,1.423,25.6,25.6,0,0,1,2.757,3.457,34.761,34.761,0,0,0,2.167,2.873,12.221,12.221,0,0,0,1.759,1.654c.226.176.419.292.551.38A1.25,1.25,0,0,1-571.752,141.576Z" transform="translate(606.1 -126.048)" fill="#455a64"/>
          <path id="Path_156796" data-name="Path 156796" d="M-563.753,154.972a.657.657,0,0,1,.767.523.656.656,0,0,1-.523.767.656.656,0,0,1-.767-.523.657.657,0,0,1,.368-.717" transform="translate(598.167 -133.743)" fill="#fff"/>
          <path id="Path_156797" data-name="Path 156797" d="M-563.916,155.009a.938.938,0,0,0-.3.447.548.548,0,0,0,.127.523.627.627,0,0,0,.623.182.639.639,0,0,0,.408-.508.579.579,0,0,0-.2-.5.885.885,0,0,0-.508-.193.3.3,0,0,1,.16-.039.7.7,0,0,1,.414.149.673.673,0,0,1,.27.6.717.717,0,0,1-.763.669.717.717,0,0,1-.511-.266.672.672,0,0,1-.127-.645.7.7,0,0,1,.254-.358C-563.977,155.009-563.916,155-563.916,155.009Z" transform="translate(598.187 -133.73)" fill="#263238"/>
        </g>
        <g id="freepik--Plant--inject-35" transform="translate(195.567 123.829)">
          <path id="Path_156798" data-name="Path 156798" d="M-285.159,340.646a6.161,6.161,0,0,1,3.2-4.086c1.643-.7,3.683-.319,5.432.313a19.779,19.779,0,0,0,5.321,1.6c1.856.117,3.952-.766,4.511-2.544.519-1.676-.486-3.448-1.744-4.661a11,11,0,0,0-15.552.293,11,11,0,0,0-2.472,4.033" transform="translate(333.738 -287.704)" fill="#263238"/>
          <path id="Path_156799" data-name="Path 156799" d="M-306.941,347.454c-2.722-2.588-2.587-7.092-1.23-10.591a16.076,16.076,0,0,1,7.64-7.97,24.179,24.179,0,0,1,21.076-.682,9.995,9.995,0,0,0-8.087,4.751c-1.492,2.482-1.828,5.489-3.057,8.1a12.759,12.759,0,0,1-16.342,6.388" transform="translate(340.81 -287.056)" fill="#455a64"/>
          <path id="Path_156800" data-name="Path 156800" d="M-309.736,314.18c-3.018-3.56-3.42-9.277-2.973-13.922s1.521-9.317.788-13.928c-.436-2.728-1.492-5.338-1.849-8.076s.145-5.841,2.269-7.612c2.442-2.035,6.287-1.554,8.825.358s4.013,4.907,5.086,7.9c2.364,6.567,3.23,13.855,1.291,20.557s-6.494,12.7-13.174,14.727" transform="translate(342.297 -269.325)" fill="#455a64"/>
          <path id="Path_156801" data-name="Path 156801" d="M-309.966,362.2a1.886,1.886,0,0,1,0-.414v-1.173c.039-1.023.134-2.5.358-4.315a57.5,57.5,0,0,1,1.157-6.316,28.814,28.814,0,0,1,2.884-7.316,30.43,30.43,0,0,1,4.711-6.3,29.867,29.867,0,0,1,4.941-4.1c.755-.52,1.487-.917,2.113-1.28s1.207-.615,1.676-.838l1.09-.453a1.607,1.607,0,0,1,.369-.106,3.566,3.566,0,0,1-.363.19l-1.062.5c-.453.235-1.006.526-1.638.872a21.217,21.217,0,0,0-2.073,1.308,30.976,30.976,0,0,0-9.5,10.374c-2.795,4.851-3.533,9.943-4.086,13.52-.252,1.805-.38,3.275-.453,4.293-.028.486-.051.878-.073,1.173A2.946,2.946,0,0,1-309.966,362.2Z" transform="translate(341.08 -288.139)" fill="#263238"/>
          <path id="Path_156802" data-name="Path 156802" d="M-350.1,314.152c-5.588,3.353-5.561,6.427-4.628,9.323s4.354,4.9,7.193,3.817a8.809,8.809,0,0,0,3.762-3.41,15.876,15.876,0,0,1,3.319-3.912,4.249,4.249,0,0,1,4.807-.4" transform="translate(355.196 -283.319)" fill="#263238"/>
          <path id="Path_156803" data-name="Path 156803" d="M-353.857,316.049c1.459-2.017,5.064-2.6,7.339-1.593s3.94,3,5.432,4.991,2.945,4.1,5.03,5.483,4.958,1.884,7.014.492a6.031,6.031,0,0,0,2.387-4.13,13.733,13.733,0,0,0-.33-4.862c-.492-2.342-1.3-4.784-3.169-6.271-2.085-1.677-4.985-1.738-7.646-1.649a28.77,28.77,0,0,0-9.026,1.386,12.524,12.524,0,0,0-7.014,6.148" transform="translate(354.778 -281.55)" fill="#455a64"/>
          <path id="Path_156804" data-name="Path 156804" d="M-323.225,351.418a2.892,2.892,0,0,1-.038-.481c0-.34-.028-.8-.051-1.386-.039-1.23-.089-2.962-.156-5.091s-.157-4.712-.313-7.551-.369-5.958-.8-9.206a29.706,29.706,0,0,0-.928-4.672,23.885,23.885,0,0,0-1.7-4.086,22.162,22.162,0,0,0-4.488-5.974,17.517,17.517,0,0,0-4.169-2.85,12.934,12.934,0,0,0-1.269-.559,2.872,2.872,0,0,1-.447-.2,3.638,3.638,0,0,1,.464.14,9.893,9.893,0,0,1,1.3.5,16.557,16.557,0,0,1,4.259,2.795,21.972,21.972,0,0,1,4.588,6,23.992,23.992,0,0,1,1.744,4.13,29,29,0,0,1,.939,4.717c.436,3.264.638,6.388.783,9.233s.207,5.4.252,7.556.056,3.912.061,5.1v1.386A2.931,2.931,0,0,1-323.225,351.418Z" transform="translate(349.7 -281.825)" fill="#263238"/>
          <path id="Path_156805" data-name="Path 156805" d="M-314.241,346.234a15.455,15.455,0,0,1-.62-2.392,25.2,25.2,0,0,1-.263-6.735,45.021,45.021,0,0,1,2.135-9.8c1.118-3.588,2.7-7.428,4.029-11.553a50.715,50.715,0,0,0,2.381-11.921,85.747,85.747,0,0,0,.184-9.977c-.095-2.839-.246-5.136-.335-6.707-.045-.777-.078-1.386-.107-1.827v-.475a.705.705,0,0,1,0-.162.489.489,0,0,1,0,.162l.05.47c.034.442.089,1.051.157,1.828.129,1.587.307,3.884.424,6.707a81.242,81.242,0,0,1-.078,9.982,53.219,53.219,0,0,1-.783,5.863,52.188,52.188,0,0,1-1.6,6.148c-1.33,4.141-2.895,7.975-4.046,11.552a45.677,45.677,0,0,0-2.174,9.708,26.158,26.158,0,0,0,.168,6.707c.14.783.263,1.387.369,1.795l.112.464A.714.714,0,0,1-314.241,346.234Z" transform="translate(342.722 -274.121)" fill="#263238"/>
          <path id="Path_156806" data-name="Path 156806" d="M-305.841,375.551h-26.2l-.6-5.047h26.8Z" transform="translate(348.155 -300.912)" fill="#263238"/>
          <path id="Path_156807" data-name="Path 156807" d="M-327.675,377l3.275,15.129h14.235L-307.1,377Z" transform="translate(346.605 -302.941)" fill="#263238"/>
          <path id="Path_156808" data-name="Path 156808" d="M-305.346,377.757c0,.078-5.757.129-12.855.106s-12.855-.1-12.855-.179,5.757-.129,12.855-.111S-305.346,377.673-305.346,377.757Z" transform="translate(347.66 -303.117)" fill="#455a64"/>
          <path id="Path_156809" data-name="Path 156809" d="M-308.095,387.734a11.49,11.49,0,0,0-2.314-1.314,8.257,8.257,0,0,0-2.795-.559,9.863,9.863,0,0,0-3.443.631c-1.2.4-2.308.871-3.4,1.118a8.154,8.154,0,0,1-2.94.089,6.062,6.062,0,0,1-1.889-.609,3.39,3.39,0,0,1-.453-.29c-.1-.073-.145-.118-.14-.129a6.8,6.8,0,0,0,2.509.821,8.272,8.272,0,0,0,2.85-.14c1.045-.263,2.163-.737,3.354-1.118a9.83,9.83,0,0,1,3.544-.626,8.08,8.08,0,0,1,2.872.631,7.412,7.412,0,0,1,1.677,1.006,4.718,4.718,0,0,1,.408.352C-308.134,387.677-308.089,387.722-308.095,387.734Z" transform="translate(345.915 -305.627)" fill="#455a64"/>
          <path id="Path_156810" data-name="Path 156810" d="M-308.126,389.206a12.747,12.747,0,0,0-2.235-1.291,7.588,7.588,0,0,0-2.705-.558,9.728,9.728,0,0,0-3.326.6c-1.157.386-2.235.833-3.275,1.118a8.427,8.427,0,0,1-2.828.313,4.775,4.775,0,0,1-1.85-.5,3.425,3.425,0,0,1-.442-.285c-.089-.073-.14-.112-.134-.123s.224.123.626.307a5.189,5.189,0,0,0,1.816.4,8.707,8.707,0,0,0,2.739-.363c1.012-.291,2.085-.738,3.253-1.118a9.65,9.65,0,0,1,3.432-.592,7.426,7.426,0,0,1,2.795.626,7.117,7.117,0,0,1,1.632,1,3.542,3.542,0,0,1,.391.346C-308.156,389.16-308.119,389.2-308.126,389.206Z" transform="translate(345.745 -306.094)" fill="#fff"/>
          <path id="Path_156811" data-name="Path 156811" d="M-307.962,386.172a12.917,12.917,0,0,0-2.376-1.38,8.756,8.756,0,0,0-2.873-.687,9.272,9.272,0,0,0-3.548.626,32.78,32.78,0,0,1-3.522,1.151,9.023,9.023,0,0,1-3.035,0,6.736,6.736,0,0,1-1.933-.627,3.509,3.509,0,0,1-.47-.3c-.1-.078-.151-.123-.145-.129s.235.129.665.324a7.541,7.541,0,0,0,1.933.52,9.121,9.121,0,0,0,2.951-.056,35.769,35.769,0,0,0,3.476-1.163,9.29,9.29,0,0,1,3.661-.62,8.773,8.773,0,0,1,4.695,1.81,4.952,4.952,0,0,1,.413.363A1.815,1.815,0,0,1-307.962,386.172Z" transform="translate(346.039 -305.072)" fill="#fff"/>
        </g>
      </g>
    </g>
  </g>
</svg>
