<svg xmlns="http://www.w3.org/2000/svg" width="214.148" height="208.482" viewBox="0 0 214.148 208.482">
  <g id="_32" data-name="32" transform="translate(-6.112 -7.273)">
    <g id="Group_148697" data-name="Group 148697" transform="translate(6.112 7.273)">
      <g id="Group_148696" data-name="Group 148696">
        <path id="Path_259479" data-name="Path 259479" d="M30.8,34.154,6.112,98.521H55.653V34.154Z" transform="translate(-6.112 31.428)" fill="#29398a"/>
        <path id="Path_259480" data-name="Path 259480" d="M55.905,177.055,16.233,34.154H73.854v142.9Z" transform="translate(8.459 31.428)" fill="#126e82"/>
        <path id="Path_259481" data-name="Path 259481" d="M32.494,7.273H182.278V215.756H32.494Z" transform="translate(31.871 -7.273)" fill="#20cb7d"/>
        <path id="Path_259482" data-name="Path 259482" d="M37.934,76.129a2.439,2.439,0,0,1-2.44-2.44v-33.3a2.44,2.44,0,1,1,4.879,0v33.3A2.439,2.439,0,0,1,37.934,76.129Zm2.44,21.45V82.013a2.44,2.44,0,0,0-4.879,0V97.578a2.44,2.44,0,0,0,4.879,0Z" transform="translate(36.19 36.889)" fill="#cde6fa"/>
        <path id="Path_259483" data-name="Path 259483" d="M126.4,36.446H57.2a2.44,2.44,0,1,1,0-4.879h69.2a2.44,2.44,0,1,1,0,4.879Z" transform="translate(63.927 27.703)" fill="#7453d8"/>
        <path id="Path_259484" data-name="Path 259484" d="M145.841,32.143H43.7a2.44,2.44,0,0,1,0-4.879H145.841a2.44,2.44,0,0,1,0,4.879Z" transform="translate(44.488 21.508)" fill="#cde6fa"/>
        <path id="Path_259485" data-name="Path 259485" d="M119.781,27.84H61.8a2.44,2.44,0,1,1,0-4.879h57.982a2.44,2.44,0,1,1,0,4.879Z" transform="translate(70.548 15.313)" fill="#7453d8"/>
        <path id="Path_259486" data-name="Path 259486" d="M132.612,23.538H52.887a2.44,2.44,0,0,1,0-4.879h79.725a2.44,2.44,0,1,1,0,4.879Z" transform="translate(57.718 9.12)" fill="#29398a"/>
      </g>
      <path id="Path_259487" data-name="Path 259487" d="M91.282,129.093l-9.464,4.45-9.464-4.45a38.473,38.473,0,0,1-22.1-34.815v-31q31.564-14.536,63.13,0v31A38.473,38.473,0,0,1,91.282,129.093Z" transform="translate(57.438 62.893)" fill="#29398a"/>
      <path id="Path_259488" data-name="Path 259488" d="M70.749,114.5A28.826,28.826,0,0,1,54.254,88.52V64.037A63.23,63.23,0,0,1,76.06,60.009a63.241,63.241,0,0,1,21.806,4.028V88.52A28.815,28.815,0,0,1,81.371,114.5L76.06,117Z" transform="translate(63.199 68.652)" fill="#cde6fa"/>
    </g>
  </g>
</svg>
