<svg xmlns="http://www.w3.org/2000/svg" width="180" height="180" viewBox="0 0 180 180">
  <g id="_12" data-name="12" transform="translate(-359 -5753)">
    <circle id="Ellipse_6156" data-name="Ellipse 6156" cx="90" cy="90" r="90" transform="translate(359 5753)" fill="#20cb7d"/>
    <g id="Group_147033" data-name="Group 147033" transform="translate(125 5629.244)">
      <g id="Group_146985" data-name="Group 146985" transform="translate(264 177.089)">
        <path id="Path_253957" data-name="Path 253957" d="M380,265.8H268a4,4,0,0,1-4-4v-72a4,4,0,0,1,4-4H380a4,4,0,0,1,4,4v72A4,4,0,0,1,380,265.8Z" transform="translate(-264 -185.8)" fill="#f06423"/>
      </g>
      <g id="Group_146986" data-name="Group 146986" transform="translate(336 177.089)">
        <path id="Path_253958" data-name="Path 253958" d="M418.2,193.8h-13a2,2,0,0,1-2-2v-6h12a4,4,0,0,1,4,4v3A1,1,0,0,1,418.2,193.8Z" transform="translate(-403.2 -185.8)" fill="#463c4b"/>
      </g>
      <g id="Group_146987" data-name="Group 146987" transform="translate(336 249.089)">
        <path id="Path_253959" data-name="Path 253959" d="M418.2,325h-13a2,2,0,0,0-2,2v6h12a4,4,0,0,0,4-4v-3A1,1,0,0,0,418.2,325Z" transform="translate(-403.2 -325)" fill="#463c4b"/>
      </g>
      <g id="Group_146988" data-name="Group 146988" transform="translate(264 177.089)">
        <path id="Path_253960" data-name="Path 253960" d="M340,265.8H268a4,4,0,0,1-4-4v-72a4,4,0,0,1,4-4h72a4,4,0,0,1,4,4v72A4,4,0,0,1,340,265.8Z" transform="translate(-264 -185.8)" fill="#faa51e"/>
      </g>
      <g id="Group_146989" data-name="Group 146989" transform="translate(272 185.089)">
        <path id="Path_253961" data-name="Path 253961" d="M341.467,265.267h-60a2,2,0,0,1-2-2v-60a2,2,0,0,1,2-2h60a2,2,0,0,1,2,2v60A2,2,0,0,1,341.467,265.267Z" transform="translate(-279.467 -201.267)" fill="#555a6e"/>
      </g>
      <g id="Group_146990" data-name="Group 146990" transform="translate(272 185.089)">
        <path id="Path_253962" data-name="Path 253962" d="M343.467,217.267h-64v-14a2,2,0,0,1,2-2h60a2,2,0,0,1,2,2Z" transform="translate(-279.467 -201.267)" fill="#d7e6f0"/>
      </g>
      <g id="Group_146991" data-name="Group 146991" transform="translate(280 189.089)">
        <path id="Path_253963" data-name="Path 253963" d="M300.933,217h-2a4,4,0,1,1,0-8h2a4,4,0,1,1,0,8Z" transform="translate(-294.933 -209)" fill="#463c4b"/>
      </g>
      <g id="Group_146992" data-name="Group 146992" transform="translate(280 189.089)">
        <circle id="Ellipse_5929" data-name="Ellipse 5929" cx="4" cy="4" r="4" transform="translate(0)" fill="#555a6e"/>
      </g>
      <g id="Group_146993" data-name="Group 146993" transform="translate(292 189.089)">
        <path id="Path_253964" data-name="Path 253964" d="M324.133,217h-2a4,4,0,1,1,0-8h2a4,4,0,1,1,0,8Z" transform="translate(-318.133 -209)" fill="#463c4b"/>
      </g>
      <g id="Group_146994" data-name="Group 146994" transform="translate(292 189.089)">
        <circle id="Ellipse_5930" data-name="Ellipse 5930" cx="4" cy="4" r="4" fill="#555a6e"/>
      </g>
      <g id="Group_146995" data-name="Group 146995" transform="translate(304 189.089)">
        <path id="Path_253965" data-name="Path 253965" d="M347.333,217h-2a4,4,0,1,1,0-8h2a4,4,0,1,1,0,8Z" transform="translate(-341.333 -209)" fill="#463c4b"/>
      </g>
      <g id="Group_146996" data-name="Group 146996" transform="translate(304 189.089)">
        <circle id="Ellipse_5931" data-name="Ellipse 5931" cx="4" cy="4" r="4" transform="translate(0)" fill="#555a6e"/>
      </g>
      <g id="Group_146997" data-name="Group 146997" transform="translate(322 189.089)">
        <path id="Path_253966" data-name="Path 253966" d="M382.133,217h-2a4,4,0,1,1,0-8h2a4,4,0,1,1,0,8Z" transform="translate(-376.133 -209)" fill="#e13732"/>
      </g>
      <g id="Group_146998" data-name="Group 146998" transform="translate(322 189.089)">
        <circle id="Ellipse_5932" data-name="Ellipse 5932" cx="4" cy="4" r="4" fill="#f05055"/>
      </g>
      <g id="Group_146999" data-name="Group 146999" transform="translate(372 177.089)">
        <path id="Path_253967" data-name="Path 253967" d="M480.8,185.8h-8a4,4,0,0,1,4,4v3a1,1,0,0,0,1,1h7v-4A4,4,0,0,0,480.8,185.8Z" transform="translate(-472.8 -185.8)" fill="#463c4b"/>
      </g>
      <g id="Group_147000" data-name="Group 147000" transform="translate(372 249.134)">
        <path id="Path_253968" data-name="Path 253968" d="M480.8,333.087h-8a4,4,0,0,0,4-4v-3a1,1,0,0,1,1-1h7v4A4,4,0,0,1,480.8,333.087Z" transform="translate(-472.8 -325.087)" fill="#463c4b"/>
      </g>
      <g id="Group_147001" data-name="Group 147001" transform="translate(336 177.089)">
        <path id="Path_253969" data-name="Path 253969" d="M411.2,193.8h-6a2,2,0,0,1-2-2v-6h4a4,4,0,0,1,4,4Z" transform="translate(-403.2 -185.8)" fill="#555a6e"/>
      </g>
      <g id="Group_147002" data-name="Group 147002" transform="translate(336 249.089)">
        <path id="Path_253970" data-name="Path 253970" d="M411.2,325h-6a2,2,0,0,0-2,2v6h4a4,4,0,0,0,4-4Z" transform="translate(-403.2 -325)" fill="#555a6e"/>
      </g>
      <g id="Group_147003" data-name="Group 147003" transform="translate(264 177.089)">
        <path id="Path_253971" data-name="Path 253971" d="M264,193.8h6a2,2,0,0,0,2-2v-6h-4a4,4,0,0,0-4,4Z" transform="translate(-264 -185.8)" fill="#555a6e"/>
      </g>
      <g id="Group_147004" data-name="Group 147004" transform="translate(264 249.089)">
        <path id="Path_253972" data-name="Path 253972" d="M264,325h6a2,2,0,0,1,2,2v6h-4a4,4,0,0,1-4-4Z" transform="translate(-264 -325)" fill="#555a6e"/>
      </g>
      <g id="Group_147005" data-name="Group 147005" transform="translate(272 257.089)">
        <path id="Path_253973" data-name="Path 253973" d="M285.467,343.8h-4a2,2,0,0,1-2-2v-1.333h8V341.8A2,2,0,0,1,285.467,343.8Z" transform="translate(-279.467 -340.467)" fill="#463c4b"/>
      </g>
      <g id="Group_147006" data-name="Group 147006" transform="translate(328 257.089)">
        <path id="Path_253974" data-name="Path 253974" d="M393.733,343.8h-4a2,2,0,0,1-2-2v-1.333h8V341.8A2,2,0,0,1,393.733,343.8Z" transform="translate(-387.733 -340.467)" fill="#463c4b"/>
      </g>
      <g id="Group_147007" data-name="Group 147007" transform="translate(364 257.089)">
        <path id="Path_253975" data-name="Path 253975" d="M463.333,343.8h-4a2,2,0,0,1-2-2v-1.333h8V341.8A2,2,0,0,1,463.333,343.8Z" transform="translate(-457.333 -340.467)" fill="#463c4b"/>
      </g>
      <g id="Group_147008" data-name="Group 147008" transform="translate(272 185.089)">
        <path id="Path_253976" data-name="Path 253976" d="M283.467,263.267v-60a2,2,0,0,1,2-2h-4a2,2,0,0,0-2,2v60a2,2,0,0,0,2,2h4A2,2,0,0,1,283.467,263.267Z" transform="translate(-279.467 -201.267)" fill="#f06423"/>
      </g>
      <path id="Path_253977" data-name="Path 253977" d="M387.733,173.089h-6.277a7.346,7.346,0,0,0-7.056-5.333H345.067a7.346,7.346,0,0,0-7.056,5.333h-6.277a2,2,0,1,0,0,4h16a2,2,0,0,0,2-2,3.337,3.337,0,0,1,3.333-3.333H366.4a3.337,3.337,0,0,1,3.334,3.333,2,2,0,0,0,2,2h16a2,2,0,0,0,0-4Z" transform="translate(-31.733)" fill="#e13732"/>
      <g id="Group_147009" data-name="Group 147009" transform="translate(298 167.756)">
        <path id="Path_253978" data-name="Path 253978" d="M379.733,177.089h-8a2,2,0,0,1-2-2,3.337,3.337,0,0,0-3.334-3.333H345.067a3.337,3.337,0,0,0-3.334,3.333,2,2,0,0,1-2,2h-8a2,2,0,1,1,0-4h6.277a7.346,7.346,0,0,1,7.056-5.333H366.4a7.346,7.346,0,0,1,7.056,5.333h6.277a2,2,0,1,1,0,4Z" transform="translate(-329.733 -167.756)" fill="#f05055"/>
      </g>
      <g id="Group_147010" data-name="Group 147010" transform="translate(280 207.089)">
        <circle id="Ellipse_5933" data-name="Ellipse 5933" cx="2" cy="2" r="2" transform="translate(0)" fill="#463c4b"/>
      </g>
      <g id="Group_147011" data-name="Group 147011" transform="translate(292 207.089)">
        <circle id="Ellipse_5934" data-name="Ellipse 5934" cx="2" cy="2" r="2" fill="#463c4b"/>
      </g>
      <g id="Group_147012" data-name="Group 147012" transform="translate(304 207.089)">
        <circle id="Ellipse_5935" data-name="Ellipse 5935" cx="2" cy="2" r="2" transform="translate(0)" fill="#463c4b"/>
      </g>
      <g id="Group_147013" data-name="Group 147013" transform="translate(316 207.089)">
        <circle id="Ellipse_5936" data-name="Ellipse 5936" cx="2" cy="2" r="2" transform="translate(0)" fill="#463c4b"/>
      </g>
      <g id="Group_147014" data-name="Group 147014" transform="translate(328 207.089)">
        <circle id="Ellipse_5937" data-name="Ellipse 5937" cx="2" cy="2" r="2" fill="#463c4b"/>
      </g>
      <g id="Group_147015" data-name="Group 147015" transform="translate(286 215.089)">
        <circle id="Ellipse_5938" data-name="Ellipse 5938" cx="2" cy="2" r="2" transform="translate(0)" fill="#463c4b"/>
      </g>
      <g id="Group_147016" data-name="Group 147016" transform="translate(298 215.089)">
        <circle id="Ellipse_5939" data-name="Ellipse 5939" cx="2" cy="2" r="2" fill="#463c4b"/>
      </g>
      <g id="Group_147017" data-name="Group 147017" transform="translate(310 215.089)">
        <circle id="Ellipse_5940" data-name="Ellipse 5940" cx="2" cy="2" r="2" transform="translate(0)" fill="#463c4b"/>
      </g>
      <g id="Group_147018" data-name="Group 147018" transform="translate(322 215.089)">
        <circle id="Ellipse_5941" data-name="Ellipse 5941" cx="2" cy="2" r="2" fill="#463c4b"/>
      </g>
      <g id="Group_147019" data-name="Group 147019" transform="translate(280 223.089)">
        <circle id="Ellipse_5942" data-name="Ellipse 5942" cx="2" cy="2" r="2" transform="translate(0)" fill="#463c4b"/>
      </g>
      <g id="Group_147020" data-name="Group 147020" transform="translate(292 223.089)">
        <circle id="Ellipse_5943" data-name="Ellipse 5943" cx="2" cy="2" r="2" fill="#463c4b"/>
      </g>
      <g id="Group_147021" data-name="Group 147021" transform="translate(304 223.089)">
        <circle id="Ellipse_5944" data-name="Ellipse 5944" cx="2" cy="2" r="2" transform="translate(0)" fill="#463c4b"/>
      </g>
      <g id="Group_147022" data-name="Group 147022" transform="translate(316 223.089)">
        <circle id="Ellipse_5945" data-name="Ellipse 5945" cx="2" cy="2" r="2" transform="translate(0)" fill="#463c4b"/>
      </g>
      <g id="Group_147023" data-name="Group 147023" transform="translate(328 223.089)">
        <circle id="Ellipse_5946" data-name="Ellipse 5946" cx="2" cy="2" r="2" fill="#463c4b"/>
      </g>
      <g id="Group_147024" data-name="Group 147024" transform="translate(280 239.089)">
        <circle id="Ellipse_5947" data-name="Ellipse 5947" cx="2" cy="2" r="2" transform="translate(0)" fill="#463c4b"/>
      </g>
      <g id="Group_147025" data-name="Group 147025" transform="translate(292 239.089)">
        <circle id="Ellipse_5948" data-name="Ellipse 5948" cx="2" cy="2" r="2" fill="#463c4b"/>
      </g>
      <g id="Group_147026" data-name="Group 147026" transform="translate(304 239.089)">
        <circle id="Ellipse_5949" data-name="Ellipse 5949" cx="2" cy="2" r="2" transform="translate(0)" fill="#463c4b"/>
      </g>
      <g id="Group_147027" data-name="Group 147027" transform="translate(316 239.089)">
        <circle id="Ellipse_5950" data-name="Ellipse 5950" cx="2" cy="2" r="2" transform="translate(0)" fill="#463c4b"/>
      </g>
      <g id="Group_147028" data-name="Group 147028" transform="translate(328 239.089)">
        <circle id="Ellipse_5951" data-name="Ellipse 5951" cx="2" cy="2" r="2" fill="#463c4b"/>
      </g>
      <g id="Group_147029" data-name="Group 147029" transform="translate(286 231.089)">
        <circle id="Ellipse_5952" data-name="Ellipse 5952" cx="2" cy="2" r="2" transform="translate(0)" fill="#463c4b"/>
      </g>
      <g id="Group_147030" data-name="Group 147030" transform="translate(298 231.089)">
        <circle id="Ellipse_5953" data-name="Ellipse 5953" cx="2" cy="2" r="2" fill="#463c4b"/>
      </g>
      <g id="Group_147031" data-name="Group 147031" transform="translate(310 231.089)">
        <circle id="Ellipse_5954" data-name="Ellipse 5954" cx="2" cy="2" r="2" transform="translate(0)" fill="#463c4b"/>
      </g>
      <g id="Group_147032" data-name="Group 147032" transform="translate(322 231.089)">
        <circle id="Ellipse_5955" data-name="Ellipse 5955" cx="2" cy="2" r="2" fill="#463c4b"/>
      </g>
    </g>
  </g>
</svg>
