<svg xmlns="http://www.w3.org/2000/svg" width="120" height="120" viewBox="0 0 120 120">
  <g id="_2" data-name="2" transform="translate(-180 -984)">
    <circle id="Ellipse_6093" data-name="Ellipse 6093" cx="60" cy="60" r="60" transform="translate(180 984)" fill="#7453d8"/>
    <g id="responsabilidad" transform="translate(198 999)">
      <path id="Path_259166" data-name="Path 259166" d="M29.023,40.341A1.343,1.343,0,0,1,27.682,39H25a4.023,4.023,0,0,0,8.047,0H30.365A1.343,1.343,0,0,1,29.023,40.341Z" transform="translate(7.846 12.623)" fill="#fff"/>
      <path id="Path_259167" data-name="Path 259167" d="M41.047,39H38.365a1.341,1.341,0,1,1-2.682,0H33a4.023,4.023,0,0,0,8.047,0Z" transform="translate(10.576 12.623)" fill="#fff"/>
      <path id="Path_259168" data-name="Path 259168" d="M29.141,72.917V63.529a1.342,1.342,0,0,0-1.765-1.273,24.749,24.749,0,0,1-7.84,1.273H14.388V59.505h4.355a27.524,27.524,0,0,0,10.317-2.01,9.335,9.335,0,0,1,3.488-.672h6.294l-2.8,4.674a1.345,1.345,0,0,0-.05,1.29l4.023,8.047a1.341,1.341,0,0,0,2.4,0l4.023-8.047a1.345,1.345,0,0,0-.05-1.29l-2.806-4.674h6.294a9.507,9.507,0,0,1,3.6.718,27.36,27.36,0,0,0,10.2,1.965h4.355v4.023H62.887a24.749,24.749,0,0,1-7.84-1.273,1.342,1.342,0,0,0-1.765,1.273v9.388h2.682V65.325a27.423,27.423,0,0,0,6.923.886h6.488a1.341,1.341,0,0,0,1.341-1.341h1.871a5.356,5.356,0,0,0,4.462-2.386l.1-.15a2.682,2.682,0,0,0-2.232-4.17h-4.2a1.341,1.341,0,0,0-1.341-1.341h-5.7A24.865,24.865,0,0,1,54.357,55a12.037,12.037,0,0,0-4.483-.864h-.65A13.4,13.4,0,1,0,28.439,39.332c-.027.02-.056.036-.084.056l.043.06a13.375,13.375,0,0,0,4.8,14.692h-.65a12.205,12.205,0,0,0-4.6.909,24.7,24.7,0,0,1-9.208,1.773h-5.7a1.341,1.341,0,0,0-1.341,1.341H7.685A2.682,2.682,0,0,0,5.45,62.33l.1.152a5.356,5.356,0,0,0,4.463,2.389h1.693a1.341,1.341,0,0,0,1.341,1.341h6.488a27.415,27.415,0,0,0,6.923-.887v7.592ZM74.918,60.844l-.1.149a2.679,2.679,0,0,1-2.232,1.195H70.716V60.846ZM41.211,67.236l-2.495-4.989,2.495-4.158,2.495,4.158Zm0-34.553a10.724,10.724,0,0,1,8.94,4.811A21.446,21.446,0,0,0,32.63,37a10.708,10.708,0,0,1,8.581-4.314ZM30.482,43.412a10.7,10.7,0,0,1,.282-2.406,18.7,18.7,0,0,1,21.005.554,10.724,10.724,0,1,1-21.287,1.852ZM10.013,62.188A2.677,2.677,0,0,1,7.784,61l-.1-.152h4.021v1.341Z" transform="translate(1.024 9.552)" fill="#fff"/>
      <path id="Path_259169" data-name="Path 259169" d="M35.412,28.823A13.412,13.412,0,1,0,22,15.412,13.427,13.427,0,0,0,35.412,28.823Zm-5.531-4.235,2.989-2.241,1.389.695.77,3.081a10.643,10.643,0,0,1-5.149-1.534Zm15.58-5.452-5.276-1.758,1.707-2.563a1.349,1.349,0,0,0,.225-.744V10.764L44.25,9.343a10.63,10.63,0,0,1,1.211,9.793ZM42.44,7.326,40.032,8.931a1.343,1.343,0,0,0-.6,1.116v3.617l-2.457,3.685a1.34,1.34,0,0,0,.692,2.016L44.2,21.543a10.744,10.744,0,0,1-6.468,4.336l-1.022-4.088a1.343,1.343,0,0,0-.7-.874L33.33,19.576a1.343,1.343,0,0,0-1.4.127l-4.215,3.161a10.792,10.792,0,0,1-1.867-2.625l4.65-3.487h2.236a1.335,1.335,0,0,0,.948-.393l2.682-2.682a1.339,1.339,0,0,0,.323-1.372L35.342,8.282a1.338,1.338,0,0,0-1.271-.917H31.943L30.475,5.9A10.659,10.659,0,0,1,42.44,7.326Zm-14.2.129,2.2,2.2a1.335,1.335,0,0,0,.948.393H33.1l.773,2.32-1.7,1.7H30.047a1.337,1.337,0,0,0-.8.268L24.9,17.591a10.8,10.8,0,0,1-.223-2.179A10.694,10.694,0,0,1,28.24,7.454Z" transform="translate(6.823 0)" fill="#fff"/>
      <path id="Path_259170" data-name="Path 259170" d="M7.365,41.115v.025H7.4a13.307,13.307,0,0,0,16.024,0h.035v-.025a13.412,13.412,0,1,0-16.094,0Zm2.682-1.426V37.117a4.028,4.028,0,0,1,4.023-4.023h2.682a4.028,4.028,0,0,1,4.023,4.023V39.69a10.642,10.642,0,0,1-10.729,0Zm5.365-9.278a2.682,2.682,0,1,1,2.682-2.682A2.685,2.685,0,0,1,15.412,30.412Zm0-10.729a10.712,10.712,0,0,1,8.047,17.8v-.367a6.7,6.7,0,0,0-3.875-6.057,5.365,5.365,0,1,0-8.345,0,6.7,6.7,0,0,0-3.875,6.057v.367a10.712,10.712,0,0,1,8.047-17.8Z" transform="translate(0 5.117)" fill="#fff"/>
      <path id="Path_259171" data-name="Path 259171" d="M55.412,43.823A13.412,13.412,0,1,0,42,30.412,13.427,13.427,0,0,0,55.412,43.823Zm0-24.141A10.729,10.729,0,1,1,44.682,30.412,10.742,10.742,0,0,1,55.412,19.682Z" transform="translate(13.646 5.117)" fill="#fff"/>
      <path id="Path_259172" data-name="Path 259172" d="M50.694,33.07h2.012v4.023h2.682V33.07H57.4a4.686,4.686,0,0,0,1.4-9.16,5.336,5.336,0,0,0-9.506,0,4.686,4.686,0,0,0,1.4,9.16ZM50.433,26.4a1.338,1.338,0,0,0,1.093-.895,2.657,2.657,0,0,1,5.043,0,1.338,1.338,0,0,0,1.093.895,2,2,0,0,1-.262,3.993H50.694a2,2,0,0,1-.262-3.991Z" transform="translate(15.011 6.482)" fill="#fff"/>
      <path id="Path_259173" data-name="Path 259173" d="M55,47h2.682v2.682H55Z" transform="translate(18.081 15.352)" fill="#fff"/>
      <path id="Path_259174" data-name="Path 259174" d="M55,43h2.682v2.682H55Z" transform="translate(18.081 13.987)" fill="#fff"/>
      <path id="Path_259175" data-name="Path 259175" d="M55,39h2.682v2.682H55Z" transform="translate(18.081 12.623)" fill="#fff"/>
      <path id="Path_259176" data-name="Path 259176" d="M7,47H9.682v2.682H7Z" transform="translate(1.706 15.352)" fill="#fff"/>
      <path id="Path_259177" data-name="Path 259177" d="M7,43H9.682v2.682H7Z" transform="translate(1.706 13.987)" fill="#fff"/>
      <path id="Path_259178" data-name="Path 259178" d="M7,39H9.682v2.682H7Z" transform="translate(1.706 12.623)" fill="#fff"/>
    </g>
  </g>
</svg>
