<svg xmlns="http://www.w3.org/2000/svg" xmlns:xlink="http://www.w3.org/1999/xlink" width="271.728" height="208.461" viewBox="0 0 271.728 208.461">
  <defs>
    <linearGradient id="linear-gradient" x1="0.5" x2="0.5" y2="1" gradientUnits="objectBoundingBox">
      <stop offset="0" stop-color="#7e89be"/>
      <stop offset="1" stop-color="#29398a"/>
    </linearGradient>
    <linearGradient id="linear-gradient-2" x1="0.5" x2="0.5" y2="1" gradientUnits="objectBoundingBox">
      <stop offset="0" stop-color="#ba68c8"/>
      <stop offset="0.19" stop-color="#9139af"/>
      <stop offset="0.31" stop-color="#7b1fa2"/>
      <stop offset="1" stop-color="#45147b"/>
    </linearGradient>
  </defs>
  <g id="_26" data-name="26" transform="translate(-203 -14135)">
    <g id="Group_148646" data-name="Group 148646" transform="translate(203 14179.863)" opacity="0.76">
      <path id="Path_145969" data-name="Path 145969" d="M33.552,0A33.552,33.552,0,1,1,0,33.552,33.552,33.552,0,0,1,33.552,0Z" transform="translate(204.624 -44.863)" opacity="0.6" fill="url(#linear-gradient)" style="mix-blend-mode: multiply;isolation: isolate"/>
      <rect id="Rectangle_34812" data-name="Rectangle 34812" width="261.766" height="180.936" transform="translate(0 -17.339)" fill="none"/>
      <path id="Path_145971" data-name="Path 145971" d="M21.209,0A21.209,21.209,0,1,1,0,21.209,21.209,21.209,0,0,1,21.209,0Z" transform="translate(219.348 103.184)" fill="#fda929" opacity="0.444" style="mix-blend-mode: multiply;isolation: isolate"/>
      <g id="Group_145732" data-name="Group 145732" transform="translate(25.768 36.966)">
        <path id="Path_145968" data-name="Path 145968" d="M49.1,0A49.1,49.1,0,1,1,0,49.1,49.1,49.1,0,0,1,49.1,0Z" transform="translate(0 0)" opacity="0.444" fill="url(#linear-gradient-2)" style="mix-blend-mode: multiply;isolation: isolate"/>
        <g id="Group_78276" data-name="Group 78276" transform="translate(18.405 20.246)">
          <g id="Group_53306" data-name="Group 53306" transform="translate(0)">
            <path id="Path_99200" data-name="Path 99200" d="M415.547,50.861a.667.667,0,1,1-.667-.637A.653.653,0,0,1,415.547,50.861Z" transform="translate(-414.214 -50.224)" fill="url(#linear-gradient-2)"/>
            <path id="Path_99201" data-name="Path 99201" d="M423.993,50.861a.667.667,0,1,1-.666-.637A.652.652,0,0,1,423.993,50.861Z" transform="translate(-416.659 -50.224)" fill="url(#linear-gradient-2)"/>
            <path id="Path_99202" data-name="Path 99202" d="M432.439,50.861a.667.667,0,1,1-.666-.637A.652.652,0,0,1,432.439,50.861Z" transform="translate(-419.105 -50.224)" fill="url(#linear-gradient-2)"/>
            <path id="Path_99203" data-name="Path 99203" d="M440.887,50.861a.667.667,0,1,1-.667-.637A.653.653,0,0,1,440.887,50.861Z" transform="translate(-421.55 -50.224)" fill="url(#linear-gradient-2)"/>
            <path id="Path_99204" data-name="Path 99204" d="M449.332,50.861a.667.667,0,1,1-.666-.637A.653.653,0,0,1,449.332,50.861Z" transform="translate(-423.996 -50.224)" fill="url(#linear-gradient-2)"/>
            <path id="Path_99205" data-name="Path 99205" d="M457.778,50.861a.667.667,0,1,1-.666-.637A.652.652,0,0,1,457.778,50.861Z" transform="translate(-426.441 -50.224)" fill="url(#linear-gradient-2)"/>
            <path id="Path_99206" data-name="Path 99206" d="M466.226,50.861a.667.667,0,1,1-.667-.637A.653.653,0,0,1,466.226,50.861Z" transform="translate(-428.887 -50.224)" fill="url(#linear-gradient-2)"/>
            <path id="Path_99207" data-name="Path 99207" d="M474.672,50.861a.667.667,0,1,1-.667-.637A.653.653,0,0,1,474.672,50.861Z" transform="translate(-431.332 -50.224)" fill="url(#linear-gradient-2)"/>
            <path id="Path_99208" data-name="Path 99208" d="M483.118,50.861a.667.667,0,1,1-.667-.637A.653.653,0,0,1,483.118,50.861Z" transform="translate(-433.777 -50.224)" fill="url(#linear-gradient-2)"/>
            <path id="Path_99209" data-name="Path 99209" d="M491.564,50.861a.667.667,0,1,1-.667-.637A.653.653,0,0,1,491.564,50.861Z" transform="translate(-436.223 -50.224)" fill="url(#linear-gradient-2)"/>
            <path id="Path_99210" data-name="Path 99210" d="M500.011,50.861a.667.667,0,1,1-.667-.637A.653.653,0,0,1,500.011,50.861Z" transform="translate(-438.669 -50.224)" fill="url(#linear-gradient-2)"/>
          </g>
          <g id="Group_53307" data-name="Group 53307" transform="translate(0 5.101)">
            <path id="Path_99211" data-name="Path 99211" d="M415.547,58.369a.667.667,0,1,1-.667-.637A.653.653,0,0,1,415.547,58.369Z" transform="translate(-414.214 -57.732)" fill="url(#linear-gradient-2)"/>
            <path id="Path_99212" data-name="Path 99212" d="M423.993,58.369a.667.667,0,1,1-.666-.637A.652.652,0,0,1,423.993,58.369Z" transform="translate(-416.659 -57.732)" fill="url(#linear-gradient-2)"/>
            <path id="Path_99213" data-name="Path 99213" d="M432.439,58.369a.667.667,0,1,1-.666-.637A.652.652,0,0,1,432.439,58.369Z" transform="translate(-419.105 -57.732)" fill="url(#linear-gradient-2)"/>
            <path id="Path_99214" data-name="Path 99214" d="M440.887,58.369a.667.667,0,1,1-.667-.637A.653.653,0,0,1,440.887,58.369Z" transform="translate(-421.55 -57.732)" fill="url(#linear-gradient-2)"/>
            <path id="Path_99215" data-name="Path 99215" d="M449.332,58.369a.667.667,0,1,1-.666-.637A.653.653,0,0,1,449.332,58.369Z" transform="translate(-423.996 -57.732)" fill="url(#linear-gradient-2)"/>
            <path id="Path_99216" data-name="Path 99216" d="M457.778,58.369a.667.667,0,1,1-.666-.637A.652.652,0,0,1,457.778,58.369Z" transform="translate(-426.441 -57.732)" fill="url(#linear-gradient-2)"/>
            <path id="Path_99217" data-name="Path 99217" d="M466.226,58.369a.667.667,0,1,1-.667-.637A.653.653,0,0,1,466.226,58.369Z" transform="translate(-428.887 -57.732)" fill="url(#linear-gradient-2)"/>
            <path id="Path_99218" data-name="Path 99218" d="M474.672,58.369a.667.667,0,1,1-.667-.637A.653.653,0,0,1,474.672,58.369Z" transform="translate(-431.332 -57.732)" fill="url(#linear-gradient-2)"/>
            <path id="Path_99219" data-name="Path 99219" d="M483.118,58.369a.667.667,0,1,1-.667-.637A.653.653,0,0,1,483.118,58.369Z" transform="translate(-433.777 -57.732)" fill="url(#linear-gradient-2)"/>
            <path id="Path_99220" data-name="Path 99220" d="M491.564,58.369a.667.667,0,1,1-.667-.637A.653.653,0,0,1,491.564,58.369Z" transform="translate(-436.223 -57.732)" fill="url(#linear-gradient-2)"/>
            <path id="Path_99221" data-name="Path 99221" d="M500.011,58.369a.667.667,0,1,1-.667-.637A.653.653,0,0,1,500.011,58.369Z" transform="translate(-438.669 -57.732)" fill="url(#linear-gradient-2)"/>
          </g>
          <g id="Group_53308" data-name="Group 53308" transform="translate(0 10.202)">
            <ellipse id="Ellipse_3955" data-name="Ellipse 3955" cx="0.667" cy="0.638" rx="0.667" ry="0.638" fill="url(#linear-gradient-2)"/>
            <path id="Path_99222" data-name="Path 99222" d="M423.993,65.877a.667.667,0,1,1-.666-.637A.653.653,0,0,1,423.993,65.877Z" transform="translate(-416.659 -65.24)" fill="url(#linear-gradient-2)"/>
            <ellipse id="Ellipse_3956" data-name="Ellipse 3956" cx="0.667" cy="0.638" rx="0.667" ry="0.638" transform="translate(12.002)" fill="url(#linear-gradient-2)"/>
            <path id="Path_99223" data-name="Path 99223" d="M440.887,65.877a.667.667,0,1,1-.667-.637A.653.653,0,0,1,440.887,65.877Z" transform="translate(-421.55 -65.24)" fill="url(#linear-gradient-2)"/>
            <path id="Path_99224" data-name="Path 99224" d="M449.332,65.877a.667.667,0,1,1-.666-.637A.653.653,0,0,1,449.332,65.877Z" transform="translate(-423.996 -65.24)" fill="url(#linear-gradient-2)"/>
            <ellipse id="Ellipse_3957" data-name="Ellipse 3957" cx="0.667" cy="0.638" rx="0.667" ry="0.638" transform="translate(30.004)" fill="url(#linear-gradient-2)"/>
            <path id="Path_99225" data-name="Path 99225" d="M466.226,65.877a.667.667,0,1,1-.667-.637A.654.654,0,0,1,466.226,65.877Z" transform="translate(-428.887 -65.24)" fill="url(#linear-gradient-2)"/>
            <ellipse id="Ellipse_3958" data-name="Ellipse 3958" cx="0.667" cy="0.638" rx="0.667" ry="0.638" transform="translate(42.006)" fill="url(#linear-gradient-2)"/>
            <ellipse id="Ellipse_3959" data-name="Ellipse 3959" cx="0.667" cy="0.638" rx="0.667" ry="0.638" transform="translate(48.007)" fill="url(#linear-gradient-2)"/>
            <path id="Path_99226" data-name="Path 99226" d="M491.564,65.877a.667.667,0,1,1-.667-.637A.654.654,0,0,1,491.564,65.877Z" transform="translate(-436.223 -65.24)" fill="url(#linear-gradient-2)"/>
            <path id="Path_99227" data-name="Path 99227" d="M500.011,65.877a.667.667,0,1,1-.667-.637A.653.653,0,0,1,500.011,65.877Z" transform="translate(-438.669 -65.24)" fill="url(#linear-gradient-2)"/>
          </g>
          <g id="Group_53309" data-name="Group 53309" transform="translate(0 15.303)">
            <ellipse id="Ellipse_3960" data-name="Ellipse 3960" cx="0.667" cy="0.638" rx="0.667" ry="0.638" transform="translate(0 0)" fill="url(#linear-gradient-2)"/>
            <path id="Path_99228" data-name="Path 99228" d="M423.993,73.385a.667.667,0,1,1-.666-.638A.652.652,0,0,1,423.993,73.385Z" transform="translate(-416.659 -72.747)" fill="url(#linear-gradient-2)"/>
            <ellipse id="Ellipse_3961" data-name="Ellipse 3961" cx="0.667" cy="0.638" rx="0.667" ry="0.638" transform="translate(12.002 0)" fill="url(#linear-gradient-2)"/>
            <path id="Path_99229" data-name="Path 99229" d="M440.887,73.385a.667.667,0,1,1-.667-.638A.653.653,0,0,1,440.887,73.385Z" transform="translate(-421.55 -72.747)" fill="url(#linear-gradient-2)"/>
            <path id="Path_99230" data-name="Path 99230" d="M449.332,73.385a.667.667,0,1,1-.666-.638A.652.652,0,0,1,449.332,73.385Z" transform="translate(-423.996 -72.747)" fill="url(#linear-gradient-2)"/>
            <ellipse id="Ellipse_3962" data-name="Ellipse 3962" cx="0.667" cy="0.638" rx="0.667" ry="0.638" transform="translate(30.004 0)" fill="url(#linear-gradient-2)"/>
            <path id="Path_99231" data-name="Path 99231" d="M466.226,73.385a.667.667,0,1,1-.667-.638A.653.653,0,0,1,466.226,73.385Z" transform="translate(-428.887 -72.747)" fill="url(#linear-gradient-2)"/>
            <ellipse id="Ellipse_3963" data-name="Ellipse 3963" cx="0.667" cy="0.638" rx="0.667" ry="0.638" transform="translate(42.006 0)" fill="url(#linear-gradient-2)"/>
            <ellipse id="Ellipse_3964" data-name="Ellipse 3964" cx="0.667" cy="0.638" rx="0.667" ry="0.638" transform="translate(48.007 0)" fill="url(#linear-gradient-2)"/>
            <path id="Path_99232" data-name="Path 99232" d="M491.564,73.385a.667.667,0,1,1-.667-.638A.653.653,0,0,1,491.564,73.385Z" transform="translate(-436.223 -72.747)" fill="url(#linear-gradient-2)"/>
            <path id="Path_99233" data-name="Path 99233" d="M500.011,73.385a.667.667,0,1,1-.667-.638A.653.653,0,0,1,500.011,73.385Z" transform="translate(-438.669 -72.747)" fill="url(#linear-gradient-2)"/>
          </g>
          <g id="Group_53310" data-name="Group 53310" transform="translate(0 20.404)">
            <path id="Path_99234" data-name="Path 99234" d="M415.547,80.893a.667.667,0,1,1-.667-.638A.653.653,0,0,1,415.547,80.893Z" transform="translate(-414.214 -80.255)" fill="url(#linear-gradient-2)"/>
            <path id="Path_99235" data-name="Path 99235" d="M423.993,80.893a.667.667,0,1,1-.666-.638A.652.652,0,0,1,423.993,80.893Z" transform="translate(-416.659 -80.255)" fill="url(#linear-gradient-2)"/>
            <path id="Path_99236" data-name="Path 99236" d="M432.439,80.893a.667.667,0,1,1-.666-.638A.652.652,0,0,1,432.439,80.893Z" transform="translate(-419.105 -80.255)" fill="url(#linear-gradient-2)"/>
            <path id="Path_99237" data-name="Path 99237" d="M440.887,80.893a.667.667,0,1,1-.667-.638A.653.653,0,0,1,440.887,80.893Z" transform="translate(-421.55 -80.255)" fill="url(#linear-gradient-2)"/>
            <path id="Path_99238" data-name="Path 99238" d="M449.332,80.893a.667.667,0,1,1-.666-.638A.652.652,0,0,1,449.332,80.893Z" transform="translate(-423.996 -80.255)" fill="url(#linear-gradient-2)"/>
            <path id="Path_99239" data-name="Path 99239" d="M457.778,80.893a.667.667,0,1,1-.666-.638A.652.652,0,0,1,457.778,80.893Z" transform="translate(-426.441 -80.255)" fill="url(#linear-gradient-2)"/>
            <path id="Path_99240" data-name="Path 99240" d="M466.226,80.893a.667.667,0,1,1-.667-.638A.653.653,0,0,1,466.226,80.893Z" transform="translate(-428.887 -80.255)" fill="url(#linear-gradient-2)"/>
            <path id="Path_99241" data-name="Path 99241" d="M474.672,80.893a.667.667,0,1,1-.667-.638A.652.652,0,0,1,474.672,80.893Z" transform="translate(-431.332 -80.255)" fill="url(#linear-gradient-2)"/>
            <path id="Path_99242" data-name="Path 99242" d="M483.118,80.893a.667.667,0,1,1-.667-.638A.652.652,0,0,1,483.118,80.893Z" transform="translate(-433.777 -80.255)" fill="url(#linear-gradient-2)"/>
            <path id="Path_99243" data-name="Path 99243" d="M491.564,80.893a.667.667,0,1,1-.667-.638A.653.653,0,0,1,491.564,80.893Z" transform="translate(-436.223 -80.255)" fill="url(#linear-gradient-2)"/>
            <path id="Path_99244" data-name="Path 99244" d="M500.011,80.893a.667.667,0,1,1-.667-.638A.653.653,0,0,1,500.011,80.893Z" transform="translate(-438.669 -80.255)" fill="url(#linear-gradient-2)"/>
          </g>
          <g id="Group_53311" data-name="Group 53311" transform="translate(0 25.505)">
            <ellipse id="Ellipse_3965" data-name="Ellipse 3965" cx="0.667" cy="0.638" rx="0.667" ry="0.638" transform="translate(0 0)" fill="url(#linear-gradient-2)"/>
            <path id="Path_99245" data-name="Path 99245" d="M423.993,88.4a.667.667,0,1,1-.666-.638A.652.652,0,0,1,423.993,88.4Z" transform="translate(-416.659 -87.763)" fill="url(#linear-gradient-2)"/>
            <ellipse id="Ellipse_3966" data-name="Ellipse 3966" cx="0.667" cy="0.638" rx="0.667" ry="0.638" transform="translate(12.002 0)" fill="url(#linear-gradient-2)"/>
            <path id="Path_99246" data-name="Path 99246" d="M440.887,88.4a.667.667,0,1,1-.667-.638A.653.653,0,0,1,440.887,88.4Z" transform="translate(-421.55 -87.763)" fill="url(#linear-gradient-2)"/>
            <path id="Path_99247" data-name="Path 99247" d="M449.332,88.4a.667.667,0,1,1-.666-.638A.652.652,0,0,1,449.332,88.4Z" transform="translate(-423.996 -87.763)" fill="url(#linear-gradient-2)"/>
            <ellipse id="Ellipse_3967" data-name="Ellipse 3967" cx="0.667" cy="0.638" rx="0.667" ry="0.638" transform="translate(30.004 0)" fill="url(#linear-gradient-2)"/>
            <path id="Path_99248" data-name="Path 99248" d="M466.226,88.4a.667.667,0,1,1-.667-.638A.653.653,0,0,1,466.226,88.4Z" transform="translate(-428.887 -87.763)" fill="url(#linear-gradient-2)"/>
            <ellipse id="Ellipse_3968" data-name="Ellipse 3968" cx="0.667" cy="0.638" rx="0.667" ry="0.638" transform="translate(42.006 0)" fill="url(#linear-gradient-2)"/>
            <ellipse id="Ellipse_3969" data-name="Ellipse 3969" cx="0.667" cy="0.638" rx="0.667" ry="0.638" transform="translate(48.007 0)" fill="url(#linear-gradient-2)"/>
            <path id="Path_99249" data-name="Path 99249" d="M491.564,88.4a.667.667,0,1,1-.667-.638A.653.653,0,0,1,491.564,88.4Z" transform="translate(-436.223 -87.763)" fill="url(#linear-gradient-2)"/>
            <path id="Path_99250" data-name="Path 99250" d="M500.011,88.4a.667.667,0,1,1-.667-.638A.653.653,0,0,1,500.011,88.4Z" transform="translate(-438.669 -87.763)" fill="url(#linear-gradient-2)"/>
          </g>
          <g id="Group_53312" data-name="Group 53312" transform="translate(0 30.607)">
            <ellipse id="Ellipse_3970" data-name="Ellipse 3970" cx="0.667" cy="0.638" rx="0.667" ry="0.638" fill="url(#linear-gradient-2)"/>
            <path id="Path_99251" data-name="Path 99251" d="M423.993,95.908a.667.667,0,1,1-.666-.637A.653.653,0,0,1,423.993,95.908Z" transform="translate(-416.659 -95.271)" fill="url(#linear-gradient-2)"/>
            <ellipse id="Ellipse_3971" data-name="Ellipse 3971" cx="0.667" cy="0.638" rx="0.667" ry="0.638" transform="translate(12.002)" fill="url(#linear-gradient-2)"/>
            <path id="Path_99252" data-name="Path 99252" d="M440.887,95.908a.667.667,0,1,1-.667-.637A.653.653,0,0,1,440.887,95.908Z" transform="translate(-421.55 -95.271)" fill="url(#linear-gradient-2)"/>
            <path id="Path_99253" data-name="Path 99253" d="M449.332,95.908a.667.667,0,1,1-.666-.637A.653.653,0,0,1,449.332,95.908Z" transform="translate(-423.996 -95.271)" fill="url(#linear-gradient-2)"/>
            <ellipse id="Ellipse_3972" data-name="Ellipse 3972" cx="0.667" cy="0.638" rx="0.667" ry="0.638" transform="translate(30.004)" fill="url(#linear-gradient-2)"/>
            <path id="Path_99254" data-name="Path 99254" d="M466.226,95.908a.667.667,0,1,1-.667-.637A.653.653,0,0,1,466.226,95.908Z" transform="translate(-428.887 -95.271)" fill="url(#linear-gradient-2)"/>
            <ellipse id="Ellipse_3973" data-name="Ellipse 3973" cx="0.667" cy="0.638" rx="0.667" ry="0.638" transform="translate(42.006)" fill="url(#linear-gradient-2)"/>
            <ellipse id="Ellipse_3974" data-name="Ellipse 3974" cx="0.667" cy="0.638" rx="0.667" ry="0.638" transform="translate(48.007)" fill="url(#linear-gradient-2)"/>
            <path id="Path_99255" data-name="Path 99255" d="M491.564,95.908a.667.667,0,1,1-.667-.637A.653.653,0,0,1,491.564,95.908Z" transform="translate(-436.223 -95.271)" fill="url(#linear-gradient-2)"/>
            <path id="Path_99256" data-name="Path 99256" d="M500.011,95.908a.667.667,0,1,1-.667-.637A.653.653,0,0,1,500.011,95.908Z" transform="translate(-438.669 -95.271)" fill="url(#linear-gradient-2)"/>
          </g>
          <g id="Group_53313" data-name="Group 53313" transform="translate(0 35.708)">
            <path id="Path_99257" data-name="Path 99257" d="M415.547,103.416a.667.667,0,1,1-.667-.637A.653.653,0,0,1,415.547,103.416Z" transform="translate(-414.214 -102.779)" fill="url(#linear-gradient-2)"/>
            <path id="Path_99258" data-name="Path 99258" d="M423.993,103.416a.667.667,0,1,1-.666-.637A.652.652,0,0,1,423.993,103.416Z" transform="translate(-416.659 -102.779)" fill="url(#linear-gradient-2)"/>
            <path id="Path_99259" data-name="Path 99259" d="M432.439,103.416a.667.667,0,1,1-.666-.637A.652.652,0,0,1,432.439,103.416Z" transform="translate(-419.105 -102.779)" fill="url(#linear-gradient-2)"/>
            <path id="Path_99260" data-name="Path 99260" d="M440.887,103.416a.667.667,0,1,1-.667-.637A.653.653,0,0,1,440.887,103.416Z" transform="translate(-421.55 -102.779)" fill="url(#linear-gradient-2)"/>
            <path id="Path_99261" data-name="Path 99261" d="M449.332,103.416a.667.667,0,1,1-.666-.637A.653.653,0,0,1,449.332,103.416Z" transform="translate(-423.996 -102.779)" fill="url(#linear-gradient-2)"/>
            <path id="Path_99262" data-name="Path 99262" d="M457.778,103.416a.667.667,0,1,1-.666-.637A.652.652,0,0,1,457.778,103.416Z" transform="translate(-426.441 -102.779)" fill="url(#linear-gradient-2)"/>
            <path id="Path_99263" data-name="Path 99263" d="M466.226,103.416a.667.667,0,1,1-.667-.637A.653.653,0,0,1,466.226,103.416Z" transform="translate(-428.887 -102.779)" fill="url(#linear-gradient-2)"/>
            <path id="Path_99264" data-name="Path 99264" d="M474.672,103.416a.667.667,0,1,1-.667-.637A.653.653,0,0,1,474.672,103.416Z" transform="translate(-431.332 -102.779)" fill="url(#linear-gradient-2)"/>
            <path id="Path_99265" data-name="Path 99265" d="M483.118,103.416a.667.667,0,1,1-.667-.637A.653.653,0,0,1,483.118,103.416Z" transform="translate(-433.777 -102.779)" fill="url(#linear-gradient-2)"/>
            <path id="Path_99266" data-name="Path 99266" d="M491.564,103.416a.667.667,0,1,1-.667-.637A.653.653,0,0,1,491.564,103.416Z" transform="translate(-436.223 -102.779)" fill="url(#linear-gradient-2)"/>
            <path id="Path_99267" data-name="Path 99267" d="M500.011,103.416a.667.667,0,1,1-.667-.637A.653.653,0,0,1,500.011,103.416Z" transform="translate(-438.669 -102.779)" fill="url(#linear-gradient-2)"/>
          </g>
          <g id="Group_53314" data-name="Group 53314" transform="translate(0 40.809)">
            <ellipse id="Ellipse_3975" data-name="Ellipse 3975" cx="0.667" cy="0.638" rx="0.667" ry="0.638" fill="url(#linear-gradient-2)"/>
            <path id="Path_99268" data-name="Path 99268" d="M423.993,110.924a.667.667,0,1,1-.666-.637A.653.653,0,0,1,423.993,110.924Z" transform="translate(-416.659 -110.287)" fill="url(#linear-gradient-2)"/>
            <ellipse id="Ellipse_3976" data-name="Ellipse 3976" cx="0.667" cy="0.638" rx="0.667" ry="0.638" transform="translate(12.002)" fill="url(#linear-gradient-2)"/>
            <path id="Path_99269" data-name="Path 99269" d="M440.887,110.924a.667.667,0,1,1-.667-.637A.653.653,0,0,1,440.887,110.924Z" transform="translate(-421.55 -110.287)" fill="url(#linear-gradient-2)"/>
            <path id="Path_99270" data-name="Path 99270" d="M449.332,110.924a.667.667,0,1,1-.666-.637A.653.653,0,0,1,449.332,110.924Z" transform="translate(-423.996 -110.287)" fill="url(#linear-gradient-2)"/>
            <ellipse id="Ellipse_3977" data-name="Ellipse 3977" cx="0.667" cy="0.638" rx="0.667" ry="0.638" transform="translate(30.004)" fill="url(#linear-gradient-2)"/>
            <path id="Path_99271" data-name="Path 99271" d="M466.226,110.924a.667.667,0,1,1-.667-.637A.654.654,0,0,1,466.226,110.924Z" transform="translate(-428.887 -110.287)" fill="url(#linear-gradient-2)"/>
            <ellipse id="Ellipse_3978" data-name="Ellipse 3978" cx="0.667" cy="0.638" rx="0.667" ry="0.638" transform="translate(42.006)" fill="url(#linear-gradient-2)"/>
            <ellipse id="Ellipse_3979" data-name="Ellipse 3979" cx="0.667" cy="0.638" rx="0.667" ry="0.638" transform="translate(48.007)" fill="url(#linear-gradient-2)"/>
            <path id="Path_99272" data-name="Path 99272" d="M491.564,110.924a.667.667,0,1,1-.667-.637A.654.654,0,0,1,491.564,110.924Z" transform="translate(-436.223 -110.287)" fill="url(#linear-gradient-2)"/>
            <path id="Path_99273" data-name="Path 99273" d="M500.011,110.924a.667.667,0,1,1-.667-.637A.653.653,0,0,1,500.011,110.924Z" transform="translate(-438.669 -110.287)" fill="url(#linear-gradient-2)"/>
          </g>
          <g id="Group_53315" data-name="Group 53315" transform="translate(0 45.91)">
            <path id="Path_99274" data-name="Path 99274" d="M415.547,118.432a.667.667,0,1,1-.667-.638A.653.653,0,0,1,415.547,118.432Z" transform="translate(-414.214 -117.794)" fill="url(#linear-gradient-2)"/>
            <path id="Path_99275" data-name="Path 99275" d="M423.993,118.432a.667.667,0,1,1-.666-.638A.653.653,0,0,1,423.993,118.432Z" transform="translate(-416.659 -117.794)" fill="url(#linear-gradient-2)"/>
            <path id="Path_99276" data-name="Path 99276" d="M432.439,118.432a.667.667,0,1,1-.666-.638A.653.653,0,0,1,432.439,118.432Z" transform="translate(-419.105 -117.794)" fill="url(#linear-gradient-2)"/>
            <path id="Path_99277" data-name="Path 99277" d="M440.887,118.432a.667.667,0,1,1-.667-.638A.653.653,0,0,1,440.887,118.432Z" transform="translate(-421.55 -117.794)" fill="url(#linear-gradient-2)"/>
            <path id="Path_99278" data-name="Path 99278" d="M449.332,118.432a.667.667,0,1,1-.666-.638A.653.653,0,0,1,449.332,118.432Z" transform="translate(-423.996 -117.794)" fill="url(#linear-gradient-2)"/>
            <path id="Path_99279" data-name="Path 99279" d="M457.778,118.432a.667.667,0,1,1-.666-.638A.653.653,0,0,1,457.778,118.432Z" transform="translate(-426.441 -117.794)" fill="url(#linear-gradient-2)"/>
            <path id="Path_99280" data-name="Path 99280" d="M466.226,118.432a.667.667,0,1,1-.667-.638A.654.654,0,0,1,466.226,118.432Z" transform="translate(-428.887 -117.794)" fill="url(#linear-gradient-2)"/>
            <path id="Path_99281" data-name="Path 99281" d="M474.672,118.432a.667.667,0,1,1-.667-.638A.653.653,0,0,1,474.672,118.432Z" transform="translate(-431.332 -117.794)" fill="url(#linear-gradient-2)"/>
            <path id="Path_99282" data-name="Path 99282" d="M483.118,118.432a.667.667,0,1,1-.667-.638A.653.653,0,0,1,483.118,118.432Z" transform="translate(-433.777 -117.794)" fill="url(#linear-gradient-2)"/>
            <path id="Path_99283" data-name="Path 99283" d="M491.564,118.432a.667.667,0,1,1-.667-.638A.654.654,0,0,1,491.564,118.432Z" transform="translate(-436.223 -117.794)" fill="url(#linear-gradient-2)"/>
            <path id="Path_99284" data-name="Path 99284" d="M500.011,118.432a.667.667,0,1,1-.667-.638A.653.653,0,0,1,500.011,118.432Z" transform="translate(-438.669 -117.794)" fill="url(#linear-gradient-2)"/>
          </g>
          <g id="Group_53316" data-name="Group 53316" transform="translate(0 51.011)">
            <ellipse id="Ellipse_3980" data-name="Ellipse 3980" cx="0.667" cy="0.638" rx="0.667" ry="0.638" transform="translate(0 0)" fill="url(#linear-gradient-2)"/>
            <path id="Path_99285" data-name="Path 99285" d="M423.993,125.94a.667.667,0,1,1-.666-.638A.652.652,0,0,1,423.993,125.94Z" transform="translate(-416.659 -125.302)" fill="url(#linear-gradient-2)"/>
            <ellipse id="Ellipse_3981" data-name="Ellipse 3981" cx="0.667" cy="0.638" rx="0.667" ry="0.638" transform="translate(12.002 0)" fill="url(#linear-gradient-2)"/>
            <path id="Path_99286" data-name="Path 99286" d="M440.887,125.94a.667.667,0,1,1-.667-.638A.653.653,0,0,1,440.887,125.94Z" transform="translate(-421.55 -125.302)" fill="url(#linear-gradient-2)"/>
            <path id="Path_99287" data-name="Path 99287" d="M449.332,125.94a.667.667,0,1,1-.666-.638A.652.652,0,0,1,449.332,125.94Z" transform="translate(-423.996 -125.302)" fill="url(#linear-gradient-2)"/>
            <ellipse id="Ellipse_3982" data-name="Ellipse 3982" cx="0.667" cy="0.638" rx="0.667" ry="0.638" transform="translate(30.004 0)" fill="url(#linear-gradient-2)"/>
            <path id="Path_99288" data-name="Path 99288" d="M466.226,125.94a.667.667,0,1,1-.667-.638A.653.653,0,0,1,466.226,125.94Z" transform="translate(-428.887 -125.302)" fill="url(#linear-gradient-2)"/>
            <ellipse id="Ellipse_3983" data-name="Ellipse 3983" cx="0.667" cy="0.638" rx="0.667" ry="0.638" transform="translate(42.006 0)" fill="url(#linear-gradient-2)"/>
            <ellipse id="Ellipse_3984" data-name="Ellipse 3984" cx="0.667" cy="0.638" rx="0.667" ry="0.638" transform="translate(48.007 0)" fill="url(#linear-gradient-2)"/>
            <path id="Path_99289" data-name="Path 99289" d="M491.564,125.94a.667.667,0,1,1-.667-.638A.653.653,0,0,1,491.564,125.94Z" transform="translate(-436.223 -125.302)" fill="url(#linear-gradient-2)"/>
            <path id="Path_99290" data-name="Path 99290" d="M500.011,125.94a.667.667,0,1,1-.667-.638A.653.653,0,0,1,500.011,125.94Z" transform="translate(-438.669 -125.302)" fill="url(#linear-gradient-2)"/>
          </g>
          <g id="Group_53317" data-name="Group 53317" transform="translate(0 56.112)">
            <ellipse id="Ellipse_3985" data-name="Ellipse 3985" cx="0.667" cy="0.638" rx="0.667" ry="0.638" transform="translate(0 0)" fill="url(#linear-gradient-2)"/>
            <path id="Path_99291" data-name="Path 99291" d="M423.993,133.448a.667.667,0,1,1-.666-.638A.652.652,0,0,1,423.993,133.448Z" transform="translate(-416.659 -132.81)" fill="url(#linear-gradient-2)"/>
            <ellipse id="Ellipse_3986" data-name="Ellipse 3986" cx="0.667" cy="0.638" rx="0.667" ry="0.638" transform="translate(12.002 0)" fill="url(#linear-gradient-2)"/>
            <path id="Path_99292" data-name="Path 99292" d="M440.887,133.448a.667.667,0,1,1-.667-.638A.653.653,0,0,1,440.887,133.448Z" transform="translate(-421.55 -132.81)" fill="url(#linear-gradient-2)"/>
            <path id="Path_99293" data-name="Path 99293" d="M449.332,133.448a.667.667,0,1,1-.666-.638A.652.652,0,0,1,449.332,133.448Z" transform="translate(-423.996 -132.81)" fill="url(#linear-gradient-2)"/>
            <ellipse id="Ellipse_3987" data-name="Ellipse 3987" cx="0.667" cy="0.638" rx="0.667" ry="0.638" transform="translate(30.004 0)" fill="url(#linear-gradient-2)"/>
            <path id="Path_99294" data-name="Path 99294" d="M466.226,133.448a.667.667,0,1,1-.667-.638A.653.653,0,0,1,466.226,133.448Z" transform="translate(-428.887 -132.81)" fill="url(#linear-gradient-2)"/>
            <ellipse id="Ellipse_3988" data-name="Ellipse 3988" cx="0.667" cy="0.638" rx="0.667" ry="0.638" transform="translate(42.006 0)" fill="url(#linear-gradient-2)"/>
            <ellipse id="Ellipse_3989" data-name="Ellipse 3989" cx="0.667" cy="0.638" rx="0.667" ry="0.638" transform="translate(48.007 0)" fill="url(#linear-gradient-2)"/>
            <path id="Path_99295" data-name="Path 99295" d="M491.564,133.448a.667.667,0,1,1-.667-.638A.653.653,0,0,1,491.564,133.448Z" transform="translate(-436.223 -132.81)" fill="url(#linear-gradient-2)"/>
            <path id="Path_99296" data-name="Path 99296" d="M500.011,133.448a.667.667,0,1,1-.667-.638A.653.653,0,0,1,500.011,133.448Z" transform="translate(-438.669 -132.81)" fill="url(#linear-gradient-2)"/>
          </g>
        </g>
      </g>
    </g>
    <g id="plan-de-negocios" transform="translate(244 14106.77)">
      <g id="Group_148663" data-name="Group 148663" transform="translate(119.259 63.639)">
        <path id="Path_259410" data-name="Path 259410" d="M320.615,67.57H375.4a6.794,6.794,0,0,1,6.775,6.775V89.029A6.794,6.794,0,0,1,375.4,95.8H320.615a6.794,6.794,0,0,1-6.775-6.775V74.345A6.791,6.791,0,0,1,320.615,67.57Z" transform="translate(-313.84 -67.57)" fill="#77cedb" fill-rule="evenodd"/>
        <path id="Path_259411" data-name="Path 259411" d="M320.615,358.12H375.4a6.794,6.794,0,0,1,6.775,6.775v14.683a6.794,6.794,0,0,1-6.775,6.775H320.615a6.794,6.794,0,0,1-6.775-6.775V364.9a6.794,6.794,0,0,1,6.775-6.775Z" transform="translate(-313.84 -247.711)" fill="#77cedb" fill-rule="evenodd"/>
        <path id="Path_259412" data-name="Path 259412" d="M320.615,212.84H375.4a6.794,6.794,0,0,1,6.775,6.775V234.3a6.794,6.794,0,0,1-6.775,6.775H320.615a6.794,6.794,0,0,1-6.775-6.775V219.615A6.794,6.794,0,0,1,320.615,212.84Z" transform="translate(-313.84 -157.637)" fill="#77cedb" fill-rule="evenodd"/>
      </g>
      <path id="Path_259413" data-name="Path 259413" d="M48.262,119.77H63.393v9.853A40.045,40.045,0,0,1,78.5,135.886l6.969-6.969,10.7,10.7L89.2,146.583A40.124,40.124,0,0,1,95.461,161.7h9.853v15.132H95.461A40.149,40.149,0,0,1,89.2,191.94l6.969,6.969-10.7,10.7L78.5,202.637A40.158,40.158,0,0,1,63.389,208.9v9.853H48.258v-9.861a40.107,40.107,0,0,1-15.109-6.262L26.18,209.6l-10.7-10.7,6.969-6.969a40.219,40.219,0,0,1-6.262-15.109H6.34V161.692h9.853a40.149,40.149,0,0,1,6.262-15.113l-6.973-6.965,10.7-10.7,6.969,6.969a40.15,40.15,0,0,1,15.113-6.262Zm7.566,24.271a25.217,25.217,0,1,0,25.217,25.217A25.217,25.217,0,0,0,55.827,144.041Z" transform="translate(-3.931 -36.295)" fill="#dd6e42" fill-rule="evenodd"/>
      <path id="Path_259414" data-name="Path 259414" d="M44.331,81.066H59.462a2.41,2.41,0,0,1,2.409,2.409v7.912a42.22,42.22,0,0,1,6.376,2.071,42.945,42.945,0,0,1,6,3.055l5.6-5.6a2.41,2.41,0,0,1,3.4,0l10.7,10.7a2.41,2.41,0,0,1,0,3.4l-5.6,5.6a42.778,42.778,0,0,1,5.126,12.373h7.912a2.41,2.41,0,0,1,2.409,2.409v15.132a2.41,2.41,0,0,1-2.409,2.409H93.472a42.662,42.662,0,0,1-5.126,12.373l5.6,5.6a2.41,2.41,0,0,1,0,3.4l-10.7,10.7a2.41,2.41,0,0,1-3.4,0l-5.6-5.6a42.78,42.78,0,0,1-12.373,5.126v7.912a2.41,2.41,0,0,1-2.409,2.409c-.072,0-.144,0-.213-.008H44.327a2.4,2.4,0,0,1-2.4-2.4h-.008v-7.912a42.663,42.663,0,0,1-12.373-5.126l-5.6,5.6a2.41,2.41,0,0,1-3.4,0l-10.7-10.7a2.41,2.41,0,0,1,0-3.4l5.6-5.6a42.779,42.779,0,0,1-5.126-12.373H2.409A2.41,2.41,0,0,1,0,140.536V125.4A2.41,2.41,0,0,1,2.409,123h7.912a42.663,42.663,0,0,1,5.126-12.373l-5.6-5.6a2.41,2.41,0,0,1,0-3.4l10.7-10.7a2.41,2.41,0,0,1,3.4,0l5.6,5.6a42.671,42.671,0,0,1,12.384-5.126V83.479a2.4,2.4,0,0,1,2.4-2.4Zm12.722,4.815H46.729v7.311a2.4,2.4,0,0,1-1.957,2.493,37.6,37.6,0,0,0-14.075,5.8,2.41,2.41,0,0,1-3.181-.2l-5.267-5.267-7.3,7.3,5.267,5.267,0,0a2.4,2.4,0,0,1,.285,3.051,37.564,37.564,0,0,0-5.852,14.041,2.408,2.408,0,0,1-2.39,2.12H4.815v10.317h7.444v0a2.4,2.4,0,0,1,2.36,1.961,37.6,37.6,0,0,0,5.8,14.075,2.41,2.41,0,0,1-.2,3.181L14.953,162.6l7.3,7.3,5.267-5.267,0,0a2.4,2.4,0,0,1,3.051-.285,37.655,37.655,0,0,0,14.041,5.856,2.408,2.408,0,0,1,2.12,2.39v7.456H57.049V172.6h0a2.4,2.4,0,0,1,1.961-2.36,37.6,37.6,0,0,0,14.075-5.8,2.41,2.41,0,0,1,3.181.2l5.267,5.267,7.3-7.3-5.267-5.267,0,0a2.4,2.4,0,0,1-.285-3.051,37.655,37.655,0,0,0,5.856-14.041,2.408,2.408,0,0,1,2.39-2.12h7.444V127.806H91.531V127.8a2.4,2.4,0,0,1-2.36-1.961,37.6,37.6,0,0,0-5.8-14.075,2.41,2.41,0,0,1,.2-3.181l5.267-5.267-7.3-7.3-5.267,5.267,0,0a2.4,2.4,0,0,1-3.051.285,37.616,37.616,0,0,0-14.045-5.852,2.408,2.408,0,0,1-2.12-2.39ZM51.9,105.337a27.622,27.622,0,1,0,19.532,8.09,27.542,27.542,0,0,0-19.532-8.09Zm16.127,11.5A22.811,22.811,0,1,0,74.7,132.963,22.74,22.74,0,0,0,68.024,116.835Zm45.885,13.718a2.409,2.409,0,1,1,0,4.818h-6.414a2.409,2.409,0,0,1,0-4.818ZM92.465,95.738l15.363-15.576h5.521a2.409,2.409,0,1,0,0-4.818h-6.521v.008a2.385,2.385,0,0,0-1.71.718l-16.078,16.3a2.4,2.4,0,0,0,3.424,3.371Zm48.822,80.72v23.423h39.528a4.385,4.385,0,0,0,4.37-4.37V180.827a4.385,4.385,0,0,0-4.37-4.37Zm-4.815,23.423V176.457H126.035a4.385,4.385,0,0,0-4.37,4.37v14.683a4.385,4.385,0,0,0,4.37,4.37Zm4.815-78.63v23.423h39.528a4.385,4.385,0,0,0,4.37-4.37V125.621a4.385,4.385,0,0,0-4.37-4.37Zm-4.815,23.423V121.251H126.035a4.385,4.385,0,0,0-4.37,4.37V140.3a4.385,4.385,0,0,0,4.37,4.37Zm4.815-78.63V89.468h39.528a4.385,4.385,0,0,0,4.37-4.37V70.415a4.385,4.385,0,0,0-4.37-4.37Zm-4.815,23.423V66.045H126.035a4.385,4.385,0,0,0-4.37,4.37V85.1a4.385,4.385,0,0,0,4.37,4.37ZM89.038,173.554l16.085,16.3a2.391,2.391,0,0,0,1.71.718v.008h5.894a2.409,2.409,0,1,0,0-4.818h-4.9L92.462,170.187a2.4,2.4,0,0,0-3.424,3.367Zm37-57.118h54.785A9.2,9.2,0,0,1,190,125.617V140.3a9.2,9.2,0,0,1-9.181,9.181H126.031a9.2,9.2,0,0,1-9.181-9.181V125.617a9.2,9.2,0,0,1,9.185-9.181Zm0,55.206h54.785A9.2,9.2,0,0,1,190,180.824v14.683a9.2,9.2,0,0,1-9.181,9.181H126.031a9.2,9.2,0,0,1-9.181-9.181V180.824a9.2,9.2,0,0,1,9.185-9.181Zm0-110.413h54.785A9.2,9.2,0,0,1,190,70.415V85.1a9.2,9.2,0,0,1-9.181,9.181H126.031A9.2,9.2,0,0,1,116.85,85.1V70.415a9.205,9.205,0,0,1,9.185-9.185Z" fill="#010101" fill-rule="evenodd"/>
    </g>
  </g>
</svg>
