<svg xmlns="http://www.w3.org/2000/svg" width="120" height="120" viewBox="0 0 120 120">
  <g id="_3" data-name="3" transform="translate(-180 -1183)">
    <circle id="Ellipse_6092" data-name="Ellipse 6092" cx="60" cy="60" r="60" transform="translate(180 1183)" fill="#7453d8"/>
    <g id="bienestar" transform="translate(198 1201)">
      <path id="Path_259179" data-name="Path 259179" d="M42,23.49A13.49,13.49,0,1,0,55.49,10,13.505,13.505,0,0,0,42,23.49Zm24.282,0A10.792,10.792,0,1,1,55.49,12.7,10.8,10.8,0,0,1,66.282,23.49Z" transform="translate(13.959 2.792)" fill="#fff"/>
      <path id="Path_259180" data-name="Path 259180" d="M15.49,36.98A13.49,13.49,0,1,0,2,23.49,13.505,13.505,0,0,0,15.49,36.98Zm0-24.282A10.792,10.792,0,1,1,4.7,23.49,10.8,10.8,0,0,1,15.49,12.7Z" transform="translate(0 2.792)" fill="#fff"/>
      <path id="Path_259181" data-name="Path 259181" d="M8.7,22.094v5.4a1.349,1.349,0,0,0,1.349,1.349h8.094A1.349,1.349,0,0,0,19.49,27.49v-5.4h1.349a1.35,1.35,0,0,0,.843-2.4l-6.745-5.4a1.351,1.351,0,0,0-1.686,0l-6.745,5.4a1.35,1.35,0,0,0,.843,2.4Zm8.094,4.047H11.4V22.094h5.4Zm-2.7-9.064,2.9,2.319h-5.8Z" transform="translate(1.396 4.188)" fill="#fff"/>
      <path id="Path_259182" data-name="Path 259182" d="M33.047,17.141A1.35,1.35,0,0,1,31.7,15.792H29a4.041,4.041,0,0,0,2.7,3.8v1.6h2.7v-1.6a4.037,4.037,0,0,0-1.349-7.846A1.349,1.349,0,1,1,34.4,10.4h2.7a4.041,4.041,0,0,0-2.7-3.8V5H31.7V6.6a4.037,4.037,0,0,0,1.349,7.846,1.349,1.349,0,1,1,0,2.7Z" transform="translate(9.423 1.047)" fill="#fff"/>
      <path id="Path_259183" data-name="Path 259183" d="M35.141,26.282A12.141,12.141,0,1,0,23,14.141,12.155,12.155,0,0,0,35.141,26.282Zm0-21.584A9.443,9.443,0,1,1,25.7,14.141,9.454,9.454,0,0,1,35.141,4.7Z" transform="translate(7.329)" fill="#fff"/>
      <path id="Path_259184" data-name="Path 259184" d="M50.047,15.349v2.7h-2.7A1.349,1.349,0,0,0,46,19.4v5.4a1.349,1.349,0,0,0,1.349,1.349h2.7v2.7A1.349,1.349,0,0,0,51.4,30.188h5.4a1.349,1.349,0,0,0,1.349-1.349v-2.7h2.7a1.349,1.349,0,0,0,1.349-1.349V19.4a1.349,1.349,0,0,0-1.349-1.349h-2.7v-2.7A1.349,1.349,0,0,0,56.792,14H51.4A1.349,1.349,0,0,0,50.047,15.349Zm2.7,4.047V16.7h2.7v2.7a1.349,1.349,0,0,0,1.349,1.349h2.7v2.7h-2.7a1.349,1.349,0,0,0-1.349,1.349v2.7h-2.7v-2.7A1.349,1.349,0,0,0,51.4,23.443H48.7v-2.7h2.7A1.349,1.349,0,0,0,52.745,19.4Z" transform="translate(15.355 4.188)" fill="#fff"/>
      <path id="Path_259185" data-name="Path 259185" d="M70.7,44.875a3.9,3.9,0,0,0-6.788-1.817l-.4.467.092-.553a3.412,3.412,0,0,0-6.676-1.385l-.923,3.688-3.46,6.92-2.207.737.608-1.052a3.876,3.876,0,0,0-6.632-3.971c-4.676,6.607-4.887,6.907-4.886,6.907h0c-2.865,4.032-2.655,8.662-2.451,13.138.031.707.065,1.412.084,2.114l2.7-.074c-.02-.716-.053-1.438-.085-2.162-.192-4.206-.371-8.178,1.959-11.457l4.885-6.905a1.184,1.184,0,0,1,.963-.5,1.164,1.164,0,0,1,1,.558,1.134,1.134,0,0,1,.089,1.074l-2.891,5a4.061,4.061,0,0,0-.544,2.026v1.609h2.7V57.625a1.345,1.345,0,0,1,.182-.674l.286-.5L54.4,54.422l.043.022.022-.043,3.676-1.228a4.048,4.048,0,0,0,1.651-1.155l6.173-7.2a1.2,1.2,0,0,1,1.577-.219,1.2,1.2,0,0,1,.316,1.685l-7.762,11.09a1.379,1.379,0,0,1-.214.239l-5.343,4.676c-.357.312-.77.634-1.2.973-2.067,1.616-4.64,3.627-4.423,6.638L51.6,69.7c-.113-1.576,1.751-3.034,3.4-4.319.475-.371.927-.726,1.318-1.068l5.346-4.677a3.943,3.943,0,0,0,.648-.723L70.065,47.83a3.872,3.872,0,0,0,.637-2.956ZM57.738,50.264a1.311,1.311,0,0,1-.5.366l-1.07.357,2.319-4.638a1.33,1.33,0,0,0,.1-.277l.958-3.831a.715.715,0,0,1,.693-.544.714.714,0,0,1,.7.832l-.826,4.956Z" transform="translate(12.17 12.912)" fill="#fff"/>
      <path id="Path_259186" data-name="Path 259186" d="M10.464,58.914a4.048,4.048,0,0,0,.652.728l5.343,4.676c.391.343.843.7,1.318,1.068,1.646,1.286,3.51,2.742,3.4,4.319l2.69.194c.217-3.01-2.357-5.022-4.423-6.638-.433-.337-.847-.661-1.2-.973l-5.341-4.673a1.383,1.383,0,0,1-.219-.244L4.915,46.284A1.2,1.2,0,0,1,5.231,44.6a1.2,1.2,0,0,1,1.577.217l6.17,7.2a4.075,4.075,0,0,0,1.7,1.175l3.63,1.211.022.042.042-.022,6.092,2.033.287.5a1.349,1.349,0,0,1,.182.674v1.607h2.7V57.625a4.072,4.072,0,0,0-.542-2.025l-2.852-4.926a1.178,1.178,0,0,1,2.015-1.207l4.889,6.909c2.328,3.275,2.148,7.248,1.956,11.453-.032.724-.066,1.446-.085,2.162l2.7.074c.019-.7.051-1.406.084-2.114.2-4.476.414-9.106-2.43-13.105l-4.91-6.939a3.875,3.875,0,0,0-6.592,4.044l.567.979-2.2-.735-3.46-6.92-.923-3.689a3.412,3.412,0,0,0-6.676,1.388l.092.552-.4-.467a3.9,3.9,0,0,0-6.15,4.771ZM11.825,42.53a.716.716,0,0,1,1.4-.291l.958,3.832a1.413,1.413,0,0,0,.1.277L16.6,50.987l-1.024-.341a1.342,1.342,0,0,1-.549-.384l-2.378-2.775Z" transform="translate(0 12.912)" fill="#fff"/>
      <path id="Path_259187" data-name="Path 259187" d="M25.349,55.724H44.235a1.349,1.349,0,0,0,1.349-1.349V44.933a9.451,9.451,0,0,0-5.614-8.624,8.094,8.094,0,1,0-10.355,0A9.451,9.451,0,0,0,24,44.933v9.443A1.349,1.349,0,0,0,25.349,55.724ZM34.792,40.47l1.219,3.051-1.219,2.442-1.219-2.442Zm0-4.98a5.386,5.386,0,0,1-5.359-5.034,9.252,9.252,0,0,1,10.719,0A5.386,5.386,0,0,1,34.792,35.49Zm0-10.792a5.372,5.372,0,0,1,4.264,2.127,12.069,12.069,0,0,0-8.528,0A5.372,5.372,0,0,1,34.792,24.7ZM26.7,44.933a6.732,6.732,0,0,1,6.074-6.677l-1.93,4.827a1.355,1.355,0,0,0,.046,1.1l2.7,5.4a1.349,1.349,0,0,0,2.413,0l2.7-5.4a1.349,1.349,0,0,0,.046-1.1l-1.93-4.827a6.732,6.732,0,0,1,6.073,6.677v8.094H26.7Z" transform="translate(7.678 6.98)" fill="#fff"/>
    </g>
  </g>
</svg>
