<svg xmlns="http://www.w3.org/2000/svg" width="211.749" height="206.147" viewBox="0 0 211.749 206.147">
  <g id="_30" data-name="30" transform="translate(-6.112 -7.273)">
    <g id="Group_148691" data-name="Group 148691" transform="translate(6.112 7.273)">
      <path id="Path_259456" data-name="Path 259456" d="M30.528,34.154,6.112,97.8H55.1V34.154Z" transform="translate(-6.112 30.693)" fill="#29398a"/>
      <path id="Path_259457" data-name="Path 259457" d="M55.461,175.454,16.233,34.154H73.209v141.3Z" transform="translate(8.183 30.693)" fill="#7453d8"/>
      <path id="Path_259458" data-name="Path 259458" d="M32.494,7.273H180.6V213.421H32.494Z" transform="translate(31.149 -7.273)" fill="#20cb7d"/>
      <path id="Path_259459" data-name="Path 259459" d="M37.906,75.7a2.412,2.412,0,0,1-2.412-2.412V40.359a2.412,2.412,0,1,1,4.825,0V73.288A2.412,2.412,0,0,1,37.906,75.7Zm2.412,21.21V81.519a2.412,2.412,0,0,0-4.825,0V96.91a2.412,2.412,0,1,0,4.825,0Z" transform="translate(35.387 36.05)" fill="#cde6fa"/>
      <path id="Path_259460" data-name="Path 259460" d="M107.013,87.433l10.694-8.7-5.655-9.794L99.139,73.861a23.946,23.946,0,0,0-7.971-4.605l-2.193-13.64H77.666l-2.193,13.64A23.97,23.97,0,0,0,67.5,73.861L54.59,68.937l-5.655,9.794,10.694,8.7a24.307,24.307,0,0,0,0,9.242l-10.694,8.7,5.655,9.794L67.5,110.247a23.946,23.946,0,0,0,7.971,4.605l2.193,13.64H88.976l2.193-13.64a23.97,23.97,0,0,0,7.971-4.605l12.913,4.924,5.655-9.794-10.694-8.7A24.306,24.306,0,0,0,107.013,87.433ZM90.643,99.372a10.347,10.347,0,1,1,0-14.634A10.348,10.348,0,0,1,90.643,99.372Z" transform="translate(54.37 61.006)" fill="#29398a"/>
      <path id="Path_259461" data-name="Path 259461" d="M125.6,36.392H57.172a2.412,2.412,0,1,1,0-4.825H125.6a2.412,2.412,0,0,1,0,4.825Z" transform="translate(62.597 27.039)" fill="#7453d8"/>
      <path id="Path_259462" data-name="Path 259462" d="M144.67,32.089h-101a2.412,2.412,0,1,1,0-4.825h101a2.412,2.412,0,0,1,0,4.825Z" transform="translate(43.528 20.962)" fill="#cde6fa"/>
      <path id="Path_259463" data-name="Path 259463" d="M119.1,27.786H61.771a2.412,2.412,0,1,1,0-4.825H119.1a2.412,2.412,0,0,1,0,4.825Z" transform="translate(69.093 14.884)" fill="#7453d8"/>
      <path id="Path_259464" data-name="Path 259464" d="M131.691,23.484H52.859a2.412,2.412,0,1,1,0-4.825h78.832a2.412,2.412,0,0,1,0,4.825Z" transform="translate(56.506 8.808)" fill="#29398a"/>
    </g>
  </g>
</svg>
