<svg xmlns="http://www.w3.org/2000/svg" width="189.997" height="207.551" viewBox="0 0 189.997 207.551">
  <g id="_31" data-name="31" transform="translate(-9.724 -6.004)">
    <g id="Group_148695" data-name="Group 148695" transform="translate(9.724 6.004)">
      <g id="Group_148693" data-name="Group 148693">
        <path id="Path_259465" data-name="Path 259465" d="M9.724,6H150.779V192.316H9.724Z" transform="translate(-9.724 -6.004)" fill="#29398a"/>
        <g id="Group_148692" data-name="Group 148692" transform="translate(7.076 21.238)">
          <path id="Path_259466" data-name="Path 259466" d="M15.083,87.914a2.36,2.36,0,0,1-2.359-2.359V50.387a2.359,2.359,0,0,1,4.717,0V85.556A2.36,2.36,0,0,1,15.083,87.914Zm2.359,23.116V95.4a2.359,2.359,0,0,0-4.717,0V111.03a2.359,2.359,0,0,0,4.717,0Z" transform="translate(-12.724 29.858)" fill="#d8e3e7"/>
          <path id="Path_259467" data-name="Path 259467" d="M18.729,15.008H159.784V201.32H18.729Z" transform="translate(-4.565 -15.008)" fill="#20cb7d"/>
        </g>
      </g>
      <path id="Path_259468" data-name="Path 259468" d="M51.042,93.246H36v-22.2H51.042Zm31.39-36.164H67.39V93.246H82.432Zm31.39-32.345H98.78V93.248h15.042V24.734Z" transform="translate(25.978 19.445)" fill="#cde6fa"/>
      <path id="Path_259469" data-name="Path 259469" d="M32.257,35.867H44.192V78.119H32.257Z" transform="translate(20.893 34.572)" fill="#7453d8"/>
      <path id="Path_259470" data-name="Path 259470" d="M45.565,23.115H57.5V95.446H45.565Z" transform="translate(38.975 17.245)" fill="#7453d8"/>
      <g id="Group_148694" data-name="Group 148694" transform="translate(42.707 38.162)">
        <path id="Path_259471" data-name="Path 259471" d="M58.873,30.2H70.808V85.822H58.873Z" transform="translate(14.349 -11.29)" fill="#29398a"/>
        <path id="Path_259472" data-name="Path 259472" d="M126.8,107.154H30.189A2.358,2.358,0,0,1,27.83,104.8V24.542a2.359,2.359,0,1,1,4.717,0v77.9H126.8a2.359,2.359,0,1,1,0,4.717Z" transform="translate(-27.83 -22.183)" fill="#29398a"/>
        <path id="Path_259473" data-name="Path 259473" d="M113.57,90.178l8.617-7.01-4.555-7.89-10.4,3.967a19.325,19.325,0,0,0-6.421-3.71L99.043,64.546H89.931L88.164,75.535a19.278,19.278,0,0,0-6.421,3.71l-10.4-3.967-4.555,7.89,8.616,7.01a19.575,19.575,0,0,0,0,7.447l-8.616,7.01,4.555,7.89,10.4-3.967a19.324,19.324,0,0,0,6.42,3.71l1.767,10.989h9.112l1.767-10.989a19.278,19.278,0,0,0,6.421-3.71l10.4,3.967,4.555-7.89-8.617-7.01A19.575,19.575,0,0,0,113.57,90.178ZM100.38,99.8a8.336,8.336,0,1,1,0-11.789A8.337,8.337,0,0,1,100.38,99.8Z" transform="translate(25.103 35.377)" fill="#29398a"/>
        <path id="Path_259474" data-name="Path 259474" d="M78.269,71.826H37.031a2.359,2.359,0,0,1,0-4.717H78.269a2.359,2.359,0,1,1,0,4.717Z" transform="translate(-18.533 38.86)" fill="#29398a"/>
      </g>
      <path id="Path_259475" data-name="Path 259475" d="M87.373,76.329H37.031a2.359,2.359,0,0,1,0-4.717H87.373a2.359,2.359,0,0,1,0,4.717Z" transform="translate(24.174 83.14)" fill="#7453d8"/>
      <path id="Path_259476" data-name="Path 259476" d="M70.827,80.831h-33.8a2.359,2.359,0,1,1,0-4.717h33.8a2.359,2.359,0,1,1,0,4.717Z" transform="translate(24.174 89.257)" fill="#cde6fa"/>
      <path id="Path_259477" data-name="Path 259477" d="M87.373,85.334H37.031a2.359,2.359,0,1,1,0-4.717H87.373a2.359,2.359,0,1,1,0,4.717Z" transform="translate(24.174 95.376)" fill="#7453d8"/>
      <path id="Path_259478" data-name="Path 259478" d="M41.958,71.826H27.476a2.359,2.359,0,0,1,0-4.717H41.958a2.359,2.359,0,0,1,0,4.717Zm2.359,8.263a2.358,2.358,0,0,0-2.359-2.359H27.476a2.359,2.359,0,0,0,0,4.717H41.958A2.358,2.358,0,0,0,44.317,80.089Zm0,10.619a2.358,2.358,0,0,0-2.359-2.359H27.476a2.359,2.359,0,1,0,0,4.717H41.958A2.358,2.358,0,0,0,44.317,90.708Zm0,10.621a2.358,2.358,0,0,0-2.359-2.359H27.476a2.359,2.359,0,0,0,0,4.717H41.958A2.358,2.358,0,0,0,44.317,101.33Z" transform="translate(11.191 77.022)" fill="#cde6fa"/>
    </g>
  </g>
</svg>
