<svg xmlns="http://www.w3.org/2000/svg" width="120" height="120" viewBox="0 0 120 120">
  <g id="_5" data-name="5" transform="translate(-180 -1533)">
    <circle id="Ellipse_6090" data-name="Ellipse 6090" cx="60" cy="60" r="60" transform="translate(180 1533)" fill="#7453d8"/>
    <g id="carpeta-confidencial" transform="translate(201.001 1554)">
      <path id="Path_259200" data-name="Path 259200" d="M78.684,10.9,67.787,0H35.534V25.382H3.807A3.812,3.812,0,0,0,0,29.189V67.262a6.353,6.353,0,0,0,6.345,6.345H29.851a11.409,11.409,0,0,0,18.981,0H62.185a6.353,6.353,0,0,0,6.345-6.345v-16.5H78.684ZM68.531,4.333l5.82,5.82h-5.82ZM10.152,38.073v27.92H7.614V33h27.92v5.076ZM2.538,67.262V29.189A1.272,1.272,0,0,1,3.807,27.92H35.534v2.538H5.076V68.531H9.919a3.8,3.8,0,0,1-7.381-1.269Zm36.8,8.884a8.894,8.894,0,0,1-8.884-8.884V59.648a1.271,1.271,0,0,1,1.269-1.269H46.956a1.271,1.271,0,0,1,1.269,1.269v7.615A8.894,8.894,0,0,1,39.342,76.146ZM45.687,55.84H33V52.033a6.345,6.345,0,1,1,12.691,0ZM65.993,67.262a3.812,3.812,0,0,1-3.807,3.807H50.1a11.34,11.34,0,0,0,.666-3.807V59.648a3.8,3.8,0,0,0-2.538-3.574V52.033a8.884,8.884,0,0,0-17.767,0v4.041a3.8,3.8,0,0,0-2.538,3.574v7.615a11.34,11.34,0,0,0,.666,3.807h-17.2a6.282,6.282,0,0,0,1.3-3.807V40.611H40.165l6-4.8a1.271,1.271,0,0,1,.793-.279H64.724A1.272,1.272,0,0,1,65.993,36.8ZM48.225,31.728a11.422,11.422,0,1,1,22.844,0A11.319,11.319,0,0,1,68.531,38.9V36.8A3.812,3.812,0,0,0,64.724,33H48.3a11.4,11.4,0,0,1-.075-1.269Zm20.306,16.5V42.468a13.826,13.826,0,0,0,5.076-10.74,13.96,13.96,0,1,0-27.92,0,14.137,14.137,0,0,0,.079,1.467,3.807,3.807,0,0,0-1.188.638l-5.3,4.241h-1.2V2.538h27.92V12.691H76.145V48.226Zm0,0" fill="#fff"/>
      <path id="Path_259201" data-name="Path 259201" d="M227.807,384a3.8,3.8,0,0,0-1.269,7.381v5.31h2.538v-5.31A3.8,3.8,0,0,0,227.807,384Zm0,5.076a1.269,1.269,0,1,1,1.269-1.269A1.271,1.271,0,0,1,227.807,389.076Zm0,0" transform="translate(-188.466 -323.083)" fill="#fff"/>
      <path id="Path_259202" data-name="Path 259202" d="M304,240h15.229v2.538H304Zm0,0" transform="translate(-255.775 -201.927)" fill="#fff"/>
      <path id="Path_259203" data-name="Path 259203" d="M256,32h2.538v2.538H256Zm0,0" transform="translate(-215.389 -26.924)" fill="#fff"/>
      <path id="Path_259204" data-name="Path 259204" d="M288,32h17.767v2.538H288Zm0,0" transform="translate(-242.313 -26.924)" fill="#fff"/>
      <path id="Path_259205" data-name="Path 259205" d="M256,64h22.844v2.538H256Zm0,0" transform="translate(-215.389 -53.847)" fill="#fff"/>
      <path id="Path_259206" data-name="Path 259206" d="M256,96h7.615v2.538H256Zm0,0" transform="translate(-215.389 -80.771)" fill="#fff"/>
    </g>
  </g>
</svg>
