<svg xmlns="http://www.w3.org/2000/svg" xmlns:xlink="http://www.w3.org/1999/xlink" width="478.924" height="787" viewBox="0 0 478.924 787">
  <defs>
    <linearGradient id="linear-gradient" x1="0.5" x2="0.5" y2="1" gradientUnits="objectBoundingBox">
      <stop offset="0" stop-color="#ba68c8"/>
      <stop offset="0.19" stop-color="#9139af"/>
      <stop offset="0.31" stop-color="#7b1fa2"/>
      <stop offset="1" stop-color="#45147b"/>
    </linearGradient>
    <linearGradient id="linear-gradient-2" x1="0.5" x2="0.5" y2="1" gradientUnits="objectBoundingBox">
      <stop offset="0" stop-color="#93eac2"/>
      <stop offset="1" stop-color="#20cb7d"/>
    </linearGradient>
  </defs>
  <g id="_6" data-name="6" transform="translate(-1000 -899)">
    <g id="Group_148510" data-name="Group 148510" transform="translate(5.878 220.296)">
      <g id="Group_79815" data-name="Group 79815" transform="translate(994.122 678.704)">
        <g id="Group_79776" data-name="Group 79776" transform="translate(0 0)">
          <g id="Group_79644" data-name="Group 79644" transform="translate(0 0)">
            <path id="Path_145968" data-name="Path 145968" d="M89.838,0A89.838,89.838,0,1,1,0,89.838,89.838,89.838,0,0,1,89.838,0Z" transform="translate(254.603 362.642)" fill="#fda929" opacity="0.28" style="mix-blend-mode: multiply;isolation: isolate"/>
            <path id="Path_145969" data-name="Path 145969" d="M61.387,0A61.387,61.387,0,1,1,0,61.387,61.387,61.387,0,0,1,61.387,0Z" transform="translate(58.193 25.786)" opacity="0.35" fill="url(#linear-gradient)" style="mix-blend-mode: multiply;isolation: isolate"/>
            <rect id="Rectangle_34812" data-name="Rectangle 34812" width="478.924" height="331.038" fill="none"/>
            <path id="Path_145971" data-name="Path 145971" d="M38.8,0A38.8,38.8,0,1,1,0,38.8,38.8,38.8,0,0,1,38.8,0Z" transform="translate(70.68 308.984)" opacity="0.444" fill="url(#linear-gradient-2)" style="mix-blend-mode: multiply;isolation: isolate"/>
            <g id="Group_78276" data-name="Group 78276" transform="translate(288.327 405.595)">
              <g id="Group_53306" data-name="Group 53306" transform="translate(0)">
                <path id="Path_99200" data-name="Path 99200" d="M416.654,51.39a1.221,1.221,0,1,1-1.221-1.166A1.194,1.194,0,0,1,416.654,51.39Z" transform="translate(-414.214 -50.224)" fill="#fff"/>
                <path id="Path_99201" data-name="Path 99201" d="M425.1,51.39a1.221,1.221,0,1,1-1.219-1.166A1.194,1.194,0,0,1,425.1,51.39Z" transform="translate(-411.681 -50.224)" fill="#fff"/>
                <path id="Path_99202" data-name="Path 99202" d="M433.546,51.39a1.221,1.221,0,1,1-1.219-1.166A1.194,1.194,0,0,1,433.546,51.39Z" transform="translate(-409.148 -50.224)" fill="#fff"/>
                <path id="Path_99203" data-name="Path 99203" d="M441.993,51.39a1.221,1.221,0,1,1-1.22-1.166A1.194,1.194,0,0,1,441.993,51.39Z" transform="translate(-406.616 -50.224)" fill="#fff"/>
                <path id="Path_99204" data-name="Path 99204" d="M450.439,51.39a1.221,1.221,0,1,1-1.219-1.166A1.194,1.194,0,0,1,450.439,51.39Z" transform="translate(-404.083 -50.224)" fill="#fff"/>
                <path id="Path_99205" data-name="Path 99205" d="M458.885,51.39a1.221,1.221,0,1,1-1.219-1.166A1.194,1.194,0,0,1,458.885,51.39Z" transform="translate(-401.55 -50.224)" fill="#fff"/>
                <path id="Path_99206" data-name="Path 99206" d="M467.332,51.39a1.221,1.221,0,1,1-1.221-1.166A1.195,1.195,0,0,1,467.332,51.39Z" transform="translate(-399.017 -50.224)" fill="#fff"/>
                <path id="Path_99207" data-name="Path 99207" d="M475.778,51.39a1.221,1.221,0,1,1-1.219-1.166A1.194,1.194,0,0,1,475.778,51.39Z" transform="translate(-396.485 -50.224)" fill="#fff"/>
                <path id="Path_99208" data-name="Path 99208" d="M484.224,51.39A1.221,1.221,0,1,1,483,50.224,1.194,1.194,0,0,1,484.224,51.39Z" transform="translate(-393.952 -50.224)" fill="#fff"/>
                <path id="Path_99209" data-name="Path 99209" d="M492.671,51.39a1.221,1.221,0,1,1-1.22-1.166A1.195,1.195,0,0,1,492.671,51.39Z" transform="translate(-391.419 -50.224)" fill="#fff"/>
                <path id="Path_99210" data-name="Path 99210" d="M501.117,51.39a1.221,1.221,0,1,1-1.221-1.166A1.194,1.194,0,0,1,501.117,51.39Z" transform="translate(-388.887 -50.224)" fill="#fff"/>
              </g>
              <g id="Group_53307" data-name="Group 53307" transform="translate(0 9.333)">
                <path id="Path_99211" data-name="Path 99211" d="M416.654,58.9a1.221,1.221,0,1,1-1.221-1.166A1.194,1.194,0,0,1,416.654,58.9Z" transform="translate(-414.214 -57.732)" fill="#fff"/>
                <path id="Path_99212" data-name="Path 99212" d="M425.1,58.9a1.221,1.221,0,1,1-1.219-1.166A1.194,1.194,0,0,1,425.1,58.9Z" transform="translate(-411.681 -57.732)" fill="#fff"/>
                <path id="Path_99213" data-name="Path 99213" d="M433.546,58.9a1.221,1.221,0,1,1-1.219-1.166A1.194,1.194,0,0,1,433.546,58.9Z" transform="translate(-409.148 -57.732)" fill="#fff"/>
                <path id="Path_99214" data-name="Path 99214" d="M441.993,58.9a1.221,1.221,0,1,1-1.22-1.166A1.194,1.194,0,0,1,441.993,58.9Z" transform="translate(-406.616 -57.732)" fill="#fff"/>
                <path id="Path_99215" data-name="Path 99215" d="M450.439,58.9a1.221,1.221,0,1,1-1.219-1.166A1.194,1.194,0,0,1,450.439,58.9Z" transform="translate(-404.083 -57.732)" fill="#fff"/>
                <path id="Path_99216" data-name="Path 99216" d="M458.885,58.9a1.221,1.221,0,1,1-1.219-1.166A1.194,1.194,0,0,1,458.885,58.9Z" transform="translate(-401.55 -57.732)" fill="#fff"/>
                <path id="Path_99217" data-name="Path 99217" d="M467.332,58.9a1.221,1.221,0,1,1-1.221-1.166A1.195,1.195,0,0,1,467.332,58.9Z" transform="translate(-399.017 -57.732)" fill="#fff"/>
                <path id="Path_99218" data-name="Path 99218" d="M475.778,58.9a1.221,1.221,0,1,1-1.219-1.166A1.194,1.194,0,0,1,475.778,58.9Z" transform="translate(-396.485 -57.732)" fill="#fff"/>
                <path id="Path_99219" data-name="Path 99219" d="M484.224,58.9A1.221,1.221,0,1,1,483,57.732,1.194,1.194,0,0,1,484.224,58.9Z" transform="translate(-393.952 -57.732)" fill="#fff"/>
                <path id="Path_99220" data-name="Path 99220" d="M492.671,58.9a1.221,1.221,0,1,1-1.22-1.166A1.195,1.195,0,0,1,492.671,58.9Z" transform="translate(-391.419 -57.732)" fill="#fff"/>
                <path id="Path_99221" data-name="Path 99221" d="M501.117,58.9a1.221,1.221,0,1,1-1.221-1.166A1.194,1.194,0,0,1,501.117,58.9Z" transform="translate(-388.887 -57.732)" fill="#fff"/>
              </g>
              <g id="Group_53308" data-name="Group 53308" transform="translate(0 18.666)">
                <ellipse id="Ellipse_3955" data-name="Ellipse 3955" cx="1.22" cy="1.167" rx="1.22" ry="1.167" fill="#fff"/>
                <path id="Path_99222" data-name="Path 99222" d="M425.1,66.406a1.221,1.221,0,1,1-1.219-1.166A1.195,1.195,0,0,1,425.1,66.406Z" transform="translate(-411.681 -65.239)" fill="#fff"/>
                <ellipse id="Ellipse_3956" data-name="Ellipse 3956" cx="1.22" cy="1.167" rx="1.22" ry="1.167" transform="translate(21.958)" fill="#fff"/>
                <path id="Path_99223" data-name="Path 99223" d="M441.993,66.406a1.221,1.221,0,1,1-1.22-1.166A1.195,1.195,0,0,1,441.993,66.406Z" transform="translate(-406.615 -65.239)" fill="#fff"/>
                <path id="Path_99224" data-name="Path 99224" d="M450.439,66.406a1.221,1.221,0,1,1-1.219-1.166A1.195,1.195,0,0,1,450.439,66.406Z" transform="translate(-404.083 -65.239)" fill="#fff"/>
                <ellipse id="Ellipse_3957" data-name="Ellipse 3957" cx="1.22" cy="1.167" rx="1.22" ry="1.167" transform="translate(54.895)" fill="#fff"/>
                <path id="Path_99225" data-name="Path 99225" d="M467.332,66.406a1.221,1.221,0,1,1-1.221-1.166A1.2,1.2,0,0,1,467.332,66.406Z" transform="translate(-399.017 -65.239)" fill="#fff"/>
                <ellipse id="Ellipse_3958" data-name="Ellipse 3958" cx="1.22" cy="1.167" rx="1.22" ry="1.167" transform="translate(76.853)" fill="#fff"/>
                <ellipse id="Ellipse_3959" data-name="Ellipse 3959" cx="1.22" cy="1.167" rx="1.22" ry="1.167" transform="translate(87.833)" fill="#fff"/>
                <path id="Path_99226" data-name="Path 99226" d="M492.671,66.406a1.221,1.221,0,1,1-1.22-1.166A1.2,1.2,0,0,1,492.671,66.406Z" transform="translate(-391.419 -65.239)" fill="#fff"/>
                <path id="Path_99227" data-name="Path 99227" d="M501.117,66.406A1.221,1.221,0,1,1,499.9,65.24,1.195,1.195,0,0,1,501.117,66.406Z" transform="translate(-388.886 -65.239)" fill="#fff"/>
              </g>
              <g id="Group_53309" data-name="Group 53309" transform="translate(0 27.998)">
                <ellipse id="Ellipse_3960" data-name="Ellipse 3960" cx="1.22" cy="1.167" rx="1.22" ry="1.167" transform="translate(0 0)" fill="#fff"/>
                <path id="Path_99228" data-name="Path 99228" d="M425.1,73.914a1.221,1.221,0,1,1-1.219-1.167A1.194,1.194,0,0,1,425.1,73.914Z" transform="translate(-411.681 -72.747)" fill="#fff"/>
                <ellipse id="Ellipse_3961" data-name="Ellipse 3961" cx="1.22" cy="1.167" rx="1.22" ry="1.167" transform="translate(21.958 0)" fill="#fff"/>
                <path id="Path_99229" data-name="Path 99229" d="M441.993,73.914a1.221,1.221,0,1,1-1.22-1.167A1.194,1.194,0,0,1,441.993,73.914Z" transform="translate(-406.615 -72.747)" fill="#fff"/>
                <path id="Path_99230" data-name="Path 99230" d="M450.439,73.914a1.221,1.221,0,1,1-1.219-1.167A1.194,1.194,0,0,1,450.439,73.914Z" transform="translate(-404.083 -72.747)" fill="#fff"/>
                <ellipse id="Ellipse_3962" data-name="Ellipse 3962" cx="1.22" cy="1.167" rx="1.22" ry="1.167" transform="translate(54.895 0)" fill="#fff"/>
                <path id="Path_99231" data-name="Path 99231" d="M467.332,73.914a1.221,1.221,0,1,1-1.221-1.167A1.195,1.195,0,0,1,467.332,73.914Z" transform="translate(-399.017 -72.747)" fill="#fff"/>
                <ellipse id="Ellipse_3963" data-name="Ellipse 3963" cx="1.22" cy="1.167" rx="1.22" ry="1.167" transform="translate(76.853 0)" fill="#fff"/>
                <ellipse id="Ellipse_3964" data-name="Ellipse 3964" cx="1.22" cy="1.167" rx="1.22" ry="1.167" transform="translate(87.833 0)" fill="#fff"/>
                <path id="Path_99232" data-name="Path 99232" d="M492.671,73.914a1.221,1.221,0,1,1-1.22-1.167A1.195,1.195,0,0,1,492.671,73.914Z" transform="translate(-391.419 -72.747)" fill="#fff"/>
                <path id="Path_99233" data-name="Path 99233" d="M501.117,73.914a1.221,1.221,0,1,1-1.221-1.167A1.194,1.194,0,0,1,501.117,73.914Z" transform="translate(-388.886 -72.747)" fill="#fff"/>
              </g>
              <g id="Group_53310" data-name="Group 53310" transform="translate(0 37.331)">
                <path id="Path_99234" data-name="Path 99234" d="M416.654,81.422a1.221,1.221,0,1,1-1.221-1.167A1.194,1.194,0,0,1,416.654,81.422Z" transform="translate(-414.214 -80.255)" fill="#fff"/>
                <path id="Path_99235" data-name="Path 99235" d="M425.1,81.422a1.221,1.221,0,1,1-1.219-1.167A1.194,1.194,0,0,1,425.1,81.422Z" transform="translate(-411.681 -80.255)" fill="#fff"/>
                <path id="Path_99236" data-name="Path 99236" d="M433.546,81.422a1.221,1.221,0,1,1-1.219-1.167A1.194,1.194,0,0,1,433.546,81.422Z" transform="translate(-409.148 -80.255)" fill="#fff"/>
                <path id="Path_99237" data-name="Path 99237" d="M441.993,81.422a1.221,1.221,0,1,1-1.22-1.167A1.194,1.194,0,0,1,441.993,81.422Z" transform="translate(-406.616 -80.255)" fill="#fff"/>
                <path id="Path_99238" data-name="Path 99238" d="M450.439,81.422a1.221,1.221,0,1,1-1.219-1.167A1.194,1.194,0,0,1,450.439,81.422Z" transform="translate(-404.083 -80.255)" fill="#fff"/>
                <path id="Path_99239" data-name="Path 99239" d="M458.885,81.422a1.221,1.221,0,1,1-1.219-1.167A1.194,1.194,0,0,1,458.885,81.422Z" transform="translate(-401.55 -80.255)" fill="#fff"/>
                <path id="Path_99240" data-name="Path 99240" d="M467.332,81.422a1.221,1.221,0,1,1-1.221-1.167A1.195,1.195,0,0,1,467.332,81.422Z" transform="translate(-399.017 -80.255)" fill="#fff"/>
                <path id="Path_99241" data-name="Path 99241" d="M475.778,81.422a1.221,1.221,0,1,1-1.219-1.167A1.194,1.194,0,0,1,475.778,81.422Z" transform="translate(-396.485 -80.255)" fill="#fff"/>
                <path id="Path_99242" data-name="Path 99242" d="M484.224,81.422A1.221,1.221,0,1,1,483,80.255,1.194,1.194,0,0,1,484.224,81.422Z" transform="translate(-393.952 -80.255)" fill="#fff"/>
                <path id="Path_99243" data-name="Path 99243" d="M492.671,81.422a1.221,1.221,0,1,1-1.22-1.167A1.195,1.195,0,0,1,492.671,81.422Z" transform="translate(-391.419 -80.255)" fill="#fff"/>
                <path id="Path_99244" data-name="Path 99244" d="M501.117,81.422a1.221,1.221,0,1,1-1.221-1.167A1.194,1.194,0,0,1,501.117,81.422Z" transform="translate(-388.887 -80.255)" fill="#fff"/>
              </g>
              <g id="Group_53311" data-name="Group 53311" transform="translate(0 46.664)">
                <ellipse id="Ellipse_3965" data-name="Ellipse 3965" cx="1.22" cy="1.167" rx="1.22" ry="1.167" transform="translate(0 0)" fill="#fff"/>
                <path id="Path_99245" data-name="Path 99245" d="M425.1,88.93a1.221,1.221,0,1,1-1.219-1.167A1.194,1.194,0,0,1,425.1,88.93Z" transform="translate(-411.681 -87.763)" fill="#fff"/>
                <ellipse id="Ellipse_3966" data-name="Ellipse 3966" cx="1.22" cy="1.167" rx="1.22" ry="1.167" transform="translate(21.958 0)" fill="#fff"/>
                <path id="Path_99246" data-name="Path 99246" d="M441.993,88.93a1.221,1.221,0,1,1-1.22-1.167A1.194,1.194,0,0,1,441.993,88.93Z" transform="translate(-406.615 -87.763)" fill="#fff"/>
                <path id="Path_99247" data-name="Path 99247" d="M450.439,88.93a1.221,1.221,0,1,1-1.219-1.167A1.194,1.194,0,0,1,450.439,88.93Z" transform="translate(-404.083 -87.763)" fill="#fff"/>
                <ellipse id="Ellipse_3967" data-name="Ellipse 3967" cx="1.22" cy="1.167" rx="1.22" ry="1.167" transform="translate(54.895 0)" fill="#fff"/>
                <path id="Path_99248" data-name="Path 99248" d="M467.332,88.93a1.221,1.221,0,1,1-1.221-1.167A1.195,1.195,0,0,1,467.332,88.93Z" transform="translate(-399.017 -87.763)" fill="#fff"/>
                <ellipse id="Ellipse_3968" data-name="Ellipse 3968" cx="1.22" cy="1.167" rx="1.22" ry="1.167" transform="translate(76.853 0)" fill="#fff"/>
                <ellipse id="Ellipse_3969" data-name="Ellipse 3969" cx="1.22" cy="1.167" rx="1.22" ry="1.167" transform="translate(87.833 0)" fill="#fff"/>
                <path id="Path_99249" data-name="Path 99249" d="M492.671,88.93a1.221,1.221,0,1,1-1.22-1.167A1.195,1.195,0,0,1,492.671,88.93Z" transform="translate(-391.419 -87.763)" fill="#fff"/>
                <path id="Path_99250" data-name="Path 99250" d="M501.117,88.93a1.221,1.221,0,1,1-1.221-1.167A1.194,1.194,0,0,1,501.117,88.93Z" transform="translate(-388.886 -87.763)" fill="#fff"/>
              </g>
              <g id="Group_53312" data-name="Group 53312" transform="translate(0 55.997)">
                <ellipse id="Ellipse_3970" data-name="Ellipse 3970" cx="1.22" cy="1.167" rx="1.22" ry="1.167" fill="#fff"/>
                <path id="Path_99251" data-name="Path 99251" d="M425.1,96.437a1.221,1.221,0,1,1-1.219-1.166A1.194,1.194,0,0,1,425.1,96.437Z" transform="translate(-411.681 -95.271)" fill="#fff"/>
                <ellipse id="Ellipse_3971" data-name="Ellipse 3971" cx="1.22" cy="1.167" rx="1.22" ry="1.167" transform="translate(21.958)" fill="#fff"/>
                <path id="Path_99252" data-name="Path 99252" d="M441.993,96.437a1.221,1.221,0,1,1-1.22-1.166A1.194,1.194,0,0,1,441.993,96.437Z" transform="translate(-406.615 -95.271)" fill="#fff"/>
                <path id="Path_99253" data-name="Path 99253" d="M450.439,96.437a1.221,1.221,0,1,1-1.219-1.166A1.194,1.194,0,0,1,450.439,96.437Z" transform="translate(-404.083 -95.271)" fill="#fff"/>
                <ellipse id="Ellipse_3972" data-name="Ellipse 3972" cx="1.22" cy="1.167" rx="1.22" ry="1.167" transform="translate(54.895)" fill="#fff"/>
                <path id="Path_99254" data-name="Path 99254" d="M467.332,96.437a1.221,1.221,0,1,1-1.221-1.166A1.195,1.195,0,0,1,467.332,96.437Z" transform="translate(-399.017 -95.271)" fill="#fff"/>
                <ellipse id="Ellipse_3973" data-name="Ellipse 3973" cx="1.22" cy="1.167" rx="1.22" ry="1.167" transform="translate(76.853)" fill="#fff"/>
                <ellipse id="Ellipse_3974" data-name="Ellipse 3974" cx="1.22" cy="1.167" rx="1.22" ry="1.167" transform="translate(87.833)" fill="#fff"/>
                <path id="Path_99255" data-name="Path 99255" d="M492.671,96.437a1.221,1.221,0,1,1-1.22-1.166A1.195,1.195,0,0,1,492.671,96.437Z" transform="translate(-391.419 -95.271)" fill="#fff"/>
                <path id="Path_99256" data-name="Path 99256" d="M501.117,96.437a1.221,1.221,0,1,1-1.221-1.166A1.194,1.194,0,0,1,501.117,96.437Z" transform="translate(-388.886 -95.271)" fill="#fff"/>
              </g>
              <g id="Group_53313" data-name="Group 53313" transform="translate(0 65.33)">
                <path id="Path_99257" data-name="Path 99257" d="M416.654,103.945a1.221,1.221,0,1,1-1.221-1.166A1.194,1.194,0,0,1,416.654,103.945Z" transform="translate(-414.214 -102.779)" fill="#fff"/>
                <path id="Path_99258" data-name="Path 99258" d="M425.1,103.945a1.221,1.221,0,1,1-1.219-1.166A1.194,1.194,0,0,1,425.1,103.945Z" transform="translate(-411.681 -102.779)" fill="#fff"/>
                <path id="Path_99259" data-name="Path 99259" d="M433.546,103.945a1.221,1.221,0,1,1-1.219-1.166A1.194,1.194,0,0,1,433.546,103.945Z" transform="translate(-409.148 -102.779)" fill="#fff"/>
                <path id="Path_99260" data-name="Path 99260" d="M441.993,103.945a1.221,1.221,0,1,1-1.22-1.166A1.194,1.194,0,0,1,441.993,103.945Z" transform="translate(-406.616 -102.779)" fill="#fff"/>
                <path id="Path_99261" data-name="Path 99261" d="M450.439,103.945a1.221,1.221,0,1,1-1.219-1.166A1.194,1.194,0,0,1,450.439,103.945Z" transform="translate(-404.083 -102.779)" fill="#fff"/>
                <path id="Path_99262" data-name="Path 99262" d="M458.885,103.945a1.221,1.221,0,1,1-1.219-1.166A1.194,1.194,0,0,1,458.885,103.945Z" transform="translate(-401.55 -102.779)" fill="#fff"/>
                <path id="Path_99263" data-name="Path 99263" d="M467.332,103.945a1.221,1.221,0,1,1-1.221-1.166A1.195,1.195,0,0,1,467.332,103.945Z" transform="translate(-399.017 -102.779)" fill="#fff"/>
                <path id="Path_99264" data-name="Path 99264" d="M475.778,103.945a1.221,1.221,0,1,1-1.219-1.166A1.194,1.194,0,0,1,475.778,103.945Z" transform="translate(-396.485 -102.779)" fill="#fff"/>
                <path id="Path_99265" data-name="Path 99265" d="M484.224,103.945A1.221,1.221,0,1,1,483,102.779,1.194,1.194,0,0,1,484.224,103.945Z" transform="translate(-393.952 -102.779)" fill="#fff"/>
                <path id="Path_99266" data-name="Path 99266" d="M492.671,103.945a1.221,1.221,0,1,1-1.22-1.166A1.195,1.195,0,0,1,492.671,103.945Z" transform="translate(-391.419 -102.779)" fill="#fff"/>
                <path id="Path_99267" data-name="Path 99267" d="M501.117,103.945a1.221,1.221,0,1,1-1.221-1.166A1.194,1.194,0,0,1,501.117,103.945Z" transform="translate(-388.887 -102.779)" fill="#fff"/>
              </g>
              <g id="Group_53314" data-name="Group 53314" transform="translate(0 74.663)">
                <ellipse id="Ellipse_3975" data-name="Ellipse 3975" cx="1.22" cy="1.167" rx="1.22" ry="1.167" fill="#fff"/>
                <path id="Path_99268" data-name="Path 99268" d="M425.1,111.453a1.221,1.221,0,1,1-1.219-1.166A1.195,1.195,0,0,1,425.1,111.453Z" transform="translate(-411.681 -110.286)" fill="#fff"/>
                <ellipse id="Ellipse_3976" data-name="Ellipse 3976" cx="1.22" cy="1.167" rx="1.22" ry="1.167" transform="translate(21.958)" fill="#fff"/>
                <path id="Path_99269" data-name="Path 99269" d="M441.993,111.453a1.221,1.221,0,1,1-1.22-1.166A1.195,1.195,0,0,1,441.993,111.453Z" transform="translate(-406.615 -110.286)" fill="#fff"/>
                <path id="Path_99270" data-name="Path 99270" d="M450.439,111.453a1.221,1.221,0,1,1-1.219-1.166A1.195,1.195,0,0,1,450.439,111.453Z" transform="translate(-404.083 -110.286)" fill="#fff"/>
                <ellipse id="Ellipse_3977" data-name="Ellipse 3977" cx="1.22" cy="1.167" rx="1.22" ry="1.167" transform="translate(54.895)" fill="#fff"/>
                <path id="Path_99271" data-name="Path 99271" d="M467.332,111.453a1.221,1.221,0,1,1-1.221-1.166A1.2,1.2,0,0,1,467.332,111.453Z" transform="translate(-399.017 -110.286)" fill="#fff"/>
                <ellipse id="Ellipse_3978" data-name="Ellipse 3978" cx="1.22" cy="1.167" rx="1.22" ry="1.167" transform="translate(76.853)" fill="#fff"/>
                <ellipse id="Ellipse_3979" data-name="Ellipse 3979" cx="1.22" cy="1.167" rx="1.22" ry="1.167" transform="translate(87.833)" fill="#fff"/>
                <path id="Path_99272" data-name="Path 99272" d="M492.671,111.453a1.221,1.221,0,1,1-1.22-1.166A1.2,1.2,0,0,1,492.671,111.453Z" transform="translate(-391.419 -110.286)" fill="#fff"/>
                <path id="Path_99273" data-name="Path 99273" d="M501.117,111.453a1.221,1.221,0,1,1-1.221-1.166A1.195,1.195,0,0,1,501.117,111.453Z" transform="translate(-388.886 -110.286)" fill="#fff"/>
              </g>
              <g id="Group_53315" data-name="Group 53315" transform="translate(0 83.995)">
                <path id="Path_99274" data-name="Path 99274" d="M416.654,118.961a1.221,1.221,0,1,1-1.221-1.167A1.2,1.2,0,0,1,416.654,118.961Z" transform="translate(-414.214 -117.794)" fill="#fff"/>
                <path id="Path_99275" data-name="Path 99275" d="M425.1,118.961a1.221,1.221,0,1,1-1.219-1.167A1.195,1.195,0,0,1,425.1,118.961Z" transform="translate(-411.681 -117.794)" fill="#fff"/>
                <path id="Path_99276" data-name="Path 99276" d="M433.546,118.961a1.221,1.221,0,1,1-1.219-1.167A1.195,1.195,0,0,1,433.546,118.961Z" transform="translate(-409.148 -117.794)" fill="#fff"/>
                <path id="Path_99277" data-name="Path 99277" d="M441.993,118.961a1.221,1.221,0,1,1-1.22-1.167A1.195,1.195,0,0,1,441.993,118.961Z" transform="translate(-406.616 -117.794)" fill="#fff"/>
                <path id="Path_99278" data-name="Path 99278" d="M450.439,118.961a1.221,1.221,0,1,1-1.219-1.167A1.195,1.195,0,0,1,450.439,118.961Z" transform="translate(-404.083 -117.794)" fill="#fff"/>
                <path id="Path_99279" data-name="Path 99279" d="M458.885,118.961a1.221,1.221,0,1,1-1.219-1.167A1.195,1.195,0,0,1,458.885,118.961Z" transform="translate(-401.55 -117.794)" fill="#fff"/>
                <path id="Path_99280" data-name="Path 99280" d="M467.332,118.961a1.221,1.221,0,1,1-1.221-1.167A1.2,1.2,0,0,1,467.332,118.961Z" transform="translate(-399.017 -117.794)" fill="#fff"/>
                <path id="Path_99281" data-name="Path 99281" d="M475.778,118.961a1.221,1.221,0,1,1-1.219-1.167A1.195,1.195,0,0,1,475.778,118.961Z" transform="translate(-396.485 -117.794)" fill="#fff"/>
                <path id="Path_99282" data-name="Path 99282" d="M484.224,118.961A1.221,1.221,0,1,1,483,117.794,1.195,1.195,0,0,1,484.224,118.961Z" transform="translate(-393.952 -117.794)" fill="#fff"/>
                <path id="Path_99283" data-name="Path 99283" d="M492.671,118.961a1.221,1.221,0,1,1-1.22-1.167A1.2,1.2,0,0,1,492.671,118.961Z" transform="translate(-391.419 -117.794)" fill="#fff"/>
                <path id="Path_99284" data-name="Path 99284" d="M501.117,118.961a1.221,1.221,0,1,1-1.221-1.167A1.195,1.195,0,0,1,501.117,118.961Z" transform="translate(-388.887 -117.794)" fill="#fff"/>
              </g>
              <g id="Group_53316" data-name="Group 53316" transform="translate(0 93.329)">
                <ellipse id="Ellipse_3980" data-name="Ellipse 3980" cx="1.22" cy="1.167" rx="1.22" ry="1.167" transform="translate(0 0)" fill="#fff"/>
                <path id="Path_99285" data-name="Path 99285" d="M425.1,126.469a1.221,1.221,0,1,1-1.219-1.167A1.194,1.194,0,0,1,425.1,126.469Z" transform="translate(-411.681 -125.302)" fill="#fff"/>
                <ellipse id="Ellipse_3981" data-name="Ellipse 3981" cx="1.22" cy="1.167" rx="1.22" ry="1.167" transform="translate(21.958 0)" fill="#fff"/>
                <path id="Path_99286" data-name="Path 99286" d="M441.993,126.469a1.221,1.221,0,1,1-1.22-1.167A1.194,1.194,0,0,1,441.993,126.469Z" transform="translate(-406.615 -125.302)" fill="#fff"/>
                <path id="Path_99287" data-name="Path 99287" d="M450.439,126.469a1.221,1.221,0,1,1-1.219-1.167A1.194,1.194,0,0,1,450.439,126.469Z" transform="translate(-404.083 -125.302)" fill="#fff"/>
                <ellipse id="Ellipse_3982" data-name="Ellipse 3982" cx="1.22" cy="1.167" rx="1.22" ry="1.167" transform="translate(54.895 0)" fill="#fff"/>
                <path id="Path_99288" data-name="Path 99288" d="M467.332,126.469a1.221,1.221,0,1,1-1.221-1.167A1.195,1.195,0,0,1,467.332,126.469Z" transform="translate(-399.017 -125.302)" fill="#fff"/>
                <ellipse id="Ellipse_3983" data-name="Ellipse 3983" cx="1.22" cy="1.167" rx="1.22" ry="1.167" transform="translate(76.853 0)" fill="#fff"/>
                <ellipse id="Ellipse_3984" data-name="Ellipse 3984" cx="1.22" cy="1.167" rx="1.22" ry="1.167" transform="translate(87.833 0)" fill="#fff"/>
                <path id="Path_99289" data-name="Path 99289" d="M492.671,126.469a1.221,1.221,0,1,1-1.22-1.167A1.195,1.195,0,0,1,492.671,126.469Z" transform="translate(-391.419 -125.302)" fill="#fff"/>
                <path id="Path_99290" data-name="Path 99290" d="M501.117,126.469A1.221,1.221,0,1,1,499.9,125.3,1.194,1.194,0,0,1,501.117,126.469Z" transform="translate(-388.886 -125.302)" fill="#fff"/>
              </g>
              <g id="Group_53317" data-name="Group 53317" transform="translate(0 102.663)">
                <ellipse id="Ellipse_3985" data-name="Ellipse 3985" cx="1.22" cy="1.167" rx="1.22" ry="1.167" transform="translate(0 0)" fill="#fff"/>
                <path id="Path_99291" data-name="Path 99291" d="M425.1,133.977a1.221,1.221,0,1,1-1.219-1.167A1.194,1.194,0,0,1,425.1,133.977Z" transform="translate(-411.681 -132.81)" fill="#fff"/>
                <ellipse id="Ellipse_3986" data-name="Ellipse 3986" cx="1.22" cy="1.167" rx="1.22" ry="1.167" transform="translate(21.958 0)" fill="#fff"/>
                <path id="Path_99292" data-name="Path 99292" d="M441.993,133.977a1.221,1.221,0,1,1-1.22-1.167A1.194,1.194,0,0,1,441.993,133.977Z" transform="translate(-406.615 -132.81)" fill="#fff"/>
                <path id="Path_99293" data-name="Path 99293" d="M450.439,133.977a1.221,1.221,0,1,1-1.219-1.167A1.194,1.194,0,0,1,450.439,133.977Z" transform="translate(-404.083 -132.81)" fill="#fff"/>
                <ellipse id="Ellipse_3987" data-name="Ellipse 3987" cx="1.22" cy="1.167" rx="1.22" ry="1.167" transform="translate(54.895 0)" fill="#fff"/>
                <path id="Path_99294" data-name="Path 99294" d="M467.332,133.977a1.221,1.221,0,1,1-1.221-1.167A1.195,1.195,0,0,1,467.332,133.977Z" transform="translate(-399.017 -132.81)" fill="#fff"/>
                <ellipse id="Ellipse_3988" data-name="Ellipse 3988" cx="1.22" cy="1.167" rx="1.22" ry="1.167" transform="translate(76.853 0)" fill="#fff"/>
                <ellipse id="Ellipse_3989" data-name="Ellipse 3989" cx="1.22" cy="1.167" rx="1.22" ry="1.167" transform="translate(87.833 0)" fill="#fff"/>
                <path id="Path_99295" data-name="Path 99295" d="M492.671,133.977a1.221,1.221,0,1,1-1.22-1.167A1.195,1.195,0,0,1,492.671,133.977Z" transform="translate(-391.419 -132.81)" fill="#fff"/>
                <path id="Path_99296" data-name="Path 99296" d="M501.117,133.977a1.221,1.221,0,1,1-1.221-1.167A1.194,1.194,0,0,1,501.117,133.977Z" transform="translate(-388.886 -132.81)" fill="#fff"/>
              </g>
            </g>
          </g>
        </g>
      </g>
    </g>
    <g id="Group_148505" data-name="Group 148505" transform="translate(3206.652 801.627)">
      <path id="Path_259107" data-name="Path 259107" d="M-2086.182,880.13s-68.486-281.574-25.956-449.928,76.145,50.2,99.392,34.1c29.426-20.382,42.151-327.046,86.14-327.337,50.051-.33,86.787,121.211,67.219,410.666-14.432,213.492,84.774,38.663,70.2,336.649Z" transform="translate(0.022 0.004)" fill="#eef8ff" opacity="0.6"/>
      <g id="Group_148497" data-name="Group 148497" transform="translate(-2047.884 136.373)">
        <g id="Group_148496" data-name="Group 148496" transform="translate(17.104)">
          <path id="Path_259108" data-name="Path 259108" d="M-1946.966,403.007c.3,2.814,4.284,2.712,8.785,2.039s3.337.509,9.667.386,8.44-2.285,8.716-3.2c.246-.812-2.823-1.386-6.11-2.071-.413-.085-.828-.175-1.243-.265-3.707-.812-6.232-3.482-9.456-5.779-3.055-2.177-5.114-12.15-5.114-12.15l-9-.053s2.827,9.02,4.3,12.156c.866,1.845-.056,4.214-.347,5.991A11.06,11.06,0,0,0-1946.966,403.007Z" transform="translate(2032.066 -134.603)" fill="#ffb07b"/>
          <path id="Path_259109" data-name="Path 259109" d="M-1938.208,404.916c4.5-.675,3.337.509,9.667.386s8.44-2.285,8.716-3.2c.246-.812-2.823-1.386-6.11-2.071l-.036.061a17.743,17.743,0,0,1-9.228,1.971c-4.26-.284-8.653-1.914-11.593-2.133a11.06,11.06,0,0,0-.2,2.946C-1946.691,405.691-1942.709,405.59-1938.208,404.916Z" transform="translate(2032.092 -134.473)" fill="#365da4"/>
          <path id="Path_259110" data-name="Path 259110" d="M-2016.833,402.581c.194,2.824,4.179,2.873,8.7,2.368s3.317.635,9.646.75,8.521-1.966,8.831-2.869c.277-.8-2.769-1.492-6.027-2.3-.41-.1-.821-.206-1.232-.311-3.673-.952-6.1-3.715-9.232-6.132-2.97-2.29-.527-11.788-.527-11.788l-6.827-3.225s-.94,9.79-1.446,14.742c-.208,2.028-1.217,4.064-1.574,5.829A11.089,11.089,0,0,0-2016.833,402.581Z" transform="translate(2031.589 -134.623)" fill="#ffb07b"/>
          <path id="Path_259111" data-name="Path 259111" d="M-2008.131,404.8c4.523-.5,3.317.635,9.646.75s8.521-1.966,8.831-2.869c.277-.8-2.769-1.492-6.027-2.3l-.039.059a17.733,17.733,0,0,1-9.3,1.622c-4.246-.444-8.574-2.237-11.5-2.567a11.089,11.089,0,0,0-.313,2.936C-2016.638,405.258-2012.654,405.307-2008.131,404.8Z" transform="translate(2031.589 -134.476)" fill="#365da4"/>
          <path id="Path_259112" data-name="Path 259112" d="M-2001.5,262.483s-1.892,9.158-3.786,55.595a149.782,149.782,0,0,0-6.06,19.112c-2.548,10.513-4.346,54.382-4.346,54.382s1.015,1.464,4.1,1.649a8.913,8.913,0,0,0,4.479-.953s17.714-57.457,26.335-79.764,13.675-54.159,13.675-54.159Z" transform="translate(2031.597 -135.494)" fill="#5d42ad"/>
          <path id="Path_259113" data-name="Path 259113" d="M-1980.455,266.459s1.4,9.245,15.7,53.466a149.863,149.863,0,0,0,.932,20.028C-1962.576,350.7-1948.1,393-1948.1,393a8.9,8.9,0,0,0,4.806-.093,15.2,15.2,0,0,0,4.783-2.321s-5.549-60.469-5.184-84.382-5.923-55.543-5.923-55.543Z" transform="translate(2031.851 -135.549)" fill="#5d42ad"/>
          <path id="Path_259114" data-name="Path 259114" d="M-1954.973,139.21a12.964,12.964,0,0,0-6.939-1.691,3.286,3.286,0,0,1,1.512-.627c-1.191-.238-3.926.818-3.926.818-16.358-7.261-20.208,17.168-20.143,22.891s-.223,12.293-8.805,16.994c-16.887,9.25-3.942,27.519-3.942,27.519-3.04,8.722,8.213,19.408,8.213,19.408-.19-4.631,21.072-34.141,32.536-40.874,2.9-3.844,4.212-10.822,4.312-11.372-.745,5.549-1.854,8.627-2.794,10.344C-1945.118,174.438-1949.032,142.99-1954.973,139.21Z" transform="translate(2031.696 -136.373)" fill="#c65447"/>
          <path id="Path_259115" data-name="Path 259115" d="M-1958.734,180.289c.057.026-5.363,2.84-9.443,1.725-3.836-1.045-6.342-6.02-6.29-6.032,1.625-.322,2.094-2.554,2.059-12.146l.735.144,11.9,2.359.444.087s-.283,3.885-.292,7.546c0,.776.009,1.538.038,2.253C-1959.5,178.35-1959.262,180.041-1958.734,180.289Z" transform="translate(2031.895 -136.175)" fill="#ffb07b"/>
          <path id="Path_259116" data-name="Path 259116" d="M-1959.634,173.966c0,.776.009,1.538.038,2.253-6.925-.28-10.917-8.2-12.423-11.672l12.233,1.786.444.087S-1959.625,170.305-1959.634,173.966Z" transform="translate(2031.912 -136.17)" fill="#ea8e50"/>
          <path id="Path_259117" data-name="Path 259117" d="M-1972.927,162.826s-3.621-5.721-4.49-10.613c-.62-3.493,1.158-16.44,14.168-14.575a17.682,17.682,0,0,1,7.33,2.771c2.825,1.908,6.9,6.027,2.344,17.325l-1.184,3.816Z" transform="translate(2031.873 -136.365)" fill="#c65447"/>
          <path id="Path_259118" data-name="Path 259118" d="M-1958.6,172.322s-16.209-2.143-14.719-12.217.4-17.135,10.812-16.193,11.851,5.083,12.171,8.566S-1954.349,172.619-1958.6,172.322Z" transform="translate(2031.902 -136.32)" fill="#ffb07b"/>
          <path id="Path_259119" data-name="Path 259119" d="M-1955.076,144.776s-6.188,11.157-13.243,11.892-9.731-1.525-9.731-1.525a19.461,19.461,0,0,0,7.987-10.43S-1957.578,138.654-1955.076,144.776Z" transform="translate(2031.869 -136.332)" fill="#c65447"/>
          <path id="Path_259120" data-name="Path 259120" d="M-1956.472,145.557s2.913,3.13,3.337,5.816,0,8.019,1.565,8.069c0,0,4.532-7.535,1.46-12.636C-1953.366,141.394-1956.472,145.557-1956.472,145.557Z" transform="translate(2032.024 -136.318)" fill="#c65447"/>
          <path id="Path_259121" data-name="Path 259121" d="M-1848.314,281.79c-3.4-7.2-12.854-13.163-20.82-13.166a23.653,23.653,0,0,0-15.085,5.277,3.971,3.971,0,0,1-6.381-2.258l-6.972-32.392a8.75,8.75,0,0,0-10.393-6.712l-112.814,24.28a8.548,8.548,0,0,0-6.557,10.155l24.254,112.69a8.865,8.865,0,0,0,5.988,6.589l-1.481.42h4.379l.035-.006a8.971,8.971,0,0,0,1.621-.194l2.457-.529h0l28.953-6.232a5.464,5.464,0,0,0,2.982-8.924,23.367,23.367,0,0,1-5.343-11.024,23.525,23.525,0,0,1,16.88-27.009,23.462,23.462,0,0,1,29.105,17.7,23.349,23.349,0,0,1-1.344,14.114,3.733,3.733,0,0,0,1.1,4.4l-1.689.824,3.913,0h0a3.836,3.836,0,0,0,.9-.085l34.572-7.44a8.752,8.752,0,0,0,6.714-10.4l-6.929-32.192a4.1,4.1,0,0,1,5.028-4.832,23.348,23.348,0,0,0,10.754.2A23.5,23.5,0,0,0-1848.314,281.79Z" transform="translate(2031.512 -135.681)" fill="#ca8721"/>
          <path id="Path_259122" data-name="Path 259122" d="M-1873.089,268.624a23.653,23.653,0,0,0-15.085,5.277,3.971,3.971,0,0,1-6.381-2.258l-6.972-32.392a8.749,8.749,0,0,0-10.393-6.712l-112.813,24.28a8.548,8.548,0,0,0-6.558,10.155l24.253,112.69a8.876,8.876,0,0,0,10.543,6.809l31.41-6.76a5.464,5.464,0,0,0,2.982-8.924,23.376,23.376,0,0,1-5.343-11.024,23.526,23.526,0,0,1,16.88-27.009,23.461,23.461,0,0,1,29.105,17.7,23.354,23.354,0,0,1-1.343,14.114,3.743,3.743,0,0,0,4.227,5.134l34.571-7.44a8.753,8.753,0,0,0,6.715-10.4l-6.93-32.192a4.1,4.1,0,0,1,5.028-4.832,23.353,23.353,0,0,0,10.755.2,23.5,23.5,0,0,0,16.167-33.253C-1855.669,274.587-1865.123,268.627-1873.089,268.624Z" transform="translate(2031.484 -135.681)" fill="#fda929"/>
          <path id="Path_259123" data-name="Path 259123" d="M-1915.2,225.83s7.036,1.153,8.88,5.729-.731,7.675-1.722,7.664a4.421,4.421,0,0,1-3.779-3.116C-1912.713,233.735-1915.2,225.83-1915.2,225.83Z" transform="translate(2032.322 -135.728)" fill="#ffb07b"/>
          <path id="Path_259124" data-name="Path 259124" d="M-2011.382,246.1s7.9-.01,10.74,4.658.587,8.521-.5,8.688a4.9,4.9,0,0,1-4.692-2.723C-2007.233,254.293-2011.382,246.1-2011.382,246.1Z" transform="translate(2031.628 -135.582)" fill="#ffb07b"/>
          <path id="Path_259125" data-name="Path 259125" d="M-1914.245,231.5c-.7-.149-3.762-.51-7.657-1.122-7.171-1.126-17.17-3.106-20.525-6.2-.907-.841-3.025-5.463-5.223-10.763A100.482,100.482,0,0,0-1949.41,241l-48.473,10.433c4.157-8.4,10.59-18.822,9.383-27.252-.446-3.126-2.159-7.415-2.8-12.235-.053-.414-.1-.828-.136-1.249-6.8,5.6-14.652,11.77-14.839,13.005-.313,2.07,4.98,24.986,4.98,24.986-1.314,3.025-7.022,2.389-7.022,2.389-5.35-3.82-13.218-25.466-12.586-30.262s20.134-32.124,24.855-38.656c4.663-6.454,21.688-6.292,22.1-6.29h.009c13.539,8.129,14.76,1.374,14.76,1.374s12.214,2.323,14.314,5.929,11.306,30.973,11.957,31.937c1.364,2.015,23.617,10.078,24.016,12.413S-1912.251,231.924-1914.245,231.5Z" transform="translate(2031.56 -136.088)" fill="#80bdcc"/>
          <path id="Path_259126" data-name="Path 259126" d="M-1981.146,247.56l-16.9,3.622c4.208-8.379,9.741-18.815,8.531-27.194-.452-3.128-1.467-6.831-1.956-11.671-.047-.466-.128-1.871-.128-1.871s11.969,9.419,12.179,19.613A101.779,101.779,0,0,1-1981.146,247.56Z" transform="translate(2031.725 -135.839)" fill="#5f9aa8"/>
          <path id="Path_259127" data-name="Path 259127" d="M-1921.977,230.231c-7.259-1.127-17.381-3.108-20.776-6.2-.921-.841-3.064-5.469-5.291-10.775,0,0-.78-8.53,1.449-8.211s5.51,15.447,7.851,16.4C-1936.647,222.3-1925.063,226.747-1921.977,230.231Z" transform="translate(2032.084 -135.878)" fill="#5f9aa8"/>
        </g>
        <path id="Path_259128" data-name="Path 259128" d="M-1891.491,564.381l-32.267-146.5h8.881a3.84,3.84,0,0,0,3.828-3.827V409.1a3.84,3.84,0,0,0-3.828-3.827h-112.67a3.839,3.839,0,0,0-3.828,3.827v4.949a3.839,3.839,0,0,0,3.828,3.827h11.435l-32.268,146.5a3.677,3.677,0,0,0,2.781,4.371,3.667,3.667,0,0,0,4.36-2.789l32.616-148.085h77.375l32.616,148.085a3.666,3.666,0,0,0,4.359,2.789h0A3.677,3.677,0,0,0-1891.491,564.381Z" transform="translate(2048.465 -134.434)" fill="#c3e0f4"/>
      </g>
      <path id="Path_259129" data-name="Path 259129" d="M-1822.11,850.057c-26.507-4.379-46.52,5.152-65.764,2.413-15.345-2.186-23.343-18.123-43.966-22.636,4.905-2.97,10.621-6.684,13.352-9.384,5.307-5.248,12.931-15.741,0-16.153-9.3-.3-16.548,15.609-19.881,24.557a61.742,61.742,0,0,0-9.959-.011c4.256-14.081,12.556-41.338,14.586-46.574,2.764-7.125-8.841-30.88-22.519-4.22-9.594,18.7-3.079,40.309,1.667,51.547a74.708,74.708,0,0,0-10.661,2.6c-11.3-26.468-47.261-101.935-86.239-92.557-42.494,10.223,48.545,60.957,71.506,98.572-18.756,8.924-35.238,19.764-63.727,11.848-75.711-21.039-81.716,26.3-81.716,26.3l338.341.118A46.136,46.136,0,0,0-1822.11,850.057Z" transform="translate(0.026 4.344)" fill="#b1edd2"/>
      <g id="Group_148500" data-name="Group 148500" transform="translate(-2129.101 547.876)">
        <g id="Group_148498" data-name="Group 148498" transform="translate(17.905 106.162)">
          <path id="Path_259130" data-name="Path 259130" d="M-2020.12,708.919l3.077,2.5s8.417-3.019,10.317,6.983c0,0,.506,4.263-2.195,4.271s-1.586-.465-5.41-.354-6.992-1.9-7.553-5.007l-1.829-2.629Z" transform="translate(2111.956 -649.91)" fill="#ea8e50"/>
          <path id="Path_259131" data-name="Path 259131" d="M-2019.836,714.7c2.453-2.563,2.256-4.458,2.256-4.458s-28.424-23.272-31.307-25.168c-1.965-1.291-22.9-19.85-32.684-31.164-4.854-5.612-10.867-3.435-17.745-1.461l-5.666,1.626c-6.84,1.962-8.619,11.53-3.006,16.178,15.807,13.093,42.1,27.819,47.021,30.914,12.215,7.683,36.121,16.812,36.121,16.812A15.155,15.155,0,0,0-2019.836,714.7Z" transform="translate(2111.325 -650.332)" fill="#1e3d70"/>
        </g>
        <path id="Path_259132" data-name="Path 259132" d="M-1987.4,855.963s6.9,5.169,17.468,2.437c0,0,8.523-1.942,10.392,2.309,0,0-13.071,6.64-16.378,8.456a39.634,39.634,0,0,0-6.934,5.2,3.427,3.427,0,0,1-4.963-.383c-.575-.707-1.233-1.549-1.954-2.526-2.015-2.731-6.712-11.553-6.712-11.553Z" transform="translate(2130.057 -542.688)" fill="#463282"/>
        <path id="Path_259133" data-name="Path 259133" d="M-1983.5,854.475s-4.2,9.685-13.9,7.906c0,0-19.786-16.34-33.358-33.314-4.407-5.513-8.16-11.092-10.365-16.2-9-20.836-33.291-51.915-48.735-67.666l38.64-13.978s12.377,24.9,28.844,55.479C-2010.506,808.736-1996.518,833.723-1983.5,854.475Z" transform="translate(2129.384 -543.587)" fill="#5d42ad"/>
        <path id="Path_259134" data-name="Path 259134" d="M-2022.374,786.7l-8.384,42.364c-4.407-5.513-8.16-11.092-10.365-16.2-9-20.836-33.291-51.915-48.735-67.666l38.64-13.978S-2038.842,756.12-2022.374,786.7Z" transform="translate(2129.384 -543.587)" fill="#463282"/>
        <path id="Path_259135" data-name="Path 259135" d="M-2054.216,861.448s-.421,7.728,8.948,8.76c0,0,5.354.028,5.37,4.947l-27.231.086a21.158,21.158,0,0,1-.982-6.234c-.147-3.263,3.163-11.8,3.163-11.8Z" transform="translate(2129.541 -542.679)" fill="#463282"/>
        <path id="Path_259136" data-name="Path 259136" d="M-2063.809,731.235s17.213,18.914,28.14,52.992c5.946,18.541-10.9,65.155-14.179,81.352,0,0-11.3.959-19.023-2.029,0,0-.587-33.451,3.93-59.235,2.529-14.429-22.665-30.861-33.673-56.934-7.489-17.738,1.622-17.437,12.819-17.862Z" transform="translate(2129.301 -543.6)" fill="#5d42ad"/>
        <path id="Path_259137" data-name="Path 259137" d="M-2083.6,647.606c-9.578,5.408-29.184.421-29.184.421s7.962-9.1,4.344-23.764l7.52,3.819,8.077,4.1a66.85,66.85,0,0,1,.885,7.24c.093,1.2.176,2.535.233,4A25.136,25.136,0,0,1-2083.6,647.606Z" transform="translate(2129.219 -544.359)" fill="#ffb07b"/>
        <path id="Path_259138" data-name="Path 259138" d="M-2048.428,730.883c0,1.683-1.939,2.489-2.351,2.57-3.863.706-14.649,4.9-24.365,5.864-8.18.857-15.777.043-24.122-1.633-1.1-.222-3.7-.921-3.884-1.979-.23-1.157-32.188-65.149-7.345-92.638.583-.645,5.487.517,9.973,1.581a18.413,18.413,0,0,0,11.333-.927l4.206,2.213c5.164,2.879,14.937,13.1,16.081,21.126.58,4.08,2.914,7.1,3.589,10.692q.376,1.991.768,3.888.764,3.718,1.573,7.082c1.461,6.068,3,11.292,4.518,15.805,1.612,4.791,3.193,8.778,4.6,12.111,1.831,4.324,3.379,7.555,4.346,10.029A12.366,12.366,0,0,1-2048.428,730.883Z" transform="translate(2129.167 -544.224)" fill="#7353d8"/>
        <path id="Path_259139" data-name="Path 259139" d="M-2049.572,726.511c-45.112-21.254-60.736-62.066-60.736-62.066s36.653,13.52,45.693,17.04q.764,3.718,1.573,7.082c1.461,6.068,3,11.292,4.518,15.805,1.612,4.791,3.193,8.778,4.6,12.111C-2052.087,720.806-2050.539,724.038-2049.572,726.511Z" transform="translate(2129.236 -544.069)" fill="#1e3d70"/>
        <path id="Path_259140" data-name="Path 259140" d="M-1922.335,682.17-1932,651.529a5.478,5.478,0,0,0-6.707-3.627h0l-.007,0c-.143.04-.284.089-.425.142l-3.388,1.131s-5.3,5.463-9.112,6.565c-11.7,3.386-22.812-2.851-27.083-14.262-4.749-12.692.761-26.63,13.519-30.652,4.365-1.377,12.957,1.188,12.957,1.188l3.448-1.146a3.741,3.741,0,0,0,2.491-4.712l-10.636-33.725a8.751,8.751,0,0,0-10.979-5.715l-31.4,9.9a4.1,4.1,0,0,1-5.28-4.554,23.357,23.357,0,0,0-.8-10.727,23.5,23.5,0,0,0-34.618-12.992c-6.854,4.058-11.905,14.026-11.164,21.957a23.658,23.658,0,0,0,6.661,14.528,3.971,3.971,0,0,1-1.653,6.564l-31.6,9.965a8.747,8.747,0,0,0-5.712,10.974l34.708,110.054a8.546,8.546,0,0,0,10.722,5.581L-1928.13,693.3A8.874,8.874,0,0,0-1922.335,682.17Z" transform="translate(2129.427 -544.931)" fill="#29398a"/>
        <path id="Path_259141" data-name="Path 259141" d="M-2054.51,571.414a23.645,23.645,0,0,0,6.661,14.528,3.971,3.971,0,0,1-1.653,6.563l-31.6,9.965a8.749,8.749,0,0,0-5.713,10.975l34.707,110.054a8.547,8.547,0,0,0,10.722,5.581l109.934-34.67a8.873,8.873,0,0,0,5.794-11.132l-9.663-30.641a5.465,5.465,0,0,0-9.164-2.136,23.372,23.372,0,0,1-10.477,6.349,23.526,23.526,0,0,1-28.468-14.284,23.463,23.463,0,0,1,14.9-30.631,23.36,23.36,0,0,1,14.177.019,3.744,3.744,0,0,0,4.718-4.689l-10.636-33.725a8.751,8.751,0,0,0-10.979-5.714l-31.4,9.9a4.1,4.1,0,0,1-5.281-4.554,23.346,23.346,0,0,0-.8-10.728,23.5,23.5,0,0,0-34.617-12.992C-2050.2,553.515-2055.251,563.483-2054.51,571.414Z" transform="translate(2129.403 -544.923)" fill="#b3bad6"/>
        <g id="Group_148499" data-name="Group 148499" transform="translate(12.876 108.179)">
          <path id="Path_259142" data-name="Path 259142" d="M-2023.787,713.84l3.9,1.429s7.807-5.52,12.667,3.458c0,0,1.759,3.922-1.024,4.773s-1.772.05-5.683,1.353-7.766.365-9.243-2.429l-2.649-1.944Z" transform="translate(2116.97 -651.893)" fill="#ffb07b"/>
          <path id="Path_259143" data-name="Path 259143" d="M-2019.926,719.794c1.441-3.76,2.1-5.463,2.1-5.463s-29.456-24.011-32.457-26.07c-2.046-1.4-22.406-16.623-32.333-28.485a20.777,20.777,0,0,0-20.2-7l-6.183,1.3a9.2,9.2,0,0,0-4.1,15.981c16.313,13.985,43.826,30.205,48.955,33.578,12.735,8.375,40.9,20.111,40.9,20.111A7.251,7.251,0,0,0-2019.926,719.794Z" transform="translate(2116.317 -652.335)" fill="#7353d8"/>
        </g>
        <path id="Path_259144" data-name="Path 259144" d="M-2091.994,639.4c-9.417.529-15.542-7.248-15.542-7.248a74.963,74.963,0,0,0,6.58-4.094l8.077,4.1A66.85,66.85,0,0,1-2091.994,639.4Z" transform="translate(2129.256 -544.331)" fill="#ea8e50"/>
        <path id="Path_259145" data-name="Path 259145" d="M-2087.918,629.887s-14.27,10.241-20.511,1.256-12.285-13.714-3.437-20.633,13.017-4.733,15.83-2.24S-2084.366,626.992-2087.918,629.887Z" transform="translate(2129.193 -544.491)" fill="#ffb07b"/>
        <path id="Path_259146" data-name="Path 259146" d="M-2094.437,600.239a22.988,22.988,0,0,0-1.663-5.885s-.9,3.711-7.674,3.2-17.524.667-21.106,8.392a16.306,16.306,0,0,0-.612,1.516,17.882,17.882,0,0,1-.8-4.28c-1.288,3.326,0,7.487,0,7.487h0c-.019.121-.035.243-.052.364-1.5,1.265-2.753,5.2-2.753,5.2a4.709,4.709,0,0,1,2.534-2.253c-.03,6.012,2.407,11.888,6.686,13.638,6.258,2.558,6.208.606,12.5,4.78,0,0,1.688-2.094.537-3.5s-5.5-3.454-3.07-5.5,3.325.256,4.221-1.151-3.582-5.5,2.175-9.338S-2093.925,603.692-2094.437,600.239Z" transform="translate(2129.101 -544.574)" fill="#233862"/>
      </g>
      <g id="man" transform="translate(-2085.447 402.063)">
        <g id="Group_148501" data-name="Group 148501" transform="translate(183.899 168.901)">
          <path id="Path_259147" data-name="Path 259147" d="M-1805.473,728.169c-1.022,3.448-5.746,5.746-6.386,9.96a9.152,9.152,0,0,1-2.052,4.753h-14.706c.147-.81.792-1.682,2.7-2.1,4.084-.893,5.625-5.845,5.371-10.442a60.07,60.07,0,0,1,.038-6.025c.129-2.633.345-4.7.345-4.7l8.681-2.042.912,1.172.876,1.126S-1804.454,724.721-1805.473,728.169Z" transform="translate(1903.714 -566.773)" fill="#212e6e"/>
          <path id="Path_259148" data-name="Path 259148" d="M-1873.423,742.8h-29.754a5.967,5.967,0,0,1,3.75-1.867c4.58-.743,12.509-3.4,14.278-9.254.057-.187.11-.38.152-.576,1.4-6.256,11.62,1.916,11.62,1.916s.031.251.078.677C-1873.12,735.456-1872.723,740.235-1873.423,742.8Z" transform="translate(1903.177 -566.693)" fill="#212e6e"/>
          <path id="Path_259149" data-name="Path 259149" d="M-1898.246,578.14s1.551,19.357,3.374,42.623c2.479,31.607,5.459,70.43,5.754,77.785.51,12.771,2.555,33.2,2.555,33.2s4.849,4.854,14.555,2.808c0,0,8.65-29.163,11.12-60.018q.057-.76.116-1.525c2.3-31.411,5.872-97.554,5.872-97.554Z" transform="translate(1903.212 -567.798)" fill="#29398a"/>
          <path id="Path_259150" data-name="Path 259150" d="M-1898.246,578.14s1.551,19.357,3.374,42.623l33.985,53.775q.057-.76.116-1.525c2.3-31.411,5.872-97.554,5.872-97.554Z" transform="translate(1903.212 -567.798)" fill="#212e6e"/>
          <path id="Path_259151" data-name="Path 259151" d="M-1891.212,580.494s27.963,70.1,46.35,103.043,24.133,42.138,24.133,42.138,10.534-4.214,11.492-7.087c0,0-7.031-63.6-19.345-79.1-6.958-8.761-15.131-35.051-15.514-44.244s-2.49-27.389-2.49-27.389Z" transform="translate(1903.263 -567.853)" fill="#29398a"/>
        </g>
        <path id="Path_259152" data-name="Path 259152" d="M-1876.92,473.138a81.98,81.98,0,0,1-1.281-11.693l14.188-11.434c-.527,15.723,9.547,23.283,9.547,23.283s-18.906,9.307-29.834,5.86A26.155,26.155,0,0,1-1876.92,473.138Z" transform="translate(2087.212 -399.802)" fill="#935c2f"/>
        <path id="Path_259153" data-name="Path 259153" d="M-1881.538,461.32s18.049,3,19.743-8.27,5.165-18.472-6.288-20.863-14.343,1.572-15.823,5.2S-1886.19,460.249-1881.538,461.32Z" transform="translate(2087.207 -399.936)" fill="#a16d3c"/>
        <g id="Group_148502" data-name="Group 148502" transform="translate(123.641 77.708)">
          <path id="Path_259154" data-name="Path 259154" d="M-1944.37,484.216l-3.841-2.379a9.714,9.714,0,0,0-12.975-2.678s-3.242,2.066-1.067,3.8,1.591.752,4.6,3.259,6.914,3.4,9.428,2.02l3.226-.305Z" transform="translate(1963.004 -477.31)" fill="#ca8720"/>
          <path id="Path_259155" data-name="Path 259155" d="M-1949.029,484.961c.989-3.1,1.46-3.37,1.46-3.37s31.077,3.672,34.005,3.889,43.616-8.166,43.616-8.166l19.211,23.329s-56.641,2.135-64.054,1.441c-12.251-1.148-34.464-12.553-34.464-12.553A9.052,9.052,0,0,1-1949.029,484.961Z" transform="translate(1963.101 -477.313)" fill="#ca8720"/>
        </g>
        <path id="Path_259156" data-name="Path 259156" d="M-1844.391,572.15c.054,1.2-2.427,2.525-3.5,3.01-8.112,3.637-15.668,6.163-24.2,6.984-10.125,1.038-22.091-1.238-26.193-1.184a1.763,1.763,0,0,1-1.15-.436c-.273-.22-.494-12.587-.273-28.181,0-.6,0-1.261.053-1.863v-.216c.016-1.625.041-3.274.076-4.94.1-4.558.274-9.236.471-13.886.3-6.854.7-13.59,1.268-19.559a113.051,113.051,0,0,1,2.29-15.46c2.188-8.81,7.223-14.613,11.82-18.881l3.774-3.335a17.911,17.911,0,0,0,11.765-1.423c4.322-2.134,9.03-4.434,9.794-3.886,5.834,4.36,9.762,14.259,11.774,26.84a139.083,139.083,0,0,1,1.583,22.2q-.019,4.534-.28,9.186a302.034,302.034,0,0,0,.6,39.4C-1844.56,568.917-1844.43,570.83-1844.391,572.15Z" transform="translate(2087.1 -399.666)" fill="#fda929"/>
        <path id="Path_259157" data-name="Path 259157" d="M-1939.032,419.034l-114.147-18.128a8.9,8.9,0,0,0-10.184,7.392l-5.052,31.815a37.373,37.373,0,0,0,.139,5.615l4.115.612a5.41,5.41,0,0,0,.713.106h0a5.431,5.431,0,0,0,2.3-.312,23.425,23.425,0,0,1,12.242-1.005,23.59,23.59,0,0,1,19.142,25.564,23.525,23.525,0,0,1-27.088,20.8,23.412,23.412,0,0,1-12.71-6.367,3.713,3.713,0,0,0-2.227-1.052h0l-4.3-.646-5.361,38.809a8.775,8.775,0,0,0,7.29,10.043l32.608,5.179a4.109,4.109,0,0,1,2.7,6.45,23.412,23.412,0,0,0-4.084,9.982,23.56,23.56,0,0,0,25.237,27.157c7.967-.571,16.962-7.252,19.849-14.7a23.71,23.71,0,0,0,.53-16.015,3.982,3.982,0,0,1,4.422-5.149l32.811,5.21a8.771,8.771,0,0,0,10.039-7.287l18.148-114.271A8.57,8.57,0,0,0-1939.032,419.034Z" transform="translate(2085.79 -400.157)" fill="#29398a"/>
        <path id="Path_259158" data-name="Path 259158" d="M-1857.986,495.2s-8.75,40.832-41.6,49.928c.1-4.558.274-9.236.471-13.886.3-6.854.7-13.59,1.268-19.559a11.445,11.445,0,0,1,1.641-.7C-1885.059,507.307-1857.986,495.2-1857.986,495.2Z" transform="translate(2087.102 -399.476)" fill="#ca8720"/>
        <path id="Path_259159" data-name="Path 259159" d="M-2002.053,565.721a23.714,23.714,0,0,0,.53-16.016,3.982,3.982,0,0,1,4.422-5.149l32.811,5.211a8.772,8.772,0,0,0,10.039-7.287l18.148-114.272a8.569,8.569,0,0,0-7.119-9.807l-114.147-18.129a8.9,8.9,0,0,0-10.184,7.392l-5.052,31.816a5.478,5.478,0,0,0,7.263,6.02,23.424,23.424,0,0,1,12.241-1,23.589,23.589,0,0,1,19.143,25.563,23.524,23.524,0,0,1-27.089,20.8,23.411,23.411,0,0,1-12.71-6.367,3.754,3.754,0,0,0-6.331,2.094l-5.562,35.019a8.777,8.777,0,0,0,7.29,10.043l32.608,5.179a4.108,4.108,0,0,1,2.7,6.449,23.422,23.422,0,0,0-4.084,9.982A23.561,23.561,0,0,0-2021.9,580.42C-2013.935,579.849-2004.939,573.167-2002.053,565.721Z" transform="translate(2085.76 -400.161)" fill="#b3bad6"/>
        <g id="Group_148503" data-name="Group 148503" transform="translate(120.95 75.296)">
          <path id="Path_259160" data-name="Path 259160" d="M-1944.217,510.346l-4.694-.777a11.59,11.59,0,0,0-14.676-3.4s-3.7,2.069-1.252,4.006,1.794.868,5.182,3.668,7.8,3.917,10.662,2.548l3.659-.19Z" transform="translate(1965.675 -474.703)" fill="#a16d3c"/>
          <path id="Path_259161" data-name="Path 259161" d="M-1947.933,512.947c.152-3.454,1.991-3.822,1.991-3.822s35.552-2.351,38.618-2.946,31.383-24.055,31.383-24.055,10.95-9.841,18.622-6.521c6.667,2.886,8.754,8.579,9.089,13.815a15.211,15.211,0,0,1-8.784,14.718c-12.716,5.939-38.148,17.6-43.94,18.6-12.891,2.239-46.023-4.936-46.023-4.936A10.88,10.88,0,0,1-1947.933,512.947Z" transform="translate(1965.803 -474.918)" fill="#fda929"/>
        </g>
        <path id="Path_259162" data-name="Path 259162" d="M-1883.884,437.444s-7.326-5.433-2.548-13.873c0,0,5.763,1.911,13.95,0s15.512.8,16.468,3.662c0,0,3.185,1.275,3.5,6.052s-9.261,19.826-9.261,19.826-2.046-2.547-1.488-4.3,2.308-5.655.159-5.655-2.866,3.186-3.743,1.912.717-6.609-1.831-7.485S-1881.018,439.054-1883.884,437.444Z" transform="translate(2087.185 -399.997)" fill="#212e6e"/>
      </g>
      <g id="Group_148504" data-name="Group 148504" transform="translate(-1966.95 747.674)">
        <path id="Path_259163" data-name="Path 259163" d="M-1797.916,743.4h-32.215a5.479,5.479,0,0,0-4.806,8.118c1.947,3.523-4.9,34.051-19.332,34.847a23.5,23.5,0,0,1-24.8-23.49,23.407,23.407,0,0,1,4.295-13.551,3.754,3.754,0,0,0-3.061-5.924h-35.458a8.775,8.775,0,0,0-8.775,8.775s-3.214,38.058-5.946,36.693a23.4,23.4,0,0,0-9.273-2.435h-.031c-.4-.02-.794-.032-1.195-.032s-6.239-.1-6.239-.1l-.885,47.031,5.068.053c4.82-.143,9-.594,12.723-2.491a3.982,3.982,0,0,1,5.778,3.56v33.222a8.771,8.771,0,0,0,8.772,8.771h115.7a8.569,8.569,0,0,0,8.569-8.569V752.295A8.9,8.9,0,0,0-1797.916,743.4Z" transform="translate(1968.272 -743.297)" fill="#ca8721"/>
        <path id="Path_259164" data-name="Path 259164" d="M-1949.82,832.779a23.718,23.718,0,0,0,15.9-1.989,3.982,3.982,0,0,1,5.778,3.56v33.222a8.772,8.772,0,0,0,8.772,8.772h115.7a8.571,8.571,0,0,0,8.57-8.57V752.2a8.9,8.9,0,0,0-8.9-8.9h-32.215a5.479,5.479,0,0,0-4.806,8.118,23.439,23.439,0,0,1,2.913,11.933,23.59,23.59,0,0,1-22.245,22.914,23.524,23.524,0,0,1-24.794-23.489,23.408,23.408,0,0,1,4.294-13.552,3.754,3.754,0,0,0-3.061-5.924h-35.458a8.775,8.775,0,0,0-8.775,8.775V785.09a4.109,4.109,0,0,1-5.948,3.675,23.415,23.415,0,0,0-10.5-2.469,23.561,23.561,0,0,0-22.864,29.184C-1965.636,823.259-1957.627,831.1-1949.82,832.779Z" transform="translate(1968.11 -743.298)" fill="#fda929"/>
      </g>
      <path id="Path_259165" data-name="Path 259165" d="M-1898.034,876.082s-12.043-17.8-30.893-16.367c-5.728.436-15.038,1.832-25.849,3.319-8.155-28.456-30.633-96.1-60.949-99.908-30.962-3.89,29.628,71.34,54.4,100.791-4.518.594-9.211,1.176-13.948,1.691-13.118-14.006-35.978-34.757-55.065-33.162-19.136,1.6,16.69,21.383,42.549,34.325-15.867,1.188-30.909,1.057-40.1-2.5-22.515-8.7-43.207,11.81-43.207,11.81Z" transform="translate(0.418 4.518)" fill="#1fcb7d"/>
      <path id="Rectangle_293584" data-name="Rectangle 293584" d="M.79,0H337.552a.79.79,0,0,1,.79.79V3.073a.789.789,0,0,1-.789.789H.789A.789.789,0,0,1,0,3.073V.79A.79.79,0,0,1,.79,0Z" transform="translate(-2126.038 880.51)" fill="#2e3552"/>
    </g>
  </g>
</svg>
