<svg xmlns="http://www.w3.org/2000/svg" width="212" height="165.775" viewBox="0 0 212 165.775">
  <g id="Grupo_150226" data-name="Grupo 150226" transform="translate(-2973 -2927.63)">
    <g id="Grupo_146962" data-name="Grupo 146962" transform="translate(1859 1197.63)">
      <g id="surface1" transform="translate(814 1556.706)">
        <path id="Trazado_253778" data-name="Trazado 253778" d="M512,189.232V255.32c0,10.294-7.432,18.738-16.627,19.062-.176.005-.358.008-.539.008H317.166c-.181,0-.363,0-.539-.008-.09,0-.184-.008-.275-.018a15.388,15.388,0,0,1-4.451-.9c-6.885-2.481-11.9-9.695-11.9-18.148V189.232c0-8.8,6.424-15.938,14.348-15.938h183.3a14.111,14.111,0,0,1,12.258,7.649A17.249,17.249,0,0,1,512,189.232Z" fill="#2476ed"/>
        <path id="Trazado_253779" data-name="Trazado 253779" d="M512,189.232V255.32c0,10.294-7.432,18.738-16.627,19.062-.176.005-.358.008-.539.008H317.166c-.181,0-.363,0-.539-.008-.09,0-.184-.008-.275-.018a20.333,20.333,0,0,1-3.425-11.4V196.881c0-8.8,6.424-15.938,14.348-15.938H509.91A17.249,17.249,0,0,1,512,189.232Z" fill="#5596fb"/>
        <path id="Trazado_253780" data-name="Trazado 253780" d="M495.373,262.046v12.336c-.176.005-.358.008-.539.008H317.166c-.181,0-.363,0-.539-.008V262.046a11.958,11.958,0,0,1,.44-3.232,12.281,12.281,0,0,1,8.587-8.553,11.943,11.943,0,0,1,3.185-.425H483.161a11.943,11.943,0,0,1,3.185.425,12.281,12.281,0,0,1,8.587,8.553A11.958,11.958,0,0,1,495.373,262.046Z" fill="#4b5055"/>
        <path id="Trazado_253781" data-name="Trazado 253781" d="M339.241,282.037a3.233,3.233,0,0,0-3.232,3.232v12.118a4.97,4.97,0,0,1-4.966,4.965,11.442,11.442,0,0,0-11.428,11.429v22.057a3.232,3.232,0,0,0,6.463,0V313.781a4.973,4.973,0,0,1,4.965-4.966,11.44,11.44,0,0,0,11.429-11.428V285.269A3.232,3.232,0,0,0,339.241,282.037Z" fill="#d2d2d7"/>
        <path id="Trazado_253782" data-name="Trazado 253782" d="M365.944,282.037a3.232,3.232,0,0,0-3.231,3.232v12.118a4.971,4.971,0,0,1-4.966,4.965,11.443,11.443,0,0,0-11.429,11.429v22.057a3.232,3.232,0,0,0,6.464,0V313.781a4.972,4.972,0,0,1,4.965-4.966,11.44,11.44,0,0,0,11.429-11.428V285.269A3.232,3.232,0,0,0,365.944,282.037Z" fill="#d2d2d7"/>
        <path id="Trazado_253783" data-name="Trazado 253783" d="M392.648,282.037a3.233,3.233,0,0,0-3.232,3.232v12.118a4.97,4.97,0,0,1-4.965,4.965,11.442,11.442,0,0,0-11.429,11.429v22.057a3.231,3.231,0,0,0,6.463,0V313.781a4.973,4.973,0,0,1,4.966-4.966,11.441,11.441,0,0,0,11.429-11.428V285.269A3.232,3.232,0,0,0,392.648,282.037Z" fill="#d2d2d7"/>
        <path id="Trazado_253784" data-name="Trazado 253784" d="M419.352,282.037a3.232,3.232,0,0,0-3.232,3.232v12.118a4.97,4.97,0,0,1-4.965,4.965,11.442,11.442,0,0,0-11.429,11.429v22.057a3.231,3.231,0,0,0,6.463,0V313.781a4.972,4.972,0,0,1,4.966-4.966,11.441,11.441,0,0,0,11.429-11.428V285.269A3.233,3.233,0,0,0,419.352,282.037Z" fill="#d2d2d7"/>
        <path id="Trazado_253785" data-name="Trazado 253785" d="M446.056,282.037a3.232,3.232,0,0,0-3.232,3.232v12.118a4.97,4.97,0,0,1-4.965,4.965,11.442,11.442,0,0,0-11.429,11.429v22.057a3.232,3.232,0,0,0,6.463,0V313.781a4.972,4.972,0,0,1,4.966-4.966,11.44,11.44,0,0,0,11.428-11.428V285.269A3.232,3.232,0,0,0,446.056,282.037Z" fill="#d2d2d7"/>
        <path id="Trazado_253786" data-name="Trazado 253786" d="M472.759,282.037a3.232,3.232,0,0,0-3.231,3.232v12.118a4.97,4.97,0,0,1-4.966,4.965,11.44,11.44,0,0,0-11.428,11.429v22.057a3.231,3.231,0,0,0,6.463,0V313.781a4.972,4.972,0,0,1,4.965-4.966,11.44,11.44,0,0,0,11.429-11.428V285.269A3.233,3.233,0,0,0,472.759,282.037Z" fill="#d2d2d7"/>
        <path id="Trazado_253787" data-name="Trazado 253787" d="M494.933,258.814H463.126a3.232,3.232,0,1,0,0,6.463h32.247v-3.231A11.958,11.958,0,0,0,494.933,258.814Zm-44.733,0H317.067a11.958,11.958,0,0,0-.44,3.232v3.231H450.2a3.232,3.232,0,0,0,0-6.463Z" fill="#7d8287"/>
        <path id="Trazado_253788" data-name="Trazado 253788" d="M495.373,199.173a6.244,6.244,0,1,1-3.229-5.472A6.25,6.25,0,0,1,495.373,199.173Z" fill="#d63030"/>
        <path id="Trazado_253789" data-name="Trazado 253789" d="M470.809,199.173a6.248,6.248,0,1,1-6.248-6.248,6.244,6.244,0,0,1,6.248,6.248Z" fill="#d63030"/>
        <path id="Trazado_253790" data-name="Trazado 253790" d="M495.373,199.173a6.25,6.25,0,0,1-3.229,5.472,6.25,6.25,0,0,1,0-10.944A6.246,6.246,0,0,1,495.373,199.173Z" fill="#fb5858"/>
        <path id="Trazado_253791" data-name="Trazado 253791" d="M470.809,199.173a6.25,6.25,0,0,1-3.229,5.472,6.249,6.249,0,0,1,0-10.944A6.246,6.246,0,0,1,470.809,199.173Z" fill="#fb5858"/>
        <path id="Trazado_253792" data-name="Trazado 253792" d="M434.279,199.173a6.893,6.893,0,0,1-6.869,6.867H384.59a6.868,6.868,0,0,1,0-13.736h42.82A6.89,6.89,0,0,1,434.279,199.173Z" fill="#7af4ab"/>
        <path id="Trazado_253793" data-name="Trazado 253793" d="M434.279,199.173H391.9a6.886,6.886,0,0,1-6.868-6.869h42.38A6.89,6.89,0,0,1,434.279,199.173Z" fill="#a1ffbc"/>
      </g>
    </g>
  </g>
</svg>
