<svg xmlns="http://www.w3.org/2000/svg" xmlns:xlink="http://www.w3.org/1999/xlink" width="1333.006" height="758.005" viewBox="0 0 1333.006 758.005">
  <defs>
    <filter id="Ellipse_6148" x="158" y="290" width="138" height="138" filterUnits="userSpaceOnUse">
      <feOffset dy="3" input="SourceAlpha"/>
      <feGaussianBlur stdDeviation="3" result="blur"/>
      <feFlood flood-opacity="0.161"/>
      <feComposite operator="in" in2="blur"/>
      <feComposite in="SourceGraphic"/>
    </filter>
    <filter id="Ellipse_6151" x="988" y="175" width="138" height="138" filterUnits="userSpaceOnUse">
      <feOffset dy="3" input="SourceAlpha"/>
      <feGaussianBlur stdDeviation="3" result="blur-2"/>
      <feFlood flood-opacity="0.161"/>
      <feComposite operator="in" in2="blur-2"/>
      <feComposite in="SourceGraphic"/>
    </filter>
    <filter id="Ellipse_6150" x="711" y="305" width="138" height="138" filterUnits="userSpaceOnUse">
      <feOffset dy="3" input="SourceAlpha"/>
      <feGaussianBlur stdDeviation="3" result="blur-3"/>
      <feFlood flood-opacity="0.161"/>
      <feComposite operator="in" in2="blur-3"/>
      <feComposite in="SourceGraphic"/>
    </filter>
    <filter id="Ellipse_6149" x="436" y="175" width="138" height="138" filterUnits="userSpaceOnUse">
      <feOffset dy="3" input="SourceAlpha"/>
      <feGaussianBlur stdDeviation="3" result="blur-4"/>
      <feFlood flood-opacity="0.161"/>
      <feComposite operator="in" in2="blur-4"/>
      <feComposite in="SourceGraphic"/>
    </filter>
  </defs>
  <g id="info" transform="translate(-134 -1115)">
    <path id="Union_16" data-name="Union 16" d="M5411,12142.751v-388.7c53.166-4.988,181.182-3.982,350.387,84.938,197.684,103.881,415.7,163.583,636.239,91.785,178.342-58.057,283.9-87.221,346.38-101.4v313.373Z" transform="translate(-5277 -10269.746)" fill="#20cb7d" opacity="0.1"/>
    <path id="Path_259207" data-name="Path 259207" d="M76.2,133.593H-19.933L-68,216.848-19.933,300.1H76.2l48.067-83.255Z" transform="translate(377.806 1050.702)" fill="#e6d8ff" style="isolation: isolate"/>
    <path id="Path_259208" data-name="Path 259208" d="M-85.705,62.593h-76.863L-201,129.159l38.432,66.566h76.863l38.432-66.566Z" transform="translate(381 1052.407)" fill="#e6d8ff" style="isolation: isolate"/>
    <path id="Path_259209" data-name="Path 259209" d="M645.7,229h-59.73l-29.865,51.727,29.865,51.727H645.7l29.865-51.727Z" transform="translate(362.819 1048.411)" fill="#e6d8ff" style="isolation: isolate"/>
    <path id="Path_259210" data-name="Path 259210" d="M1036.705,166h-59.73l-29.865,51.727,29.865,51.727h59.73l29.865-51.727Z" transform="translate(353.43 1049.924)" fill="#e6d8ff" style="isolation: isolate"/>
    <path id="Path_259211" data-name="Path 259211" d="M384.062,510H307.428l-38.317,66.367,38.317,66.367h76.634l38.317-66.367Z" transform="translate(369.711 1041.663)" fill="#e6d8ff" style="isolation: isolate"/>
    <path id="Path_259212" data-name="Path 259212" d="M825.383,520H727.758l-48.813,84.546,48.813,84.546h97.626L874.2,604.546Z" transform="translate(359.87 1041.423)" fill="#e6d8ff" style="isolation: isolate"/>
    <line id="Line_441" data-name="Line 441" y2="140.054" transform="translate(638.322 1132.477)" fill="none" stroke="#e6d8ff" stroke-linecap="round" stroke-linejoin="round" stroke-width="5" stroke-dasharray="10 10"/>
    <line id="Line_442" data-name="Line 442" y2="140.054" transform="translate(1191.206 1132.477)" fill="none" stroke="#e7e6e6" stroke-linecap="round" stroke-linejoin="round" stroke-width="5" stroke-dasharray="10 10"/>
    <line id="Line_443" data-name="Line 443" y2="140.054" transform="translate(361.617 1658.534)" fill="none" stroke="#e6d8ff" stroke-linecap="round" stroke-linejoin="round" stroke-width="5" stroke-dasharray="10 10"/>
    <line id="Line_444" data-name="Line 444" y2="140.054" transform="translate(914.025 1658.534)" fill="none" stroke="#e6d8ff" stroke-linecap="round" stroke-linejoin="round" stroke-width="5" stroke-dasharray="10 10"/>
    <circle id="Ellipse_6097" data-name="Ellipse 6097" cx="14.152" cy="14.152" r="14.152" transform="translate(624.646 1118.325)" fill="#fda929" style="isolation: isolate"/>
    <circle id="Ellipse_6098" data-name="Ellipse 6098" cx="14.152" cy="14.152" r="14.152" transform="translate(1177.054 1118.325)" fill="#fda929" style="isolation: isolate"/>
    <circle id="Ellipse_6099" data-name="Ellipse 6099" cx="14.152" cy="14.152" r="14.152" transform="translate(347.465 1784.924)" fill="#fda929" style="isolation: isolate"/>
    <circle id="Ellipse_6100" data-name="Ellipse 6100" cx="14.152" cy="14.152" r="14.152" transform="translate(900.278 1784.924)" fill="#fda929" style="isolation: isolate"/>
    <g id="Group_150220" data-name="Group 150220">
      <path id="Path_259213" data-name="Path 259213" d="M56.609,341H-93.842l-75.225,130.294,75.225,130.294H56.609l75.225-130.294Z" transform="translate(380.067 1046)" fill="#20cb7d" opacity="0.8" style="isolation: isolate"/>
      <path id="Path_261779" data-name="Path 261779" d="M-6.18-9.3q0,4.609-2.07,7.109a7.154,7.154,0,0,1-5.836,2.5A7.193,7.193,0,0,1-19.961-2.2Q-22.039-4.719-22.039-9.3v-4.156q0-4.609,2.07-7.109a7.172,7.172,0,0,1,5.852-2.5,7.175,7.175,0,0,1,5.859,2.516q2.078,2.516,2.078,7.109Zm-5.266-4.828a8.114,8.114,0,0,0-.641-3.664A2.141,2.141,0,0,0-14.117-19a2.091,2.091,0,0,0-1.977,1.125,7.644,7.644,0,0,0-.664,3.406v5.813a8.175,8.175,0,0,0,.641,3.727,2.149,2.149,0,0,0,2.031,1.18A2.121,2.121,0,0,0-12.1-4.9a7.8,7.8,0,0,0,.656-3.6ZM8.227,0H2.945V-16.812L-2.242-15.3v-4L7.742-22.75h.484Zm10.2-5.109a3,3,0,0,1,2.078.742,2.435,2.435,0,0,1,.828,1.9,2.435,2.435,0,0,1-.828,1.9A3,3,0,0,1,18.43.172a2.972,2.972,0,0,1-2.086-.75,2.452,2.452,0,0,1-.82-1.891,2.452,2.452,0,0,1,.82-1.891A2.972,2.972,0,0,1,18.43-5.109Z" transform="translate(361 1574)" fill="#29398a"/>
      <path id="Path_261778" data-name="Path 261778" d="M3.535-1.533h6.738V0H1.65V-14.219H3.535ZM14.092,0H12.275V-10.566h1.816Zm.02-14.99H16.3l-2.617,2.871-1.455,0Zm4.668,4.424.059,1.328A3.85,3.85,0,0,1,22-10.762q3.35,0,3.379,3.779V0H23.574V-6.992a2.432,2.432,0,0,0-.522-1.689,2.094,2.094,0,0,0-1.6-.547,2.607,2.607,0,0,0-1.543.469,3.183,3.183,0,0,0-1.035,1.23V0H17.07V-10.566ZM32.49.2a4.617,4.617,0,0,1-3.5-1.411A5.237,5.237,0,0,1,27.646-4.99v-.332a6.341,6.341,0,0,1,.6-2.808,4.685,4.685,0,0,1,1.68-1.934,4.223,4.223,0,0,1,2.339-.7,3.957,3.957,0,0,1,3.2,1.357,5.877,5.877,0,0,1,1.143,3.887v.752H29.453a3.756,3.756,0,0,0,.913,2.524,2.87,2.87,0,0,0,2.222.962,3.147,3.147,0,0,0,1.621-.391,4.073,4.073,0,0,0,1.162-1.035l1.1.859A4.437,4.437,0,0,1,32.49.2Zm-.225-9.473a2.41,2.41,0,0,0-1.836.8,3.868,3.868,0,0,0-.918,2.231H34.8v-.137a3.441,3.441,0,0,0-.742-2.134A2.269,2.269,0,0,0,32.266-9.277ZM45.225,0a3.8,3.8,0,0,1-.254-1.113A4.031,4.031,0,0,1,41.963.2,3.73,3.73,0,0,1,39.4-.688a2.859,2.859,0,0,1-1-2.241,2.987,2.987,0,0,1,1.255-2.563,5.916,5.916,0,0,1,3.53-.913h1.758v-.83a2.029,2.029,0,0,0-.566-1.509,2.276,2.276,0,0,0-1.67-.562,2.634,2.634,0,0,0-1.621.488,1.439,1.439,0,0,0-.654,1.182H38.613a2.493,2.493,0,0,1,.562-1.528A3.832,3.832,0,0,1,40.7-10.332a5.125,5.125,0,0,1,2.114-.43,4.177,4.177,0,0,1,2.861.913,3.294,3.294,0,0,1,1.074,2.515v4.863a5.946,5.946,0,0,0,.371,2.314V0Zm-3-1.377a3.175,3.175,0,0,0,1.611-.439,2.658,2.658,0,0,0,1.1-1.143V-5.127H43.525q-3.32,0-3.32,1.943a1.645,1.645,0,0,0,.566,1.328A2.177,2.177,0,0,0,42.227-1.377Zm21.25-3.789a6.283,6.283,0,0,1-1.113,3.892A3.557,3.557,0,0,1,59.375.2a3.683,3.683,0,0,1-3.1-1.416L56.191,0h-1.66V-15h1.807v5.6a3.663,3.663,0,0,1,3.018-1.357,3.579,3.579,0,0,1,3.022,1.455,6.471,6.471,0,0,1,1.1,3.984ZM61.67-5.371a4.882,4.882,0,0,0-.713-2.852,2.36,2.36,0,0,0-2.051-1.006,2.652,2.652,0,0,0-2.568,1.66V-3a2.727,2.727,0,0,0,2.588,1.66,2.347,2.347,0,0,0,2.021-1.006A5.192,5.192,0,0,0,61.67-5.371ZM67.715,0H65.908V-15h1.807Zm9.414,0a3.8,3.8,0,0,1-.254-1.113A4.031,4.031,0,0,1,73.867.2,3.73,3.73,0,0,1,71.3-.688a2.859,2.859,0,0,1-1-2.241,2.987,2.987,0,0,1,1.255-2.563,5.916,5.916,0,0,1,3.53-.913h1.758v-.83a2.029,2.029,0,0,0-.566-1.509,2.276,2.276,0,0,0-1.67-.562,2.634,2.634,0,0,0-1.621.488,1.439,1.439,0,0,0-.654,1.182H70.518a2.493,2.493,0,0,1,.562-1.528A3.832,3.832,0,0,1,72.6-10.332a5.125,5.125,0,0,1,2.114-.43,4.177,4.177,0,0,1,2.861.913,3.294,3.294,0,0,1,1.074,2.515v4.863a5.946,5.946,0,0,0,.371,2.314V0Zm-3-1.377a3.175,3.175,0,0,0,1.611-.439,2.658,2.658,0,0,0,1.1-1.143V-5.127H75.43q-3.32,0-3.32,1.943a1.645,1.645,0,0,0,.566,1.328A2.177,2.177,0,0,0,74.131-1.377Zm9.063-9.189.059,1.328a3.85,3.85,0,0,1,3.164-1.523q3.35,0,3.379,3.779V0H87.988V-6.992a2.432,2.432,0,0,0-.522-1.689,2.094,2.094,0,0,0-1.6-.547,2.607,2.607,0,0,0-1.543.469,3.183,3.183,0,0,0-1.035,1.23V0H81.484V-10.566ZM96.758-1.279a2.6,2.6,0,0,0,1.689-.586,2.061,2.061,0,0,0,.8-1.465h1.709a3.276,3.276,0,0,1-.625,1.729A4.116,4.116,0,0,1,98.794-.293,4.438,4.438,0,0,1,96.758.2a4.353,4.353,0,0,1-3.433-1.44,5.737,5.737,0,0,1-1.274-3.94v-.3a6.361,6.361,0,0,1,.566-2.744A4.314,4.314,0,0,1,94.243-10.1a4.619,4.619,0,0,1,2.5-.664A4.238,4.238,0,0,1,99.7-9.7a3.8,3.8,0,0,1,1.255,2.764H99.248a2.49,2.49,0,0,0-.776-1.685,2.415,2.415,0,0,0-1.724-.659,2.529,2.529,0,0,0-2.134.991,4.655,4.655,0,0,0-.757,2.866v.342a4.562,4.562,0,0,0,.752,2.813A2.541,2.541,0,0,0,96.758-1.279ZM109.512,0a3.8,3.8,0,0,1-.254-1.113A4.031,4.031,0,0,1,106.25.2a3.73,3.73,0,0,1-2.563-.884,2.859,2.859,0,0,1-1-2.241,2.987,2.987,0,0,1,1.255-2.563,5.916,5.916,0,0,1,3.53-.913h1.758v-.83a2.029,2.029,0,0,0-.566-1.509,2.276,2.276,0,0,0-1.67-.562,2.634,2.634,0,0,0-1.621.488,1.439,1.439,0,0,0-.654,1.182H102.9a2.493,2.493,0,0,1,.562-1.528,3.832,3.832,0,0,1,1.523-1.167,5.125,5.125,0,0,1,2.114-.43,4.177,4.177,0,0,1,2.861.913,3.294,3.294,0,0,1,1.074,2.515v4.863a5.946,5.946,0,0,0,.371,2.314V0Zm-3-1.377a3.175,3.175,0,0,0,1.611-.439,2.658,2.658,0,0,0,1.1-1.143V-5.127h-1.416q-3.32,0-3.32,1.943a1.645,1.645,0,0,0,.566,1.328A2.177,2.177,0,0,0,106.514-1.377Z" transform="translate(300 1601)" fill="#29398a"/>
      <g transform="matrix(1, 0, 0, 1, 134, 1115)" filter="url(#Ellipse_6148)">
        <circle id="Ellipse_6148-2" data-name="Ellipse 6148" cx="60" cy="60" r="60" transform="translate(167 296)" fill="#fff"/>
      </g>
    </g>
    <g id="Group_148526" data-name="Group 148526" transform="translate(337 1426)">
      <path id="Path_259232" data-name="Path 259232" d="M.46,363.244c2.474.831,3.32,2.607,3.3,5.137-.072,8.025-.026,16.052-.027,24.078,0,1.784,0,1.784-1.758,1.977v1.25c.065.043.111.1.162.1,1.6.148,1.6.147,1.6,1.807,0,15.085-.02,30.171.019,45.256.007,2.682-.813,4.689-3.507,5.628-.173.06-.325.433-.334.666-.037.994-.023,1.991-.015,2.987.007.762-.327,1.125-1.117,1.113q-2.461-.034-4.922,0c-.785.01-1.124-.342-1.114-1.113.015-1.134,0-2.268,0-3.449H-33.317c0,1.149.008,2.254,0,3.359-.009.96-.24,1.189-1.2,1.194-1.611.007-3.222-.015-4.833.008-.788.011-1.126-.347-1.118-1.111.011-.967-.019-1.934.011-2.9a.757.757,0,0,0-.589-.884,4.593,4.593,0,0,1-3.24-4.354c-.025-.35-.015-.7-.015-1.054q0-22.628,0-45.256c0-1.727,0-1.727,1.747-1.941v-1.25c-.042-.029-.086-.085-.134-.089-1.612-.134-1.613-.134-1.613-1.769,0-8.085.047-16.17-.028-24.254-.024-2.536.831-4.3,3.3-5.136ZM2.153,397.4c-.859,0-1.585,0-2.311,0-13.851.017-27.7.05-41.554.018-.95,0-1.025.283-1.024,1.06q.027,22.4.015,44.8c0,2.563,1.18,3.753,3.759,3.77,1.64.011,3.279-.02,4.919-.02q16.209.009,32.417.019c2.615,0,3.778-1.2,3.778-3.843q0-22.356,0-44.712Zm0-4.645v-.951q0-11.9,0-23.8c0-2.3-.884-3.176-3.192-3.176H-39.518c-2.317,0-3.2.871-3.2,3.162q0,11.9,0,23.8v.965ZM.291,394.419H-40.845v1.332H.291Zm-35.253,57.2v-2.916h-3.857v2.916Zm29.355-2.947V451.6h3.862v-2.926Z" transform="translate(44.329 -363.244)" fill="#29398a"/>
      <path id="Path_259233" data-name="Path 259233" d="M-33.545,426.485q0,6.55,0,13.1c0,1.257-.2,1.447-1.47,1.454-.978.006-1.957-.018-2.935.007-.845.02-1.218-.392-1.223-1.2,0-.069,0-.14,0-.21q0-13.151-.008-26.3c0-.98.42-1.4,1.392-1.374.942.03,1.887,0,2.829.01,1.187.018,1.413.241,1.414,1.42Q-33.537,419.936-33.545,426.485Zm-1.972,12.62V413.84l-1.714.082v25.183Z" transform="translate(44.205 -375.005)" fill="#29398a"/>
      <path id="Path_259234" data-name="Path 259234" d="M-33.545,383.409c0,1.991-.026,3.982.011,5.971.019.989-.4,1.41-1.372,1.388-1.012-.023-2.025-.01-3.038,0a1.076,1.076,0,0,1-1.23-1.215q0-6.182,0-12.363a1.05,1.05,0,0,1,1.165-1.174c1.083-.013,2.166-.009,3.248,0,.874,0,1.234.455,1.222,1.324C-33.563,379.357-33.545,381.384-33.545,383.409Zm-1.982,5.423V377.971h-1.7v10.861Z" transform="translate(44.205 -363.55)" fill="#29398a"/>
    </g>
    <g id="Group_150191" data-name="Group 150191">
      <path id="Path_259216" data-name="Path 259216" d="M906.609,223H756.158L680.933,353.294l75.225,130.294H906.609l75.225-130.294Z" transform="translate(360.067 1049)" fill="#20cb7d" opacity="0.8" style="isolation: isolate"/>
      <path id="Path_261785" data-name="Path 261785" d="M-6.18-9.3q0,4.609-2.07,7.109a7.154,7.154,0,0,1-5.836,2.5A7.193,7.193,0,0,1-19.961-2.2Q-22.039-4.719-22.039-9.3v-4.156q0-4.609,2.07-7.109a7.172,7.172,0,0,1,5.852-2.5,7.175,7.175,0,0,1,5.859,2.516q2.078,2.516,2.078,7.109Zm-5.266-4.828a8.114,8.114,0,0,0-.641-3.664A2.141,2.141,0,0,0-14.117-19a2.091,2.091,0,0,0-1.977,1.125,7.644,7.644,0,0,0-.664,3.406v5.813a8.175,8.175,0,0,0,.641,3.727,2.149,2.149,0,0,0,2.031,1.18A2.121,2.121,0,0,0-12.1-4.9a7.8,7.8,0,0,0,.656-3.6ZM10.461-8.891h2.313v4.063H10.461V0H5.2V-4.828H-3.6l-.312-3.219L5.2-22.7v-.047h5.266Zm-9.359,0H5.2v-7l-.328.531ZM18.43-5.109a3,3,0,0,1,2.078.742,2.435,2.435,0,0,1,.828,1.9,2.435,2.435,0,0,1-.828,1.9A3,3,0,0,1,18.43.172a2.972,2.972,0,0,1-2.086-.75,2.452,2.452,0,0,1-.82-1.891,2.452,2.452,0,0,1,.82-1.891A2.972,2.972,0,0,1,18.43-5.109Z" transform="translate(1191 1446)" fill="#29398a"/>
      <path id="Path_261784" data-name="Path 261784" d="M-40.889-5.566V0h-1.875V-14.219h5.244a5.269,5.269,0,0,1,3.657,1.191,4.039,4.039,0,0,1,1.323,3.154,3.986,3.986,0,0,1-1.294,3.188,5.5,5.5,0,0,1-3.706,1.118Zm0-1.533h3.369a3.369,3.369,0,0,0,2.3-.709,2.593,2.593,0,0,0,.8-2.05,2.679,2.679,0,0,0-.8-2.035,3.156,3.156,0,0,0-2.2-.792h-3.477ZM-26.172.2a4.617,4.617,0,0,1-3.5-1.411A5.237,5.237,0,0,1-31.016-4.99v-.332a6.341,6.341,0,0,1,.6-2.808,4.685,4.685,0,0,1,1.68-1.934,4.223,4.223,0,0,1,2.339-.7,3.957,3.957,0,0,1,3.2,1.357,5.877,5.877,0,0,1,1.143,3.887v.752h-7.158A3.756,3.756,0,0,0-28.3-2.241a2.87,2.87,0,0,0,2.222.962,3.147,3.147,0,0,0,1.621-.391,4.073,4.073,0,0,0,1.162-1.035l1.1.859A4.437,4.437,0,0,1-26.172.2ZM-26.4-9.277a2.41,2.41,0,0,0-1.836.8A3.868,3.868,0,0,0-29.15-6.25h5.293v-.137A3.441,3.441,0,0,0-24.6-8.521,2.269,2.269,0,0,0-26.4-9.277Zm6,3.906a6.2,6.2,0,0,1,1.143-3.94,3.7,3.7,0,0,1,3.066-1.45A3.7,3.7,0,0,1-13.232-9.5l.078-1.064h1.66V4.063H-13.3V-.977A3.792,3.792,0,0,1-16.211.2a3.644,3.644,0,0,1-3.052-1.489A6.34,6.34,0,0,1-20.4-5.244Zm1.807.205a4.7,4.7,0,0,0,.767,2.852,2.438,2.438,0,0,0,2.065,1.035A2.705,2.705,0,0,0-13.3-2.705V-7.881a2.714,2.714,0,0,0-2.441-1.4,2.457,2.457,0,0,0-2.08,1.04A5.118,5.118,0,0,0-18.594-5.166ZM-2.07-1.045A3.837,3.837,0,0,1-5.166.2,3.285,3.285,0,0,1-7.739-.786a4.248,4.248,0,0,1-.894-2.905v-6.875h1.807V-3.74q0,2.4,1.953,2.4A2.7,2.7,0,0,0-2.119-2.881v-7.686H-.312V0H-2.031ZM6.816.2a4.617,4.617,0,0,1-3.5-1.411A5.237,5.237,0,0,1,1.973-4.99v-.332a6.341,6.341,0,0,1,.6-2.808,4.685,4.685,0,0,1,1.68-1.934,4.223,4.223,0,0,1,2.339-.7A3.957,3.957,0,0,1,9.795-9.4a5.877,5.877,0,0,1,1.143,3.887v.752H3.779a3.756,3.756,0,0,0,.913,2.524,2.87,2.87,0,0,0,2.222.962A3.147,3.147,0,0,0,8.535-1.67,4.073,4.073,0,0,0,9.7-2.705l1.1.859A4.437,4.437,0,0,1,6.816.2ZM6.592-9.277a2.41,2.41,0,0,0-1.836.8A3.868,3.868,0,0,0,3.838-6.25H9.131v-.137a3.441,3.441,0,0,0-.742-2.134A2.269,2.269,0,0,0,6.592-9.277Zm8.145-1.289.059,1.328a3.85,3.85,0,0,1,3.164-1.523q3.35,0,3.379,3.779V0H19.531V-6.992a2.432,2.432,0,0,0-.522-1.689,2.094,2.094,0,0,0-1.6-.547,2.607,2.607,0,0,0-1.543.469,3.183,3.183,0,0,0-1.035,1.23V0H13.027V-10.566Zm5.977-4.121a2.428,2.428,0,0,1-.6,1.709,1.951,1.951,0,0,1-1.5.654,2.2,2.2,0,0,1-.693-.1,3.741,3.741,0,0,1-.767-.4,3.32,3.32,0,0,0-.684-.366,1.673,1.673,0,0,0-.483-.063.9.9,0,0,0-.684.308,1.115,1.115,0,0,0-.283.786l-1.211-.068a2.549,2.549,0,0,1,.591-1.729,1.9,1.9,0,0,1,1.5-.684,1.821,1.821,0,0,1,.615.1,4.484,4.484,0,0,1,.742.381,4.367,4.367,0,0,0,.718.371,1.649,1.649,0,0,0,.552.088.874.874,0,0,0,.7-.332A1.165,1.165,0,0,0,19.5-14.8Zm2.871,9.307a6.241,6.241,0,0,1,.61-2.793,4.553,4.553,0,0,1,1.7-1.914,4.626,4.626,0,0,1,2.485-.674A4.456,4.456,0,0,1,31.87-9.268,5.748,5.748,0,0,1,33.2-5.293v.127A6.3,6.3,0,0,1,32.612-2.4,4.486,4.486,0,0,1,30.923-.488,4.679,4.679,0,0,1,28.4.2,4.445,4.445,0,0,1,24.917-1.3a5.719,5.719,0,0,1-1.333-3.955Zm1.816.215a4.52,4.52,0,0,0,.815,2.822A2.61,2.61,0,0,0,28.4-1.279a2.594,2.594,0,0,0,2.188-1.079A4.943,4.943,0,0,0,31.4-5.381,4.513,4.513,0,0,0,30.571-8.2a2.623,2.623,0,0,0-2.192-1.079,2.594,2.594,0,0,0-2.158,1.064A4.906,4.906,0,0,0,25.4-5.166ZM41.621-2.8a1.33,1.33,0,0,0-.552-1.138,5.311,5.311,0,0,0-1.924-.7,9.1,9.1,0,0,1-2.178-.7,3.1,3.1,0,0,1-1.191-.977,2.336,2.336,0,0,1-.386-1.348,2.741,2.741,0,0,1,1.1-2.2,4.291,4.291,0,0,1,2.808-.9,4.415,4.415,0,0,1,2.915.928A2.947,2.947,0,0,1,43.33-7.461H41.514a1.631,1.631,0,0,0-.63-1.279A2.36,2.36,0,0,0,39.3-9.277a2.47,2.47,0,0,0-1.543.43A1.353,1.353,0,0,0,37.2-7.725a1.1,1.1,0,0,0,.518.986,6.368,6.368,0,0,0,1.87.635,9.744,9.744,0,0,1,2.192.723A3.2,3.2,0,0,1,43.022-4.37a2.485,2.485,0,0,1,.405,1.44A2.7,2.7,0,0,1,42.295-.659,4.752,4.752,0,0,1,39.355.2a5.321,5.321,0,0,1-2.246-.449,3.653,3.653,0,0,1-1.528-1.255,3.025,3.025,0,0,1-.552-1.743h1.807a1.87,1.87,0,0,0,.728,1.44,2.822,2.822,0,0,0,1.792.532A2.913,2.913,0,0,0,41-1.694,1.275,1.275,0,0,0,41.621-2.8Zm-118.73,28a4.617,4.617,0,0,1-3.5-1.411,5.237,5.237,0,0,1-1.348-3.774v-.332a6.341,6.341,0,0,1,.6-2.808,4.685,4.685,0,0,1,1.68-1.934,4.223,4.223,0,0,1,2.339-.7,3.957,3.957,0,0,1,3.2,1.357,5.877,5.877,0,0,1,1.143,3.887v.752h-7.158a3.756,3.756,0,0,0,.913,2.524,2.87,2.87,0,0,0,2.222.962,3.147,3.147,0,0,0,1.621-.391,4.073,4.073,0,0,0,1.162-1.035l1.1.859A4.437,4.437,0,0,1-77.109,25.2Zm-.225-9.473a2.41,2.41,0,0,0-1.836.8,3.869,3.869,0,0,0-.918,2.231h5.293v-.137a3.441,3.441,0,0,0-.742-2.134A2.269,2.269,0,0,0-77.334,15.723Zm8.4,9.277h-1.807V10h1.807Zm7.275.2a4.617,4.617,0,0,1-3.5-1.411A5.237,5.237,0,0,1-66.5,20.01v-.332a6.341,6.341,0,0,1,.6-2.808,4.685,4.685,0,0,1,1.68-1.934,4.223,4.223,0,0,1,2.339-.7,3.957,3.957,0,0,1,3.2,1.357,5.877,5.877,0,0,1,1.143,3.887v.752H-64.7a3.756,3.756,0,0,0,.913,2.524,2.87,2.87,0,0,0,2.222.962,3.147,3.147,0,0,0,1.621-.391,4.073,4.073,0,0,0,1.162-1.035l1.1.859A4.437,4.437,0,0,1-61.66,25.2Zm-.225-9.473a2.41,2.41,0,0,0-1.836.8,3.869,3.869,0,0,0-.918,2.231h5.293v-.137a3.441,3.441,0,0,0-.742-2.134A2.269,2.269,0,0,0-61.885,15.723Zm10.674,8a2.6,2.6,0,0,0,1.689-.586,2.061,2.061,0,0,0,.8-1.465h1.709a3.276,3.276,0,0,1-.625,1.729,4.116,4.116,0,0,1-1.538,1.309,4.438,4.438,0,0,1-2.036.488,4.353,4.353,0,0,1-3.433-1.44,5.737,5.737,0,0,1-1.274-3.94v-.3a6.361,6.361,0,0,1,.566-2.744A4.314,4.314,0,0,1-53.726,14.9a4.619,4.619,0,0,1,2.5-.664A4.238,4.238,0,0,1-48.267,15.3a3.8,3.8,0,0,1,1.255,2.764h-1.709a2.49,2.49,0,0,0-.776-1.685,2.415,2.415,0,0,0-1.724-.659,2.529,2.529,0,0,0-2.134.991,4.655,4.655,0,0,0-.757,2.866v.342a4.562,4.562,0,0,0,.752,2.813A2.541,2.541,0,0,0-51.211,23.721Zm8.682-11.846v2.559h1.973v1.4h-1.973v6.561a1.467,1.467,0,0,0,.264.953,1.11,1.11,0,0,0,.9.318,4.374,4.374,0,0,0,.859-.117V25a5.268,5.268,0,0,1-1.387.194,2.25,2.25,0,0,1-1.826-.732,3.147,3.147,0,0,1-.615-2.08V15.83H-46.26v-1.4h1.924V11.875Zm9.189,4.18a5.414,5.414,0,0,0-.889-.068A2.381,2.381,0,0,0-36.641,17.5V25h-1.807V14.434h1.758l.029,1.221a2.813,2.813,0,0,1,2.52-1.416,1.846,1.846,0,0,1,.8.137Zm.986,3.564a6.241,6.241,0,0,1,.61-2.793,4.553,4.553,0,0,1,1.7-1.914,4.626,4.626,0,0,1,2.485-.674,4.456,4.456,0,0,1,3.491,1.494,5.748,5.748,0,0,1,1.333,3.975v.127a6.3,6.3,0,0,1-.591,2.769,4.486,4.486,0,0,1-1.689,1.909,4.679,4.679,0,0,1-2.524.684A4.445,4.445,0,0,1-31.021,23.7a5.719,5.719,0,0,1-1.333-3.955Zm1.816.215a4.52,4.52,0,0,0,.815,2.822,2.61,2.61,0,0,0,2.183,1.064,2.594,2.594,0,0,0,2.188-1.079,4.943,4.943,0,0,0,.811-3.022,4.513,4.513,0,0,0-.825-2.817,2.623,2.623,0,0,0-2.192-1.079,2.594,2.594,0,0,0-2.158,1.064A4.906,4.906,0,0,0-30.537,19.834Zm9.629-.205a6.19,6.19,0,0,1,1.152-3.911,3.644,3.644,0,0,1,3.018-1.479,3.665,3.665,0,0,1,2.939,1.27V10h1.807V25h-1.66l-.088-1.133A3.679,3.679,0,0,1-16.758,25.2a3.609,3.609,0,0,1-2.993-1.5,6.26,6.26,0,0,1-1.157-3.926Zm1.807.205a4.687,4.687,0,0,0,.742,2.813,2.4,2.4,0,0,0,2.051,1.016,2.636,2.636,0,0,0,2.51-1.543V17.266a2.656,2.656,0,0,0-2.49-1.494,2.411,2.411,0,0,0-2.07,1.025A5.16,5.16,0,0,0-19.1,19.834Zm9.434-.215a6.241,6.241,0,0,1,.61-2.793,4.553,4.553,0,0,1,1.7-1.914,4.626,4.626,0,0,1,2.485-.674,4.456,4.456,0,0,1,3.491,1.494A5.748,5.748,0,0,1-.049,19.707v.127A6.3,6.3,0,0,1-.64,22.6a4.486,4.486,0,0,1-1.689,1.909,4.679,4.679,0,0,1-2.524.684A4.445,4.445,0,0,1-8.335,23.7a5.719,5.719,0,0,1-1.333-3.955Zm1.816.215a4.52,4.52,0,0,0,.815,2.822,2.61,2.61,0,0,0,2.183,1.064,2.594,2.594,0,0,0,2.188-1.079,4.943,4.943,0,0,0,.811-3.022A4.513,4.513,0,0,0-2.681,16.8a2.623,2.623,0,0,0-2.192-1.079,2.594,2.594,0,0,0-2.158,1.064A4.906,4.906,0,0,0-7.852,19.834Zm11.768-5.4.049,1.172A3.9,3.9,0,0,1,7.1,14.238a3.021,3.021,0,0,1,3.018,1.7,4,4,0,0,1,1.372-1.23,4.052,4.052,0,0,1,2-.469q3.477,0,3.535,3.682V25H15.215V18.027a2.426,2.426,0,0,0-.518-1.694,2.279,2.279,0,0,0-1.738-.562,2.4,2.4,0,0,0-1.67.6,2.436,2.436,0,0,0-.771,1.616V25H8.7V18.076a2.016,2.016,0,0,0-2.256-2.3,2.417,2.417,0,0,0-2.432,1.514V25H2.207V14.434ZM24.131,25.2a4.617,4.617,0,0,1-3.5-1.411,5.237,5.237,0,0,1-1.348-3.774v-.332a6.341,6.341,0,0,1,.6-2.808,4.685,4.685,0,0,1,1.68-1.934,4.223,4.223,0,0,1,2.339-.7,3.957,3.957,0,0,1,3.2,1.357,5.877,5.877,0,0,1,1.143,3.887v.752H21.094a3.756,3.756,0,0,0,.913,2.524,2.87,2.87,0,0,0,2.222.962,3.147,3.147,0,0,0,1.621-.391,4.073,4.073,0,0,0,1.162-1.035l1.1.859A4.437,4.437,0,0,1,24.131,25.2Zm-.225-9.473a2.41,2.41,0,0,0-1.836.8,3.868,3.868,0,0,0-.918,2.231h5.293v-.137a3.441,3.441,0,0,0-.742-2.134A2.269,2.269,0,0,0,23.906,15.723ZM24.785,10h2.188l-2.617,2.871-1.455,0ZM36.494,22.2a1.33,1.33,0,0,0-.552-1.138,5.311,5.311,0,0,0-1.924-.7,9.1,9.1,0,0,1-2.178-.7,3.1,3.1,0,0,1-1.191-.977,2.336,2.336,0,0,1-.386-1.348,2.741,2.741,0,0,1,1.1-2.2,4.291,4.291,0,0,1,2.808-.9,4.415,4.415,0,0,1,2.915.928A2.947,2.947,0,0,1,38.2,17.539H36.387a1.631,1.631,0,0,0-.63-1.279,2.36,2.36,0,0,0-1.587-.537,2.47,2.47,0,0,0-1.543.43,1.353,1.353,0,0,0-.557,1.123,1.1,1.1,0,0,0,.518.986,6.368,6.368,0,0,0,1.87.635,9.744,9.744,0,0,1,2.192.723A3.2,3.2,0,0,1,37.9,20.63a2.485,2.485,0,0,1,.405,1.44,2.7,2.7,0,0,1-1.133,2.271,4.752,4.752,0,0,1-2.939.854,5.321,5.321,0,0,1-2.246-.449,3.653,3.653,0,0,1-1.528-1.255,3.025,3.025,0,0,1-.552-1.743h1.807a1.87,1.87,0,0,0,.728,1.44,2.822,2.822,0,0,0,1.792.532,2.913,2.913,0,0,0,1.646-.415A1.275,1.275,0,0,0,36.494,22.2Zm6.611-10.322v2.559h1.973v1.4H43.105v6.561a1.467,1.467,0,0,0,.264.953,1.11,1.11,0,0,0,.9.318,4.374,4.374,0,0,0,.859-.117V25a5.268,5.268,0,0,1-1.387.194,2.25,2.25,0,0,1-1.826-.732,3.147,3.147,0,0,1-.615-2.08V15.83H39.375v-1.4H41.3V11.875ZM49.15,25H47.344V14.434H49.15ZM47.2,11.631a1.078,1.078,0,0,1,.269-.742,1.008,1.008,0,0,1,.8-.3,1.024,1.024,0,0,1,.8.3,1.067,1.067,0,0,1,.273.742,1.032,1.032,0,0,1-.273.732,1.043,1.043,0,0,1-.8.293,1.026,1.026,0,0,1-.8-.293A1.043,1.043,0,0,1,47.2,11.631Zm9.082,12.09a2.6,2.6,0,0,0,1.689-.586,2.061,2.061,0,0,0,.8-1.465h1.709a3.276,3.276,0,0,1-.625,1.729,4.116,4.116,0,0,1-1.538,1.309,4.438,4.438,0,0,1-2.036.488,4.353,4.353,0,0,1-3.433-1.44,5.737,5.737,0,0,1-1.274-3.94v-.3a6.361,6.361,0,0,1,.566-2.744A4.314,4.314,0,0,1,53.765,14.9a4.619,4.619,0,0,1,2.5-.664A4.238,4.238,0,0,1,59.224,15.3a3.8,3.8,0,0,1,1.255,2.764H58.77a2.49,2.49,0,0,0-.776-1.685,2.415,2.415,0,0,0-1.724-.659,2.529,2.529,0,0,0-2.134.991,4.655,4.655,0,0,0-.757,2.866v.342a4.562,4.562,0,0,0,.752,2.813A2.541,2.541,0,0,0,56.279,23.721Zm5.752-4.1a6.241,6.241,0,0,1,.61-2.793,4.553,4.553,0,0,1,1.7-1.914,4.626,4.626,0,0,1,2.485-.674,4.456,4.456,0,0,1,3.491,1.494,5.748,5.748,0,0,1,1.333,3.975v.127A6.3,6.3,0,0,1,71.06,22.6a4.486,4.486,0,0,1-1.689,1.909,4.679,4.679,0,0,1-2.524.684A4.445,4.445,0,0,1,63.364,23.7a5.719,5.719,0,0,1-1.333-3.955Zm1.816.215a4.52,4.52,0,0,0,.815,2.822,2.763,2.763,0,0,0,4.37-.015,4.943,4.943,0,0,0,.811-3.022,4.513,4.513,0,0,0-.825-2.817,2.623,2.623,0,0,0-2.192-1.079,2.594,2.594,0,0,0-2.158,1.064A4.906,4.906,0,0,0,63.848,19.834ZM80.068,22.2a1.33,1.33,0,0,0-.552-1.138,5.311,5.311,0,0,0-1.924-.7,9.1,9.1,0,0,1-2.178-.7,3.1,3.1,0,0,1-1.191-.977,2.336,2.336,0,0,1-.386-1.348,2.741,2.741,0,0,1,1.1-2.2,4.291,4.291,0,0,1,2.808-.9,4.415,4.415,0,0,1,2.915.928,2.947,2.947,0,0,1,1.118,2.373H79.961a1.631,1.631,0,0,0-.63-1.279,2.36,2.36,0,0,0-1.587-.537,2.47,2.47,0,0,0-1.543.43,1.353,1.353,0,0,0-.557,1.123,1.1,1.1,0,0,0,.518.986,6.368,6.368,0,0,0,1.87.635,9.744,9.744,0,0,1,2.192.723A3.2,3.2,0,0,1,81.47,20.63a2.485,2.485,0,0,1,.405,1.44,2.7,2.7,0,0,1-1.133,2.271A4.752,4.752,0,0,1,77.8,25.2a5.321,5.321,0,0,1-2.246-.449,3.653,3.653,0,0,1-1.528-1.255,3.025,3.025,0,0,1-.552-1.743h1.807a1.87,1.87,0,0,0,.728,1.44,2.822,2.822,0,0,0,1.792.532,2.913,2.913,0,0,0,1.646-.415A1.275,1.275,0,0,0,80.068,22.2Z" transform="translate(1191 1473)" fill="#29398a"/>
      <g transform="matrix(1, 0, 0, 1, 134, 1115)" filter="url(#Ellipse_6151)">
        <circle id="Ellipse_6151-2" data-name="Ellipse 6151" cx="60" cy="60" r="60" transform="translate(997 181)" fill="#fff"/>
      </g>
      <g id="Group_148525" data-name="Group 148525" transform="translate(1153 1311)">
        <path id="Path_259231" data-name="Path 259231" d="M869.529,324.925c-.946-.913-1.873-1.848-2.85-2.726a2.807,2.807,0,0,0-.965-.359,5.217,5.217,0,0,1-1.812-.649c-1.619-1.482-3.169-3.045-4.672-4.646-1.781-1.9-2.011-4.247-.762-7.11a7,7,0,0,0-6.873-.894,9.422,9.422,0,0,0-2.955,1.975c-3.469,3.364-6.837,6.834-10.278,10.228a10.041,10.041,0,0,1-15.746-12.309c.14-.221.29-.436.464-.7-.273-.3-.552-.593-.816-.9a5,5,0,0,1,.147-6.793c1.271-1.337,2.61-2.609,3.9-3.933a2.385,2.385,0,0,0,.5-.879,41.163,41.163,0,0,1,1.329-3.979c4.022-8.676,8.1-17.326,12.166-25.984a3.092,3.092,0,0,1,.328-.617,1.216,1.216,0,0,1,1.555-.432,1.229,1.229,0,0,1,.762,1.5,4.812,4.812,0,0,1-.409.967q-5.977,12.751-11.958,25.5a9.9,9.9,0,0,0-1.13,6.445,16.483,16.483,0,0,0,.588,1.761l7.031-7.043a16.994,16.994,0,0,1-.768-2.2,6.61,6.61,0,0,1,6.03-8.033,1.047,1.047,0,0,0,1.019-.73q10-21.861,20.022-43.712c.1-.227.185-.464.326-.82-4.34,1.066-7.964,3.035-10.51,6.661a23.9,23.9,0,0,0-1.948,3.426c-1.89,3.959-3.724,7.943-5.584,11.917-.135.29-.232.708-.465.82-.459.221-1.1.492-1.481.327s-.631-.814-.761-1.3c-.073-.274.188-.654.335-.97,1.774-3.82,3.645-7.6,5.315-11.462,2.923-6.764,8.122-10.6,15.17-12.183a4.125,4.125,0,0,0,.487-.174h1.407c1.309.848,1.507,1.43.906,2.94-.453,1.138-.968,2.251-1.492,3.46.575.273,1.123.525,1.665.788a4.459,4.459,0,0,1,2.264,5.982q-4.607,10.194-9.319,20.341a4.462,4.462,0,0,1-6.138,2.2c-.5-.221-1.006-.45-1.591-.712l-6.207,13.538,3.355,3.359,13.54-6.2c-.273-.61-.517-1.138-.747-1.67a4.463,4.463,0,0,1,2.224-6.062q10.113-4.683,20.262-9.287a4.493,4.493,0,0,1,6.072,2.226c.257.522.5,1.054.782,1.666.766-.338,1.5-.673,2.242-.984a16.686,16.686,0,0,1,1.88-.724,1.682,1.682,0,0,1,2.267,1.691,8.244,8.244,0,0,1-.3,1.9c-1.625,6.775-5.449,11.725-11.93,14.555-3.672,1.6-7.271,3.371-10.9,5.063-.186.087-.37.177-.56.255a1.347,1.347,0,0,1-1.86-.6,1.324,1.324,0,0,1,.786-1.8c2.061-.978,4.136-1.926,6.2-2.892,2.173-1.015,4.356-2.009,6.511-3.063,4.95-2.419,7.765-6.506,9.082-11.743.013-.05-.019-.111-.046-.253-.7.313-1.376.615-2.052.925q-21.1,9.666-42.2,19.323a1.342,1.342,0,0,0-.927,1.258,6.666,6.666,0,0,1-9.814,5.257.951.951,0,0,0-.864.072c-2.221,2.168-4.407,4.371-6.671,6.634a5.421,5.421,0,0,0,3.066.916,11.3,11.3,0,0,0,5.236-1.28q11.289-5.274,22.583-10.537c1.273-.593,2.542-1.194,3.819-1.777a1.372,1.372,0,0,1,1.966.489c.365.734.047,1.469-.872,1.9q-13.476,6.3-26.964,12.564a12.339,12.339,0,0,1-2.823.934,3.739,3.739,0,0,0-2.152,1.19c-.956,1.029-1.976,2-2.974,2.992-2.368,2.357-5.173,2.426-7.63.19-.086-.078-.178-.147-.266-.219-1.349,1.355-1.837,4.594-.783,7.024a7.4,7.4,0,0,0,12.069,2.274c3.537-3.464,6.992-7.012,10.516-10.489a9.8,9.8,0,0,1,10.49-2.563c.958.305,1.783,1.182,2.734,1.308.911.121,1.895-.486,2.868-.606a5.683,5.683,0,0,1,4.874,1.723c1.435,1.423,2.85,2.867,4.295,4.281a2.373,2.373,0,0,1,.72,2.313.971.971,0,0,0,.229.726c.592.649,1.231,1.253,1.852,1.875,1.036,1.035,1.2,1.723.557,2.385s-1.4.517-2.446-.557c-.693-.709-1.351-1.453-2-2.153l-2.779,2.833c.7.658,1.5,1.376,2.269,2.127,1.091,1.07,1.092,1.655.055,2.705Zm-16.466-57.419c.633.3,1.151.567,1.69.784a1.889,1.889,0,0,0,2.572-.989c.253-.494.466-1.009.7-1.514q4.2-9.174,8.408-18.345c.4-.863.591-1.768-.166-2.432a12.816,12.816,0,0,0-2.292-1.316Zm35.756,1.119c-.186-.428-.339-.8-.508-1.167-.786-1.711-1.633-2.024-3.353-1.236q-3.471,1.588-6.939,3.18-6.261,2.869-12.521,5.742c-1.065.49-1.611,1.29-1.359,2.177a19.583,19.583,0,0,0,.91,2.2Zm-18.915,45.643c-1.342-1.363-2.7-2.823-4.145-4.183a3.221,3.221,0,0,0-4.4.023,3.139,3.139,0,0,0-.406,4.359c1.408,1.549,3.005,2.925,4.485,4.342Zm-31.141-24.462a4.039,4.039,0,1,0,3.976-4.075A4.042,4.042,0,0,0,838.764,289.805Zm-11.964,9.36c-.815.888-1.483,1.613-2.149,2.34a6.968,6.968,0,0,0-.526.587,2.3,2.3,0,0,0,.13,2.986c1.031,1.115,2.111,2.189,3.223,3.224a2.1,2.1,0,0,0,2.747.261c1.067-.823,2-1.823,3.079-2.831A8.787,8.787,0,0,1,826.8,299.165Z" transform="translate(-821.005 -234.925)" fill="#29398a"/>
      </g>
    </g>
    <g id="Group_150192" data-name="Group 150192">
      <path id="Path_259215" data-name="Path 259215" d="M622.609,357H472.158L396.933,487.294l75.225,130.294H622.609l75.225-130.294Z" transform="translate(367.067 1045)" fill="#20cb7d" opacity="0.8" style="isolation: isolate"/>
      <path id="Path_261782" data-name="Path 261782" d="M-6.18-9.3q0,4.609-2.07,7.109a7.154,7.154,0,0,1-5.836,2.5A7.193,7.193,0,0,1-19.961-2.2Q-22.039-4.719-22.039-9.3v-4.156q0-4.609,2.07-7.109a7.172,7.172,0,0,1,5.852-2.5,7.175,7.175,0,0,1,5.859,2.516q2.078,2.516,2.078,7.109Zm-5.266-4.828a8.114,8.114,0,0,0-.641-3.664A2.141,2.141,0,0,0-14.117-19a2.091,2.091,0,0,0-1.977,1.125,7.644,7.644,0,0,0-.664,3.406v5.813a8.175,8.175,0,0,0,.641,3.727,2.149,2.149,0,0,0,2.031,1.18A2.121,2.121,0,0,0-12.1-4.9a7.8,7.8,0,0,0,.656-3.6Zm12.813.547H3.852q2.953,0,2.953-2.891A2.5,2.5,0,0,0,6.1-18.3a2.666,2.666,0,0,0-1.984-.711,2.854,2.854,0,0,0-1.82.609,1.859,1.859,0,0,0-.773,1.516H-3.742a5.39,5.39,0,0,1,1-3.2,6.6,6.6,0,0,1,2.773-2.2,9.482,9.482,0,0,1,3.9-.789A9.317,9.317,0,0,1,9.9-21.344a5.766,5.766,0,0,1,2.172,4.766,4.806,4.806,0,0,1-.9,2.773,6.4,6.4,0,0,1-2.617,2.117A6.116,6.116,0,0,1,11.4-9.7a5.246,5.246,0,0,1,1.031,3.3,5.87,5.87,0,0,1-2.344,4.875A9.729,9.729,0,0,1,3.93.313,10.089,10.089,0,0,1-.219-.539,6.5,6.5,0,0,1-3.117-2.9,6.134,6.134,0,0,1-4.1-6.328H1.2a2.371,2.371,0,0,0,.844,1.813,2.979,2.979,0,0,0,2.078.766,3.12,3.12,0,0,0,2.219-.773A2.585,2.585,0,0,0,7.164-6.5,3.022,3.022,0,0,0,6.3-8.937,3.592,3.592,0,0,0,3.93-9.656H1.367ZM18.43-5.109a3,3,0,0,1,2.078.742,2.435,2.435,0,0,1,.828,1.9,2.435,2.435,0,0,1-.828,1.9A3,3,0,0,1,18.43.172a2.972,2.972,0,0,1-2.086-.75,2.452,2.452,0,0,1-.82-1.891,2.452,2.452,0,0,1,.82-1.891A2.972,2.972,0,0,1,18.43-5.109Z" transform="translate(914 1588)" fill="#29398a"/>
      <path id="Path_261783" data-name="Path 261783" d="M-39.624-1.533h6.738V0h-8.623V-14.219h1.885ZM-29.067,0h-1.816V-10.566h1.816Zm.02-14.99h2.188l-2.617,2.871-1.455,0Zm4.668,4.424.059,1.328a3.85,3.85,0,0,1,3.164-1.523q3.35,0,3.379,3.779V0h-1.807V-6.992a2.432,2.432,0,0,0-.522-1.689,2.094,2.094,0,0,0-1.6-.547,2.607,2.607,0,0,0-1.543.469,3.183,3.183,0,0,0-1.035,1.23V0h-1.807V-10.566ZM-10.669.2a4.617,4.617,0,0,1-3.5-1.411A5.237,5.237,0,0,1-15.513-4.99v-.332a6.341,6.341,0,0,1,.6-2.808,4.685,4.685,0,0,1,1.68-1.934,4.223,4.223,0,0,1,2.339-.7A3.957,3.957,0,0,1-7.69-9.4,5.877,5.877,0,0,1-6.548-5.518v.752h-7.158a3.756,3.756,0,0,0,.913,2.524,2.87,2.87,0,0,0,2.222.962A3.147,3.147,0,0,0-8.95-1.67,4.073,4.073,0,0,0-7.788-2.705l1.1.859A4.437,4.437,0,0,1-10.669.2Zm-.225-9.473a2.41,2.41,0,0,0-1.836.8,3.868,3.868,0,0,0-.918,2.231h5.293v-.137A3.441,3.441,0,0,0-9.1-8.521,2.269,2.269,0,0,0-10.894-9.277ZM2.065,0a3.8,3.8,0,0,1-.254-1.113A4.031,4.031,0,0,1-1.2.2,3.73,3.73,0,0,1-3.76-.688a2.859,2.859,0,0,1-1-2.241A2.987,2.987,0,0,1-3.506-5.493a5.916,5.916,0,0,1,3.53-.913H1.782v-.83a2.029,2.029,0,0,0-.566-1.509,2.276,2.276,0,0,0-1.67-.562,2.634,2.634,0,0,0-1.621.488,1.439,1.439,0,0,0-.654,1.182H-4.546a2.493,2.493,0,0,1,.562-1.528,3.832,3.832,0,0,1,1.523-1.167,5.125,5.125,0,0,1,2.114-.43,4.177,4.177,0,0,1,2.861.913A3.294,3.294,0,0,1,3.589-7.334v4.863A5.946,5.946,0,0,0,3.96-.156V0Zm-3-1.377A3.175,3.175,0,0,0,.679-1.816a2.658,2.658,0,0,0,1.1-1.143V-5.127H.366q-3.32,0-3.32,1.943a1.645,1.645,0,0,0,.566,1.328A2.177,2.177,0,0,0-.933-1.377ZM10.942-5.371A6.21,6.21,0,0,1,12.085-9.3a3.654,3.654,0,0,1,3.027-1.46A3.635,3.635,0,0,1,18.13-9.395l.088-1.172h1.65V-.254a4.3,4.3,0,0,1-1.216,3.232A4.487,4.487,0,0,1,15.386,4.16a5.435,5.435,0,0,1-2.236-.488,3.85,3.85,0,0,1-1.67-1.338l.938-1.084a3.533,3.533,0,0,0,2.842,1.436,2.768,2.768,0,0,0,2.056-.742,2.837,2.837,0,0,0,.737-2.09v-.908A3.713,3.713,0,0,1,15.093.2a3.609,3.609,0,0,1-3-1.494A6.529,6.529,0,0,1,10.942-5.371Zm1.816.205a4.738,4.738,0,0,0,.732,2.808,2.38,2.38,0,0,0,2.051,1.021,2.646,2.646,0,0,0,2.51-1.553V-7.715a2.677,2.677,0,0,0-2.49-1.514A2.4,2.4,0,0,0,13.5-8.2,5.16,5.16,0,0,0,12.759-5.166ZM27.7-8.945a5.414,5.414,0,0,0-.889-.068A2.381,2.381,0,0,0,24.4-7.5V0H22.593V-10.566h1.758l.029,1.221a2.813,2.813,0,0,1,2.52-1.416,1.846,1.846,0,0,1,.8.137ZM31.323,0H29.517V-10.566h1.807ZM29.37-13.369a1.078,1.078,0,0,1,.269-.742,1.008,1.008,0,0,1,.8-.3,1.024,1.024,0,0,1,.8.3,1.067,1.067,0,0,1,.273.742,1.032,1.032,0,0,1-.273.732,1.043,1.043,0,0,1-.8.293,1.026,1.026,0,0,1-.8-.293A1.043,1.043,0,0,1,29.37-13.369Zm11,10.566a1.33,1.33,0,0,0-.552-1.138,5.311,5.311,0,0,0-1.924-.7,9.1,9.1,0,0,1-2.178-.7,3.1,3.1,0,0,1-1.191-.977,2.336,2.336,0,0,1-.386-1.348,2.741,2.741,0,0,1,1.1-2.2,4.291,4.291,0,0,1,2.808-.9,4.415,4.415,0,0,1,2.915.928,2.947,2.947,0,0,1,1.118,2.373H40.259a1.631,1.631,0,0,0-.63-1.279,2.36,2.36,0,0,0-1.587-.537,2.47,2.47,0,0,0-1.543.43,1.353,1.353,0,0,0-.557,1.123,1.1,1.1,0,0,0,.518.986,6.368,6.368,0,0,0,1.87.635,9.744,9.744,0,0,1,2.192.723A3.2,3.2,0,0,1,41.768-4.37a2.485,2.485,0,0,1,.405,1.44A2.7,2.7,0,0,1,41.04-.659,4.752,4.752,0,0,1,38.1.2a5.321,5.321,0,0,1-2.246-.449,3.653,3.653,0,0,1-1.528-1.255,3.025,3.025,0,0,1-.552-1.743h1.807a1.87,1.87,0,0,0,.728,1.44,2.822,2.822,0,0,0,1.792.532,2.913,2.913,0,0,0,1.646-.415A1.275,1.275,0,0,0,40.366-2.8Z" transform="translate(914 1615)" fill="#29398a"/>
      <g transform="matrix(1, 0, 0, 1, 134, 1115)" filter="url(#Ellipse_6150)">
        <circle id="Ellipse_6150-2" data-name="Ellipse 6150" cx="60" cy="60" r="60" transform="translate(720 311)" fill="#fff"/>
      </g>
      <g id="Group_148523" data-name="Group 148523" transform="translate(869 1441)">
        <path id="Path_259217" data-name="Path 259217" d="M559.667,381a2.416,2.416,0,0,1,1.626,2.6c-.046,3.1-.015,6.207-.015,9.43.375.017.71.048,1.045.049,3.427,0,6.853,0,10.28,0,1.922,0,2.657.731,2.659,2.643q.009,7.162,0,14.325v1.1c.393-.2.671-.337.939-.49q7.438-4.23,14.877-8.464a6.243,6.243,0,0,1,1.187-.555,1.962,1.962,0,0,1,2.258.916,1.927,1.927,0,0,1-.335,2.411,5.346,5.346,0,0,1-1,.7q-8.576,4.9-17.167,9.764a1.264,1.264,0,0,0-.773,1.287c.042,2.428.016,4.858.016,7.442.379-.187.657-.307.919-.456q7.554-4.295,15.1-8.6a2.344,2.344,0,0,1,2.4-.294,1.978,1.978,0,0,1,.459,3.242,5.575,5.575,0,0,1-1.01.691q-8.543,4.868-17.1,9.708a1.34,1.34,0,0,0-.789,1.365q.034,17.358.015,34.715c0,1.8-.336,2.273-2.059,2.861,0,.5.026,1.021-.006,1.542a2.022,2.022,0,1,1-4.042-.028c-.027-.491,0-.985,0-1.534H527c-.116,1.087.251,2.319-.788,3.1a2.44,2.44,0,0,1-1.36.488c-1.331,0-1.747-.791-1.995-3.567-1.742-.673-2.014-1.078-2.014-3,0-8.467-.014-16.932.021-25.4a1.463,1.463,0,0,0-.943-1.527q-6.744-3.486-13.43-7.079a8.722,8.722,0,0,1-1.667-1.579V403.152a2.426,2.426,0,0,1,2.6-1.627c4.128.04,8.257.015,12.385.015h1.038V400.5c0-3.279-.009-6.56,0-9.839a9.43,9.43,0,0,1,3.566-7.588A11.226,11.226,0,0,1,529.081,381Zm-20.736,82.217v-1.1q0-12.217,0-24.435c0-2.321.6-2.933,2.9-2.933h29.295V405.6c-1.016,0-1.976,0-2.937,0a24.09,24.09,0,0,1-2.544-.049,1.961,1.961,0,0,1-1.833-2.083,2,2,0,0,1,2.017-1.916c.614-.035,1.23-.014,1.845-.015,1.135,0,2.269,0,3.455,0V397.2H525v4.335h1.132q15.334,0,30.67,0a8.392,8.392,0,0,1,1.14.043,1.993,1.993,0,0,1,1.734,1.913,1.942,1.942,0,0,1-1.525,1.981,5.833,5.833,0,0,1-1.3.121q-15.422.01-30.845.006h-1.028v57.612ZM520.8,405.66H508.934a3.476,3.476,0,0,0-.046.386c0,6.819-.012,13.639.021,20.459a1.265,1.265,0,0,0,.6.894c3.526,1.9,7.074,3.75,10.619,5.612.2.1.414.176.67.283Zm4.158-12.745H557.14V385.1a3.25,3.25,0,0,0-.332-.041q-13.213,0-26.425,0a5.374,5.374,0,0,0-3.624,1.335C524.726,388.173,524.849,390.515,524.957,392.915Zm18.083,51.232h28.08v-5.274H543.04Zm28.1,4.222H543.07v5.322h28.069Zm-28.088,9.483v5.359H571.1v-5.359Z" transform="translate(-504.825 -381)" fill="#29398a"/>
      </g>
    </g>
    <g id="Group_150193" data-name="Group 150193">
      <path id="Path_259214" data-name="Path 259214" d="M340.609,223H190.158L114.933,353.294l75.225,130.294H340.609l75.225-130.294Z" transform="translate(373.067 1048.555)" fill="#20cb7d" opacity="0.8" style="isolation: isolate"/>
      <path id="Path_261780" data-name="Path 261780" d="M-6.18-9.3q0,4.609-2.07,7.109a7.154,7.154,0,0,1-5.836,2.5A7.193,7.193,0,0,1-19.961-2.2Q-22.039-4.719-22.039-9.3v-4.156q0-4.609,2.07-7.109a7.172,7.172,0,0,1,5.852-2.5,7.175,7.175,0,0,1,5.859,2.516q2.078,2.516,2.078,7.109Zm-5.266-4.828a8.114,8.114,0,0,0-.641-3.664A2.141,2.141,0,0,0-14.117-19a2.091,2.091,0,0,0-1.977,1.125,7.644,7.644,0,0,0-.664,3.406v5.813a8.175,8.175,0,0,0,.641,3.727,2.149,2.149,0,0,0,2.031,1.18A2.121,2.121,0,0,0-12.1-4.9a7.8,7.8,0,0,0,.656-3.6ZM12.43,0H-3.445V-3.437l7.313-7.687q2.7-3.078,2.7-4.891A3.4,3.4,0,0,0,5.93-18.25a2.287,2.287,0,0,0-1.859-.766,2.316,2.316,0,0,0-1.953,1.023,4.206,4.206,0,0,0-.75,2.555H-3.914A7.471,7.471,0,0,1-2.867-19.3,7.341,7.341,0,0,1,.039-22.078a8.633,8.633,0,0,1,4.156-1,8.493,8.493,0,0,1,5.68,1.7,6.08,6.08,0,0,1,1.992,4.891,7.1,7.1,0,0,1-.5,2.617A11.477,11.477,0,0,1,9.813-11.2a39.163,39.163,0,0,1-3.4,3.742L3.477-4.062H12.43Zm6-5.109a3,3,0,0,1,2.078.742,2.435,2.435,0,0,1,.828,1.9,2.435,2.435,0,0,1-.828,1.9A3,3,0,0,1,18.43.172a2.972,2.972,0,0,1-2.086-.75,2.452,2.452,0,0,1-.82-1.891,2.452,2.452,0,0,1,.82-1.891A2.972,2.972,0,0,1,18.43-5.109Z" transform="translate(639 1458)" fill="#29398a"/>
      <path id="Path_261781" data-name="Path 261781" d="M-55.142-1.533H-48.4V0h-8.623V-14.219h1.885ZM-44.585,0H-46.4V-10.566h1.816Zm.02-14.99h2.188L-45-12.119l-1.455,0Zm4.668,4.424.059,1.328a3.851,3.851,0,0,1,3.164-1.523q3.35,0,3.379,3.779V0H-35.1V-6.992a2.432,2.432,0,0,0-.522-1.689,2.094,2.094,0,0,0-1.6-.547,2.607,2.607,0,0,0-1.543.469A3.183,3.183,0,0,0-39.8-7.529V0h-1.807V-10.566ZM-26.187.2a4.617,4.617,0,0,1-3.5-1.411A5.237,5.237,0,0,1-31.03-4.99v-.332a6.341,6.341,0,0,1,.6-2.808,4.685,4.685,0,0,1,1.68-1.934,4.223,4.223,0,0,1,2.339-.7,3.957,3.957,0,0,1,3.2,1.357,5.877,5.877,0,0,1,1.143,3.887v.752h-7.158a3.756,3.756,0,0,0,.913,2.524,2.87,2.87,0,0,0,2.222.962,3.147,3.147,0,0,0,1.621-.391,4.073,4.073,0,0,0,1.162-1.035l1.1.859A4.437,4.437,0,0,1-26.187.2Zm-.225-9.473a2.41,2.41,0,0,0-1.836.8,3.868,3.868,0,0,0-.918,2.231h5.293v-.137a3.441,3.441,0,0,0-.742-2.134A2.269,2.269,0,0,0-26.411-9.277ZM-13.452,0a3.8,3.8,0,0,1-.254-1.113A4.031,4.031,0,0,1-16.714.2a3.73,3.73,0,0,1-2.563-.884,2.859,2.859,0,0,1-1-2.241,2.987,2.987,0,0,1,1.255-2.563,5.916,5.916,0,0,1,3.53-.913h1.758v-.83A2.029,2.029,0,0,0-14.3-8.745a2.276,2.276,0,0,0-1.67-.562,2.634,2.634,0,0,0-1.621.488,1.439,1.439,0,0,0-.654,1.182h-1.816A2.493,2.493,0,0,1-19.5-9.165a3.832,3.832,0,0,1,1.523-1.167,5.125,5.125,0,0,1,2.114-.43A4.177,4.177,0,0,1-13-9.849a3.294,3.294,0,0,1,1.074,2.515v4.863a5.946,5.946,0,0,0,.371,2.314V0Zm-3-1.377a3.175,3.175,0,0,0,1.611-.439,2.658,2.658,0,0,0,1.1-1.143V-5.127h-1.416q-3.32,0-3.32,1.943a1.645,1.645,0,0,0,.566,1.328A2.177,2.177,0,0,0-16.45-1.377Zm14-9.189L-2.4-9.395A3.9,3.9,0,0,1,.737-10.762a3.021,3.021,0,0,1,3.018,1.7,4,4,0,0,1,1.372-1.23,4.052,4.052,0,0,1,2-.469q3.477,0,3.535,3.682V0H8.853V-6.973a2.426,2.426,0,0,0-.518-1.694A2.279,2.279,0,0,0,6.6-9.229a2.4,2.4,0,0,0-1.67.6,2.436,2.436,0,0,0-.771,1.616V0H2.339V-6.924a2.016,2.016,0,0,0-2.256-2.3A2.417,2.417,0,0,0-2.349-7.715V0H-4.155V-10.566ZM19.907,0a3.8,3.8,0,0,1-.254-1.113A4.031,4.031,0,0,1,16.646.2a3.73,3.73,0,0,1-2.563-.884,2.859,2.859,0,0,1-1-2.241,2.987,2.987,0,0,1,1.255-2.563,5.916,5.916,0,0,1,3.53-.913h1.758v-.83a2.029,2.029,0,0,0-.566-1.509,2.276,2.276,0,0,0-1.67-.562,2.634,2.634,0,0,0-1.621.488,1.439,1.439,0,0,0-.654,1.182H13.3a2.493,2.493,0,0,1,.562-1.528,3.832,3.832,0,0,1,1.523-1.167,5.125,5.125,0,0,1,2.114-.43,4.177,4.177,0,0,1,2.861.913,3.294,3.294,0,0,1,1.074,2.515v4.863A5.946,5.946,0,0,0,21.8-.156V0Zm-3-1.377a3.175,3.175,0,0,0,1.611-.439,2.658,2.658,0,0,0,1.1-1.143V-5.127H18.208q-3.32,0-3.32,1.943a1.645,1.645,0,0,0,.566,1.328A2.177,2.177,0,0,0,16.909-1.377ZM29.37-8.945a5.414,5.414,0,0,0-.889-.068A2.381,2.381,0,0,0,26.069-7.5V0H24.263V-10.566h1.758l.029,1.221a2.813,2.813,0,0,1,2.52-1.416,1.846,1.846,0,0,1,.8.137Zm6.768,0a5.414,5.414,0,0,0-.889-.068A2.381,2.381,0,0,0,32.837-7.5V0H31.03V-10.566h1.758l.029,1.221a2.813,2.813,0,0,1,2.52-1.416,1.846,1.846,0,0,1,.8.137Zm.986,3.564a6.241,6.241,0,0,1,.61-2.793,4.553,4.553,0,0,1,1.7-1.914,4.626,4.626,0,0,1,2.485-.674A4.456,4.456,0,0,1,45.41-9.268a5.748,5.748,0,0,1,1.333,3.975v.127A6.3,6.3,0,0,1,46.152-2.4,4.486,4.486,0,0,1,44.463-.488,4.679,4.679,0,0,1,41.938.2,4.445,4.445,0,0,1,38.457-1.3a5.719,5.719,0,0,1-1.333-3.955Zm1.816.215a4.52,4.52,0,0,0,.815,2.822,2.61,2.61,0,0,0,2.183,1.064,2.594,2.594,0,0,0,2.188-1.079,4.943,4.943,0,0,0,.811-3.022A4.513,4.513,0,0,0,44.111-8.2a2.623,2.623,0,0,0-2.192-1.079,2.594,2.594,0,0,0-2.158,1.064A4.906,4.906,0,0,0,38.94-5.166ZM42.739-15h2.188L42.31-12.129l-1.455,0Zm7.979,4.434.059,1.328a3.851,3.851,0,0,1,3.164-1.523q3.35,0,3.379,3.779V0H55.513V-6.992a2.432,2.432,0,0,0-.522-1.689,2.094,2.094,0,0,0-1.6-.547,2.607,2.607,0,0,0-1.543.469,3.183,3.183,0,0,0-1.035,1.23V0H49.009V-10.566Z" transform="translate(639 1485)" fill="#29398a"/>
      <g transform="matrix(1, 0, 0, 1, 134, 1115)" filter="url(#Ellipse_6149)">
        <circle id="Ellipse_6149-2" data-name="Ellipse 6149" cx="60" cy="60" r="60" transform="translate(445 181)" fill="#fff"/>
      </g>
      <g id="Group_148524" data-name="Group 148524" transform="translate(599 1316)">
        <path id="Path_259218" data-name="Path 259218" d="M294.279,285.832c-.631,1.6-1.821,2.119-3.514,2.112-10.589-.047-21.178-.024-31.768-.024h-1.073v3.944c.249.012.522.035.8.035,2.2,0,4.392,0,6.589,0,.975,0,1.526.45,1.5,1.192-.022.717-.558,1.15-1.487,1.151q-11.217.008-22.434,0c-.929,0-1.464-.434-1.485-1.152-.022-.742.529-1.189,1.5-1.192,2.17-.007,4.34,0,6.511,0h.891v-3.981H249.3c-10.616,0-21.232-.023-31.847.023-1.691.007-2.886-.5-3.514-2.111V244.017c.7-1.6,1.935-2.063,3.636-2.061q36.534.055,73.067,0c1.7,0,2.941.462,3.636,2.06Zm-2.354-7.036v-.874q0-16.286,0-32.573c0-1.017,0-1.018-1.066-1.018H217.348c-1.053,0-1.054,0-1.054,1.029q0,16.287,0,32.573v.863h.972q7.453,0,14.907.006c.334,0,.777-.039.975.146.323.3.7.8.657,1.165s-.541.726-.909,1c-.173.126-.508.037-.768.037q-7.454,0-14.907,0h-.927v3.262c0,1.162,0,1.163,1.155,1.163H290.8a1.587,1.587,0,0,0,.62-.023c.2-.091.473-.3.478-.468.039-1.293.022-2.588.022-3.934h-52.97a8.105,8.105,0,0,1-.862-.013,1.154,1.154,0,0,1-.152-2.276,4.333,4.333,0,0,1,1.013-.057q25.93,0,51.858,0Zm-36.451,9.187h-2.705v3.86h2.705Z" transform="translate(-213.94 -241.956)" fill="#29398a"/>
        <path id="Path_259219" data-name="Path 259219" d="M233.6,343.077c-2.21-.929-2.729-1.723-2.729-4.182q0-7.986,0-15.972c0-2.649,1.3-3.944,3.934-3.944h33.574a4.162,4.162,0,0,1,.86.031,1.1,1.1,0,0,1,.972,1.221,1.072,1.072,0,0,1-1.037,1.078,7.378,7.378,0,0,1-.862.018H234.9c-1.449,0-1.67.222-1.67,1.686q0,8.064,0,16.128c0,1.346.246,1.585,1.609,1.585h48.322c1.391,0,1.624-.235,1.624-1.643q0-8.1,0-16.207c0-1.277-.277-1.549-1.567-1.549h-8c-.209,0-.42.007-.628-.007a1.136,1.136,0,0,1-1.18-1.109,1.122,1.122,0,0,1,1.152-1.219c3.164-.021,6.329-.066,9.491.023a3.2,3.2,0,0,1,3.074,3.26q.035,8.768,0,17.537c-.009,1.758-1.14,2.7-2.678,3.263Z" transform="translate(-218.538 -262.869)" fill="#29398a"/>
        <path id="Path_259220" data-name="Path 259220" d="M291.5,340.281c0-.5-.014-.991,0-1.487a1.881,1.881,0,0,1,1.9-1.969c1.071-.037,2.145-.039,3.215,0a1.792,1.792,0,0,1,1.831,1.777,31.5,31.5,0,0,1-.007,3.44,1.719,1.719,0,0,1-1.714,1.712,29.735,29.735,0,0,1-3.447.005,1.827,1.827,0,0,1-1.781-1.914C291.482,341.326,291.5,340.8,291.5,340.281Zm4.578,1.119v-2.17H293.9v2.17Z" transform="translate(-235.001 -267.712)" fill="#29398a"/>
        <path id="Path_259221" data-name="Path 259221" d="M294.966,331.625c-.5,0-.994.01-1.49,0a1.877,1.877,0,0,1-1.973-1.892c-.034-1.068-.035-2.139,0-3.208a1.791,1.791,0,0,1,1.777-1.822c1.121-.054,2.248-.052,3.369-.005a1.726,1.726,0,0,1,1.79,1.715,30.425,30.425,0,0,1,0,3.439,1.808,1.808,0,0,1-1.911,1.772C296.012,331.638,295.488,331.625,294.966,331.625Zm-1.094-2.407h2.2v-2.134h-2.2Z" transform="translate(-234.997 -264.416)" fill="#29398a"/>
        <path id="Path_259222" data-name="Path 259222" d="M266.719,340.29c0-.522-.018-1.044,0-1.565a1.869,1.869,0,0,1,1.888-1.9c1.07-.038,2.144-.039,3.214,0a1.807,1.807,0,0,1,1.846,1.845c.047,1.093.047,2.192,0,3.285a1.774,1.774,0,0,1-1.791,1.811,31.8,31.8,0,0,1-3.292.005,1.858,1.858,0,0,1-1.866-2C266.707,341.282,266.717,340.786,266.719,340.29Zm2.387,1.153c.625,0,1.219.028,1.807-.02a.591.591,0,0,0,.4-.4c.048-.586.02-1.179.02-1.8h-2.231Z" transform="translate(-228.271 -267.712)" fill="#29398a"/>
        <path id="Path_259223" data-name="Path 259223" d="M286.086,340.34c0,.522.017,1.044-.005,1.565a1.773,1.773,0,0,1-1.676,1.836,28.271,28.271,0,0,1-3.6,0,1.715,1.715,0,0,1-1.66-1.758c-.044-1.12-.046-2.244,0-3.363a1.8,1.8,0,0,1,1.81-1.794c1.1-.044,2.2-.045,3.293,0a1.862,1.862,0,0,1,1.837,1.945C286.1,339.3,286.087,339.819,286.086,340.34Zm-4.574,1.053h2.164v-2.182h-2.164Z" transform="translate(-231.638 -267.712)" fill="#29398a"/>
        <path id="Path_259224" data-name="Path 259224" d="M282.546,331.624c-.548,0-1.1.028-1.646-.006a1.762,1.762,0,0,1-1.74-1.687c-.056-1.2-.055-2.4,0-3.6a1.662,1.662,0,0,1,1.62-1.616c1.2-.06,2.4-.063,3.6,0a1.735,1.735,0,0,1,1.687,1.734c.042,1.12.042,2.244,0,3.364a1.843,1.843,0,0,1-1.884,1.81c-.548.02-1.1,0-1.646,0Zm1.131-2.387v-2.16h-2.163v2.16Z" transform="translate(-231.641 -264.419)" fill="#29398a"/>
        <path id="Path_259225" data-name="Path 259225" d="M266.719,328.117c0-.522-.019-1.045,0-1.565a1.8,1.8,0,0,1,1.752-1.845c1.147-.057,2.3-.056,3.447,0a1.726,1.726,0,0,1,1.742,1.76c.052,1.118.053,2.244,0,3.362a1.794,1.794,0,0,1-1.884,1.8q-1.567.036-3.136,0a1.872,1.872,0,0,1-1.923-1.939C266.7,329.16,266.719,328.638,266.719,328.117Zm4.593-1.037h-2.2v2.147h2.2Z" transform="translate(-228.271 -264.417)" fill="#29398a"/>
        <path id="Path_259226" data-name="Path 259226" d="M245.161,334.222a3.437,3.437,0,0,1,3.467-3.408,3.431,3.431,0,0,1-.053,6.863A3.42,3.42,0,0,1,245.161,334.222Zm3.4-1.054a1.094,1.094,0,0,0-1.039,1.144,1.078,1.078,0,0,0,1.088,1.01,1.091,1.091,0,0,0,1.048-1.138A1.108,1.108,0,0,0,248.558,333.168Z" transform="translate(-222.419 -266.087)" fill="#29398a"/>
        <path id="Path_259227" data-name="Path 259227" d="M251.949,325.9c-.017,1.05-.717,1.621-1.467,1.412a6.73,6.73,0,0,0-3.7,0,1.124,1.124,0,0,1-1.408-.79,1.139,1.139,0,0,1,.758-1.437,7.475,7.475,0,0,1,4.916,0C251.459,325.225,251.752,325.713,251.949,325.9Z" transform="translate(-222.463 -264.417)" fill="#29398a"/>
        <path id="Path_259228" data-name="Path 259228" d="M240.163,331.008c1.054-.028,1.643.612,1.444,1.4a7.255,7.255,0,0,0,0,3.772,1.1,1.1,0,0,1-.82,1.388,1.144,1.144,0,0,1-1.407-.807,7.124,7.124,0,0,1,.015-4.9C239.542,331.47,239.994,331.189,240.163,331.008Z" transform="translate(-220.733 -266.14)" fill="#29398a"/>
        <path id="Path_259229" data-name="Path 259229" d="M259.818,334.324c-.155.818-.256,1.594-.457,2.343a1.169,1.169,0,1,1-2.245-.629,6.2,6.2,0,0,0,.005-3.466,1.166,1.166,0,0,1,.794-1.544,1.154,1.154,0,0,1,1.439.875C259.563,332.7,259.67,333.529,259.818,334.324Z" transform="translate(-225.649 -266.134)" fill="#29398a"/>
        <path id="Path_259230" data-name="Path 259230" d="M248.617,345.483c-.809-.162-1.635-.281-2.435-.5a1.15,1.15,0,1,1,.618-2.214,6.756,6.756,0,0,0,3.628,0,1.155,1.155,0,1,1,.6,2.23C250.247,345.213,249.445,345.322,248.617,345.483Z" transform="translate(-222.461 -269.32)" fill="#29398a"/>
      </g>
    </g>
  </g>
</svg>
