<svg xmlns="http://www.w3.org/2000/svg" width="50" height="50" viewBox="0 0 50 50">
  <g id="n3" transform="translate(-1265 -1482)">
    <g id="Ellipse_4699" data-name="Ellipse 4699" transform="translate(1265 1482)" fill="#fff" stroke="#fda929" stroke-width="2">
      <circle cx="25" cy="25" r="25" stroke="none"/>
      <circle cx="25" cy="25" r="24" fill="none"/>
    </g>
    <path id="Path_261735" data-name="Path 261735" d="M-2.3-10.184H-.434a1.937,1.937,0,0,0,2.215-2.168,1.875,1.875,0,0,0-.527-1.377,2,2,0,0,0-1.488-.533A2.141,2.141,0,0,0-1.6-13.8a1.394,1.394,0,0,0-.58,1.137H-6.129a4.043,4.043,0,0,1,.75-2.4A4.953,4.953,0,0,1-3.3-16.717a7.112,7.112,0,0,1,2.924-.592,6.988,6.988,0,0,1,4.477,1.3A4.324,4.324,0,0,1,5.73-12.434a3.6,3.6,0,0,1-.674,2.08A4.8,4.8,0,0,1,3.094-8.766,4.587,4.587,0,0,1,5.227-7.271,3.935,3.935,0,0,1,6-4.793,4.4,4.4,0,0,1,4.242-1.137,7.3,7.3,0,0,1-.375.234,7.567,7.567,0,0,1-3.486-.4,4.875,4.875,0,0,1-5.66-2.174,4.6,4.6,0,0,1-6.4-4.746h3.973a1.778,1.778,0,0,0,.633,1.359,2.234,2.234,0,0,0,1.559.574,2.34,2.34,0,0,0,1.664-.58,1.939,1.939,0,0,0,.621-1.482A2.267,2.267,0,0,0,1.406-6.7,2.694,2.694,0,0,0-.375-7.242H-2.3Z" transform="translate(1290 1515)" fill="#12263f"/>
  </g>
</svg>
