<svg xmlns="http://www.w3.org/2000/svg" width="50" height="50" viewBox="0 0 50 50">
  <g id="n6" transform="translate(-1265 -1482)">
    <g id="Ellipse_4699" data-name="Ellipse 4699" transform="translate(1265 1482)" fill="#fff" stroke="#fda929" stroke-width="2">
      <circle cx="25" cy="25" r="25" stroke="none"/>
      <circle cx="25" cy="25" r="24" fill="none"/>
    </g>
    <path id="Path_261736" data-name="Path 261736" d="M3.633-17.309V-14.2H3.457A5.929,5.929,0,0,0-.182-13.143,4.478,4.478,0,0,0-1.934-10.2a4.618,4.618,0,0,1,3.375-1.312A4.308,4.308,0,0,1,4.969-9.891,6.523,6.523,0,0,1,6.281-5.648,5.973,5.973,0,0,1,5.514-2.66,5.477,5.477,0,0,1,3.369-.533,6.162,6.162,0,0,1,.316.234,6.369,6.369,0,0,1-2.93-.592,5.68,5.68,0,0,1-5.156-2.953a7.776,7.776,0,0,1-.82-3.539V-8.074a9.85,9.85,0,0,1,1.131-4.74,8.2,8.2,0,0,1,3.229-3.3,9.231,9.231,0,0,1,4.652-1.2ZM.07-8.484a2.26,2.26,0,0,0-1.312.363,2.306,2.306,0,0,0-.785.891v1.184q0,3.234,2.238,3.234a1.816,1.816,0,0,0,1.506-.809,3.3,3.3,0,0,0,.6-2.027,3.235,3.235,0,0,0-.615-2.045A1.968,1.968,0,0,0,.07-8.484Z" transform="translate(1290 1515)" fill="#12263f"/>
  </g>
</svg>
