<svg xmlns="http://www.w3.org/2000/svg" width="50" height="50" viewBox="0 0 50 50">
  <g id="n8" transform="translate(-1265 -1482)">
    <g id="Ellipse_4699" data-name="Ellipse 4699" transform="translate(1265 1482)" fill="#fff" stroke="#fda929" stroke-width="2">
      <circle cx="25" cy="25" r="25" stroke="none"/>
      <circle cx="25" cy="25" r="24" fill="none"/>
    </g>
    <path id="Path_261740" data-name="Path 261740" d="M5.6-12.5a3.939,3.939,0,0,1-.615,2.191A4.481,4.481,0,0,1,3.293-8.789,4.931,4.931,0,0,1,5.227-7.154,4.219,4.219,0,0,1,5.941-4.7,4.465,4.465,0,0,1,4.365-1.09,6.545,6.545,0,0,1,.023.234,6.665,6.665,0,0,1-4.359-1.1,4.434,4.434,0,0,1-5.965-4.7a4.271,4.271,0,0,1,.7-2.426A4.781,4.781,0,0,1-3.27-8.789,4.506,4.506,0,0,1-4.98-10.312,3.912,3.912,0,0,1-5.6-12.5,4.378,4.378,0,0,1-4.09-16.02,6.077,6.077,0,0,1-.012-17.309a6.114,6.114,0,0,1,4.1,1.289A4.378,4.378,0,0,1,5.6-12.5ZM1.98-5.016a2.253,2.253,0,0,0-.545-1.623A1.9,1.9,0,0,0,0-7.207a1.917,1.917,0,0,0-1.441.568,2.238,2.238,0,0,0-.551,1.623A2.257,2.257,0,0,0-1.436-3.4a1.91,1.91,0,0,0,1.459.592A1.836,1.836,0,0,0,1.441-3.4,2.3,2.3,0,0,0,1.98-5.016ZM-.012-14.262a1.459,1.459,0,0,0-1.213.521,2.263,2.263,0,0,0-.416,1.447,2.4,2.4,0,0,0,.422,1.477,1.456,1.456,0,0,0,1.242.563,1.4,1.4,0,0,0,1.213-.562,2.474,2.474,0,0,0,.4-1.477,2.268,2.268,0,0,0-.416-1.441A1.479,1.479,0,0,0-.012-14.262Z" transform="translate(1290 1515)" fill="#12263f"/>
  </g>
</svg>
