<svg xmlns="http://www.w3.org/2000/svg" width="50" height="50" viewBox="0 0 50 50">
  <g id="n9" transform="translate(-1265 -1482)">
    <g id="Ellipse_4699" data-name="Ellipse 4699" transform="translate(1265 1482)" fill="#fff" stroke="#fda929" stroke-width="2">
      <circle cx="25" cy="25" r="25" stroke="none"/>
      <circle cx="25" cy="25" r="24" fill="none"/>
    </g>
    <path id="Path_261741" data-name="Path 261741" d="M1.875-6.6A4.171,4.171,0,0,1-.984-5.449a4.617,4.617,0,0,1-3.68-1.57,6.187,6.187,0,0,1-1.359-4.2,6.3,6.3,0,0,1,.762-3.047,5.716,5.716,0,0,1,2.139-2.227,5.831,5.831,0,0,1,3.041-.82,5.66,5.66,0,0,1,3.053.85,5.72,5.72,0,0,1,2.127,2.4,8.252,8.252,0,0,1,.785,3.58v1.512a10.257,10.257,0,0,1-1.107,4.9A7.645,7.645,0,0,1,1.617-.879,9.868,9.868,0,0,1-3.164.234H-3.41V-2.93l.75-.012Q1.418-3.141,1.875-6.6ZM.082-8.3A1.923,1.923,0,0,0,1.934-9.41v-1.641a4.266,4.266,0,0,0-.551-2.426,1.727,1.727,0,0,0-1.488-.785,1.633,1.633,0,0,0-1.395.891,3.957,3.957,0,0,0-.562,2.156,3.548,3.548,0,0,0,.574,2.127A1.837,1.837,0,0,0,.082-8.3Z" transform="translate(1290 1515)" fill="#12263f"/>
  </g>
</svg>
